<svg width="100" height="40" viewBox="0 0 100 40" fill="none" xmlns="http://www.w3.org/2000/svg">
<g opacity="0.3">
<path d="M11.0563 35.3125C12.3162 30.1133 13.4792 25.1102 14.836 19.8128C13.2853 20.7938 12.0255 21.6767 10.7656 22.4615C10.6687 22.4615 10.5718 22.3634 10.5718 22.3634C11.444 19.028 12.2193 15.5946 13.0915 12.2592C13.1884 12.1611 13.2853 12.063 13.3823 12.063C14.1576 13.044 15.0298 14.025 15.8051 15.006C15.902 14.9079 15.9989 14.9079 16.0958 14.8098C16.5804 12.8478 17.0649 10.7877 17.5495 8.82572C17.7433 7.64853 18.0341 6.47134 18.2279 5.39225C18.4217 4.80366 18.6156 4.50936 19.197 4.60746H90.4281C90.0405 6.37324 89.6528 8.04093 89.2652 9.70862C87.3269 17.9489 85.3886 26.0912 83.5473 34.3315C83.3535 35.2144 82.9658 35.4106 82.1905 35.4106H12.4131C12.0255 35.4106 11.6378 35.3125 11.0563 35.3125ZM38.2889 28.9361C38.6766 28.9361 38.9673 29.0342 39.258 29.0342H82.1905C82.9658 29.0342 83.1596 28.7399 83.3535 28.0532C84.6133 22.6577 85.8732 17.3604 87.1331 11.9649C87.6176 10.0029 88.0053 8.04093 88.4898 5.98085C88.0053 5.98085 87.7145 5.88275 87.4238 5.88275H44.879C44.1037 5.88275 43.8129 6.07895 43.6191 6.86374C42.9407 9.90481 42.1654 12.9459 41.3901 16.0851C41.2932 16.3794 41.2932 16.5756 41.2932 16.968H45.2666C45.2666 17.0661 45.3636 17.1642 45.3636 17.3604C45.0728 17.5566 44.7821 17.8509 44.4913 17.8509C43.5222 17.949 42.65 17.949 41.6809 17.8509C41.0994 17.8509 40.8086 18.047 40.7117 18.6356C40.421 20.009 40.0333 21.4805 39.7426 22.8539C39.258 24.914 38.7735 26.876 38.2889 28.9361ZM37.8043 28.9361C38.6766 25.2083 39.5488 21.5786 40.5179 17.8509H37.8043C38.192 17.3604 38.3858 17.0661 38.5796 16.968C38.7735 16.8699 39.0642 16.8699 39.3549 16.968C40.5179 17.1642 40.9056 16.5756 41.0994 15.5946C41.5839 13.4364 42.1654 11.1801 42.65 9.02192C42.8438 8.04093 43.1346 7.05994 43.3284 5.98085H32.1834C31.9896 5.98085 31.6019 6.47134 31.505 6.76564C31.0204 8.53143 30.6328 10.2972 30.2451 12.063C29.8575 13.6326 29.4698 15.3003 29.0822 16.968C30.0513 16.968 30.8266 17.0661 31.505 17.0661C31.6019 17.1642 31.6019 17.2623 31.6988 17.3604C31.505 17.5566 31.2143 17.8509 31.0204 17.8509C30.6328 17.949 30.2451 17.949 29.8575 17.8509C29.0822 17.7528 28.7914 18.047 28.5976 18.8318C28.3069 20.2052 28.0161 21.4805 27.6285 22.8539C27.1439 24.914 26.6593 26.876 26.1748 29.0342C30.1482 28.9361 33.9278 28.9361 37.8043 28.9361ZM31.1173 5.88275H20.0693C19.7785 5.88275 19.3909 6.27514 19.3909 6.56944C18.6156 9.70862 17.8403 12.8478 17.0649 16.0851C16.968 16.2813 17.0649 16.5756 17.0649 16.7718C17.8403 16.8699 18.5186 16.8699 19.197 16.968C19.197 18.1451 18.3248 17.8509 17.8403 17.7528C16.968 17.6547 16.5804 17.949 16.3866 18.8318C15.9989 20.7938 15.4174 22.7558 15.0298 24.7178C14.739 26.0912 14.4483 27.4646 14.0606 28.9361H23.1705C25.6902 28.9361 25.6902 28.9361 26.2717 26.4836C26.9501 23.6387 27.6285 20.7938 28.3069 17.7528H26.3686C26.1748 17.7528 25.9809 17.5566 25.7871 17.3604C25.9809 17.1642 26.0779 16.8699 26.2717 16.8699C26.7563 16.7718 27.2408 16.7718 27.6285 16.8699C28.2099 16.8699 28.5007 16.6737 28.5976 16.0851C28.9853 14.3193 29.4698 12.4554 29.8575 10.6896C30.342 9.21812 30.7297 7.64853 31.1173 5.88275ZM35.7692 31.5847C35.7692 30.7999 35.1877 30.4076 34.4124 30.7018C34.1216 30.7999 33.734 30.9961 33.6371 30.898C32.9587 30.3095 32.2803 30.5056 31.7957 31.0942C31.2143 31.7809 31.1173 32.6638 31.6988 33.3505C32.0865 33.7429 32.8618 34.2334 33.3463 34.1353C34.6062 34.0372 35.7692 32.5657 35.7692 31.5847ZM13.4792 14.025C12.8977 16.2813 12.4131 18.2432 11.9286 20.3033C12.0255 20.3033 12.0255 20.4014 12.1224 20.4014C13.4792 19.4204 14.9329 18.3413 16.3866 17.2623C15.4174 16.1832 14.5452 15.2022 13.4792 14.025ZM44.1037 32.86C44.1037 31.5847 42.8438 30.4076 42.1654 30.7018C41.487 30.9961 40.8086 31.3885 40.3241 31.879C39.9364 32.2714 39.6457 33.2524 39.8395 33.5467C40.2272 34.0372 41.0025 34.3315 41.6809 34.3315C42.1654 34.4296 42.7469 34.1353 43.1346 33.841C43.6191 33.5467 43.9099 33.0562 44.1037 32.86ZM25.3995 30.4075C24.818 30.7018 24.5273 30.7999 24.2365 30.9961C23.8489 31.2904 23.4612 31.4866 23.1705 31.879C22.8797 32.2714 22.6859 32.7619 22.589 33.1543C22.589 33.3505 23.1705 33.5467 23.4612 33.7429C23.5581 33.841 23.655 33.9391 23.8489 33.9391C24.0427 34.0372 24.3334 34.0372 24.6242 34.0372C24.818 34.0372 24.9149 33.7429 25.1087 33.7429C26.6593 33.6448 26.9501 32.9581 26.0779 31.4866C25.9809 31.3885 26.0779 31.2904 25.9809 31.1923C25.884 31.0942 25.6902 30.7999 25.3995 30.4075ZM14.739 32.3695C15.2236 32.9581 15.7082 33.6448 16.0958 34.2334C16.8711 33.6448 17.6464 32.9581 18.3248 32.4676C17.8403 31.879 17.4526 31.2904 16.968 30.7018C16.2896 31.1923 15.5143 31.7809 14.739 32.3695ZM79.4769 33.1543C79.6708 31.5847 79.7677 31.4866 81.3183 31.5847C81.5121 31.5847 81.7059 31.6828 81.8028 31.6828C81.9967 31.6828 82.2874 31.6828 82.4812 31.5847C82.2874 31.3885 82.0936 31.1923 81.8028 31.0942C81.2214 30.9961 80.6399 30.9961 80.0584 31.0942C79.6708 31.1923 79.1862 31.5847 78.9924 31.879C78.314 33.6448 78.4109 33.7429 80.2522 33.7429H80.543C81.8998 33.7429 81.9967 33.6448 82.0936 32.1733C81.609 32.1733 81.0275 32.2714 80.543 32.2714V32.4676L81.4152 32.7619V33.0562C80.9306 33.1543 80.2522 33.1543 79.4769 33.1543ZM50.5969 31.879C50.2092 31.4866 50.1123 31.1923 49.9185 31.1923C49.1432 31.0942 48.3679 31.0942 47.6895 31.1923C47.4956 31.1923 47.2049 31.4866 47.108 31.6828C46.2358 33.3505 46.5265 33.841 48.3679 33.841H48.9493C50.0154 33.841 50.2092 33.5467 50.1123 32.2714C49.6277 32.2714 49.1432 32.2714 48.6586 32.3695V32.5657C48.9493 32.6638 49.2401 32.86 49.6277 32.9581V33.2524H47.5926C47.4956 31.3885 47.8833 31.2904 50.5969 31.879ZM63.0986 33.7429C63.1955 33.7429 63.3894 33.841 63.4863 33.841C63.6801 32.9581 63.9709 32.0752 64.1647 31.2904C64.0678 31.1923 63.9709 31.1923 63.8739 31.0942C63.2925 31.5847 62.6141 32.1733 62.0326 32.6638C61.6449 32.0752 61.2573 31.5847 60.8696 31.0942C60.7727 31.0942 60.6758 31.1923 60.5789 31.1923C60.3851 32.0752 60.1912 32.86 59.9005 33.7429C59.9974 33.7429 60.0943 33.841 60.1912 33.841C60.3851 33.2524 60.6758 32.7619 60.8696 32.1733C61.2573 32.6638 61.4511 33.0562 61.8388 33.5467C62.4202 33.0562 62.8079 32.6638 63.3894 32.1733C63.2925 32.6638 63.1955 33.1543 63.0986 33.7429ZM56.7993 33.6448C56.5085 32.86 56.3147 32.0752 55.9271 31.3885C55.8302 31.1923 55.2487 31.0942 55.1518 31.1923C54.3765 31.879 53.6981 32.7619 53.0197 33.5467C53.1166 33.6448 53.1166 33.7429 53.2135 33.841C54.3765 32.9581 55.5394 32.7619 56.7993 33.6448ZM74.7282 33.9391C74.8251 33.841 75.0189 33.841 75.1158 33.7429C75.3097 32.86 75.5035 32.0752 75.7942 31.1923C75.6973 31.1923 75.6004 31.0942 75.4066 31.0942C75.2128 31.6828 74.922 32.2714 74.7282 32.9581C74.0498 32.2714 73.3714 31.6828 72.4992 30.898C72.2085 32.0752 72.0146 32.86 71.8208 33.7429C71.9177 33.7429 72.1115 33.841 72.2085 33.841C72.4023 33.2524 72.5961 32.6638 72.9838 31.5847C73.6622 32.4676 74.1467 33.2524 74.7282 33.9391ZM67.3628 33.6448C67.5566 33.7429 67.7505 33.7429 67.8474 33.841C68.0412 32.9581 68.3319 32.0752 68.5258 31.2904C68.3319 31.1923 68.235 31.1923 68.0412 31.0942C67.8474 31.9771 67.5566 32.7619 67.3628 33.6448Z" fill="#0CAD77"/>
<path d="M54.0916 17.5357H49.9992C49.8994 17.4391 49.8994 17.3425 49.7996 17.1492C50.099 16.956 50.2986 16.6661 50.5981 16.6661C51.4964 16.5695 52.4946 16.5695 53.3929 16.6661C53.9918 16.6661 54.2913 16.4729 54.4909 15.8932C55.0898 13.3811 55.7885 10.8689 56.3874 8.35682C56.587 7.58386 56.8865 7.39062 57.685 7.39062H88.0291C88.3285 7.39062 88.628 7.48724 89.0272 7.48724C88.4283 9.61288 87.9293 11.7385 87.4302 13.7675C86.3322 17.9222 85.334 21.9802 84.3359 26.1349C84.1363 26.7146 83.9366 27.0045 83.2379 27.0045H52.6942C52.3948 27.0045 52.1951 27.0045 51.8957 26.9078C52.4946 23.816 53.2931 20.7242 54.0916 17.5357ZM67.467 25.9416C69.2637 25.9416 70.7609 24.589 71.26 22.4633C71.6593 20.9174 72.0585 19.2749 72.4578 17.729C72.9569 15.6999 73.5558 13.5743 74.0548 11.5453C74.2545 10.6757 74.2545 9.80612 73.5558 9.12978C72.7572 8.35682 71.7591 8.35682 70.8607 8.64668C69.4633 9.12978 68.565 9.99936 68.2655 11.352C67.1675 15.3135 66.1694 19.2749 65.1712 23.1397C64.6721 24.7822 65.7701 25.9416 67.467 25.9416ZM60.5797 21.6904C59.7812 21.787 58.783 21.787 58.6832 21.9802C58.3837 22.8498 58.2839 23.816 58.3837 24.6856C58.4835 25.5552 59.3819 25.9416 60.2802 26.0383C61.9771 26.1349 63.674 24.8788 64.1731 23.2363C64.3727 22.4633 64.4725 21.6904 64.772 20.9174C65.3709 19.1783 65.0714 17.729 63.674 16.4729C62.4762 15.4101 62.576 12.0284 63.7738 10.9656C64.0732 10.7723 64.5723 10.5791 64.9716 10.6757C65.1712 10.6757 65.271 11.352 65.271 11.6419C65.271 11.9318 65.1712 12.3182 65.0714 12.898C65.8699 12.8013 66.8681 12.8013 66.8681 12.5115C67.1675 11.6419 67.3672 10.5791 67.0677 9.7095C66.8681 8.7433 65.7701 8.45344 64.772 8.55006C63.2747 8.64668 61.7775 9.80612 61.2784 11.352C61.0788 12.2216 60.8791 13.1878 60.5797 14.0574C60.1804 15.6033 60.4799 16.8594 61.7775 17.9222C63.0751 19.0816 63.0751 22.2701 61.8773 23.5261C61.5778 23.816 61.0788 24.0092 60.6795 23.9126C60.4799 23.816 60.3801 23.2363 60.2802 22.8498C60.2802 22.5599 60.3801 22.2701 60.5797 21.6904ZM80.8423 8.55006H76.9495C76.151 8.55006 75.7517 8.7433 75.5521 9.51626C74.4541 13.8642 73.2563 18.2121 72.1583 22.5599C71.8589 23.6228 71.6593 24.7822 71.3598 25.845C73.2563 26.0383 73.2563 26.0383 73.6556 24.4923L74.8534 19.8546C75.2526 18.2121 75.2526 18.2121 77.0493 18.2121C78.6464 18.2121 78.846 18.0188 78.7462 16.2797H75.8515C76.2508 14.7337 76.7499 13.2844 76.9495 11.8351C77.1491 10.6757 77.6482 10.3858 78.7462 10.4825C80.5429 10.4825 80.5429 10.4825 80.8423 8.55006ZM87.2305 8.55006H83.1381C81.4412 8.55006 81.3414 8.7433 81.3414 10.3858C81.8405 10.3858 82.4394 10.4825 83.0383 10.5791C81.7407 15.7966 80.3432 20.8208 79.0456 25.845C81.042 26.0383 81.042 26.0383 81.4412 24.4923C81.4412 24.3957 81.4412 24.2991 81.541 24.2025C82.639 19.9512 83.737 15.7966 84.835 11.5453C84.9348 11.1588 85.334 10.5791 85.6335 10.4825C87.0309 10.1926 87.1307 10.1926 87.2305 8.55006ZM59.0824 13.9608C58.9826 13.9608 58.9826 13.8642 58.8828 13.8642C57.3856 14.927 55.8883 15.9898 54.3911 17.1492C55.3893 18.3087 56.3874 19.2749 57.3856 20.4343C57.9845 18.1154 58.5834 16.0864 59.0824 13.9608Z" fill="#0CAD77"/>
<path d="M43.4473 25.4204C44.6884 20.4917 45.9294 15.6543 47.2659 10.7256C46.5976 10.6344 46.0248 10.6344 45.4521 10.5431C45.643 8.80893 45.643 8.80893 47.2659 8.80893H51.1799C51.0844 9.90419 51.0844 10.8169 49.6524 10.6344C49.4615 10.6344 48.9842 11.0907 48.9842 11.3645C47.8386 15.6543 46.6931 19.9441 45.643 24.3251C45.1657 25.6942 45.1657 25.7854 43.4473 25.4204ZM34.1874 16.2932H37.1468C37.0513 18.0274 37.0513 18.0274 35.333 18.0274C33.5192 18.0274 33.8055 17.7535 33.3282 19.4877C32.9464 20.8568 32.66 22.2258 32.2781 23.6862H35.142C35.0466 25.4204 35.0466 25.4204 33.4237 25.4204H30.0825C30.0825 25.0553 30.0825 24.7815 30.1779 24.5076C31.419 19.579 32.7554 14.6503 33.9965 9.72165C34.1874 8.99147 34.4738 8.71766 35.333 8.80893C36.574 8.9002 37.815 8.80893 39.247 8.80893C39.056 9.44783 38.9606 9.99546 38.7696 10.5431H36.4785C36.1921 10.5431 35.7148 10.7256 35.7148 10.9994C35.0466 12.7336 34.6647 14.3765 34.1874 16.2932ZM17.5768 25.6029C18.9133 20.583 20.0588 15.8368 21.2999 11.182C21.8726 8.80893 21.8726 8.80893 24.4501 8.9002C26.2639 8.99147 27.1231 9.99546 26.6458 11.6383C26.1685 13.4638 26.1685 15.3805 24.832 16.9321C24.7365 17.0234 24.7365 17.2059 24.7365 17.2972C25.4048 19.4877 24.2592 21.4044 23.6864 23.3211C23.4 24.4164 22.3499 25.1465 21.1089 25.3291C20.0588 25.5116 18.9133 25.5116 17.5768 25.6029ZM19.9634 23.5949C20.918 23.8687 21.6817 23.7775 21.9681 23.0473C22.4454 21.6782 22.8273 20.3091 23.1137 18.8488C23.1137 18.6663 22.7318 18.1186 22.5409 18.1186C22.159 18.0274 21.4908 18.2099 21.3953 18.3924C20.8225 20.1266 20.4407 21.8608 19.9634 23.5949ZM21.8726 16.1107C22.7318 16.4757 23.4955 16.2932 23.6864 15.563C24.1637 14.194 24.4501 12.7336 24.7365 11.3645C24.7365 11.182 24.4501 10.7256 24.1637 10.6344C23.8774 10.5431 23.3046 10.7256 23.2091 10.9082C22.7318 12.6423 22.3499 14.3765 21.8726 16.1107ZM69.4133 11.4558C69.0315 12.7336 68.7451 13.8289 68.4587 14.8329C67.7905 17.2972 67.2177 19.7615 66.5494 22.1346C66.454 22.5909 66.2631 23.0473 65.9767 23.3211C65.6903 23.5037 65.213 23.5949 64.8311 23.5949C64.6402 23.5949 64.4493 22.956 64.5447 22.6822C65.4039 19.1226 66.3585 15.563 67.4086 12.0034C67.5041 11.6383 67.8859 11.182 68.3633 10.9994C68.5542 10.9994 69.0315 11.3645 69.4133 11.4558Z" fill="#0CAD77"/>
</g>
</svg>
