<svg width="115" height="24" viewBox="0 0 115 24" fill="none" xmlns="http://www.w3.org/2000/svg">
<path d="M23.6344 14.9021C22.0134 21.3336 15.5295 25.2553 9.09794 23.6344C2.66636 22.0134 -1.25532 15.5295 0.365644 9.09795C1.98661 2.66637 8.47047 -1.25532 14.902 0.365644C21.3336 1.93432 25.2553 8.47048 23.6344 14.9021Z" fill="#0C483C"/>
<path d="M16.9669 10.0517C17.2173 8.44828 16.0154 7.62069 14.463 7.05172L14.9638 4.93103L13.7119 4.62069L13.2111 6.68965C12.8606 6.58621 12.5601 6.53448 12.2096 6.43103L12.7103 4.31034L11.4584 4L10.9576 6.12069C10.7072 6.06896 10.4068 6.01724 10.1564 5.91379L8.40369 5.44828L8.05316 6.84483C8.05316 6.84483 9.00462 7.05172 8.95455 7.10345C9.45532 7.25862 9.55548 7.56897 9.55548 7.87931L8.95455 10.3103C9.00462 10.3103 9.05469 10.3103 9.10477 10.3621C9.05469 10.3621 9.00462 10.3621 8.95455 10.3103L8.15331 13.7241C8.10323 13.8793 7.95301 14.1379 7.55239 14.0345L6.651 13.7759L6 15.2759L7.65254 15.6897C7.953 15.7931 8.25347 15.8448 8.55393 15.9483L8.05316 18.1207L9.30509 18.431L9.80586 16.3103C10.1564 16.4138 10.5069 16.5172 10.8074 16.569L10.3066 18.6897L11.5586 19L12.0593 16.8276C14.2126 17.2414 15.8151 17.0862 16.5162 15.069C17.067 13.4655 16.4661 12.5345 15.3644 11.9138C16.1656 11.8103 16.7666 11.2414 16.9669 10.0517ZM14.0624 14.2414C13.6618 15.8448 11.0578 14.9655 10.1564 14.7586L10.8575 11.9138C11.7088 12.1207 14.463 12.5862 14.0624 14.2414ZM14.463 10.0517C14.1125 11.5 11.9091 10.7759 11.208 10.569L11.859 7.98276C12.51 8.18965 14.8136 8.5 14.463 10.0517Z" fill="#0C1D23"/>
<path d="M35.4258 7.21569C36.4065 7.21569 37.2323 7.37255 37.9032 7.73856C38.6258 8.10458 39.1935 8.57516 39.6581 9.15033C40.1226 9.72549 40.4323 10.4052 40.6903 11.2418C40.8968 12.0261 41 12.8627 41 13.8039C41 15.2157 40.7419 16.5229 40.2258 17.7778C39.7097 19.0327 39.0387 20.1307 38.1613 21.0196C37.2839 21.9608 36.2516 22.6928 35.0645 23.2157C33.8774 23.7386 32.5871 24 31.1935 24C30.9871 24 30.6774 24 30.2645 24C29.8 24 29.2839 23.9477 28.7161 23.8431C28.1484 23.7386 27.529 23.634 26.8581 23.4771C26.1871 23.3203 25.5677 23.1111 25 22.7974L30.2129 0.732026L34.8581 0L33 7.84314C33.4129 7.68627 33.7742 7.52941 34.1871 7.42484C34.5484 7.26797 35.0129 7.21569 35.4258 7.21569ZM31.5548 20.183C32.2774 20.183 32.8968 20.0261 33.5161 19.6601C34.1355 19.2941 34.6516 18.8758 35.1161 18.3007C35.5806 17.7255 35.9419 17.0458 36.2 16.366C36.4581 15.634 36.6129 14.902 36.6129 14.0654C36.6129 13.0719 36.4581 12.3399 36.1484 11.7647C35.8387 11.2418 35.2194 10.9281 34.3936 10.9281C34.1355 10.9281 33.7742 10.9804 33.3097 11.085C32.8452 11.1895 32.4323 11.3987 32.071 11.7124L30.1097 20.0261C30.2129 20.0261 30.3161 20.0784 30.4194 20.0784C30.5226 20.0784 30.6258 20.1307 30.6774 20.1307C30.7806 20.1307 30.8839 20.1307 31.0387 20.1307C31.1936 20.1307 31.3484 20.183 31.5548 20.183Z" fill="#0C483C"/>
<path d="M46.5745 23H42L45.883 7.25503H50.5106L46.5745 23ZM48.8085 5.35123C48.1702 5.35123 47.5851 5.14541 47.0532 4.78523C46.5213 4.42506 46.2553 3.85906 46.2553 3.08725C46.2553 2.67562 46.3617 2.26398 46.5213 1.9038C46.6809 1.54362 46.9468 1.2349 47.2128 0.926175C47.4787 0.668904 47.8511 0.463087 48.2234 0.257271C48.5957 0.102908 49.0213 0 49.4468 0C50.0851 0 50.6702 0.205817 51.2021 0.565996C51.734 0.926175 52 1.49217 52 2.26398C52 2.67562 51.8936 3.08725 51.734 3.44743C51.5745 3.80761 51.3085 4.11633 51.0426 4.42506C50.7766 4.68233 50.4042 4.88814 50.0319 5.04251C49.6064 5.24832 49.234 5.35123 48.8085 5.35123Z" fill="#0C483C"/>
<path d="M53.4505 3.72953L58.1423 3L56.9954 7.68983H62L61.1138 11.3896H56.1092L54.7538 16.9653C54.6495 17.4342 54.5453 17.8511 54.5453 18.268C54.5453 18.6849 54.5974 18.9975 54.7017 19.3102C54.8059 19.6228 55.0145 19.8313 55.3272 19.9876C55.64 20.1439 56.1092 20.2481 56.6826 20.2481C57.1518 20.2481 57.621 20.196 58.0902 20.0918C58.5594 19.9876 58.9764 19.8834 59.4456 19.727L59.7584 23.1663C59.1328 23.3747 58.5072 23.5831 57.7774 23.7395C57.0476 23.8958 56.2135 24 55.2751 24C53.8676 24 52.8249 23.7916 52.043 23.3747C51.261 22.9578 50.7397 22.3846 50.4269 21.6551C50.1141 20.9256 49.9577 20.0918 50.0099 19.206C50.062 18.268 50.1663 17.2779 50.4269 16.2878L53.4505 3.72953Z" fill="#0C483C"/>
<path d="M62 17.0839C62 15.7112 62.2082 14.3913 62.6766 13.177C63.145 11.9627 63.7695 10.854 64.6022 9.95652C65.4349 9.05901 66.4238 8.31988 67.6208 7.79193C68.8178 7.26398 70.119 7 71.5762 7C72.461 7 73.2937 7.10559 74.0223 7.26398C74.7509 7.42236 75.3755 7.68634 76 7.95031L74.4387 11.4876C74.0223 11.3292 73.606 11.1708 73.1896 11.0652C72.7732 10.9068 72.2528 10.854 71.6283 10.854C70.119 10.854 68.974 11.382 68.0892 12.4379C67.2045 13.4938 66.7881 14.8665 66.7881 16.6615C66.7881 17.7174 66.9963 18.5621 67.4647 19.1957C67.9331 19.8292 68.7137 20.146 69.9108 20.146C70.4833 20.146 71.0558 20.0932 71.6283 19.9876C72.1487 19.882 72.6691 19.7236 73.0855 19.5124L73.3978 23.1553C72.8253 23.3665 72.2007 23.5776 71.5242 23.736C70.8476 23.8944 70.0149 24 69.0781 24C67.829 24 66.7881 23.7888 65.9033 23.472C65.0186 23.1025 64.342 22.6273 63.7695 21.9938C63.197 21.3602 62.7807 20.6211 62.5204 19.7764C62.1041 18.8789 62 17.9814 62 17.0839Z" fill="#0C483C"/>
<path d="M82.1644 24C81.0856 24 80.2123 23.8421 79.4418 23.5263C78.6712 23.2105 78.0034 22.7368 77.5411 22.1579C77.0274 21.5789 76.6678 20.8947 76.411 20.0526C76.1541 19.2632 76 18.3684 76 17.3684C76 16.1579 76.2055 14.8947 76.5651 13.6842C76.976 12.4737 77.5411 11.3684 78.2603 10.3684C79.0308 9.36842 79.9555 8.57895 81.0343 7.94737C82.113 7.31579 83.3973 7 84.7842 7C85.8116 7 86.7363 7.15789 87.5068 7.47368C88.2774 7.78947 88.9452 8.26316 89.4589 8.84211C89.9726 9.42105 90.3322 10.1053 90.589 10.9474C90.8459 11.7368 91 12.6316 91 13.6316C91 14.8421 90.7945 16.0526 90.4349 17.3158C90.0753 18.5263 89.5103 19.6316 88.7397 20.6316C88.0206 21.6316 87.0959 22.4211 85.9657 23.0526C84.887 23.6842 83.6027 24 82.1644 24ZM84.3733 10.8947C83.7055 10.8947 83.1404 11.1053 82.6267 11.4737C82.113 11.8421 81.7021 12.3684 81.3938 12.9474C81.0342 13.5263 80.7774 14.2105 80.6233 14.8947C80.4692 15.5789 80.3664 16.2632 80.3664 16.8947C80.3664 17.8947 80.5205 18.6842 80.8288 19.2632C81.137 19.8421 81.7021 20.1053 82.5753 20.1053C83.2432 20.1053 83.8082 19.8947 84.3219 19.5263C84.8356 19.1579 85.2466 18.6316 85.5548 18.0526C85.9144 17.4737 86.1712 16.7895 86.3253 16.1053C86.4795 15.4211 86.5822 14.7368 86.5822 14.1053C86.5822 13.1053 86.4281 12.3158 86.1199 11.7368C85.7603 11.1579 85.1952 10.8947 84.3733 10.8947Z" fill="#0C483C"/>
<path d="M95.5989 23H91L94.9038 7.25503H99.5561L95.5989 23ZM97.7914 5.35123C97.1497 5.35123 96.5615 5.14541 96.0267 4.78523C95.492 4.42506 95.2246 3.85906 95.2246 3.08725C95.2246 2.67562 95.3315 2.26398 95.492 1.9038C95.6524 1.54362 95.9198 1.2349 96.1872 0.926175C96.4545 0.668904 96.8289 0.463087 97.2032 0.257271C97.5775 0.102908 98.0053 0 98.4331 0C99.0749 0 99.6631 0.205817 100.198 0.565996C100.733 0.926175 101 1.49217 101 2.26398C101 2.67562 100.893 3.08725 100.733 3.44743C100.572 3.80761 100.305 4.11633 100.037 4.42506C99.77 4.68233 99.3957 4.88814 99.0214 5.04251C98.6471 5.24832 98.2727 5.35123 97.7914 5.35123Z" fill="#0C483C"/>
<path d="M102.69 8.07348C103.06 7.97125 103.429 7.86901 103.85 7.71565C104.272 7.61342 104.747 7.46006 105.274 7.35783C105.801 7.25559 106.381 7.15335 107.014 7.10224C107.646 7.05112 108.384 7 109.228 7C111.6 7 113.287 7.66454 114.184 9.04473C115.08 10.3738 115.238 12.2141 114.658 14.5655L112.549 23H107.963L109.966 14.7188C110.071 14.2077 110.177 13.6965 110.282 13.2364C110.335 12.7764 110.335 12.3163 110.282 11.9585C110.177 11.6006 110.019 11.2939 109.702 11.0895C109.386 10.885 108.964 10.7316 108.332 10.7316C107.752 10.7316 107.119 10.7827 106.539 10.9361L103.587 23H99L102.69 8.07348Z" fill="#0C483C"/>
</svg>
