<svg width="49" height="14" viewBox="0 0 49 14" fill="none" xmlns="http://www.w3.org/2000/svg">
<path d="M29.9314 7.47453C29.9376 7.9889 29.8682 8.50141 29.7254 8.99572C29.6032 9.42322 29.3985 9.82282 29.1227 10.1721C28.8565 10.4986 28.5179 10.759 28.1335 10.9327C27.7065 11.1226 27.2428 11.2161 26.7755 11.2065C26.508 11.2076 26.2412 11.1804 25.9795 11.1254C25.735 11.0711 25.4965 10.993 25.2675 10.8921V13.5999H23.233V4.12537C23.4161 4.06959 23.6272 4.01635 23.8637 3.96818C24.1002 3.92001 24.352 3.87437 24.6113 3.83634C24.8707 3.79831 25.1378 3.77043 25.4073 3.74761C25.6769 3.72479 25.9363 3.71465 26.1702 3.71465C26.7119 3.70172 27.2515 3.78764 27.7622 3.96818C28.2061 4.13348 28.6087 4.393 28.9421 4.72878C29.2695 5.06484 29.5194 5.46802 29.6745 5.91024C29.8517 6.41257 29.9386 6.9421 29.9314 7.47453ZM27.8461 7.5303C27.8751 6.99059 27.726 6.45625 27.4214 6.00911C27.2725 5.81766 27.0786 5.66571 26.8569 5.56666C26.6351 5.46761 26.3923 5.42453 26.1499 5.4412C25.9668 5.4412 25.7964 5.4412 25.6413 5.46148C25.4862 5.48176 25.3565 5.4919 25.2573 5.50965V9.1884C25.4155 9.28204 25.5869 9.35128 25.7659 9.39376C25.969 9.44843 26.1786 9.47572 26.3889 9.4749C27.3604 9.48166 27.8461 8.83346 27.8461 7.5303Z" fill="#0CAD77"/>
<path d="M31.2689 8.82583C31.2643 9.17332 31.3036 9.52 31.3859 9.8577C31.457 10.1536 31.6094 10.424 31.8259 10.6386C32.0736 10.875 32.3745 11.0488 32.7034 11.1456C32.9002 11.206 33.1019 11.2493 33.3063 11.2749V0.913086H31.2714L31.2689 8.82583Z" fill="#0CAD77"/>
<path d="M38.9009 9.62991V6.55204C38.9084 6.39813 38.8842 6.24434 38.83 6.10005C38.7758 5.95576 38.6926 5.82401 38.5856 5.71285C38.3745 5.50241 38.0058 5.39593 37.4819 5.39593C37.1355 5.39576 36.7896 5.42118 36.4469 5.47199C36.1464 5.51338 35.8507 5.58473 35.5645 5.68495L35.3102 4.03446C35.4297 3.99896 35.5797 3.96094 35.7578 3.91783C35.9358 3.87473 36.1341 3.84178 36.3452 3.80882C36.5563 3.77586 36.7801 3.7505 37.014 3.72515C37.248 3.69979 37.4845 3.6922 37.7235 3.6922C38.2399 3.67819 38.7552 3.74754 39.2493 3.89756C39.6167 4.01243 39.9502 4.21524 40.2208 4.48828C40.4647 4.75383 40.6393 5.07511 40.7294 5.42382C40.8351 5.82332 40.8865 6.23521 40.882 6.64837V10.9103C40.587 10.9736 40.1775 11.0497 39.6537 11.1359C39.0242 11.2307 38.3881 11.2747 37.7515 11.2677" fill="#0CAD77"/>
<path d="M38.7374 9.5584C38.5391 9.5584 38.3331 9.57361 38.1169 9.57361C37.787 9.59066 37.4583 9.52163 37.1633 9.37332C37.0447 9.29777 36.9495 9.191 36.888 9.06483C36.8265 8.93865 36.8012 8.79798 36.8149 8.65837C36.8096 8.50271 36.8512 8.34903 36.9344 8.21722C37.016 8.09629 37.1283 7.99916 37.2599 7.9358C37.4115 7.8636 37.5738 7.81651 37.7406 7.79636C37.9337 7.77239 38.1282 7.76053 38.3229 7.76086C38.4704 7.76086 38.6332 7.76086 38.8112 7.78875C38.9892 7.81664 39.1189 7.82931 39.2053 7.84706V6.41715C39.0302 6.37145 38.8516 6.34007 38.6713 6.32333C38.4179 6.29632 38.1632 6.28362 37.9084 6.2853C37.4965 6.28462 37.0857 6.32711 36.6827 6.41207C36.3123 6.48637 35.9571 6.62267 35.6324 6.81518C35.328 7.00325 35.0761 7.26486 34.9 7.57578C34.7082 7.92848 34.6142 8.32583 34.6279 8.72682C34.6154 9.13755 34.6963 9.54577 34.8644 9.92095C35.0182 10.2381 35.2522 10.5099 35.5434 10.7094C35.8647 10.9205 36.2239 11.0677 36.6013 11.143C37.0513 11.2354 37.51 11.2795 37.9694 11.2748C38.4195 11.2748 38.8315 11.2241 39.2053 11.1962V9.52291C39.0884 9.53305 38.9332 9.54826 38.7374 9.5584Z" fill="#0CAD77"/>
<path d="M44.831 13.6048C45.3326 12.9147 45.7549 12.1705 46.0897 11.3864C46.1025 11.3585 46.1177 11.3331 46.1304 11.3052C46.6611 10.1643 47.1519 8.98796 47.6028 7.77607C48.0538 6.56419 48.4844 5.26526 48.8947 3.87928H46.7814C46.7636 3.96041 46.7407 4.05422 46.7128 4.15817C46.6416 4.43452 46.5627 4.72355 46.4788 5.03032C46.4788 5.06835 46.4559 5.10638 46.4458 5.14441C46.1915 6.05205 45.8024 7.24619 45.3243 8.50118C45.2073 8.20454 45.0878 7.88002 44.9632 7.52761C44.8208 7.12703 44.6809 6.71462 44.5436 6.29038C44.4063 5.86444 44.274 5.44612 44.1494 5.02272C44.0248 4.59932 43.918 4.22409 43.8264 3.86914H41.6598C42.0293 5.16553 42.469 6.44098 42.9771 7.68987C43.4399 8.82062 43.9044 9.84067 44.3706 10.75C44.3632 10.7682 44.3547 10.786 44.3452 10.8032C43.6077 12.4664 43.1119 13.2397 42.8194 13.5921L44.831 13.6048Z" fill="#0CAD77"/>
<path d="M0.149944 7.53035C0.138395 6.95795 0.238593 6.38878 0.444944 5.85451C0.61655 5.40883 0.875954 5.00194 1.20785 4.65784C1.52153 4.34269 1.89732 4.09579 2.31152 3.93273C2.71944 3.7673 3.15538 3.68124 3.59576 3.6792C4.61297 3.6792 5.42927 3.99105 6.0218 4.61727C6.61432 5.2435 6.9144 6.15874 6.9144 7.37316C6.9144 7.48979 6.9144 7.62669 6.9144 7.76107C6.9144 7.89544 6.89406 8.02727 6.88643 8.13883H2.25558C2.27414 8.338 2.33665 8.53062 2.43865 8.70288C2.54065 8.87514 2.67961 9.02278 2.84556 9.13521C3.26204 9.40226 3.7523 9.53176 4.24677 9.50537C4.61704 9.50615 4.98655 9.4722 5.35044 9.40396C5.65374 9.35154 5.95047 9.26653 6.23542 9.15043L6.51006 10.806C6.36816 10.8721 6.22101 10.9264 6.07012 10.9682C5.86965 11.0282 5.66586 11.0764 5.45978 11.1128C5.236 11.1533 4.99697 11.1888 4.74012 11.2142C4.48678 11.2422 4.23211 11.2566 3.97721 11.2573C3.39929 11.2701 2.82428 11.172 2.28355 10.9682C1.83234 10.7965 1.42436 10.5282 1.08832 10.1823C0.770068 9.84516 0.531168 9.44157 0.388989 9.00084C0.231665 8.5264 0.150976 8.03004 0.149944 7.53035ZM4.95118 6.74948C4.94346 6.57735 4.91355 6.40693 4.86218 6.24241C4.81397 6.08226 4.73446 5.93319 4.62823 5.8038C4.51945 5.67255 4.38431 5.56546 4.23151 5.48942C4.04469 5.40253 3.83993 5.36083 3.63389 5.36772C3.43126 5.3626 3.22993 5.40154 3.04391 5.48182C2.88683 5.55578 2.74663 5.66105 2.63194 5.79113C2.51989 5.92173 2.43361 6.07226 2.37764 6.23481C2.31814 6.39945 2.27389 6.56918 2.24541 6.74187L4.95118 6.74948Z" fill="#0CAD77"/>
<path d="M10.1388 11.0721C9.66745 10.1628 9.19191 9.09624 8.71213 7.87252C8.23234 6.64881 7.77544 5.31777 7.34143 3.87939H9.51064C9.60219 4.23434 9.70899 4.61971 9.83359 5.03296C9.9582 5.44622 10.0879 5.86708 10.2201 6.30062C10.3524 6.73416 10.4872 7.13728 10.6194 7.53786C10.7516 7.93844 10.8737 8.29846 11.011 8.63058C11.1305 8.30353 11.2653 7.93844 11.3976 7.53786C11.5298 7.13728 11.6697 6.72402 11.8044 6.30062C11.9392 5.87722 12.0587 5.45636 12.1884 5.03296C12.3181 4.60956 12.4224 4.23434 12.514 3.87939H14.6272C14.1949 5.31946 13.7388 6.6505 13.2591 7.87252C12.7793 9.09455 12.3046 10.1611 11.835 11.0721H10.1388Z" fill="#0CAD77"/>
<path d="M21.9924 7.46168C21.9965 7.98951 21.9105 8.5142 21.7381 9.01329C21.5874 9.46027 21.3439 9.8706 21.0236 10.2176C20.7107 10.5514 20.3301 10.815 19.9072 10.9908C19.4431 11.1789 18.9458 11.272 18.4449 11.2647C17.9491 11.2711 17.4569 11.178 16.9979 10.9908C16.5742 10.815 16.1928 10.5514 15.879 10.2176C15.5591 9.86852 15.3126 9.45901 15.1542 9.01329C14.9769 8.51545 14.8908 7.98989 14.8999 7.46168C14.8892 6.935 14.9754 6.41082 15.1542 5.91513C15.318 5.4731 15.5697 5.06865 15.8943 4.72606C16.2141 4.39885 16.5974 4.14005 17.0208 3.96547C17.4706 3.77999 17.9532 3.68687 18.4398 3.69166C18.9315 3.68593 19.4193 3.77905 19.8741 3.96547C20.296 4.13891 20.677 4.39793 20.993 4.72606C21.3128 5.06946 21.5594 5.47397 21.7178 5.91513C21.9023 6.40988 21.9953 6.93386 21.9924 7.46168ZM19.9072 7.46168C19.9364 6.94059 19.8051 6.42305 19.5308 5.97851C19.4123 5.80413 19.251 5.66293 19.0623 5.56839C18.8735 5.47385 18.6636 5.42913 18.4526 5.43849C18.2409 5.42994 18.0306 5.47499 17.8411 5.56942C17.6517 5.66386 17.4893 5.8046 17.3692 5.97851C17.09 6.4212 16.9558 6.93954 16.9852 7.46168C16.9574 7.98844 17.0914 8.51114 17.3692 8.96005C17.4873 9.13682 17.6489 9.28045 17.8386 9.37721C18.0283 9.47397 18.2397 9.52064 18.4526 9.51275C18.6649 9.52149 18.8759 9.47515 19.0648 9.37828C19.2538 9.2814 19.4144 9.1373 19.5308 8.96005C19.8038 8.50937 19.9349 7.98742 19.9072 7.46168Z" fill="#0CAD77"/>
</svg>
