<svg width="106" height="32" viewBox="0 0 106 32" fill="none" xmlns="http://www.w3.org/2000/svg">
<path fill-rule="evenodd" clip-rule="evenodd" d="M42.3432 14.6891C42.3432 14.7015 42.3171 14.7116 42.2853 14.7116C42.2214 14.7116 42.1158 14.8025 42.1158 14.8574C42.1158 14.8766 42.1055 14.8922 42.093 14.8922C42.0779 14.8922 42.0703 16.721 42.0703 20.3332C42.0703 23.9454 42.0779 25.7741 42.093 25.7741C42.1055 25.7741 42.1158 25.7898 42.1158 25.809C42.1158 25.8638 42.2214 25.9547 42.2853 25.9547C42.3171 25.9547 42.3432 25.9648 42.3432 25.9772C42.3432 25.992 42.7752 25.9998 43.5938 25.9998C44.4125 25.9998 44.8446 25.992 44.8446 25.9772C44.8446 25.9648 44.8706 25.9547 44.9024 25.9547C44.9662 25.9547 45.072 25.8638 45.072 25.809C45.072 25.7898 45.0822 25.7741 45.0947 25.7741C45.1097 25.7741 45.1174 25.0892 45.1174 23.7648V21.7555H47.255H49.3925V23.7648C49.3925 25.0892 49.4003 25.7741 49.4152 25.7741C49.4278 25.7741 49.438 25.7898 49.438 25.809C49.438 25.8638 49.5437 25.9547 49.6075 25.9547C49.6394 25.9547 49.6654 25.9648 49.6654 25.9772C49.6654 25.992 50.0974 25.9998 50.9161 25.9998C51.7347 25.9998 52.1668 25.992 52.1668 25.9772C52.1668 25.9648 52.1928 25.9547 52.2246 25.9547C52.2885 25.9547 52.3942 25.8638 52.3942 25.809C52.3942 25.7898 52.4044 25.7741 52.4169 25.7741C52.432 25.7741 52.4396 23.9454 52.4396 20.3332C52.4396 16.721 52.432 14.8922 52.4169 14.8922C52.4044 14.8922 52.3942 14.8766 52.3942 14.8574C52.3942 14.8025 52.2885 14.7116 52.2246 14.7116C52.1928 14.7116 52.1668 14.7015 52.1668 14.6891C52.1668 14.6743 51.7347 14.6665 50.9161 14.6665C50.0974 14.6665 49.6654 14.6743 49.6654 14.6891C49.6654 14.7015 49.6394 14.7116 49.6075 14.7116C49.5437 14.7116 49.438 14.8025 49.438 14.8574C49.438 14.8766 49.4278 14.8922 49.4152 14.8922C49.4003 14.8922 49.3925 15.5771 49.3925 16.9016V18.9108H47.255H45.1174V16.9016C45.1174 15.5771 45.1097 14.8922 45.0947 14.8922C45.0822 14.8922 45.072 14.8766 45.072 14.8574C45.072 14.8025 44.9662 14.7116 44.9024 14.7116C44.8706 14.7116 44.8446 14.7015 44.8446 14.6891C44.8446 14.6743 44.4125 14.6665 43.5938 14.6665C42.7752 14.6665 42.3432 14.6743 42.3432 14.6891ZM57.397 14.6891C57.397 14.7015 57.3458 14.7116 57.2832 14.7116C57.2207 14.7116 57.1696 14.7218 57.1696 14.7342C57.1696 14.7466 57.1539 14.7568 57.1347 14.7568C57.0774 14.7568 56.9422 14.907 56.9422 14.9706C56.9422 15.002 56.9319 15.0277 56.9194 15.0277C56.9069 15.0277 56.8967 15.048 56.8967 15.0729C56.8967 15.0977 56.8864 15.118 56.874 15.118C56.8614 15.118 56.8512 15.1485 56.8512 15.1858C56.8512 15.223 56.841 15.2535 56.8284 15.2535C56.816 15.2535 56.8057 15.284 56.8057 15.3212C56.8057 15.3584 56.7955 15.389 56.783 15.389C56.7705 15.389 56.7602 15.4194 56.7602 15.4567C56.7602 15.4939 56.75 15.5244 56.7375 15.5244C56.725 15.5244 56.7148 15.5549 56.7148 15.5921C56.7148 15.6294 56.7045 15.6598 56.692 15.6598C56.6795 15.6598 56.6693 15.6904 56.6693 15.7276C56.6693 15.7648 56.659 15.7953 56.6466 15.7953C56.634 15.7953 56.6238 15.8258 56.6238 15.863C56.6238 15.9003 56.6136 15.9308 56.601 15.9308C56.5886 15.9308 56.5783 15.9612 56.5783 15.9985C56.5783 16.0358 56.5681 16.0662 56.5556 16.0662C56.5431 16.0662 56.5328 16.0967 56.5328 16.134C56.5328 16.1712 56.5226 16.2017 56.5101 16.2017C56.4976 16.2017 56.4874 16.222 56.4874 16.2468C56.4874 16.2717 56.4771 16.292 56.4646 16.292C56.4521 16.292 56.4419 16.3225 56.4419 16.3597C56.4419 16.397 56.4316 16.4274 56.4192 16.4274C56.4066 16.4274 56.3964 16.458 56.3964 16.4952C56.3964 16.5324 56.3862 16.5629 56.3736 16.5629C56.3612 16.5629 56.3509 16.5934 56.3509 16.6306C56.3509 16.6679 56.3407 16.6984 56.3282 16.6984C56.3157 16.6984 56.3054 16.7288 56.3054 16.7661C56.3054 16.8034 56.2952 16.8338 56.2827 16.8338C56.2702 16.8338 56.26 16.8643 56.26 16.9016C56.26 16.9388 56.2497 16.9693 56.2372 16.9693C56.2247 16.9693 56.2145 16.9998 56.2145 17.037C56.2145 17.0743 56.2042 17.1048 56.1918 17.1048C56.1792 17.1048 56.169 17.1352 56.169 17.1725C56.169 17.2097 56.1588 17.2402 56.1462 17.2402C56.1338 17.2402 56.1235 17.2707 56.1235 17.308C56.1235 17.3452 56.1133 17.3756 56.1008 17.3756C56.0883 17.3756 56.078 17.396 56.078 17.4208C56.078 17.4456 56.0678 17.466 56.0553 17.466C56.0428 17.466 56.0326 17.4964 56.0326 17.5337C56.0326 17.571 56.0223 17.6014 56.0098 17.6014C55.9973 17.6014 55.9871 17.6319 55.9871 17.6692C55.9871 17.7064 55.9768 17.7369 55.9644 17.7369C55.9518 17.7369 55.9416 17.7674 55.9416 17.8046C55.9416 17.8418 55.9314 17.8724 55.9188 17.8724C55.9064 17.8724 55.8961 17.9028 55.8961 17.9401C55.8961 17.9773 55.8859 18.0078 55.8734 18.0078C55.8609 18.0078 55.8506 18.0383 55.8506 18.0755C55.8506 18.1128 55.8404 18.1432 55.8279 18.1432C55.8154 18.1432 55.8052 18.1738 55.8052 18.211C55.8052 18.2482 55.7949 18.2787 55.7824 18.2787C55.7699 18.2787 55.7597 18.3092 55.7597 18.3464C55.7597 18.3837 55.7494 18.4142 55.737 18.4142C55.7244 18.4142 55.7142 18.4446 55.7142 18.4819C55.7142 18.5192 55.704 18.5496 55.6914 18.5496C55.679 18.5496 55.6687 18.57 55.6687 18.5948C55.6687 18.6196 55.6585 18.64 55.646 18.64C55.6335 18.64 55.6232 18.6704 55.6232 18.7077C55.6232 18.7449 55.613 18.7754 55.6005 18.7754C55.588 18.7754 55.5778 18.8059 55.5778 18.8431C55.5778 18.8804 55.5676 18.9108 55.555 18.9108C55.5425 18.9108 55.5323 18.9414 55.5323 18.9786C55.5323 19.0158 55.522 19.0463 55.5096 19.0463C55.497 19.0463 55.4868 19.0768 55.4868 19.114C55.4868 19.1513 55.4766 19.1818 55.464 19.1818C55.4516 19.1818 55.4413 19.2122 55.4413 19.2495C55.4413 19.2868 55.4311 19.3172 55.4186 19.3172C55.4061 19.3172 55.3958 19.3477 55.3958 19.385C55.3958 19.4222 55.3856 19.4527 55.3731 19.4527C55.3606 19.4527 55.3504 19.4832 55.3504 19.5204C55.3504 19.5577 55.3402 19.5882 55.3276 19.5882C55.3151 19.5882 55.3049 19.6186 55.3049 19.6559C55.3049 19.6931 55.2946 19.7236 55.2822 19.7236C55.2696 19.7236 55.2594 19.7439 55.2594 19.7688C55.2594 19.7936 55.2492 19.8139 55.2367 19.8139C55.2242 19.8139 55.2139 19.8444 55.2139 19.8816C55.2139 19.9189 55.2037 19.9494 55.1912 19.9494C55.1787 19.9494 55.1684 19.9798 55.1684 20.0171C55.1684 20.0544 55.1582 20.0848 55.1457 20.0848C55.1332 20.0848 55.123 20.1153 55.123 20.1526C55.123 20.1898 55.1128 20.2203 55.1002 20.2203C55.0877 20.2203 55.0775 20.2508 55.0775 20.288C55.0775 20.3252 55.0672 20.3558 55.0548 20.3558C55.0422 20.3558 55.032 20.3862 55.032 20.4235C55.032 20.4607 55.0218 20.4912 55.0093 20.4912C54.9968 20.4912 54.9865 20.5217 54.9865 20.5589C54.9865 20.5962 54.9763 20.6266 54.9638 20.6266C54.9513 20.6266 54.941 20.6572 54.941 20.6944C54.941 20.7316 54.9308 20.7621 54.9183 20.7621C54.9058 20.7621 54.8956 20.7926 54.8956 20.8298C54.8956 20.8671 54.8854 20.8976 54.8728 20.8976C54.8603 20.8976 54.8501 20.9179 54.8501 20.9427C54.8501 20.9676 54.8398 20.9879 54.8274 20.9879C54.8148 20.9879 54.8046 21.0184 54.8046 21.0556C54.8046 21.0928 54.7944 21.1234 54.7819 21.1234C54.7694 21.1234 54.7591 21.1538 54.7591 21.1911C54.7591 21.2283 54.7489 21.2588 54.7364 21.2588C54.7239 21.2588 54.7136 21.2893 54.7136 21.3265C54.7136 21.3638 54.7034 21.3942 54.6909 21.3942C54.6784 21.3942 54.6682 21.4248 54.6682 21.462C54.6682 21.4992 54.658 21.5297 54.6454 21.5297C54.6329 21.5297 54.6227 21.5602 54.6227 21.5974C54.6227 21.6347 54.6124 21.6652 54.6 21.6652C54.5874 21.6652 54.5772 21.6956 54.5772 21.7329C54.5772 21.7702 54.567 21.8006 54.5545 21.8006C54.542 21.8006 54.5317 21.8311 54.5317 21.8684C54.5317 21.9056 54.5215 21.9361 54.509 21.9361C54.4965 21.9361 54.4862 21.9666 54.4862 22.0038C54.4862 22.0411 54.476 22.0716 54.4635 22.0716C54.451 22.0716 54.4408 22.0918 54.4408 22.1167C54.4408 22.1416 54.4306 22.1618 54.418 22.1618C54.4055 22.1618 54.3953 22.1923 54.3953 22.2296C54.3953 22.2668 54.385 22.2973 54.3726 22.2973C54.36 22.2973 54.3498 22.3278 54.3498 22.365C54.3498 22.4023 54.3396 22.4328 54.3271 22.4328C54.3146 22.4328 54.3044 22.4632 54.3044 22.5005C54.3044 22.5378 54.2941 22.5682 54.2816 22.5682C54.2691 22.5682 54.2588 22.5987 54.2588 22.636C54.2588 22.6732 54.2486 22.7037 54.2361 22.7037C54.2236 22.7037 54.2134 22.7342 54.2134 22.7714C54.2134 22.8086 54.2032 22.8392 54.1906 22.8392C54.1781 22.8392 54.1679 22.8696 54.1679 22.9069C54.1679 22.9441 54.1576 22.9746 54.1452 22.9746C54.1326 22.9746 54.1224 23.0051 54.1224 23.0423C54.1224 23.0796 54.1122 23.11 54.0997 23.11C54.0872 23.11 54.077 23.1406 54.077 23.1778C54.077 23.215 54.0667 23.2455 54.0542 23.2455C54.0417 23.2455 54.0314 23.2658 54.0314 23.2907C54.0314 23.3155 54.0212 23.3358 54.0087 23.3358C53.9962 23.3358 53.986 23.3663 53.986 23.4036C53.986 23.4408 53.9758 23.4713 53.9632 23.4713C53.9507 23.4713 53.9405 23.5018 53.9405 23.539C53.9405 23.5762 53.9302 23.6068 53.9178 23.6068C53.9052 23.6068 53.895 23.6372 53.895 23.6745C53.895 23.7117 53.8848 23.7422 53.8723 23.7422C53.8598 23.7422 53.8496 23.7727 53.8496 23.8099C53.8496 23.8472 53.8393 23.8776 53.8268 23.8776C53.8143 23.8776 53.804 23.9082 53.804 23.9454C53.804 23.9826 53.7938 24.0131 53.7813 24.0131C53.7688 24.0131 53.7586 24.0436 53.7586 24.0808C53.7586 24.1181 53.7484 24.1486 53.7358 24.1486C53.7233 24.1486 53.7131 24.179 53.7131 24.2163C53.7131 24.2536 53.7028 24.284 53.6904 24.284C53.6778 24.284 53.6676 24.3145 53.6676 24.3518C53.6676 24.389 53.6574 24.4195 53.6449 24.4195C53.6324 24.4195 53.6222 24.4398 53.6222 24.4646C53.6222 24.4895 53.6119 24.5098 53.5994 24.5098C53.5869 24.5098 53.5766 24.5403 53.5766 24.5775C53.5766 24.6148 53.5664 24.6452 53.5539 24.6452C53.5414 24.6452 53.5312 24.6757 53.5312 24.713C53.5312 24.7502 53.521 24.7807 53.5084 24.7807C53.4959 24.7807 53.4857 24.8112 53.4857 24.8484C53.4857 24.8857 53.4754 24.9162 53.463 24.9162C53.4504 24.9162 53.4402 24.9466 53.4402 24.9839C53.4402 25.0212 53.43 25.0516 53.4175 25.0516C53.405 25.0516 53.3948 25.0821 53.3948 25.1194C53.3948 25.1566 53.3845 25.1871 53.372 25.1871C53.3595 25.1871 53.3492 25.2176 53.3492 25.2548C53.3492 25.292 53.339 25.3226 53.3265 25.3226C53.314 25.3226 53.3038 25.353 53.3038 25.3903C53.3038 25.4275 53.2936 25.458 53.281 25.458C53.2685 25.458 53.2583 25.4885 53.2583 25.5257C53.2583 25.563 53.248 25.5934 53.2356 25.5934C53.223 25.5934 53.2128 25.6442 53.2128 25.7064C53.2128 25.7684 53.223 25.8192 53.2356 25.8192C53.248 25.8192 53.2583 25.8396 53.2583 25.8644C53.2583 25.8945 53.2734 25.9095 53.3038 25.9095C53.3288 25.9095 53.3492 25.9197 53.3492 25.9321C53.3492 25.9445 53.3697 25.9547 53.3948 25.9547C53.4198 25.9547 53.4402 25.9648 53.4402 25.9772C53.4402 25.992 53.8874 25.9998 54.7364 25.9998C55.5854 25.9998 56.0326 25.992 56.0326 25.9772C56.0326 25.9648 56.053 25.9547 56.078 25.9547C56.103 25.9547 56.1235 25.9445 56.1235 25.9321C56.1235 25.9197 56.1396 25.9095 56.1592 25.9095C56.2052 25.9095 56.26 25.8552 56.26 25.8096C56.26 25.79 56.2702 25.7741 56.2827 25.7741C56.2952 25.7741 56.3054 25.7538 56.3054 25.7289C56.3054 25.7041 56.3157 25.6838 56.3282 25.6838C56.3407 25.6838 56.3509 25.6533 56.3509 25.616C56.3509 25.5788 56.3612 25.5483 56.3736 25.5483C56.3862 25.5483 56.3964 25.5077 56.3964 25.458C56.3964 25.4083 56.4066 25.3677 56.4192 25.3677C56.4316 25.3677 56.4419 25.3372 56.4419 25.3C56.4419 25.2627 56.4521 25.2322 56.4646 25.2322C56.4771 25.2322 56.4874 25.2018 56.4874 25.1645C56.4874 25.1272 56.4976 25.0968 56.5101 25.0968C56.5226 25.0968 56.5328 25.0562 56.5328 25.0065C56.5328 24.9568 56.5431 24.9162 56.5556 24.9162C56.5681 24.9162 56.5783 24.8857 56.5783 24.8484C56.5783 24.8112 56.5886 24.7807 56.601 24.7807C56.6136 24.7807 56.6238 24.7502 56.6238 24.713C56.6238 24.6757 56.634 24.6452 56.6466 24.6452C56.659 24.6452 56.6693 24.6148 56.6693 24.5775C56.6693 24.5403 56.6795 24.5098 56.692 24.5098C56.7045 24.5098 56.7148 24.4692 56.7148 24.4195C56.7148 24.3698 56.725 24.3292 56.7375 24.3292C56.75 24.3292 56.7602 24.2987 56.7602 24.2614C56.7602 24.2242 56.7705 24.1937 56.783 24.1937C56.7955 24.1937 56.8057 24.1632 56.8057 24.126C56.8057 24.0888 56.816 24.0583 56.8284 24.0583C56.841 24.0583 56.8512 24.038 56.8512 24.0131C56.8512 23.9683 56.8664 23.968 58.7288 23.968C60.802 23.968 60.6715 23.9582 60.6715 24.1131C60.6715 24.1574 60.6817 24.1937 60.6942 24.1937C60.7068 24.1937 60.717 24.2242 60.717 24.2614C60.717 24.2987 60.7272 24.3292 60.7397 24.3292C60.7522 24.3292 60.7624 24.3596 60.7624 24.3969C60.7624 24.4342 60.7727 24.4646 60.7852 24.4646C60.7977 24.4646 60.808 24.5053 60.808 24.555C60.808 24.6046 60.8182 24.6452 60.8307 24.6452C60.8432 24.6452 60.8534 24.6757 60.8534 24.713C60.8534 24.7502 60.8636 24.7807 60.8762 24.7807C60.8886 24.7807 60.8989 24.8112 60.8989 24.8484C60.8989 24.8857 60.9091 24.9162 60.9216 24.9162C60.9342 24.9162 60.9444 24.9466 60.9444 24.9839C60.9444 25.0212 60.9546 25.0516 60.9671 25.0516C60.9796 25.0516 60.9898 25.0922 60.9898 25.1419C60.9898 25.1916 61.0001 25.2322 61.0126 25.2322C61.0251 25.2322 61.0354 25.2627 61.0354 25.3C61.0354 25.3372 61.0456 25.3677 61.0581 25.3677C61.0706 25.3677 61.0808 25.3982 61.0808 25.4354C61.0808 25.4727 61.091 25.5032 61.1036 25.5032C61.116 25.5032 61.1263 25.5438 61.1263 25.5934C61.1263 25.6431 61.1365 25.6838 61.149 25.6838C61.1616 25.6838 61.1718 25.7041 61.1718 25.7289C61.1718 25.7538 61.182 25.7741 61.1945 25.7741C61.207 25.7741 61.2172 25.79 61.2172 25.8096C61.2172 25.8552 61.272 25.9095 61.318 25.9095C61.3376 25.9095 61.3537 25.9197 61.3537 25.9321C61.3537 25.9445 61.3742 25.9547 61.3992 25.9547C61.4242 25.9547 61.4446 25.9648 61.4446 25.9772C61.4446 25.992 61.8919 25.9998 62.7408 25.9998C63.5898 25.9998 64.037 25.992 64.037 25.9772C64.037 25.9648 64.0633 25.9547 64.0954 25.9547C64.1613 25.9547 64.2189 25.908 64.2189 25.8547C64.2189 25.8352 64.2292 25.8192 64.2416 25.8192C64.2542 25.8192 64.2644 25.7684 64.2644 25.7064C64.2644 25.6442 64.2542 25.5934 64.2416 25.5934C64.2292 25.5934 64.2189 25.5528 64.2189 25.5032C64.2189 25.4535 64.2087 25.4128 64.1962 25.4128C64.1837 25.4128 64.1734 25.3824 64.1734 25.3451C64.1734 25.3079 64.1632 25.2774 64.1507 25.2774C64.1382 25.2774 64.128 25.2571 64.128 25.2322C64.128 25.2074 64.1177 25.1871 64.1052 25.1871C64.0927 25.1871 64.0825 25.1566 64.0825 25.1194C64.0825 25.0821 64.0722 25.0516 64.0598 25.0516C64.0472 25.0516 64.037 25.0212 64.037 24.9839C64.037 24.9466 64.0268 24.9162 64.0142 24.9162C64.0018 24.9162 63.9915 24.8857 63.9915 24.8484C63.9915 24.8112 63.9813 24.7807 63.9688 24.7807C63.9563 24.7807 63.946 24.7502 63.946 24.713C63.946 24.6757 63.9358 24.6452 63.9233 24.6452C63.9108 24.6452 63.9006 24.6148 63.9006 24.5775C63.9006 24.5403 63.8903 24.5098 63.8778 24.5098C63.8653 24.5098 63.8551 24.4793 63.8551 24.442C63.8551 24.4048 63.8448 24.3744 63.8324 24.3744C63.8198 24.3744 63.8096 24.3438 63.8096 24.3066C63.8096 24.2694 63.7994 24.2389 63.7868 24.2389C63.7744 24.2389 63.7641 24.2084 63.7641 24.1712C63.7641 24.1339 63.7539 24.1034 63.7414 24.1034C63.7289 24.1034 63.7186 24.0831 63.7186 24.0583C63.7186 24.0334 63.7084 24.0131 63.6959 24.0131C63.6834 24.0131 63.6732 23.9826 63.6732 23.9454C63.6732 23.9082 63.6629 23.8776 63.6504 23.8776C63.6379 23.8776 63.6277 23.8472 63.6277 23.8099C63.6277 23.7727 63.6174 23.7422 63.605 23.7422C63.5924 23.7422 63.5822 23.7117 63.5822 23.6745C63.5822 23.6372 63.572 23.6068 63.5594 23.6068C63.547 23.6068 63.5367 23.5762 63.5367 23.539C63.5367 23.5018 63.5265 23.4713 63.514 23.4713C63.5015 23.4713 63.4912 23.4408 63.4912 23.4036C63.4912 23.3663 63.481 23.3358 63.4685 23.3358C63.456 23.3358 63.4458 23.3054 63.4458 23.2681C63.4458 23.2308 63.4355 23.2004 63.423 23.2004C63.4105 23.2004 63.4003 23.1699 63.4003 23.1326C63.4003 23.0954 63.39 23.0649 63.3776 23.0649C63.365 23.0649 63.3548 23.0344 63.3548 22.9972C63.3548 22.9599 63.3446 22.9294 63.332 22.9294C63.3196 22.9294 63.3093 22.9091 63.3093 22.8843C63.3093 22.8594 63.2991 22.8392 63.2866 22.8392C63.2741 22.8392 63.2638 22.8086 63.2638 22.7714C63.2638 22.7342 63.2536 22.7037 63.2411 22.7037C63.2286 22.7037 63.2184 22.6732 63.2184 22.636C63.2184 22.5987 63.2081 22.5682 63.1956 22.5682C63.1831 22.5682 63.1729 22.5378 63.1729 22.5005C63.1729 22.4632 63.1626 22.4328 63.1502 22.4328C63.1376 22.4328 63.1274 22.4023 63.1274 22.365C63.1274 22.3278 63.1172 22.2973 63.1046 22.2973C63.0922 22.2973 63.0819 22.2668 63.0819 22.2296C63.0819 22.1923 63.0717 22.1618 63.0592 22.1618C63.0467 22.1618 63.0364 22.1314 63.0364 22.0941C63.0364 22.0569 63.0262 22.0264 63.0137 22.0264C63.0012 22.0264 62.991 21.9959 62.991 21.9586C62.991 21.9214 62.9807 21.891 62.9682 21.891C62.9557 21.891 62.9455 21.8604 62.9455 21.8232C62.9455 21.786 62.9352 21.7555 62.9228 21.7555C62.9102 21.7555 62.9 21.7352 62.9 21.7103C62.9 21.6855 62.8898 21.6652 62.8773 21.6652C62.8648 21.6652 62.8545 21.6347 62.8545 21.5974C62.8545 21.5602 62.8443 21.5297 62.8318 21.5297C62.8193 21.5297 62.809 21.4992 62.809 21.462C62.809 21.4248 62.7988 21.3942 62.7863 21.3942C62.7738 21.3942 62.7636 21.3638 62.7636 21.3265C62.7636 21.2893 62.7534 21.2588 62.7408 21.2588C62.7283 21.2588 62.7181 21.2283 62.7181 21.1911C62.7181 21.1538 62.7078 21.1234 62.6954 21.1234C62.6828 21.1234 62.6726 21.0928 62.6726 21.0556C62.6726 21.0184 62.6624 20.9879 62.6499 20.9879C62.6374 20.9879 62.6271 20.9574 62.6271 20.9202C62.6271 20.8829 62.6169 20.8524 62.6044 20.8524C62.5919 20.8524 62.5816 20.822 62.5816 20.7847C62.5816 20.7474 62.5714 20.717 62.5589 20.717C62.5464 20.717 62.5362 20.6865 62.5362 20.6492C62.5362 20.612 62.526 20.5815 62.5134 20.5815C62.5009 20.5815 62.4907 20.5612 62.4907 20.5364C62.4907 20.5115 62.4804 20.4912 62.468 20.4912C62.4554 20.4912 62.4452 20.4607 62.4452 20.4235C62.4452 20.3862 62.435 20.3558 62.4225 20.3558C62.41 20.3558 62.3997 20.3252 62.3997 20.288C62.3997 20.2508 62.3895 20.2203 62.377 20.2203C62.3645 20.2203 62.3542 20.1898 62.3542 20.1526C62.3542 20.1153 62.344 20.0848 62.3315 20.0848C62.319 20.0848 62.3088 20.0544 62.3088 20.0171C62.3088 19.9798 62.2986 19.9494 62.286 19.9494C62.2735 19.9494 62.2633 19.9189 62.2633 19.8816C62.2633 19.8444 62.253 19.8139 62.2406 19.8139C62.228 19.8139 62.2178 19.7834 62.2178 19.7462C62.2178 19.7089 62.2076 19.6784 62.1951 19.6784C62.1826 19.6784 62.1723 19.648 62.1723 19.6107C62.1723 19.5735 62.1621 19.543 62.1496 19.543C62.1371 19.543 62.1268 19.5125 62.1268 19.4752C62.1268 19.438 62.1166 19.4076 62.1041 19.4076C62.0916 19.4076 62.0814 19.3872 62.0814 19.3624C62.0814 19.3376 62.0712 19.3172 62.0586 19.3172C62.0461 19.3172 62.0359 19.2868 62.0359 19.2495C62.0359 19.2122 62.0256 19.1818 62.0132 19.1818C62.0006 19.1818 61.9904 19.1513 61.9904 19.114C61.9904 19.0768 61.9802 19.0463 61.9677 19.0463C61.9552 19.0463 61.9449 19.0158 61.9449 18.9786C61.9449 18.9414 61.9347 18.9108 61.9222 18.9108C61.9097 18.9108 61.8994 18.8804 61.8994 18.8431C61.8994 18.8059 61.8892 18.7754 61.8767 18.7754C61.8642 18.7754 61.854 18.7449 61.854 18.7077C61.854 18.6704 61.8438 18.64 61.8312 18.64C61.8187 18.64 61.8085 18.6094 61.8085 18.5722C61.8085 18.535 61.7982 18.5045 61.7858 18.5045C61.7732 18.5045 61.763 18.474 61.763 18.4368C61.763 18.3995 61.7528 18.369 61.7403 18.369C61.7278 18.369 61.7175 18.3386 61.7175 18.3013C61.7175 18.264 61.7073 18.2336 61.6948 18.2336C61.6823 18.2336 61.672 18.2132 61.672 18.1884C61.672 18.1636 61.6618 18.1432 61.6493 18.1432C61.6368 18.1432 61.6266 18.1128 61.6266 18.0755C61.6266 18.0383 61.6164 18.0078 61.6038 18.0078C61.5913 18.0078 61.5811 17.9773 61.5811 17.9401C61.5811 17.9028 61.5708 17.8724 61.5584 17.8724C61.5458 17.8724 61.5356 17.8418 61.5356 17.8046C61.5356 17.7674 61.5254 17.7369 61.5129 17.7369C61.5004 17.7369 61.4902 17.7064 61.4902 17.6692C61.4902 17.6319 61.4799 17.6014 61.4674 17.6014C61.4549 17.6014 61.4446 17.571 61.4446 17.5337C61.4446 17.4964 61.4344 17.466 61.4219 17.466C61.4094 17.466 61.3992 17.4355 61.3992 17.3982C61.3992 17.361 61.389 17.3305 61.3764 17.3305C61.3639 17.3305 61.3537 17.3 61.3537 17.2628C61.3537 17.2255 61.3434 17.195 61.331 17.195C61.3184 17.195 61.3082 17.1646 61.3082 17.1273C61.3082 17.0901 61.298 17.0596 61.2855 17.0596C61.273 17.0596 61.2628 17.0393 61.2628 17.0144C61.2628 16.9896 61.2525 16.9693 61.24 16.9693C61.2275 16.9693 61.2172 16.9388 61.2172 16.9016C61.2172 16.8643 61.207 16.8338 61.1945 16.8338C61.182 16.8338 61.1718 16.8034 61.1718 16.7661C61.1718 16.7288 61.1616 16.6984 61.149 16.6984C61.1365 16.6984 61.1263 16.6679 61.1263 16.6306C61.1263 16.5934 61.116 16.5629 61.1036 16.5629C61.091 16.5629 61.0808 16.5324 61.0808 16.4952C61.0808 16.458 61.0706 16.4274 61.0581 16.4274C61.0456 16.4274 61.0354 16.397 61.0354 16.3597C61.0354 16.3225 61.0251 16.292 61.0126 16.292C61.0001 16.292 60.9898 16.2615 60.9898 16.2243C60.9898 16.187 60.9796 16.1566 60.9671 16.1566C60.9546 16.1566 60.9444 16.126 60.9444 16.0888C60.9444 16.0516 60.9342 16.0211 60.9216 16.0211C60.9091 16.0211 60.8989 15.9906 60.8989 15.9534C60.8989 15.9161 60.8886 15.8856 60.8762 15.8856C60.8636 15.8856 60.8534 15.8653 60.8534 15.8405C60.8534 15.8156 60.8432 15.7953 60.8307 15.7953C60.8182 15.7953 60.808 15.7648 60.808 15.7276C60.808 15.6904 60.7977 15.6598 60.7852 15.6598C60.7727 15.6598 60.7624 15.6294 60.7624 15.5921C60.7624 15.5549 60.7522 15.5244 60.7397 15.5244C60.7272 15.5244 60.717 15.4939 60.717 15.4567C60.717 15.4194 60.7068 15.389 60.6942 15.389C60.6817 15.389 60.6715 15.3584 60.6715 15.3212C60.6715 15.284 60.6612 15.2535 60.6488 15.2535C60.6362 15.2535 60.626 15.223 60.626 15.1858C60.626 15.1485 60.6158 15.118 60.6033 15.118C60.5908 15.118 60.5806 15.0876 60.5806 15.0503C60.5806 15.013 60.5703 14.9826 60.5578 14.9826C60.5453 14.9826 60.535 14.967 60.535 14.948C60.535 14.903 60.3878 14.7568 60.3425 14.7568C60.3234 14.7568 60.3076 14.7466 60.3076 14.7342C60.3076 14.7218 60.2565 14.7116 60.194 14.7116C60.1314 14.7116 60.0802 14.7015 60.0802 14.6891C60.0802 14.6743 59.6179 14.6665 58.7386 14.6665C57.8593 14.6665 57.397 14.6743 57.397 14.6891ZM74.816 14.6891C74.816 14.7015 74.7693 14.7116 74.7126 14.7116C74.6213 14.7116 74.5986 14.7228 74.508 14.8126C74.452 14.8682 74.4066 14.9292 74.4066 14.9481C74.4066 14.967 74.396 14.9826 74.384 14.9826C74.3713 14.9826 74.3606 15.0029 74.3606 15.0277C74.3606 15.0526 74.3506 15.0729 74.338 15.0729C74.326 15.0729 74.3153 15.1034 74.3153 15.1406C74.3153 15.1778 74.3053 15.2083 74.2926 15.2083C74.28 15.2083 74.27 15.2388 74.27 15.276C74.27 15.3133 74.26 15.3438 74.2473 15.3438C74.2346 15.3438 74.2246 15.3743 74.2246 15.4115C74.2246 15.4488 74.214 15.4792 74.202 15.4792C74.1893 15.4792 74.1793 15.5097 74.1793 15.547C74.1793 15.5842 74.1686 15.6147 74.156 15.6147C74.144 15.6147 74.1333 15.6452 74.1333 15.6824C74.1333 15.7197 74.1233 15.7502 74.1106 15.7502C74.098 15.7502 74.088 15.7806 74.088 15.8179C74.088 15.8552 74.078 15.8856 74.0653 15.8856C74.0526 15.8856 74.0426 15.9161 74.0426 15.9534C74.0426 15.9906 74.0326 16.0211 74.02 16.0211C74.0073 16.0211 73.9973 16.0414 73.9973 16.0662C73.9973 16.0911 73.9866 16.1114 73.9746 16.1114C73.962 16.1114 73.9513 16.1418 73.9513 16.1791C73.9513 16.2164 73.9413 16.2468 73.9286 16.2468C73.9166 16.2468 73.906 16.2773 73.906 16.3146C73.906 16.3518 73.896 16.3823 73.8833 16.3823C73.8706 16.3823 73.8606 16.4128 73.8606 16.45C73.8606 16.4873 73.8506 16.5178 73.838 16.5178C73.8253 16.5178 73.8153 16.5482 73.8153 16.5855C73.8153 16.6228 73.8046 16.6532 73.7926 16.6532C73.78 16.6532 73.77 16.6837 73.77 16.721C73.77 16.7582 73.7593 16.7887 73.7466 16.7887C73.7346 16.7887 73.724 16.8192 73.724 16.8564C73.724 16.8936 73.714 16.9242 73.7013 16.9242C73.6886 16.9242 73.6786 16.9546 73.6786 16.9918C73.6786 17.0291 73.6686 17.0596 73.656 17.0596C73.6433 17.0596 73.6333 17.0901 73.6333 17.1273C73.6333 17.1646 73.6233 17.195 73.6106 17.195C73.598 17.195 73.588 17.2154 73.588 17.2402C73.588 17.265 73.5773 17.2854 73.5653 17.2854C73.5526 17.2854 73.542 17.3158 73.542 17.3531C73.542 17.3904 73.532 17.4208 73.5193 17.4208C73.5073 17.4208 73.4966 17.4513 73.4966 17.4886C73.4966 17.5258 73.4866 17.5563 73.474 17.5563C73.4613 17.5563 73.4513 17.5868 73.4513 17.624C73.4513 17.6612 73.4413 17.6917 73.4286 17.6917C73.416 17.6917 73.406 17.7222 73.406 17.7594C73.406 17.7967 73.3953 17.8272 73.3833 17.8272C73.3706 17.8272 73.3606 17.8577 73.3606 17.8949C73.3606 17.9322 73.35 17.9626 73.3373 17.9626C73.3253 17.9626 73.3146 17.9931 73.3146 18.0304C73.3146 18.0676 73.3046 18.0981 73.292 18.0981C73.2793 18.0981 73.2693 18.1286 73.2693 18.1658C73.2693 18.2031 73.2593 18.2336 73.2466 18.2336C73.234 18.2336 73.224 18.264 73.224 18.3013C73.224 18.3386 73.214 18.369 73.2013 18.369C73.1886 18.369 73.1786 18.3894 73.1786 18.4142C73.1786 18.439 73.168 18.4593 73.156 18.4593C73.1433 18.4593 73.1326 18.4898 73.1326 18.527C73.1326 18.5643 73.1226 18.5948 73.11 18.5948C73.098 18.5948 73.0873 18.6252 73.0873 18.6625C73.0873 18.6998 73.0773 18.7302 73.0646 18.7302C73.052 18.7302 73.042 18.7607 73.042 18.798C73.042 18.8352 73.032 18.8657 73.0193 18.8657C73.0066 18.8657 72.9966 18.8962 72.9966 18.9334C72.9966 18.9707 72.986 19.0012 72.974 19.0012C72.9613 19.0012 72.9513 19.0316 72.9513 19.0689C72.9513 19.1062 72.9406 19.1366 72.928 19.1366C72.916 19.1366 72.9053 19.1671 72.9053 19.2044C72.9053 19.2416 72.8953 19.2721 72.8826 19.2721C72.8706 19.2721 72.86 19.3026 72.86 19.3398C72.86 19.377 72.85 19.4076 72.8373 19.4076C72.8246 19.4076 72.8146 19.438 72.8146 19.4752C72.8146 19.5125 72.8046 19.543 72.792 19.543C72.7793 19.543 72.7693 19.5633 72.7693 19.5882C72.7693 19.613 72.7586 19.6333 72.7466 19.6333C72.734 19.6333 72.7233 19.6638 72.7233 19.701C72.7233 19.7383 72.7133 19.7688 72.7006 19.7688C72.6886 19.7688 72.678 19.7992 72.678 19.8365C72.678 19.8738 72.668 19.9042 72.6554 19.9042C72.6429 19.9042 72.6327 19.9347 72.6327 19.972C72.6327 20.0092 72.6224 20.0397 72.61 20.0397C72.5974 20.0397 72.5872 20.0702 72.5872 20.1074C72.5872 20.1446 72.577 20.1751 72.5644 20.1751C72.552 20.1751 72.5417 20.2056 72.5417 20.2428C72.5417 20.2801 72.5315 20.3106 72.519 20.3106C72.5065 20.3106 72.4962 20.3411 72.4962 20.3783C72.4962 20.4156 72.486 20.446 72.4735 20.446C72.461 20.446 72.4508 20.4765 72.4508 20.5138C72.4508 20.551 72.4405 20.5815 72.428 20.5815C72.4155 20.5815 72.4053 20.612 72.4053 20.6492C72.4053 20.6865 72.395 20.717 72.3826 20.717C72.37 20.717 72.3598 20.7373 72.3598 20.7621C72.3598 20.787 72.3496 20.8073 72.337 20.8073C72.3246 20.8073 72.3143 20.8378 72.3143 20.875C72.3143 20.9122 72.3041 20.9427 72.2916 20.9427C72.2791 20.9427 72.2688 20.9732 72.2688 21.0104C72.2688 21.0477 72.2586 21.0782 72.2461 21.0782C72.2336 21.0782 72.2234 21.1086 72.2234 21.1459C72.2234 21.1832 72.2131 21.2136 72.2006 21.2136C72.1881 21.2136 72.1779 21.2441 72.1779 21.2814C72.1779 21.3186 72.1676 21.3491 72.1552 21.3491C72.1426 21.3491 72.1324 21.3796 72.1324 21.4168C72.1324 21.4541 72.1222 21.4846 72.1096 21.4846C72.0972 21.4846 72.0869 21.515 72.0869 21.5523C72.0869 21.5896 72.0767 21.62 72.0642 21.62C72.0517 21.62 72.0414 21.6505 72.0414 21.6878C72.0414 21.725 72.0312 21.7555 72.0187 21.7555C72.0062 21.7555 71.996 21.786 71.996 21.8232C71.996 21.8604 71.9857 21.891 71.9732 21.891C71.9607 21.891 71.9505 21.9112 71.9505 21.9361C71.9505 21.9609 71.9402 21.9812 71.9278 21.9812C71.9152 21.9812 71.905 22.0117 71.905 22.049C71.905 22.0862 71.8948 22.1167 71.8822 22.1167C71.8698 22.1167 71.8595 22.1472 71.8595 22.1844C71.8595 22.2217 71.8493 22.2522 71.8368 22.2522C71.8243 22.2522 71.814 22.2826 71.814 22.3199C71.814 22.3572 71.8038 22.3876 71.7913 22.3876C71.7788 22.3876 71.7686 22.4181 71.7686 22.4554C71.7686 22.4926 71.7583 22.5231 71.7458 22.5231C71.7333 22.5231 71.7231 22.5536 71.7231 22.5908C71.7231 22.628 71.7128 22.6585 71.7004 22.6585C71.6878 22.6585 71.6776 22.689 71.6776 22.7262C71.6776 22.7635 71.6674 22.794 71.6548 22.794C71.6424 22.794 71.6321 22.8245 71.6321 22.8617C71.6321 22.899 71.6219 22.9294 71.6094 22.9294C71.5969 22.9294 71.5866 22.9599 71.5866 22.9972C71.5866 23.0344 71.5764 23.0649 71.5639 23.0649C71.5514 23.0649 71.5412 23.0852 71.5412 23.11C71.5412 23.1349 71.5309 23.1552 71.5184 23.1552C71.5059 23.1552 71.4957 23.1857 71.4957 23.223C71.4957 23.2602 71.4854 23.2907 71.473 23.2907C71.4604 23.2907 71.4502 23.3212 71.4502 23.3584C71.4502 23.3956 71.44 23.4261 71.4274 23.4261C71.415 23.4261 71.4047 23.4566 71.4047 23.4938C71.4047 23.5311 71.3945 23.5616 71.382 23.5616C71.3695 23.5616 71.3592 23.592 71.3592 23.6293C71.3592 23.6666 71.349 23.697 71.3365 23.697C71.324 23.697 71.3138 23.7275 71.3138 23.7648C71.3138 23.802 71.3035 23.8325 71.291 23.8325C71.2785 23.8325 71.2683 23.863 71.2683 23.9002C71.2683 23.9375 71.258 23.968 71.2456 23.968C71.233 23.968 71.2228 23.9984 71.2228 24.0357C71.2228 24.073 71.2126 24.1034 71.2 24.1034C71.1876 24.1034 71.1773 24.1339 71.1773 24.1712C71.1773 24.2084 71.1671 24.2389 71.1546 24.2389C71.1421 24.2389 71.1318 24.2592 71.1318 24.284C71.1318 24.3088 71.1216 24.3292 71.1091 24.3292C71.0966 24.3292 71.0864 24.3596 71.0864 24.3969C71.0864 24.4342 71.0761 24.4646 71.0636 24.4646C71.0511 24.4646 71.0409 24.4951 71.0409 24.5324C71.0409 24.5696 71.0306 24.6001 71.0182 24.6001C71.0056 24.6001 70.9954 24.6306 70.9954 24.6678C70.9954 24.7051 70.9852 24.7356 70.9726 24.7356C70.9602 24.7356 70.9499 24.766 70.9499 24.8033C70.9499 24.8406 70.9397 24.871 70.9272 24.871C70.9147 24.871 70.9044 24.9015 70.9044 24.9388C70.9044 24.976 70.8942 25.0065 70.8817 25.0065C70.8692 25.0065 70.859 25.037 70.859 25.0742C70.859 25.1114 70.8487 25.1419 70.8362 25.1419C70.8237 25.1419 70.8135 25.1724 70.8135 25.2096C70.8135 25.2469 70.8032 25.2774 70.7908 25.2774C70.7782 25.2774 70.768 25.3079 70.768 25.3451C70.768 25.3824 70.7578 25.4128 70.7452 25.4128C70.7328 25.4128 70.7225 25.4332 70.7225 25.458C70.7225 25.4828 70.7123 25.5032 70.6998 25.5032C70.6866 25.5032 70.677 25.575 70.677 25.6735C70.677 25.8242 70.6834 25.8502 70.7329 25.8992C70.7636 25.9298 70.8148 25.9547 70.8466 25.9547C70.8784 25.9547 70.9044 25.9648 70.9044 25.9772C70.9044 25.992 71.3441 25.9998 72.1779 25.9998C73.012 25.9998 73.4513 25.992 73.4513 25.9772C73.4513 25.9648 73.4773 25.9547 73.5086 25.9547C73.5733 25.9547 73.724 25.8204 73.724 25.7635C73.724 25.7445 73.7346 25.7289 73.7466 25.7289C73.7593 25.7289 73.77 25.7086 73.77 25.6838C73.77 25.6589 73.78 25.6386 73.7926 25.6386C73.8046 25.6386 73.8153 25.598 73.8153 25.5483C73.8153 25.4986 73.8253 25.458 73.838 25.458C73.8506 25.458 73.8606 25.4275 73.8606 25.3903C73.8606 25.353 73.8706 25.3226 73.8833 25.3226C73.896 25.3226 73.906 25.292 73.906 25.2548C73.906 25.2176 73.9166 25.1871 73.9286 25.1871C73.9413 25.1871 73.9513 25.1464 73.9513 25.0968C73.9513 25.0471 73.962 25.0065 73.9746 25.0065C73.9866 25.0065 73.9973 24.976 73.9973 24.9388C73.9973 24.9015 74.0073 24.871 74.02 24.871C74.0326 24.871 74.0426 24.8406 74.0426 24.8033C74.0426 24.766 74.0526 24.7356 74.0653 24.7356C74.078 24.7356 74.088 24.7051 74.088 24.6678C74.088 24.6306 74.098 24.6001 74.1106 24.6001C74.1233 24.6001 74.1333 24.5594 74.1333 24.5098C74.1333 24.4601 74.144 24.4195 74.156 24.4195C74.1686 24.4195 74.1793 24.389 74.1793 24.3518C74.1793 24.3145 74.1893 24.284 74.202 24.284C74.214 24.284 74.2246 24.2536 74.2246 24.2163C74.2246 24.179 74.2346 24.1486 74.2473 24.1486C74.26 24.1486 74.27 24.108 74.27 24.0583V23.968H76.18H78.09V24.0357C78.09 24.073 78.1006 24.1034 78.1133 24.1034C78.1253 24.1034 78.136 24.1339 78.136 24.1712C78.136 24.2084 78.146 24.2389 78.1586 24.2389C78.1713 24.2389 78.1813 24.2694 78.1813 24.3066C78.1813 24.3438 78.1913 24.3744 78.204 24.3744C78.2166 24.3744 78.2266 24.4048 78.2266 24.442C78.2266 24.4793 78.2366 24.5098 78.2493 24.5098C78.262 24.5098 78.272 24.5504 78.272 24.6001C78.272 24.6498 78.2826 24.6904 78.2946 24.6904C78.3073 24.6904 78.318 24.7209 78.318 24.7582C78.318 24.7954 78.328 24.8258 78.3406 24.8258C78.3526 24.8258 78.3633 24.8564 78.3633 24.8936C78.3633 24.9308 78.3733 24.9613 78.386 24.9613C78.3986 24.9613 78.4086 25.002 78.4086 25.0516C78.4086 25.1013 78.4186 25.1419 78.4313 25.1419C78.444 25.1419 78.454 25.1724 78.454 25.2096C78.454 25.2469 78.4646 25.2774 78.4766 25.2774C78.4893 25.2774 78.4993 25.3079 78.4993 25.3451C78.4993 25.3824 78.51 25.4128 78.5226 25.4128C78.5346 25.4128 78.5453 25.4535 78.5453 25.5032C78.5453 25.5528 78.5553 25.5934 78.568 25.5934C78.58 25.5934 78.5906 25.624 78.5906 25.6612C78.5906 25.6984 78.6006 25.7289 78.6133 25.7289C78.626 25.7289 78.636 25.7445 78.636 25.7635C78.636 25.8204 78.7873 25.9547 78.8513 25.9547C78.8826 25.9547 78.9086 25.9648 78.9086 25.9772C78.9086 25.992 79.356 25.9998 80.2053 25.9998C81.054 25.9998 81.5013 25.992 81.5013 25.9772C81.5013 25.9648 81.5173 25.9547 81.5366 25.9547C81.5906 25.9547 81.6833 25.8501 81.6833 25.7883C81.6833 25.7577 81.696 25.7268 81.7113 25.7195C81.7346 25.709 81.7346 25.7037 81.7113 25.6932C81.6946 25.6852 81.6833 25.6357 81.6833 25.569C81.6833 25.508 81.6726 25.458 81.6606 25.458C81.648 25.458 81.638 25.4377 81.638 25.4128C81.638 25.388 81.6273 25.3677 81.6146 25.3677C81.6026 25.3677 81.592 25.3372 81.592 25.3C81.592 25.2627 81.582 25.2322 81.5693 25.2322C81.5566 25.2322 81.5466 25.2018 81.5466 25.1645C81.5466 25.1272 81.5366 25.0968 81.524 25.0968C81.5113 25.0968 81.5013 25.0663 81.5013 25.029C81.5013 24.9918 81.4913 24.9613 81.4786 24.9613C81.466 24.9613 81.456 24.9308 81.456 24.8936C81.456 24.8564 81.4453 24.8258 81.4333 24.8258C81.4206 24.8258 81.41 24.7954 81.41 24.7582C81.41 24.7209 81.4 24.6904 81.3873 24.6904C81.3753 24.6904 81.3646 24.6599 81.3646 24.6227C81.3646 24.5854 81.3546 24.555 81.342 24.555C81.3293 24.555 81.3193 24.5245 81.3193 24.4872C81.3193 24.45 81.3093 24.4195 81.2966 24.4195C81.284 24.4195 81.274 24.389 81.274 24.3518C81.274 24.3145 81.2633 24.284 81.2513 24.284C81.2386 24.284 81.2286 24.2637 81.2286 24.2389C81.2286 24.214 81.218 24.1937 81.2053 24.1937C81.1933 24.1937 81.1826 24.1632 81.1826 24.126C81.1826 24.0888 81.1726 24.0583 81.16 24.0583C81.1473 24.0583 81.1373 24.0278 81.1373 23.9906C81.1373 23.9533 81.1273 23.9228 81.1146 23.9228C81.102 23.9228 81.092 23.8923 81.092 23.8551C81.092 23.8178 81.082 23.7874 81.0693 23.7874C81.0566 23.7874 81.0466 23.7569 81.0466 23.7196C81.0466 23.6824 81.036 23.6519 81.024 23.6519C81.0113 23.6519 81.0006 23.6214 81.0006 23.5842C81.0006 23.5469 80.9906 23.5164 80.978 23.5164C80.966 23.5164 80.9553 23.486 80.9553 23.4487C80.9553 23.4114 80.9453 23.381 80.9326 23.381C80.92 23.381 80.91 23.3505 80.91 23.3132C80.91 23.276 80.9 23.2455 80.8873 23.2455C80.8746 23.2455 80.8646 23.215 80.8646 23.1778C80.8646 23.1406 80.854 23.11 80.842 23.11C80.8293 23.11 80.8193 23.0898 80.8193 23.0649C80.8193 23.0401 80.8086 23.0198 80.796 23.0198C80.784 23.0198 80.7733 22.9893 80.7733 22.952C80.7733 22.9148 80.7633 22.8843 80.7506 22.8843C80.7386 22.8843 80.728 22.8538 80.728 22.8166C80.728 22.7793 80.718 22.7488 80.7053 22.7488C80.6926 22.7488 80.6826 22.7184 80.6826 22.6811C80.6826 22.6438 80.6726 22.6134 80.66 22.6134C80.6473 22.6134 80.6373 22.5829 80.6373 22.5456C80.6373 22.5084 80.6266 22.4779 80.6146 22.4779C80.602 22.4779 80.5913 22.4474 80.5913 22.4102C80.5913 22.373 80.5813 22.3424 80.5686 22.3424C80.5566 22.3424 80.546 22.312 80.546 22.2748C80.546 22.2375 80.536 22.207 80.5233 22.207C80.5106 22.207 80.5006 22.1765 80.5006 22.1393C80.5006 22.102 80.4906 22.0716 80.478 22.0716C80.4653 22.0716 80.4553 22.0411 80.4553 22.0038C80.4553 21.9666 80.4446 21.9361 80.4326 21.9361C80.42 21.9361 80.41 21.9158 80.41 21.891C80.41 21.8661 80.3993 21.8458 80.3873 21.8458C80.3746 21.8458 80.364 21.8153 80.364 21.778C80.364 21.7408 80.354 21.7103 80.3413 21.7103C80.3293 21.7103 80.3186 21.6798 80.3186 21.6426C80.3186 21.6054 80.3086 21.5748 80.296 21.5748C80.2833 21.5748 80.2733 21.5444 80.2733 21.5072C80.2733 21.4699 80.2633 21.4394 80.2506 21.4394C80.238 21.4394 80.228 21.4089 80.228 21.3717C80.228 21.3344 80.2173 21.304 80.2053 21.304C80.1926 21.304 80.1826 21.2735 80.1826 21.2362C80.1826 21.199 80.172 21.1685 80.1593 21.1685C80.1473 21.1685 80.1366 21.138 80.1366 21.1008C80.1366 21.0635 80.1266 21.033 80.114 21.033C80.1013 21.033 80.0913 21.0026 80.0913 20.9653C80.0913 20.928 80.0813 20.8976 80.0686 20.8976C80.056 20.8976 80.046 20.8671 80.046 20.8298C80.046 20.7926 80.036 20.7621 80.0233 20.7621C80.0106 20.7621 80.0006 20.7418 80.0006 20.717C80.0006 20.6921 79.99 20.6718 79.978 20.6718C79.9653 20.6718 79.9546 20.6414 79.9546 20.6041C79.9546 20.5668 79.9446 20.5364 79.932 20.5364C79.92 20.5364 79.9093 20.5059 79.9093 20.4686C79.9093 20.4314 79.8993 20.4009 79.8866 20.4009C79.874 20.4009 79.864 20.3704 79.864 20.3332C79.864 20.2959 79.854 20.2654 79.8413 20.2654C79.8286 20.2654 79.8186 20.235 79.8186 20.1977C79.8186 20.1604 79.808 20.13 79.796 20.13C79.7833 20.13 79.7733 20.0995 79.7733 20.0622C79.7733 20.025 79.7626 19.9945 79.75 19.9945C79.738 19.9945 79.7273 19.964 79.7273 19.9268C79.7273 19.8896 79.7173 19.859 79.7046 19.859C79.692 19.859 79.682 19.8286 79.682 19.7914C79.682 19.7541 79.672 19.7236 79.6593 19.7236C79.6466 19.7236 79.6366 19.6931 79.6366 19.6559C79.6366 19.6186 79.6266 19.5882 79.614 19.5882C79.6013 19.5882 79.5913 19.5678 79.5913 19.543C79.5913 19.5182 79.5806 19.4978 79.5686 19.4978C79.556 19.4978 79.5453 19.4674 79.5453 19.4301C79.5453 19.3928 79.5353 19.3624 79.5226 19.3624C79.5106 19.3624 79.5 19.3319 79.5 19.2946C79.5 19.2574 79.49 19.2269 79.4773 19.2269C79.4646 19.2269 79.4546 19.1964 79.4546 19.1592C79.4546 19.122 79.4446 19.0915 79.432 19.0915C79.4193 19.0915 79.4093 19.061 79.4093 19.0238C79.4093 18.9865 79.3986 18.956 79.3866 18.956C79.374 18.956 79.364 18.9255 79.364 18.8883C79.364 18.851 79.3533 18.8206 79.3406 18.8206C79.3286 18.8206 79.318 18.7901 79.318 18.7528C79.318 18.7156 79.308 18.6851 79.2953 18.6851C79.2826 18.6851 79.2726 18.6546 79.2726 18.6174C79.2726 18.5801 79.2626 18.5496 79.25 18.5496C79.2373 18.5496 79.2273 18.5192 79.2273 18.4819C79.2273 18.4446 79.2173 18.4142 79.2046 18.4142C79.192 18.4142 79.182 18.3938 79.182 18.369C79.182 18.3442 79.1713 18.3239 79.1593 18.3239C79.1466 18.3239 79.136 18.2934 79.136 18.2562C79.136 18.2189 79.126 18.1884 79.1133 18.1884C79.1013 18.1884 79.0906 18.158 79.0906 18.1207C79.0906 18.0834 79.0806 18.053 79.068 18.053C79.0553 18.053 79.0453 18.0225 79.0453 17.9852C79.0453 17.948 79.0353 17.9175 79.0226 17.9175C79.01 17.9175 79 17.887 79 17.8498C79 17.8125 78.9893 17.782 78.9773 17.782C78.9646 17.782 78.9546 17.7516 78.9546 17.7143C78.9546 17.677 78.944 17.6466 78.9313 17.6466C78.9193 17.6466 78.9086 17.6161 78.9086 17.5788C78.9086 17.5416 78.8986 17.5111 78.886 17.5111C78.874 17.5111 78.8633 17.4806 78.8633 17.4434C78.8633 17.4062 78.8533 17.3756 78.8406 17.3756C78.828 17.3756 78.818 17.3452 78.818 17.308C78.818 17.2707 78.808 17.2402 78.7953 17.2402C78.7826 17.2402 78.7726 17.2199 78.7726 17.195C78.7726 17.1702 78.762 17.1499 78.75 17.1499C78.7373 17.1499 78.7266 17.1194 78.7266 17.0822C78.7266 17.0449 78.7166 17.0144 78.704 17.0144C78.692 17.0144 78.6813 16.984 78.6813 16.9467C78.6813 16.9094 78.6713 16.879 78.6586 16.879C78.646 16.879 78.636 16.8485 78.636 16.8112C78.636 16.774 78.626 16.7435 78.6133 16.7435C78.6006 16.7435 78.5906 16.713 78.5906 16.6758C78.5906 16.6386 78.58 16.6081 78.568 16.6081C78.5553 16.6081 78.5453 16.5776 78.5453 16.5404C78.5453 16.5031 78.5346 16.4726 78.5226 16.4726C78.51 16.4726 78.4993 16.4421 78.4993 16.4049C78.4993 16.3676 78.4893 16.3372 78.4766 16.3372C78.4646 16.3372 78.454 16.3067 78.454 16.2694C78.454 16.2322 78.444 16.2017 78.4313 16.2017C78.4186 16.2017 78.4086 16.1712 78.4086 16.134C78.4086 16.0967 78.3986 16.0662 78.386 16.0662C78.3733 16.0662 78.3633 16.0459 78.3633 16.0211C78.3633 15.9962 78.3526 15.9759 78.3406 15.9759C78.328 15.9759 78.318 15.9454 78.318 15.9082C78.318 15.871 78.3073 15.8405 78.2946 15.8405C78.2826 15.8405 78.272 15.81 78.272 15.7728C78.272 15.7355 78.262 15.705 78.2493 15.705C78.2366 15.705 78.2266 15.6746 78.2266 15.6373C78.2266 15.6 78.2166 15.5696 78.204 15.5696C78.1913 15.5696 78.1813 15.5391 78.1813 15.5018C78.1813 15.4646 78.1713 15.4341 78.1586 15.4341C78.146 15.4341 78.136 15.4036 78.136 15.3664C78.136 15.3291 78.1253 15.2986 78.1133 15.2986C78.1006 15.2986 78.09 15.2682 78.09 15.2309C78.09 15.1936 78.08 15.1632 78.0673 15.1632C78.0553 15.1632 78.0446 15.1327 78.0446 15.0954C78.0446 15.0582 78.0346 15.0277 78.022 15.0277C78.0093 15.0277 77.9993 15.0074 77.9993 14.9826C77.9993 14.9578 77.9893 14.9374 77.9766 14.9374C77.964 14.9374 77.954 14.9217 77.954 14.9026C77.954 14.8574 77.8526 14.7568 77.8073 14.7568C77.788 14.7568 77.772 14.7466 77.772 14.7342C77.772 14.7218 77.7206 14.7116 77.658 14.7116C77.596 14.7116 77.5446 14.7015 77.5446 14.6891C77.5446 14.6742 77.0746 14.6665 76.18 14.6665C75.286 14.6665 74.816 14.6742 74.816 14.6891ZM61.9052 14.7686C61.877 14.7985 61.854 14.8385 61.854 14.8576C61.854 14.8766 61.8438 14.8922 61.8312 14.8922C61.8187 14.8922 61.8085 14.9329 61.8085 14.9826C61.8085 15.0322 61.8187 15.0729 61.8312 15.0729C61.8438 15.0729 61.854 15.1135 61.854 15.1632C61.854 15.2128 61.8642 15.2535 61.8767 15.2535C61.8892 15.2535 61.8994 15.2738 61.8994 15.2986C61.8994 15.3235 61.9097 15.3438 61.9222 15.3438C61.9347 15.3438 61.9449 15.3743 61.9449 15.4115C61.9449 15.4488 61.9552 15.4792 61.9677 15.4792C61.9802 15.4792 61.9904 15.5097 61.9904 15.547C61.9904 15.5842 62.0006 15.6147 62.0132 15.6147C62.0256 15.6147 62.0359 15.6452 62.0359 15.6824C62.0359 15.7197 62.0461 15.7502 62.0586 15.7502C62.0712 15.7502 62.0814 15.7806 62.0814 15.8179C62.0814 15.8552 62.0916 15.8856 62.1041 15.8856C62.1166 15.8856 62.1268 15.9161 62.1268 15.9534C62.1268 15.9906 62.1371 16.0211 62.1496 16.0211C62.1621 16.0211 62.1723 16.0516 62.1723 16.0888C62.1723 16.126 62.1826 16.1566 62.1951 16.1566C62.2076 16.1566 62.2178 16.1768 62.2178 16.2017C62.2178 16.2265 62.228 16.2468 62.2406 16.2468C62.253 16.2468 62.2633 16.2773 62.2633 16.3146C62.2633 16.3518 62.2735 16.3823 62.286 16.3823C62.2986 16.3823 62.3088 16.4128 62.3088 16.45C62.3088 16.4873 62.319 16.5178 62.3315 16.5178C62.344 16.5178 62.3542 16.5482 62.3542 16.5855C62.3542 16.6228 62.3645 16.6532 62.377 16.6532C62.3895 16.6532 62.3997 16.6837 62.3997 16.721C62.3997 16.7582 62.41 16.7887 62.4225 16.7887C62.435 16.7887 62.4452 16.8192 62.4452 16.8564C62.4452 16.8936 62.4554 16.9242 62.468 16.9242C62.4804 16.9242 62.4907 16.9546 62.4907 16.9918C62.4907 17.0291 62.5009 17.0596 62.5134 17.0596C62.526 17.0596 62.5362 17.0799 62.5362 17.1048C62.5362 17.1296 62.5464 17.1499 62.5589 17.1499C62.5714 17.1499 62.5816 17.1804 62.5816 17.2176C62.5816 17.2549 62.5919 17.2854 62.6044 17.2854C62.6169 17.2854 62.6271 17.3158 62.6271 17.3531C62.6271 17.3904 62.6374 17.4208 62.6499 17.4208C62.6624 17.4208 62.6726 17.4513 62.6726 17.4886C62.6726 17.5258 62.6828 17.5563 62.6954 17.5563C62.7078 17.5563 62.7181 17.5868 62.7181 17.624C62.7181 17.6612 62.7283 17.6917 62.7408 17.6917C62.7534 17.6917 62.7636 17.7222 62.7636 17.7594C62.7636 17.7967 62.7738 17.8272 62.7863 17.8272C62.7988 17.8272 62.809 17.8475 62.809 17.8724C62.809 17.8972 62.8193 17.9175 62.8318 17.9175C62.8443 17.9175 62.8545 17.948 62.8545 17.9852C62.8545 18.0225 62.8648 18.053 62.8773 18.053C62.8898 18.053 62.9 18.0834 62.9 18.1207C62.9 18.158 62.9102 18.1884 62.9228 18.1884C62.9352 18.1884 62.9455 18.2189 62.9455 18.2562C62.9455 18.2934 62.9557 18.3239 62.9682 18.3239C62.9807 18.3239 62.991 18.3544 62.991 18.3916C62.991 18.4288 63.0012 18.4593 63.0137 18.4593C63.0262 18.4593 63.0364 18.4898 63.0364 18.527C63.0364 18.5643 63.0467 18.5948 63.0592 18.5948C63.0717 18.5948 63.0819 18.6252 63.0819 18.6625C63.0819 18.6998 63.0922 18.7302 63.1046 18.7302C63.1172 18.7302 63.1274 18.7506 63.1274 18.7754C63.1274 18.8002 63.1376 18.8206 63.1502 18.8206C63.1626 18.8206 63.1729 18.851 63.1729 18.8883C63.1729 18.9255 63.1831 18.956 63.1956 18.956C63.2081 18.956 63.2184 18.9865 63.2184 19.0238C63.2184 19.061 63.2286 19.0915 63.2411 19.0915C63.2536 19.0915 63.2638 19.122 63.2638 19.1592C63.2638 19.1964 63.2741 19.2269 63.2866 19.2269C63.2991 19.2269 63.3093 19.2574 63.3093 19.2946C63.3093 19.3319 63.3196 19.3624 63.332 19.3624C63.3446 19.3624 63.3548 19.3928 63.3548 19.4301C63.3548 19.4674 63.365 19.4978 63.3776 19.4978C63.39 19.4978 63.4003 19.5283 63.4003 19.5656C63.4003 19.6028 63.4105 19.6333 63.423 19.6333C63.4355 19.6333 63.4458 19.6536 63.4458 19.6784C63.4458 19.7033 63.456 19.7236 63.4685 19.7236C63.481 19.7236 63.4912 19.7541 63.4912 19.7914C63.4912 19.8286 63.5015 19.859 63.514 19.859C63.5265 19.859 63.5367 19.8896 63.5367 19.9268C63.5367 19.964 63.547 19.9945 63.5594 19.9945C63.572 19.9945 63.5822 20.025 63.5822 20.0622C63.5822 20.0995 63.5924 20.13 63.605 20.13C63.6174 20.13 63.6277 20.1604 63.6277 20.1977C63.6277 20.235 63.6379 20.2654 63.6504 20.2654C63.6629 20.2654 63.6732 20.2959 63.6732 20.3332C63.6732 20.3704 63.6834 20.4009 63.6959 20.4009C63.7084 20.4009 63.7186 20.4314 63.7186 20.4686C63.7186 20.5059 63.7289 20.5364 63.7414 20.5364C63.7539 20.5364 63.7641 20.5567 63.7641 20.5815C63.7641 20.6064 63.7744 20.6266 63.7868 20.6266C63.7994 20.6266 63.8096 20.6572 63.8096 20.6944C63.8096 20.7316 63.8198 20.7621 63.8324 20.7621C63.8448 20.7621 63.8551 20.7926 63.8551 20.8298C63.8551 20.8671 63.8653 20.8976 63.8778 20.8976C63.8903 20.8976 63.9006 20.928 63.9006 20.9653C63.9006 21.0026 63.9108 21.033 63.9233 21.033C63.9358 21.033 63.946 21.0635 63.946 21.1008C63.946 21.138 63.9563 21.1685 63.9688 21.1685C63.9813 21.1685 63.9915 21.199 63.9915 21.2362C63.9915 21.2735 64.0018 21.304 64.0142 21.304C64.0268 21.304 64.037 21.3243 64.037 21.3491C64.037 21.374 64.0472 21.3942 64.0598 21.3942C64.0722 21.3942 64.0825 21.4248 64.0825 21.462C64.0825 21.4992 64.0927 21.5297 64.1052 21.5297C64.1177 21.5297 64.128 21.5602 64.128 21.5974C64.128 21.6347 64.1382 21.6652 64.1507 21.6652C64.1632 21.6652 64.1734 21.6956 64.1734 21.7329C64.1734 21.7702 64.1837 21.8006 64.1962 21.8006C64.2087 21.8006 64.2189 21.8311 64.2189 21.8684C64.2189 21.9056 64.2292 21.9361 64.2416 21.9361C64.2542 21.9361 64.2644 21.9666 64.2644 22.0038C64.2644 22.0411 64.2746 22.0716 64.2872 22.0716C64.2996 22.0716 64.3099 22.102 64.3099 22.1393C64.3099 22.1765 64.3201 22.207 64.3326 22.207C64.3451 22.207 64.3554 22.2273 64.3554 22.2522C64.3554 22.277 64.3656 22.2973 64.3781 22.2973C64.3906 22.2973 64.4008 22.3278 64.4008 22.365C64.4008 22.4023 64.4111 22.4328 64.4236 22.4328C64.4361 22.4328 64.4463 22.4632 64.4463 22.5005C64.4463 22.5378 64.4566 22.5682 64.469 22.5682C64.4816 22.5682 64.4918 22.5987 64.4918 22.636C64.4918 22.6732 64.502 22.7037 64.5146 22.7037C64.527 22.7037 64.5373 22.7342 64.5373 22.7714C64.5373 22.8086 64.5475 22.8392 64.56 22.8392C64.5725 22.8392 64.5828 22.8696 64.5828 22.9069C64.5828 22.9441 64.593 22.9746 64.6055 22.9746C64.618 22.9746 64.6282 23.0051 64.6282 23.0423C64.6282 23.0796 64.6385 23.11 64.651 23.11C64.6635 23.11 64.6737 23.1304 64.6737 23.1552C64.6737 23.18 64.684 23.2004 64.6964 23.2004C64.709 23.2004 64.7192 23.2308 64.7192 23.2681C64.7192 23.3054 64.7294 23.3358 64.742 23.3358C64.7544 23.3358 64.7647 23.3663 64.7647 23.4036C64.7647 23.4408 64.7749 23.4713 64.7874 23.4713C64.7999 23.4713 64.8102 23.5018 64.8102 23.539C64.8102 23.5762 64.8204 23.6068 64.8329 23.6068C64.8454 23.6068 64.8556 23.6372 64.8556 23.6745C64.8556 23.7117 64.8659 23.7422 64.8784 23.7422C64.8909 23.7422 64.9011 23.7727 64.9011 23.8099C64.9011 23.8472 64.9114 23.8776 64.9238 23.8776C64.9364 23.8776 64.9466 23.9082 64.9466 23.9454C64.9466 23.9826 64.9568 24.0131 64.9694 24.0131C64.9818 24.0131 64.9921 24.0334 64.9921 24.0583C64.9921 24.0831 65.0023 24.1034 65.0148 24.1034C65.0273 24.1034 65.0376 24.1339 65.0376 24.1712C65.0376 24.2084 65.0478 24.2389 65.0603 24.2389C65.0728 24.2389 65.083 24.2694 65.083 24.3066C65.083 24.3438 65.0933 24.3744 65.1058 24.3744C65.1183 24.3744 65.1285 24.4048 65.1285 24.442C65.1285 24.4793 65.1388 24.5098 65.1512 24.5098C65.1638 24.5098 65.174 24.5403 65.174 24.5775C65.174 24.6148 65.1842 24.6452 65.1968 24.6452C65.2092 24.6452 65.2195 24.6757 65.2195 24.713C65.2195 24.7502 65.2297 24.7807 65.2422 24.7807C65.2547 24.7807 65.265 24.801 65.265 24.8258C65.265 24.8507 65.2752 24.871 65.2877 24.871C65.3002 24.871 65.3104 24.9015 65.3104 24.9388C65.3104 24.976 65.3206 25.0065 65.3332 25.0065C65.3457 25.0065 65.3559 25.037 65.3559 25.0742C65.3559 25.1114 65.3662 25.1419 65.3786 25.1419C65.3912 25.1419 65.4014 25.1724 65.4014 25.2096C65.4014 25.2469 65.4116 25.2774 65.4241 25.2774C65.4366 25.2774 65.4469 25.3079 65.4469 25.3451C65.4469 25.3824 65.4571 25.4128 65.4696 25.4128C65.4821 25.4128 65.4924 25.4433 65.4924 25.4806C65.4924 25.5178 65.5026 25.5483 65.5151 25.5483C65.5276 25.5483 65.5378 25.5788 65.5378 25.616C65.5378 25.6533 65.548 25.6838 65.5606 25.6838C65.5731 25.6838 65.5833 25.6993 65.5833 25.7182C65.5833 25.7764 65.78 25.9547 65.8442 25.9547C65.8758 25.9547 65.9017 25.9648 65.9017 25.9772C65.9017 25.9921 66.4398 25.9998 67.4707 25.9998C68.5016 25.9998 69.0398 25.9921 69.0398 25.9772C69.0398 25.9648 69.0657 25.9547 69.0974 25.9547C69.1614 25.9547 69.3126 25.8204 69.3126 25.7635C69.3126 25.7445 69.3229 25.7289 69.3354 25.7289C69.3479 25.7289 69.3581 25.7086 69.3581 25.6838C69.3581 25.6589 69.3684 25.6386 69.3809 25.6386C69.3934 25.6386 69.4036 25.6082 69.4036 25.5709C69.4036 25.5336 69.4138 25.5032 69.4264 25.5032C69.4388 25.5032 69.4491 25.4727 69.4491 25.4354C69.4491 25.3982 69.4593 25.3677 69.4718 25.3677C69.4844 25.3677 69.4946 25.3372 69.4946 25.3C69.4946 25.2627 69.5048 25.2322 69.5173 25.2322C69.5298 25.2322 69.54 25.2018 69.54 25.1645C69.54 25.1272 69.5484 25.0968 69.5587 25.0968C69.569 25.0968 69.5912 25.046 69.6083 24.9839C69.6253 24.9218 69.6476 24.871 69.6578 24.871C69.6681 24.871 69.6765 24.8406 69.6765 24.8033C69.6765 24.766 69.6867 24.7356 69.6992 24.7356C69.7118 24.7356 69.722 24.7051 69.722 24.6678C69.722 24.6306 69.7322 24.6001 69.7447 24.6001C69.7572 24.6001 69.7674 24.5696 69.7674 24.5324C69.7674 24.4951 69.7777 24.4646 69.7902 24.4646C69.8027 24.4646 69.8129 24.4342 69.8129 24.3969C69.8129 24.3596 69.8232 24.3292 69.8357 24.3292C69.8482 24.3292 69.8584 24.2987 69.8584 24.2614C69.8584 24.2242 69.8686 24.1937 69.8812 24.1937C69.8936 24.1937 69.9039 24.1734 69.9039 24.1486C69.9039 24.1238 69.9141 24.1034 69.9266 24.1034C69.9392 24.1034 69.9494 24.073 69.9494 24.0357C69.9494 23.9984 69.9596 23.968 69.9721 23.968C69.9846 23.968 69.9948 23.9375 69.9948 23.9002C69.9948 23.863 70.0051 23.8325 70.0176 23.8325C70.0301 23.8325 70.0403 23.802 70.0403 23.7648C70.0403 23.7275 70.0506 23.697 70.0631 23.697C70.0756 23.697 70.0858 23.6666 70.0858 23.6293C70.0858 23.592 70.096 23.5616 70.1086 23.5616C70.121 23.5616 70.1313 23.5311 70.1313 23.4938C70.1313 23.4566 70.1415 23.4261 70.154 23.4261C70.1666 23.4261 70.1768 23.3956 70.1768 23.3584C70.1768 23.3212 70.187 23.2907 70.1995 23.2907C70.212 23.2907 70.2222 23.2704 70.2222 23.2455C70.2222 23.2207 70.2325 23.2004 70.245 23.2004C70.2575 23.2004 70.2677 23.1699 70.2677 23.1326C70.2677 23.0954 70.278 23.0649 70.2904 23.0649C70.303 23.0649 70.3132 23.0344 70.3132 22.9972C70.3132 22.9599 70.3234 22.9294 70.336 22.9294C70.3484 22.9294 70.3587 22.899 70.3587 22.8617C70.3587 22.8245 70.3689 22.794 70.3814 22.794C70.394 22.794 70.4042 22.7635 70.4042 22.7262C70.4042 22.689 70.4144 22.6585 70.4269 22.6585C70.4394 22.6585 70.4496 22.628 70.4496 22.5908C70.4496 22.5536 70.4599 22.5231 70.4724 22.5231C70.4849 22.5231 70.4951 22.4926 70.4951 22.4554C70.4951 22.4181 70.5054 22.3876 70.5178 22.3876C70.5304 22.3876 70.5406 22.3673 70.5406 22.3424C70.5406 22.3176 70.5508 22.2973 70.5634 22.2973C70.5758 22.2973 70.5861 22.2668 70.5861 22.2296C70.5861 22.1923 70.5963 22.1618 70.6088 22.1618C70.6213 22.1618 70.6316 22.1314 70.6316 22.0941C70.6316 22.0569 70.6418 22.0264 70.6543 22.0264C70.6668 22.0264 70.677 21.9959 70.677 21.9586C70.677 21.9214 70.6873 21.891 70.6998 21.891C70.7123 21.891 70.7225 21.8604 70.7225 21.8232C70.7225 21.786 70.7328 21.7555 70.7452 21.7555C70.7578 21.7555 70.768 21.725 70.768 21.6878C70.768 21.6505 70.7764 21.62 70.7866 21.62C70.7969 21.62 70.8192 21.5692 70.8362 21.5072C70.8532 21.445 70.8756 21.3942 70.8858 21.3942C70.896 21.3942 70.9044 21.3638 70.9044 21.3265C70.9044 21.2893 70.9147 21.2588 70.9272 21.2588C70.9397 21.2588 70.9499 21.2283 70.9499 21.1911C70.9499 21.1538 70.9602 21.1234 70.9726 21.1234C70.9852 21.1234 70.9954 21.0928 70.9954 21.0556C70.9954 21.0184 71.0056 20.9879 71.0182 20.9879C71.0306 20.9879 71.0409 20.9574 71.0409 20.9202C71.0409 20.8829 71.0511 20.8524 71.0636 20.8524C71.0761 20.8524 71.0864 20.822 71.0864 20.7847C71.0864 20.7474 71.0966 20.717 71.1091 20.717C71.1216 20.717 71.1318 20.6966 71.1318 20.6718C71.1318 20.647 71.1421 20.6266 71.1546 20.6266C71.1671 20.6266 71.1773 20.5962 71.1773 20.5589C71.1773 20.5217 71.1876 20.4912 71.2 20.4912C71.2126 20.4912 71.2228 20.4607 71.2228 20.4235C71.2228 20.3862 71.233 20.3558 71.2456 20.3558C71.258 20.3558 71.2683 20.3252 71.2683 20.288C71.2683 20.2508 71.2785 20.2203 71.291 20.2203C71.3035 20.2203 71.3138 20.1898 71.3138 20.1526C71.3138 20.1153 71.324 20.0848 71.3365 20.0848C71.349 20.0848 71.3592 20.0544 71.3592 20.0171C71.3592 19.9798 71.3695 19.9494 71.382 19.9494C71.3945 19.9494 71.4047 19.9189 71.4047 19.8816C71.4047 19.8444 71.415 19.8139 71.4274 19.8139C71.44 19.8139 71.4502 19.7936 71.4502 19.7688C71.4502 19.7439 71.4604 19.7236 71.473 19.7236C71.4854 19.7236 71.4957 19.6931 71.4957 19.6559C71.4957 19.6186 71.5059 19.5882 71.5184 19.5882C71.5309 19.5882 71.5412 19.5577 71.5412 19.5204C71.5412 19.4832 71.5514 19.4527 71.5639 19.4527C71.5764 19.4527 71.5866 19.4222 71.5866 19.385C71.5866 19.3477 71.5969 19.3172 71.6094 19.3172C71.6219 19.3172 71.6321 19.2868 71.6321 19.2495C71.6321 19.2122 71.6424 19.1818 71.6548 19.1818C71.6674 19.1818 71.6776 19.1513 71.6776 19.114C71.6776 19.0768 71.6878 19.0463 71.7004 19.0463C71.7128 19.0463 71.7231 19.0158 71.7231 18.9786C71.7231 18.9414 71.7333 18.9108 71.7458 18.9108C71.7583 18.9108 71.7686 18.8906 71.7686 18.8657C71.7686 18.8409 71.7788 18.8206 71.7913 18.8206C71.8038 18.8206 71.814 18.7901 71.814 18.7528C71.814 18.7156 71.8243 18.6851 71.8368 18.6851C71.8493 18.6851 71.8595 18.6546 71.8595 18.6174C71.8595 18.5801 71.8698 18.5496 71.8822 18.5496C71.8948 18.5496 71.905 18.5192 71.905 18.4819C71.905 18.4446 71.9152 18.4142 71.9278 18.4142C71.9402 18.4142 71.9505 18.3837 71.9505 18.3464C71.9505 18.3092 71.9607 18.2787 71.9732 18.2787C71.9857 18.2787 71.996 18.2482 71.996 18.211C71.996 18.1738 72.0062 18.1432 72.0187 18.1432C72.0312 18.1432 72.0414 18.123 72.0414 18.0981C72.0414 18.0733 72.0517 18.053 72.0642 18.053C72.0767 18.053 72.0869 18.0225 72.0869 17.9852C72.0869 17.948 72.0972 17.9175 72.1096 17.9175C72.1222 17.9175 72.1324 17.887 72.1324 17.8498C72.1324 17.8125 72.1426 17.782 72.1552 17.782C72.1676 17.782 72.1779 17.7516 72.1779 17.7143C72.1779 17.677 72.1881 17.6466 72.2006 17.6466C72.2131 17.6466 72.2234 17.6161 72.2234 17.5788C72.2234 17.5416 72.2336 17.5111 72.2461 17.5111C72.2586 17.5111 72.2688 17.4806 72.2688 17.4434C72.2688 17.4062 72.2791 17.3756 72.2916 17.3756C72.3041 17.3756 72.3143 17.3452 72.3143 17.308C72.3143 17.2707 72.3246 17.2402 72.337 17.2402C72.3496 17.2402 72.3598 17.2199 72.3598 17.195C72.3598 17.1702 72.37 17.1499 72.3826 17.1499C72.395 17.1499 72.4053 17.1194 72.4053 17.0822C72.4053 17.0449 72.4155 17.0144 72.428 17.0144C72.4405 17.0144 72.4508 16.984 72.4508 16.9467C72.4508 16.9094 72.461 16.879 72.4735 16.879C72.486 16.879 72.4962 16.8485 72.4962 16.8112C72.4962 16.774 72.5065 16.7435 72.519 16.7435C72.5315 16.7435 72.5417 16.713 72.5417 16.6758C72.5417 16.6386 72.552 16.6081 72.5644 16.6081C72.577 16.6081 72.5872 16.5776 72.5872 16.5404C72.5872 16.5031 72.5974 16.4726 72.61 16.4726C72.6224 16.4726 72.6327 16.4421 72.6327 16.4049C72.6327 16.3676 72.6429 16.3372 72.6554 16.3372C72.668 16.3372 72.678 16.3168 72.678 16.292C72.678 16.2672 72.6886 16.2468 72.7006 16.2468C72.7133 16.2468 72.7233 16.2164 72.7233 16.1791C72.7233 16.1418 72.734 16.1114 72.7466 16.1114C72.7586 16.1114 72.7693 16.0809 72.7693 16.0436C72.7693 16.0064 72.7793 15.9759 72.792 15.9759C72.8046 15.9759 72.8146 15.9454 72.8146 15.9082C72.8146 15.871 72.8246 15.8405 72.8373 15.8405C72.85 15.8405 72.86 15.81 72.86 15.7728C72.86 15.7355 72.8706 15.705 72.8826 15.705C72.8953 15.705 72.9053 15.6746 72.9053 15.6373C72.9053 15.6 72.916 15.5696 72.928 15.5696C72.9406 15.5696 72.9513 15.5391 72.9513 15.5018C72.9513 15.4646 72.9613 15.4341 72.974 15.4341C72.986 15.4341 72.9966 15.4138 72.9966 15.389C72.9966 15.3641 73.0066 15.3438 73.0193 15.3438C73.032 15.3438 73.042 15.3142 73.042 15.278C73.042 15.2417 73.0526 15.2086 73.0653 15.2044C73.078 15.2001 73.0893 15.1158 73.0906 15.0125C73.0933 14.8429 73.0886 14.8236 73.0346 14.77L72.976 14.7116H71.599C70.6963 14.7116 70.2222 14.7194 70.2222 14.7342C70.2222 14.7466 70.2064 14.7568 70.1871 14.7568C70.1416 14.7568 70.0403 14.8574 70.0403 14.9026C70.0403 14.9217 70.0301 14.9374 70.0176 14.9374C70.0051 14.9374 69.9948 14.9679 69.9948 15.0052C69.9948 15.0424 69.9846 15.0729 69.9721 15.0729C69.9596 15.0729 69.9494 15.1034 69.9494 15.1406C69.9494 15.1778 69.9392 15.2083 69.9266 15.2083C69.9141 15.2083 69.9039 15.2388 69.9039 15.276C69.9039 15.3133 69.8936 15.3438 69.8812 15.3438C69.8686 15.3438 69.8584 15.3743 69.8584 15.4115C69.8584 15.4488 69.8482 15.4792 69.8357 15.4792C69.8232 15.4792 69.8129 15.5097 69.8129 15.547C69.8129 15.5842 69.8027 15.6147 69.7902 15.6147C69.7777 15.6147 69.7674 15.6554 69.7674 15.705C69.7674 15.7547 69.7572 15.7953 69.7447 15.7953C69.7322 15.7953 69.722 15.8258 69.722 15.863C69.722 15.9003 69.7118 15.9308 69.6992 15.9308C69.6867 15.9308 69.6765 15.9612 69.6765 15.9985C69.6765 16.0358 69.6662 16.0662 69.6538 16.0662C69.6412 16.0662 69.631 16.0967 69.631 16.134C69.631 16.1712 69.6208 16.2017 69.6083 16.2017C69.5958 16.2017 69.5855 16.2322 69.5855 16.2694C69.5855 16.3067 69.5753 16.3372 69.5628 16.3372C69.5503 16.3372 69.54 16.3778 69.54 16.4274C69.54 16.4771 69.5298 16.5178 69.5173 16.5178C69.5048 16.5178 69.4946 16.5482 69.4946 16.5855C69.4946 16.6228 69.4844 16.6532 69.4718 16.6532C69.4593 16.6532 69.4491 16.6837 69.4491 16.721C69.4491 16.7582 69.4388 16.7887 69.4264 16.7887C69.4138 16.7887 69.4036 16.8192 69.4036 16.8564C69.4036 16.8936 69.3934 16.9242 69.3809 16.9242C69.3684 16.9242 69.3581 16.9648 69.3581 17.0144C69.3581 17.0641 69.3479 17.1048 69.3354 17.1048C69.3229 17.1048 69.3126 17.1352 69.3126 17.1725C69.3126 17.2097 69.3024 17.2402 69.2899 17.2402C69.2774 17.2402 69.2672 17.2707 69.2672 17.308C69.2672 17.3452 69.257 17.3756 69.2444 17.3756C69.2319 17.3756 69.2217 17.4062 69.2217 17.4434C69.2217 17.4806 69.2114 17.5111 69.199 17.5111C69.1864 17.5111 69.1762 17.5416 69.1762 17.5788C69.1762 17.6161 69.166 17.6466 69.1535 17.6466C69.141 17.6466 69.1307 17.6872 69.1307 17.7369C69.1307 17.7866 69.1205 17.8272 69.108 17.8272C69.0955 17.8272 69.0852 17.8577 69.0852 17.8949C69.0852 17.9322 69.075 17.9626 69.0625 17.9626C69.05 17.9626 69.0398 17.9931 69.0398 18.0304C69.0398 18.0676 69.0296 18.0981 69.017 18.0981C69.0045 18.0981 68.9943 18.1286 68.9943 18.1658C68.9943 18.2031 68.984 18.2336 68.9716 18.2336C68.959 18.2336 68.9488 18.264 68.9488 18.3013C68.9488 18.3386 68.9386 18.369 68.9261 18.369C68.9136 18.369 68.9034 18.4096 68.9034 18.4593C68.9034 18.509 68.8931 18.5496 68.8806 18.5496C68.8681 18.5496 68.8578 18.5801 68.8578 18.6174C68.8578 18.6546 68.8476 18.6851 68.8351 18.6851C68.8226 18.6851 68.8124 18.7156 68.8124 18.7528C68.8124 18.7901 68.8022 18.8206 68.7896 18.8206C68.7771 18.8206 68.7669 18.851 68.7669 18.8883C68.7669 18.9255 68.7566 18.956 68.7442 18.956C68.7316 18.956 68.7214 18.9966 68.7214 19.0463C68.7214 19.096 68.7112 19.1366 68.6987 19.1366C68.6862 19.1366 68.676 19.1671 68.676 19.2044C68.676 19.2416 68.6657 19.2721 68.6532 19.2721C68.6407 19.2721 68.6304 19.3026 68.6304 19.3398C68.6304 19.377 68.6202 19.4076 68.6077 19.4076C68.5952 19.4076 68.585 19.438 68.585 19.4752C68.585 19.5125 68.5748 19.543 68.5622 19.543C68.5497 19.543 68.5395 19.5735 68.5395 19.6107C68.5395 19.648 68.5292 19.6784 68.5168 19.6784C68.5042 19.6784 68.494 19.7191 68.494 19.7688C68.494 19.8184 68.4838 19.859 68.4713 19.859C68.4588 19.859 68.4486 19.8896 68.4486 19.9268C68.4486 19.964 68.4383 19.9945 68.4258 19.9945C68.4133 19.9945 68.403 20.025 68.403 20.0622C68.403 20.0995 68.3928 20.13 68.3803 20.13C68.3678 20.13 68.3576 20.1604 68.3576 20.1977C68.3576 20.235 68.3474 20.2654 68.3348 20.2654C68.3223 20.2654 68.3121 20.2959 68.3121 20.3332C68.3121 20.3704 68.3018 20.4009 68.2894 20.4009C68.2768 20.4009 68.2666 20.4415 68.2666 20.4912C68.2666 20.5409 68.2564 20.5815 68.2439 20.5815C68.2314 20.5815 68.2212 20.612 68.2212 20.6492C68.2212 20.6865 68.2109 20.717 68.1984 20.717C68.1859 20.717 68.1756 20.7474 68.1756 20.7847C68.1756 20.822 68.1654 20.8524 68.1529 20.8524C68.1404 20.8524 68.1302 20.8829 68.1302 20.9202C68.1302 20.9574 68.12 20.9879 68.1074 20.9879C68.0949 20.9879 68.0847 21.0285 68.0847 21.0782C68.0847 21.1278 68.0744 21.1685 68.062 21.1685C68.0494 21.1685 68.0392 21.199 68.0392 21.2362C68.0392 21.2735 68.029 21.304 68.0165 21.304C68.004 21.304 67.9938 21.3344 67.9938 21.3717C67.9938 21.4089 67.9835 21.4394 67.971 21.4394C67.9585 21.4394 67.9482 21.4699 67.9482 21.5072C67.9482 21.5444 67.938 21.5748 67.9255 21.5748C67.913 21.5748 67.9028 21.6054 67.9028 21.6426C67.9028 21.6798 67.8926 21.7103 67.88 21.7103C67.8675 21.7103 67.8573 21.751 67.8573 21.8006C67.8573 21.8503 67.847 21.891 67.8346 21.891C67.822 21.891 67.8118 21.9214 67.8118 21.9586C67.8118 21.9959 67.8016 22.0264 67.7891 22.0264C67.7766 22.0264 67.7664 22.0569 67.7664 22.0941C67.7664 22.1314 67.7561 22.1618 67.7436 22.1618C67.7311 22.1618 67.7208 22.1923 67.7208 22.2296C67.7208 22.2668 67.7106 22.2973 67.6981 22.2973C67.6856 22.2973 67.6754 22.338 67.6754 22.3876C67.6754 22.4373 67.6652 22.4779 67.6526 22.4779C67.6402 22.4779 67.6299 22.4939 67.6299 22.5134C67.6299 22.5548 67.5766 22.6134 67.539 22.6134C67.4941 22.6134 67.448 22.5512 67.448 22.4908C67.448 22.4589 67.4378 22.4328 67.4252 22.4328C67.4128 22.4328 67.4025 22.4023 67.4025 22.365C67.4025 22.3278 67.3923 22.2973 67.3798 22.2973C67.3672 22.2973 67.357 22.2668 67.357 22.2296C67.357 22.1923 67.3468 22.1618 67.3343 22.1618C67.3218 22.1618 67.3116 22.1212 67.3116 22.0716C67.3116 22.0219 67.3013 21.9812 67.2888 21.9812C67.2763 21.9812 67.266 21.9508 67.266 21.9135C67.266 21.8762 67.2558 21.8458 67.2433 21.8458C67.2308 21.8458 67.2206 21.8153 67.2206 21.778C67.2206 21.7408 67.2104 21.7103 67.1978 21.7103C67.1854 21.7103 67.1751 21.6798 67.1751 21.6426C67.1751 21.6054 67.1649 21.5748 67.1524 21.5748C67.1398 21.5748 67.1296 21.5444 67.1296 21.5072C67.1296 21.4699 67.1194 21.4394 67.1069 21.4394C67.0944 21.4394 67.0842 21.4089 67.0842 21.3717C67.0842 21.3344 67.0739 21.304 67.0614 21.304C67.0489 21.304 67.0386 21.2633 67.0386 21.2136C67.0386 21.164 67.0284 21.1234 67.0159 21.1234C67.0034 21.1234 66.9932 21.0928 66.9932 21.0556C66.9932 21.0184 66.983 20.9879 66.9704 20.9879C66.958 20.9879 66.9477 20.9574 66.9477 20.9202C66.9477 20.8829 66.9375 20.8524 66.925 20.8524C66.9124 20.8524 66.9022 20.822 66.9022 20.7847C66.9022 20.7474 66.892 20.717 66.8795 20.717C66.867 20.717 66.8568 20.6865 66.8568 20.6492C66.8568 20.612 66.8465 20.5815 66.834 20.5815C66.8215 20.5815 66.8112 20.551 66.8112 20.5138C66.8112 20.4765 66.801 20.446 66.7885 20.446C66.776 20.446 66.7658 20.4054 66.7658 20.3558C66.7658 20.3061 66.7556 20.2654 66.743 20.2654C66.7306 20.2654 66.7203 20.235 66.7203 20.1977C66.7203 20.1604 66.7101 20.13 66.6976 20.13C66.685 20.13 66.6748 20.0995 66.6748 20.0622C66.6748 20.025 66.6646 19.9945 66.6521 19.9945C66.6396 19.9945 66.6294 19.964 66.6294 19.9268C66.6294 19.8896 66.6191 19.859 66.6066 19.859C66.5941 19.859 66.5839 19.8286 66.5839 19.7914C66.5839 19.7541 66.5736 19.7236 66.5611 19.7236C66.5486 19.7236 66.5384 19.683 66.5384 19.6333C66.5384 19.5836 66.5282 19.543 66.5156 19.543C66.5032 19.543 66.4929 19.5125 66.4929 19.4752C66.4929 19.438 66.4827 19.4076 66.4702 19.4076C66.4576 19.4076 66.4474 19.377 66.4474 19.3398C66.4474 19.3026 66.4372 19.2721 66.4247 19.2721C66.4122 19.2721 66.402 19.2416 66.402 19.2044C66.402 19.1671 66.3917 19.1366 66.3792 19.1366C66.3667 19.1366 66.3565 19.1062 66.3565 19.0689C66.3565 19.0316 66.3462 19.0012 66.3337 19.0012C66.3212 19.0012 66.311 18.9707 66.311 18.9334C66.311 18.8962 66.3008 18.8657 66.2882 18.8657C66.2758 18.8657 66.2655 18.825 66.2655 18.7754C66.2655 18.7257 66.2553 18.6851 66.2428 18.6851C66.2302 18.6851 66.22 18.6546 66.22 18.6174C66.22 18.5801 66.2098 18.5496 66.1973 18.5496C66.1848 18.5496 66.1746 18.5192 66.1746 18.4819C66.1746 18.4446 66.1643 18.4142 66.1518 18.4142C66.1393 18.4142 66.1291 18.3837 66.1291 18.3464C66.1291 18.3092 66.1188 18.2787 66.1063 18.2787C66.0938 18.2787 66.0836 18.2482 66.0836 18.211C66.0836 18.1738 66.0734 18.1432 66.0608 18.1432C66.0484 18.1432 66.0381 18.1128 66.0381 18.0755C66.0381 18.0383 66.0279 18.0078 66.0154 18.0078C66.0028 18.0078 65.9926 17.9672 65.9926 17.9175C65.9926 17.8678 65.9824 17.8272 65.9699 17.8272C65.9574 17.8272 65.9472 17.7967 65.9472 17.7594C65.9472 17.7222 65.9369 17.6917 65.9244 17.6917C65.9119 17.6917 65.9017 17.6612 65.9017 17.624C65.9017 17.5868 65.8914 17.5563 65.8789 17.5563C65.8664 17.5563 65.8562 17.5258 65.8562 17.4886C65.8562 17.4513 65.846 17.4208 65.8334 17.4208C65.821 17.4208 65.8107 17.3904 65.8107 17.3531C65.8107 17.3158 65.8005 17.2854 65.788 17.2854C65.7754 17.2854 65.7652 17.2549 65.7652 17.2176C65.7652 17.1804 65.755 17.1499 65.7425 17.1499C65.73 17.1499 65.7198 17.1092 65.7198 17.0596C65.7198 17.0099 65.7095 16.9693 65.697 16.9693C65.6845 16.9693 65.6743 16.9388 65.6743 16.9016C65.6743 16.8643 65.664 16.8338 65.6515 16.8338C65.639 16.8338 65.6288 16.8034 65.6288 16.7661C65.6288 16.7288 65.6186 16.6984 65.606 16.6984C65.5936 16.6984 65.5833 16.6679 65.5833 16.6306C65.5833 16.5934 65.5731 16.5629 65.5606 16.5629C65.548 16.5629 65.5378 16.5324 65.5378 16.4952C65.5378 16.458 65.5287 16.4274 65.5176 16.4274C65.5064 16.4274 65.4911 16.3919 65.4834 16.3484C65.4758 16.305 65.4634 16.2338 65.4558 16.1904C65.4481 16.147 65.4328 16.1114 65.4216 16.1114C65.4105 16.1114 65.4014 16.0809 65.4014 16.0436C65.4014 16.0064 65.3912 15.9759 65.3786 15.9759C65.3662 15.9759 65.3559 15.9454 65.3559 15.9082C65.3559 15.871 65.3457 15.8405 65.3332 15.8405C65.3206 15.8405 65.3104 15.81 65.3104 15.7728C65.3104 15.7355 65.3002 15.705 65.2877 15.705C65.2752 15.705 65.265 15.6746 65.265 15.6373C65.265 15.6 65.2547 15.5696 65.2422 15.5696C65.2297 15.5696 65.2195 15.5289 65.2195 15.4792C65.2195 15.4296 65.2092 15.389 65.1968 15.389C65.1842 15.389 65.174 15.3584 65.174 15.3212C65.174 15.284 65.1638 15.2535 65.1512 15.2535C65.1388 15.2535 65.1285 15.223 65.1285 15.1858C65.1285 15.1485 65.1183 15.118 65.1058 15.118C65.0933 15.118 65.083 15.0876 65.083 15.0503C65.083 15.013 65.0728 14.9826 65.0603 14.9826C65.0478 14.9826 65.0376 14.9622 65.0376 14.9374C65.0376 14.9126 65.0273 14.8922 65.0148 14.8922C65.0023 14.8922 64.9921 14.872 64.9921 14.8471C64.9921 14.822 64.9769 14.802 64.958 14.802C64.9392 14.802 64.9238 14.7918 64.9238 14.7794C64.9238 14.767 64.9085 14.7568 64.8898 14.7568C64.871 14.7568 64.8556 14.7466 64.8556 14.7342C64.8556 14.7194 64.3582 14.7121 63.406 14.713L61.9563 14.7144L61.9052 14.7686ZM82.0473 14.7342C82.0473 14.7466 82.0306 14.7568 82.0113 14.7568C81.9653 14.7568 81.9106 14.8112 81.9106 14.8568C81.9106 14.8763 81.9006 14.8922 81.888 14.8922C81.8726 14.8922 81.8653 16.721 81.8653 20.3332C81.8653 23.9454 81.8726 25.7741 81.888 25.7741C81.9006 25.7741 81.9106 25.7898 81.9106 25.809C81.9106 25.8638 82.016 25.9547 82.08 25.9547C82.112 25.9547 82.138 25.9648 82.138 25.9772C82.138 25.9922 83.2446 25.9998 85.4126 25.9998C87.5806 25.9998 88.6873 25.9922 88.6873 25.9772C88.6873 25.9648 88.7073 25.9547 88.7326 25.9547C88.7573 25.9547 88.778 25.9445 88.778 25.9321C88.778 25.9197 88.7986 25.9095 88.8233 25.9095C88.854 25.9095 88.8686 25.8945 88.8686 25.8644C88.8686 25.8396 88.8793 25.8192 88.892 25.8192C88.904 25.8192 88.9146 25.7888 88.9146 25.7515C88.9146 25.7142 88.9246 25.6838 88.9373 25.6838C88.952 25.6838 88.96 25.3 88.96 24.5775C88.96 23.8551 88.952 23.4713 88.9373 23.4713C88.9246 23.4713 88.9146 23.4454 88.9146 23.4138C88.9146 23.3504 88.8226 23.2455 88.768 23.2455C88.7486 23.2455 88.7326 23.2354 88.7326 23.223C88.7326 23.208 88.0806 23.2004 86.8226 23.2004H84.912V19.0689C84.912 16.3296 84.9046 14.9374 84.8893 14.9374C84.8766 14.9374 84.8666 14.9171 84.8666 14.8922C84.8666 14.8674 84.8566 14.8471 84.844 14.8471C84.8313 14.8471 84.8213 14.8268 84.8213 14.802C84.8213 14.7718 84.806 14.7568 84.776 14.7568C84.7506 14.7568 84.73 14.7466 84.73 14.7342C84.73 14.7194 84.268 14.7116 83.3886 14.7116C82.5093 14.7116 82.0473 14.7194 82.0473 14.7342ZM89.46 14.7342C89.46 14.7466 89.44 14.7568 89.4146 14.7568C89.3846 14.7568 89.3693 14.7718 89.3693 14.802C89.3693 14.8268 89.3593 14.8471 89.3466 14.8471C89.334 14.8471 89.324 14.8674 89.324 14.8922C89.324 14.9171 89.3133 14.9374 89.3013 14.9374C89.286 14.9374 89.278 16.751 89.278 20.3332C89.278 23.9153 89.286 25.7289 89.3013 25.7289C89.3133 25.7289 89.324 25.7548 89.324 25.7864C89.324 25.8604 89.4186 25.9547 89.4933 25.9547C89.5253 25.9547 89.5513 25.9648 89.5513 25.9772C89.5513 25.9922 90.7186 25.9998 93.0073 25.9998C95.2966 25.9998 96.464 25.9922 96.464 25.9772C96.464 25.9648 96.49 25.9547 96.522 25.9547C96.586 25.9547 96.6913 25.8638 96.6913 25.809C96.6913 25.7898 96.702 25.7741 96.714 25.7741C96.7293 25.7741 96.7366 25.4279 96.7366 24.7807C96.7366 24.1335 96.7293 23.7874 96.714 23.7874C96.702 23.7874 96.6913 23.7716 96.6913 23.7525C96.6913 23.7073 96.59 23.6068 96.5446 23.6068C96.5253 23.6068 96.5093 23.5966 96.5093 23.5842C96.5093 23.5693 95.7973 23.5616 94.4173 23.5616H92.3253V22.5682V21.5748H94.202H96.0793L96.158 21.4966C96.2246 21.4303 96.2366 21.4027 96.2366 21.316C96.2366 21.2597 96.2466 21.2136 96.2593 21.2136C96.274 21.2136 96.282 20.9051 96.282 20.3332C96.282 19.7612 96.274 19.4527 96.2593 19.4527C96.2466 19.4527 96.2366 19.412 96.2366 19.3624C96.2366 19.3127 96.2266 19.2721 96.214 19.2721C96.2013 19.2721 96.1913 19.2561 96.1913 19.2366C96.1913 19.191 96.1366 19.1366 96.0906 19.1366C96.0706 19.1366 96.0546 19.1264 96.0546 19.114C96.0546 19.0992 95.418 19.0915 94.19 19.0915H92.3253V18.0981V17.1048H94.4293H96.534L96.6126 17.0265C96.6726 16.9667 96.6913 16.9294 96.6913 16.8684C96.6913 16.8246 96.702 16.7887 96.714 16.7887C96.7293 16.7887 96.7366 16.4726 96.7366 15.8856C96.7366 15.2986 96.7293 14.9826 96.714 14.9826C96.702 14.9826 96.6913 14.9568 96.6913 14.9254C96.6913 14.8902 96.6613 14.838 96.6126 14.7899L96.534 14.7116H92.9973C90.654 14.7116 89.46 14.7193 89.46 14.7342ZM58.8523 18.1884C58.8523 18.2381 58.8626 18.2787 58.875 18.2787C58.8876 18.2787 58.8978 18.3092 58.8978 18.3464C58.8978 18.3837 58.908 18.4142 58.9205 18.4142C58.933 18.4142 58.9433 18.4446 58.9433 18.4819C58.9433 18.5192 58.9535 18.5496 58.966 18.5496C58.9785 18.5496 58.9888 18.5801 58.9888 18.6174C58.9888 18.6546 58.999 18.6851 59.0115 18.6851C59.024 18.6851 59.0342 18.7257 59.0342 18.7754C59.0342 18.825 59.0444 18.8657 59.057 18.8657C59.0695 18.8657 59.0797 18.8962 59.0797 18.9334C59.0797 18.9707 59.09 19.0012 59.1024 19.0012C59.115 19.0012 59.1252 19.0316 59.1252 19.0689C59.1252 19.1062 59.1354 19.1366 59.1479 19.1366C59.1604 19.1366 59.1707 19.1671 59.1707 19.2044C59.1707 19.2416 59.1809 19.2721 59.1934 19.2721C59.2059 19.2721 59.2162 19.3127 59.2162 19.3624C59.2162 19.412 59.2264 19.4527 59.2389 19.4527C59.2514 19.4527 59.2616 19.4832 59.2616 19.5204C59.2616 19.5577 59.2718 19.5882 59.2844 19.5882C59.2969 19.5882 59.3071 19.6186 59.3071 19.6559C59.3071 19.6931 59.3174 19.7236 59.3298 19.7236C59.3424 19.7236 59.3526 19.7541 59.3526 19.7914C59.3526 19.8286 59.3628 19.859 59.3753 19.859C59.3878 19.859 59.398 19.8997 59.398 19.9494C59.398 19.999 59.4083 20.0397 59.4208 20.0397C59.4333 20.0397 59.4436 20.0702 59.4436 20.1074C59.4436 20.1446 59.4538 20.1751 59.4663 20.1751C59.4788 20.1751 59.489 20.2056 59.489 20.2428C59.489 20.2801 59.4992 20.3106 59.5118 20.3106C59.5243 20.3106 59.5345 20.3411 59.5345 20.3783C59.5345 20.4156 59.5448 20.446 59.5572 20.446C59.5698 20.446 59.58 20.4867 59.58 20.5364C59.58 20.586 59.5902 20.6266 59.6027 20.6266C59.6152 20.6266 59.6254 20.6572 59.6254 20.6944C59.6254 20.7316 59.6357 20.7621 59.6482 20.7621C59.6607 20.7621 59.671 20.7926 59.671 20.8298C59.671 20.8671 59.6812 20.8976 59.6937 20.8976C59.7062 20.8976 59.7164 20.928 59.7164 20.9653C59.7164 21.0026 59.7266 21.033 59.7392 21.033C59.7517 21.033 59.7619 21.0737 59.7619 21.1234C59.7619 21.173 59.7722 21.2136 59.7846 21.2136C59.7972 21.2136 59.8074 21.2441 59.8074 21.2814C59.8074 21.3186 59.8176 21.3491 59.8301 21.3491C59.8426 21.3491 59.8528 21.3796 59.8528 21.4168C59.8528 21.4541 59.8631 21.4846 59.8756 21.4846C59.8881 21.4846 59.8984 21.5049 59.8984 21.5297C59.8984 21.5743 59.8832 21.5748 58.7386 21.5748C57.9806 21.5748 57.5789 21.567 57.5789 21.5523C57.5789 21.5399 57.5891 21.5297 57.6016 21.5297C57.6141 21.5297 57.6244 21.4891 57.6244 21.4394C57.6244 21.3898 57.6346 21.3491 57.6471 21.3491C57.6596 21.3491 57.6698 21.3186 57.6698 21.2814C57.6698 21.2441 57.6801 21.2136 57.6926 21.2136C57.7051 21.2136 57.7153 21.1832 57.7153 21.1459C57.7153 21.1086 57.7256 21.0782 57.738 21.0782C57.7506 21.0782 57.7608 21.0477 57.7608 21.0104C57.7608 20.9732 57.771 20.9427 57.7836 20.9427C57.796 20.9427 57.8063 20.9021 57.8063 20.8524C57.8063 20.8028 57.8165 20.7621 57.829 20.7621C57.8415 20.7621 57.8518 20.7316 57.8518 20.6944C57.8518 20.6572 57.862 20.6266 57.8745 20.6266C57.887 20.6266 57.8972 20.5962 57.8972 20.5589C57.8972 20.5217 57.9074 20.4912 57.92 20.4912C57.9325 20.4912 57.9427 20.4506 57.9427 20.4009C57.9427 20.3512 57.953 20.3106 57.9654 20.3106C57.978 20.3106 57.9882 20.2801 57.9882 20.2428C57.9882 20.2056 57.9984 20.1751 58.0109 20.1751C58.0234 20.1751 58.0337 20.1446 58.0337 20.1074C58.0337 20.0702 58.0439 20.0397 58.0564 20.0397C58.0689 20.0397 58.0792 20.0092 58.0792 19.972C58.0792 19.9347 58.0894 19.9042 58.1019 19.9042C58.1144 19.9042 58.1246 19.8636 58.1246 19.8139C58.1246 19.7642 58.1348 19.7236 58.1474 19.7236C58.1599 19.7236 58.1701 19.6931 58.1701 19.6559C58.1701 19.6186 58.1804 19.5882 58.1928 19.5882C58.2054 19.5882 58.2156 19.5577 58.2156 19.5204C58.2156 19.4832 58.2258 19.4527 58.2383 19.4527C58.2508 19.4527 58.2611 19.4222 58.2611 19.385C58.2611 19.3477 58.2713 19.3172 58.2838 19.3172C58.2963 19.3172 58.3066 19.2766 58.3066 19.2269C58.3066 19.1772 58.3168 19.1366 58.3293 19.1366C58.3418 19.1366 58.352 19.1062 58.352 19.0689C58.352 19.0316 58.3622 19.0012 58.3748 19.0012C58.3873 19.0012 58.3975 18.9707 58.3975 18.9334C58.3975 18.8962 58.4078 18.8657 58.4202 18.8657C58.4328 18.8657 58.443 18.8352 58.443 18.798C58.443 18.7607 58.4532 18.7302 58.4657 18.7302C58.4782 18.7302 58.4885 18.6896 58.4885 18.64C58.4885 18.5903 58.4987 18.5496 58.5112 18.5496C58.5237 18.5496 58.534 18.5192 58.534 18.4819C58.534 18.4446 58.5442 18.4142 58.5567 18.4142C58.5692 18.4142 58.5794 18.3837 58.5794 18.3464C58.5794 18.3092 58.5896 18.2787 58.6022 18.2787C58.6147 18.2787 58.6249 18.2529 58.6249 18.2213C58.6249 18.1385 58.6697 18.1 58.767 18.099C58.8515 18.0981 58.8523 18.099 58.8523 18.1884ZM76.284 18.1304C76.302 18.1481 76.3166 18.1989 76.3166 18.2432C76.3166 18.2876 76.3266 18.3239 76.3393 18.3239C76.352 18.3239 76.362 18.3544 76.362 18.3916C76.362 18.4288 76.372 18.4593 76.3846 18.4593C76.3973 18.4593 76.4073 18.4898 76.4073 18.527C76.4073 18.5643 76.418 18.5948 76.43 18.5948C76.4426 18.5948 76.4533 18.6354 76.4533 18.6851C76.4533 18.7348 76.4633 18.7754 76.476 18.7754C76.488 18.7754 76.4986 18.8059 76.4986 18.8431C76.4986 18.8804 76.5086 18.9108 76.5213 18.9108C76.534 18.9108 76.544 18.9414 76.544 18.9786C76.544 19.0158 76.554 19.0463 76.5666 19.0463C76.5793 19.0463 76.5893 19.0768 76.5893 19.114C76.5893 19.1513 76.6 19.1818 76.612 19.1818C76.6246 19.1818 76.6346 19.2224 76.6346 19.2721C76.6346 19.3218 76.6453 19.3624 76.6573 19.3624C76.67 19.3624 76.6806 19.3928 76.6806 19.4301C76.6806 19.4674 76.6906 19.4978 76.7033 19.4978C76.7153 19.4978 76.726 19.5283 76.726 19.5656C76.726 19.6028 76.736 19.6333 76.7486 19.6333C76.7613 19.6333 76.7713 19.6638 76.7713 19.701C76.7713 19.7383 76.7813 19.7688 76.794 19.7688C76.8066 19.7688 76.8166 19.8094 76.8166 19.859C76.8166 19.9087 76.8273 19.9494 76.8393 19.9494C76.852 19.9494 76.862 19.9798 76.862 20.0171C76.862 20.0544 76.8726 20.0848 76.8853 20.0848C76.8973 20.0848 76.908 20.1153 76.908 20.1526C76.908 20.1898 76.918 20.2203 76.9306 20.2203C76.9433 20.2203 76.9533 20.2508 76.9533 20.288C76.9533 20.3252 76.9633 20.3558 76.976 20.3558C76.9886 20.3558 76.9986 20.3964 76.9986 20.446C76.9986 20.4957 77.0086 20.5364 77.0213 20.5364C77.034 20.5364 77.044 20.5668 77.044 20.6041C77.044 20.6414 77.0546 20.6718 77.0666 20.6718C77.0793 20.6718 77.09 20.7023 77.09 20.7396C77.09 20.7768 77.1 20.8073 77.1126 20.8073C77.1246 20.8073 77.1353 20.8378 77.1353 20.875C77.1353 20.9122 77.1453 20.9427 77.158 20.9427C77.1706 20.9427 77.1806 20.9834 77.1806 21.033C77.1806 21.0827 77.1906 21.1234 77.2033 21.1234C77.216 21.1234 77.226 21.1538 77.226 21.1911C77.226 21.2283 77.2366 21.2588 77.2486 21.2588C77.2613 21.2588 77.2713 21.2893 77.2713 21.3265C77.2713 21.3638 77.282 21.3942 77.2946 21.3942C77.3066 21.3942 77.3173 21.4349 77.3173 21.4846V21.5748H76.18H75.0433V21.5072C75.0433 21.4699 75.0533 21.4394 75.066 21.4394C75.0786 21.4394 75.0886 21.4089 75.0886 21.3717C75.0886 21.3344 75.0986 21.304 75.1113 21.304C75.124 21.304 75.134 21.2735 75.134 21.2362C75.134 21.199 75.144 21.1685 75.1566 21.1685C75.1693 21.1685 75.1793 21.138 75.1793 21.1008C75.1793 21.0635 75.19 21.033 75.202 21.033C75.2146 21.033 75.2253 20.9924 75.2253 20.9427C75.2253 20.893 75.2353 20.8524 75.248 20.8524C75.26 20.8524 75.2706 20.822 75.2706 20.7847C75.2706 20.7474 75.2806 20.717 75.2933 20.717C75.306 20.717 75.316 20.6865 75.316 20.6492C75.316 20.612 75.326 20.5815 75.3386 20.5815C75.3513 20.5815 75.3613 20.5409 75.3613 20.4912C75.3613 20.4415 75.372 20.4009 75.384 20.4009C75.3966 20.4009 75.4066 20.3704 75.4066 20.3332C75.4066 20.2959 75.4173 20.2654 75.43 20.2654C75.442 20.2654 75.4526 20.235 75.4526 20.1977C75.4526 20.1604 75.4626 20.13 75.4753 20.13C75.488 20.13 75.498 20.0995 75.498 20.0622C75.498 20.025 75.508 19.9945 75.5206 19.9945C75.5333 19.9945 75.5433 19.9539 75.5433 19.9042C75.5433 19.8546 75.5533 19.8139 75.566 19.8139C75.5786 19.8139 75.5886 19.7834 75.5886 19.7462C75.5886 19.7089 75.5993 19.6784 75.6113 19.6784C75.624 19.6784 75.6346 19.648 75.6346 19.6107C75.6346 19.5735 75.6446 19.543 75.6573 19.543C75.6693 19.543 75.68 19.5125 75.68 19.4752C75.68 19.438 75.69 19.4076 75.7026 19.4076C75.7153 19.4076 75.7253 19.3669 75.7253 19.3172C75.7253 19.2676 75.7353 19.2269 75.748 19.2269C75.7606 19.2269 75.7706 19.1964 75.7706 19.1592C75.7706 19.122 75.7813 19.0915 75.7933 19.0915C75.806 19.0915 75.816 19.061 75.816 19.0238C75.816 18.9865 75.8266 18.956 75.8393 18.956C75.8513 18.956 75.862 18.9255 75.862 18.8883C75.862 18.851 75.872 18.8206 75.8846 18.8206C75.8973 18.8206 75.9073 18.7799 75.9073 18.7302C75.9073 18.6806 75.9173 18.64 75.93 18.64C75.9426 18.64 75.9526 18.6094 75.9526 18.5722C75.9526 18.535 75.9626 18.5045 75.9753 18.5045C75.988 18.5045 75.998 18.474 75.998 18.4368C75.998 18.3995 76.0086 18.369 76.0206 18.369C76.0333 18.369 76.044 18.3386 76.044 18.3013C76.044 18.264 76.054 18.2336 76.0666 18.2336C76.0786 18.2336 76.0893 18.2031 76.0893 18.1658C76.0893 18.1032 76.0953 18.0981 76.1706 18.0981C76.2153 18.0981 76.266 18.1126 76.284 18.1304Z" fill="#0C483C"/>
<path fill-rule="evenodd" clip-rule="evenodd" d="M93.8813 13.3148L95.7633 13.1955L93.758 8.79445C92.656 6.37379 91.7113 4.34546 91.6593 4.28713C91.608 4.22879 91.2053 4.78446 90.7653 5.52213L89.966 6.86312L88.2733 6.07913C81.31 2.85279 72.9453 1.80246 66.5 3.34546L64.6666 3.78413L66.6666 4.00846C70.9503 4.48913 75.4333 5.34113 77.8286 6.13013C80.3666 6.96612 87.0486 10.0991 87.3566 10.5975C87.4486 10.7465 87.142 11.4741 86.6746 12.2145L85.8253 13.5601L88.9126 13.4971C90.6106 13.4625 92.8466 13.3805 93.8813 13.3148Z" fill="#0C483C"/>
<path fill-rule="evenodd" clip-rule="evenodd" d="M11.215 14.8908L9.33337 15.0102L11.3384 19.4112C12.4407 21.8318 13.3854 23.8602 13.437 23.9185C13.4887 23.9768 13.891 23.4212 14.331 22.6835L15.1307 21.3425L16.823 22.1265C23.7867 25.3528 32.151 26.4032 38.5964 24.8602L40.4297 24.4215L38.4297 24.1972C34.146 23.7165 29.663 22.8645 27.2677 22.0755C24.73 21.2395 18.048 18.1065 17.74 17.6082C17.6477 17.4592 17.9547 16.7315 18.422 15.9912L19.2714 14.6455L16.184 14.7085C14.4857 14.7432 12.2497 14.8252 11.215 14.8908Z" fill="#0C483C"/>
<path fill-rule="evenodd" clip-rule="evenodd" d="M21.0457 2.86066V13.4299C21.0457 13.5487 21.142 13.6451 21.2608 13.6451H23.8426C23.9614 13.6451 24.0577 13.5487 24.0577 13.4299V8.20213C24.0577 7.99373 24.3244 7.90707 24.4469 8.0756L28.4308 13.5564C28.4713 13.6121 28.536 13.6451 28.6048 13.6451H30.7812C30.9 13.6451 30.9963 13.5487 30.9963 13.4299V2.86066C30.9963 2.74183 30.9 2.64551 30.7812 2.64551H28.2532C28.1343 2.64551 28.0381 2.74183 28.0381 2.86066V8.3828C28.0381 8.59387 27.7657 8.67873 27.6458 8.505L23.6647 2.73843C23.6245 2.68024 23.5583 2.64551 23.4877 2.64551H21.2608C21.142 2.64551 21.0457 2.74183 21.0457 2.86066ZM31.7225 2.67244H34.1698C34.2886 2.67244 34.3849 2.76877 34.3849 2.88759V13.4299C34.3849 13.5488 34.2886 13.6451 34.1698 13.6451H31.7225C31.6036 13.6451 31.5073 13.5488 31.5073 13.4299V2.88759C31.5073 2.76877 31.6036 2.67244 31.7225 2.67244ZM34.9227 13.4299V2.86066C34.9227 2.74183 35.019 2.64551 35.1378 2.64551H37.3647C37.4354 2.64551 37.5016 2.68024 37.5417 2.73843L41.5229 8.505C41.6428 8.67873 41.9151 8.59387 41.9151 8.3828V2.86066C41.9151 2.74183 42.0114 2.64551 42.1302 2.64551H44.6583C44.7771 2.64551 44.8734 2.74183 44.8734 2.86066V13.4299C44.8734 13.5487 44.7771 13.6451 44.6583 13.6451H42.4819C42.413 13.6451 42.3483 13.6121 42.3078 13.5564L38.324 8.0756C38.2015 7.90707 37.9348 7.99373 37.9348 8.20213V13.4299C37.9348 13.5487 37.8385 13.6451 37.7197 13.6451H35.1378C35.019 13.6451 34.9227 13.5487 34.9227 13.4299ZM45.4113 13.4031V2.86069C45.4113 2.74187 45.5077 2.64555 45.6265 2.64555H50.5462L50.5488 2.64553C50.588 2.64509 52.1275 2.63692 53.6409 4.04402C55.1063 5.40661 55.1708 7.30987 55.1737 7.47494C55.1738 7.48347 55.1741 7.4894 55.1751 7.49793C55.1959 7.68993 55.4422 10.2373 54.0711 11.7895C52.7025 13.3389 50.7139 13.5989 50.5579 13.6171C50.5505 13.618 50.5444 13.6182 50.5371 13.6182H45.6265C45.5077 13.6182 45.4113 13.5219 45.4113 13.4031ZM48.316 5.36181C48.316 5.24298 48.4123 5.14665 48.5311 5.14665H50.3447L50.3495 5.14663C50.3913 5.14662 50.9857 5.15976 51.5701 5.90759C52.1448 6.64286 52.1747 7.66747 52.1762 7.772C52.1763 7.7782 52.1765 7.7828 52.177 7.789C52.1862 7.9086 52.2791 9.28273 51.7403 10.122C51.2202 10.9321 50.4738 11.0944 50.3615 11.1147C50.3517 11.1165 50.3421 11.1171 50.3321 11.1171H48.5311C48.4123 11.1171 48.316 11.0207 48.316 10.9019V5.36181ZM13.9362 2.64553C13.8449 2.64553 13.7637 2.70305 13.7333 2.78907L10.0124 13.3315C9.96304 13.4714 10.0669 13.6182 10.2153 13.6182H12.7366C12.8315 13.6182 12.9152 13.556 12.9426 13.4651L13.442 11.808C13.4694 11.7171 13.5531 11.6549 13.648 11.6549H17.0726C17.1646 11.6549 17.2464 11.7134 17.2761 11.8004L17.8489 13.4727C17.8787 13.5597 17.9605 13.6182 18.0525 13.6182H20.4743C20.6222 13.6182 20.726 13.4725 20.6777 13.3328L17.0344 2.7904C17.0044 2.70369 16.9227 2.64553 16.831 2.64553H13.9362ZM15.5528 6.42395C15.4873 6.22577 15.2063 6.22769 15.1434 6.42674L14.3027 9.08907C14.2589 9.22774 14.3624 9.369 14.5078 9.369H16.2293C16.3759 9.369 16.4797 9.22553 16.4336 9.08627L15.5528 6.42395ZM54.0103 13.3315L57.7311 2.78913C57.7615 2.70311 57.8427 2.64558 57.9339 2.64558H60.8288C60.9205 2.64558 61.0022 2.70375 61.0322 2.79045L64.6755 13.3328C64.7238 13.4726 64.62 13.6183 64.4721 13.6183H62.0502C61.9583 13.6183 61.8765 13.5598 61.8467 13.4728L61.2739 11.8005C61.2441 11.7135 61.1624 11.655 61.0704 11.655H57.6458C57.5509 11.655 57.4672 11.7172 57.4398 11.8081L56.9404 13.4652C56.913 13.5561 56.8293 13.6183 56.7344 13.6183H54.2131C54.0647 13.6183 53.9609 13.4715 54.0103 13.3315ZM59.1412 6.4268C59.2041 6.22775 59.4851 6.22583 59.5506 6.42401L60.4314 9.08634C60.4774 9.2256 60.3737 9.36907 60.2271 9.36907H58.5056C58.3602 9.36907 58.2567 9.2278 58.3005 9.08914L59.1412 6.4268Z" fill="#0C483C"/>
</svg>
