<svg width="60" height="14" viewBox="0 0 60 14" fill="none" xmlns="http://www.w3.org/2000/svg">
<path d="M6.71307 0.930559C5.0136 0.933241 3.38451 1.60749 2.18281 2.80556C0.981099 4.00362 0.304799 5.62778 0.302109 7.3221C0.296631 7.94452 0.389299 8.56394 0.576745 9.15768C2.2704 6.90124 4.19549 3.42024 4.40656 2.87261C4.61763 2.38583 4.78801 2.15512 5.35765 2.2616C5.50769 2.30217 5.76198 2.5557 5.6984 3.08304C5.31695 6.10007 5.63485 10.7828 6.35453 10.1819C7.00808 9.65459 8.49066 6.76433 8.95604 5.64625C9.18745 5.05552 9.3146 4.71832 9.84355 4.76142C10.2682 4.80199 10.3318 5.26849 10.3318 5.41553C10.404 6.72413 10.7884 7.99664 11.4533 9.12724C11.6643 9.48472 11.3032 9.50754 10.7972 8.95738C10.3172 8.37045 9.93822 7.70819 9.6757 6.99758C9.58924 6.74405 7.83455 12.0378 5.82556 11.404C4.2794 10.94 4.2794 7.43872 4.36332 5.75274C4.3862 5.58287 2.75614 8.91681 1.36002 10.7929C1.96735 11.7164 2.80484 12.4669 3.79048 12.9707C4.77612 13.4745 5.87611 13.7146 6.98274 13.6672C8.08937 13.6199 9.16471 13.2868 10.1034 12.7007C11.0422 12.1145 11.8121 11.2953 12.3379 10.3234C12.8636 9.3514 13.1272 8.25998 13.1027 7.15595C13.0783 6.05193 12.7667 4.97316 12.1984 4.02529C11.6301 3.07741 10.8246 2.29294 9.86081 1.74867C8.89704 1.2044 7.80802 0.918997 6.70037 0.920415L6.71307 0.930559Z" fill="#0CAD77"/>
<path d="M20.9531 5.4032L19.3459 10.2558H19.0509L17.4412 5.4032H17.3573V10.2558H16.7648V4.91895H17.843L19.2188 9.07434L20.5742 4.91895H21.6728V10.2558H21.0803L21.0599 5.4032H20.9531Z" fill="#0CAD77"/>
<path d="M30.3888 6.54102C30.0444 6.49758 29.6945 6.54118 29.3714 6.66779C29.182 6.75005 29.0041 6.85658 28.8423 6.9847V10.1919H28.1632V6.12016H28.6516L28.7355 6.54102C28.9005 6.38998 29.0955 6.27512 29.3078 6.20383C29.9208 5.9934 30.3252 6.01368 30.4295 6.07706L30.3888 6.54102Z" fill="#0CAD77"/>
<path d="M34.1344 7.0478C34.0803 6.82724 33.9709 6.62399 33.8165 6.45708C33.6656 6.30382 33.4757 6.19429 33.2672 6.14016C33.0016 6.08783 32.7318 6.05982 32.4611 6.05649C32.1906 6.04854 31.9204 6.07668 31.6575 6.14016C31.449 6.19429 31.2591 6.30382 31.1082 6.45708C30.9493 6.62076 30.8392 6.8253 30.7903 7.0478C30.7179 7.33798 30.6829 7.63616 30.686 7.93517V8.37632C30.6817 8.68876 30.7167 9.00049 30.7903 9.30424C30.8439 9.525 30.9533 9.72839 31.1082 9.89497C31.2585 10.0491 31.4486 10.1587 31.6575 10.2119C31.922 10.2653 32.1911 10.2934 32.4611 10.2956C32.7323 10.3035 33.0034 10.2754 33.2672 10.2119C33.4761 10.1587 33.6662 10.0491 33.8165 9.89497C33.9754 9.73129 34.0855 9.52674 34.1344 9.30424C34.2079 9.00049 34.2429 8.68876 34.2386 8.37632V7.9301C34.2427 7.63272 34.2076 7.3361 34.1344 7.0478ZM33.5825 8.35603C33.5922 8.61701 33.5786 8.87834 33.5418 9.13691C33.5126 9.29027 33.4472 9.43451 33.3511 9.55777C33.2654 9.66398 33.1462 9.73816 33.0129 9.7682C32.8408 9.81567 32.6625 9.83703 32.484 9.83159C32.3055 9.83575 32.1274 9.8144 31.955 9.7682C31.8214 9.73873 31.702 9.66444 31.6168 9.55777C31.5309 9.43102 31.4728 9.28761 31.4464 9.13691C31.4188 8.87751 31.4044 8.61688 31.4032 8.35603V7.91235C31.3927 7.6656 31.4072 7.41843 31.4464 7.17457C31.4589 7.02026 31.5183 6.87344 31.6168 6.75371C31.7026 6.64715 31.8216 6.5722 31.955 6.54074C32.1275 6.49546 32.3056 6.47498 32.484 6.47989C32.6622 6.47645 32.8401 6.49691 33.0129 6.54074C33.1438 6.57792 33.2612 6.65184 33.3511 6.75371C33.4509 6.87469 33.5168 7.01992 33.5418 7.17457C33.5688 7.39836 33.5824 7.62356 33.5825 7.84897V8.35603Z" fill="#0CAD77"/>
<path d="M27.4271 8.88358C27.4311 9.01744 27.4243 9.1514 27.4067 9.28417C27.3912 9.51397 27.2938 9.73066 27.1321 9.89517C26.9813 10.0499 26.7902 10.1596 26.5803 10.2121C26.3174 10.2758 26.0471 10.304 25.7767 10.2958C25.5067 10.2937 25.2376 10.2657 24.9731 10.2121C24.7786 10.1651 24.6019 10.063 24.4645 9.918C24.3113 9.75056 24.2029 9.54742 24.1491 9.32726C24.0749 9.0236 24.039 8.71187 24.0423 8.39934V7.9303C24.0399 7.63119 24.0758 7.33298 24.1491 7.04294C24.1972 6.82066 24.3064 6.61611 24.4645 6.45221C24.6052 6.31141 24.7806 6.20998 24.9731 6.15811C25.2359 6.09357 25.5062 6.06457 25.7767 6.07191C26.0467 6.07455 26.3158 6.10342 26.5803 6.15811C26.7902 6.21059 26.9813 6.32033 27.1321 6.47503C27.2784 6.63856 27.3676 6.84491 27.3864 7.06322C27.414 7.19574 27.4208 7.33173 27.4067 7.46634H26.8346C26.8367 7.21726 26.7792 6.97127 26.6667 6.74884C26.5765 6.64741 26.4592 6.57357 26.3285 6.53587C26.1557 6.49204 25.9778 6.47158 25.7996 6.47503C25.6212 6.46994 25.4431 6.49043 25.2706 6.53587C25.1368 6.56788 25.0171 6.64268 24.9298 6.74884C24.8323 6.86888 24.7738 7.01568 24.762 7.1697C24.7228 7.41356 24.7083 7.66073 24.7188 7.90748V8.35116C24.72 8.61202 24.7345 8.87263 24.762 9.13204C24.7888 9.28222 24.8459 9.42541 24.9298 9.55291C25.0166 9.65915 25.1366 9.73325 25.2706 9.76333C25.443 9.80967 25.6211 9.83102 25.7996 9.82672C25.9781 9.83216 26.1564 9.81079 26.3285 9.76333C26.4615 9.73255 26.5805 9.65853 26.6667 9.55291C26.7886 9.34973 26.8471 9.11494 26.8346 8.87851" fill="#0CAD77"/>
<path d="M43.9303 6.50107C44.1519 6.34769 44.3942 6.22648 44.6499 6.14106C44.8571 6.08916 45.0696 6.06108 45.2832 6.05739C45.5161 6.04883 45.7481 6.09214 45.9622 6.18415C46.1178 6.25918 46.2549 6.36737 46.3639 6.50107C46.5665 6.37939 46.7782 6.27343 46.9972 6.18415C47.2415 6.09327 47.4993 6.04358 47.7601 6.03711C47.9911 6.04075 48.2199 6.08362 48.4365 6.16388C48.577 6.20212 48.7023 6.2827 48.7951 6.39459C48.9025 6.54853 48.9817 6.7202 49.029 6.90165C49.0585 7.04764 49.0654 7.19727 49.0494 7.34534V10.2128L48.4365 10.2331V7.36562C48.4461 7.13574 48.371 6.91032 48.2254 6.73178C48.1487 6.65221 48.0567 6.58878 47.9549 6.54523C47.8532 6.50169 47.7437 6.47891 47.6329 6.47825C47.4177 6.46754 47.2022 6.4959 46.9972 6.56192C46.8268 6.62451 46.6691 6.71727 46.5318 6.83573L46.5547 10.2305H45.9622V7.36562C45.9716 7.23727 45.9569 7.1083 45.9189 6.98532C45.876 6.86385 45.8035 6.75494 45.7079 6.6684C45.6316 6.59509 45.5366 6.54421 45.4332 6.52136C45.3217 6.49391 45.2073 6.48029 45.0924 6.48079C44.6922 6.46859 44.3014 6.60298 43.9939 6.85855L43.971 10.2128H43.381V6.15627H43.8667L43.9303 6.50107Z" fill="#0CAD77"/>
<path d="M50.5734 4.91895H49.9171V5.57306H50.5734V4.91895Z" fill="#0CAD77"/>
<path d="M50.5755 6.14014H49.9396V10.2119H50.5755V6.14014Z" fill="#0CAD77"/>
<path d="M23.3224 4.95898H22.6661V5.61309H23.3224V4.95898Z" fill="#0CAD77"/>
<path d="M23.3255 6.18359H22.6896V10.2553H23.3255V6.18359Z" fill="#0CAD77"/>
<path d="M51.9284 6.15554L52.0123 6.55611C52.2248 6.41326 52.4515 6.29263 52.6887 6.1961C52.9338 6.11012 53.1919 6.06723 53.4516 6.06934C53.6736 6.06249 53.8952 6.09161 54.1077 6.15554C54.271 6.19773 54.4223 6.27665 54.5502 6.38625C54.6643 6.5154 54.7508 6.66636 54.8045 6.82993C54.8614 7.05027 54.8905 7.27682 54.891 7.50433V10.212H54.212V7.51193C54.2145 7.3132 54.1931 7.11489 54.1484 6.9212C54.1237 6.81422 54.0648 6.71814 53.9806 6.64739C53.8965 6.58555 53.8041 6.53602 53.7059 6.50034C53.5734 6.47488 53.4391 6.46047 53.3042 6.45724C53.0882 6.46153 52.874 6.4974 52.6684 6.56372C52.463 6.62059 52.2692 6.7133 52.0962 6.83754V10.1918H51.463V6.13526C51.6174 6.15396 51.773 6.16074 51.9284 6.15554Z" fill="#0CAD77"/>
<path d="M58.4875 6.14031L58.4671 6.54089C58.2753 6.3892 58.0608 6.26856 57.8313 6.18341C57.6158 6.09925 57.3864 6.05625 57.1549 6.05664C56.9338 6.0604 56.7138 6.08847 56.4988 6.14031C56.3142 6.18538 56.1459 6.28111 56.0131 6.41666C55.8581 6.57424 55.7483 6.77035 55.6952 6.98457C55.6197 7.28801 55.5838 7.5999 55.5884 7.9125V8.39929C55.5838 8.71189 55.6197 9.02378 55.6952 9.32721C55.7557 9.53845 55.8645 9.73284 56.0131 9.89512C56.1459 10.0307 56.3142 10.1264 56.4988 10.1715C56.7121 10.2319 56.9333 10.2601 57.1549 10.2551C57.3722 10.2535 57.5871 10.2105 57.7881 10.1284C57.9837 10.0442 58.1688 9.93786 58.3399 9.81145L58.3603 10.2551C58.3634 10.4055 58.3419 10.5553 58.2967 10.6988C58.2706 10.811 58.2123 10.9132 58.1289 10.9929C58.0193 11.0801 57.8977 11.1509 57.7678 11.2033C57.2606 11.2568 56.7491 11.2568 56.242 11.2033L56.158 11.6039C56.3585 11.6553 56.5641 11.6842 56.7709 11.6901C57.0049 11.7104 57.2159 11.6673 57.427 11.6673C57.9992 11.6673 58.3374 11.6039 58.5917 11.3732C58.7326 11.2238 58.8424 11.0481 58.9149 10.8562C58.9873 10.6643 59.0209 10.46 59.0139 10.2551V6.14031H58.4875ZM58.3806 9.41088C58.2239 9.5356 58.0442 9.6286 57.8517 9.68469C57.6491 9.75894 57.4344 9.79506 57.2185 9.79118C57.0678 9.79317 56.9176 9.77179 56.7735 9.7278C56.6494 9.68952 56.5391 9.61646 56.4556 9.51736C56.3803 9.35531 56.324 9.18517 56.2877 9.0103C56.2399 8.79566 56.2185 8.57599 56.2242 8.35618V7.89222C56.2195 7.67916 56.2409 7.46632 56.2877 7.25839C56.3275 7.07825 56.3989 6.90657 56.4988 6.75133C56.5809 6.65017 56.6917 6.57597 56.8167 6.53836C56.9602 6.49549 57.1094 6.47496 57.2592 6.47751C57.447 6.46562 57.6352 6.49416 57.811 6.56118C58.0239 6.63933 58.2179 6.76111 58.3806 6.91866V9.40835V9.41088Z" fill="#0CAD77"/>
<path d="M37.7735 6.14031L37.7506 6.54089C37.557 6.3934 37.3439 6.27312 37.1174 6.18341C36.9019 6.09925 36.6724 6.05625 36.441 6.05664C36.2198 6.0604 35.9998 6.08847 35.7849 6.14031C35.5993 6.18494 35.4301 6.2807 35.2966 6.41666C35.1429 6.57519 35.0333 6.77093 34.9787 6.98457C34.9055 7.28837 34.8705 7.60008 34.8745 7.9125V8.39929C34.8705 8.71171 34.9055 9.02342 34.9787 9.32721C35.0403 9.53803 35.149 9.7322 35.2966 9.89512C35.4301 10.0311 35.5993 10.1269 35.7849 10.1715C35.9982 10.2319 36.2193 10.2601 36.441 10.2551C36.6582 10.2535 36.8731 10.2105 37.0742 10.1284C37.2689 10.0442 37.4532 9.93782 37.6235 9.81145H37.6464V10.2551C37.6482 10.4054 37.6267 10.5551 37.5828 10.6988C37.5568 10.8116 37.4975 10.9141 37.4124 10.9929C37.3093 11.0877 37.187 11.1595 37.0538 11.2033C36.5467 11.2568 36.0352 11.2568 35.528 11.2033L35.4441 11.6039C35.6445 11.6557 35.8501 11.6846 36.057 11.6901C36.2884 11.7104 36.502 11.6673 36.7131 11.6673C37.2827 11.6673 37.6209 11.6039 37.8752 11.3732C38.0169 11.2243 38.1274 11.0487 38.2003 10.8567C38.2732 10.6648 38.3071 10.4603 38.2999 10.2551V6.14031H37.7735ZM37.6667 9.41088C37.5096 9.53511 37.33 9.62806 37.1378 9.68469C36.9351 9.75877 36.7204 9.79488 36.5045 9.79118C36.3538 9.79317 36.2037 9.77179 36.0595 9.7278C35.9352 9.69019 35.8246 9.61701 35.7416 9.51736C35.6666 9.355 35.6095 9.18498 35.5713 9.0103C35.5247 8.79546 35.5033 8.57594 35.5077 8.35618V7.89222C35.5043 7.67921 35.5256 7.46652 35.5713 7.25839C35.6118 7.07809 35.6841 6.90639 35.7849 6.75133C35.8666 6.65081 35.9763 6.5767 36.1002 6.53836C36.2445 6.49547 36.3946 6.47494 36.5452 6.47751C36.7322 6.46567 36.9196 6.49421 37.0945 6.56118C37.3085 6.63867 37.5035 6.76051 37.6667 6.91866V9.41088Z" fill="#0CAD77"/>
<path d="M42.0053 6.1839L41.9418 6.48053C41.7187 6.34206 41.4848 6.22166 41.2424 6.12051C40.9327 6.03526 40.6076 6.02053 40.2914 6.07742C40.0606 6.1381 39.8397 6.23115 39.6353 6.35377C39.4852 6.49088 39.3626 6.65522 39.2741 6.83801C39.2002 7.05566 39.1583 7.2828 39.1495 7.51241C39.0948 8.03157 39.0948 8.55501 39.1495 9.07417C39.1967 9.37386 39.3039 9.66101 39.4649 9.91843C39.6492 10.0961 39.8745 10.2258 40.121 10.2962C40.4493 10.3596 40.7869 10.3596 41.1153 10.2962C41.398 10.1947 41.6678 10.0602 41.9189 9.89561L42.0053 10.2556H42.486V6.1839H42.0053ZM41.8782 9.47981C41.6447 9.62444 41.3967 9.74426 41.1382 9.8373C40.9139 9.88073 40.6834 9.88073 40.4592 9.8373C40.2605 9.78897 40.0824 9.67887 39.9506 9.52293C39.8569 9.3774 39.805 9.20902 39.8005 9.03613C39.7166 8.4696 39.7166 7.89386 39.8005 7.32733C39.8048 7.17445 39.8412 7.02416 39.9074 6.88619C39.9947 6.73512 40.1284 6.61603 40.2888 6.54645C40.5429 6.47256 40.8095 6.45184 41.072 6.4856C41.347 6.57142 41.6155 6.67648 41.8757 6.79999V9.47981H41.8782Z" fill="#0CAD77"/>
<path d="M41.9816 6.14014V6.18406H42.0048V6.14014H41.9816Z" fill="#0CAD77"/>
</svg>
