<svg width="106" height="32" viewBox="0 0 106 32" fill="none" xmlns="http://www.w3.org/2000/svg">
<path d="M32.526 6.61963C33.5396 7.21189 33.9484 8.1375 33.951 9.26666C33.956 11.8276 33.8762 14.3872 33.8022 16.9475C33.76 18.4101 33.7305 19.8739 33.7212 21.3371C33.7136 22.5786 33.1754 23.4924 32.1229 24.1304C31.1464 24.722 30.0506 25.0208 28.9937 25.4021C26.3982 26.3383 23.7971 27.2508 21.1991 28.1746C20.9835 28.2539 20.7611 28.3138 20.5347 28.3535C19.177 28.5771 18.2213 27.838 18.0919 26.4608C18.08 26.3352 18.078 26.2096 18.0774 26.084C18.0733 22.7888 18.0697 19.4937 18.0668 16.1989C18.0668 14.4751 18.8511 13.3629 20.4807 12.7833C21.8782 12.2859 23.2763 11.7914 24.675 11.2994C25.0242 11.0639 25.4286 10.9547 25.8174 10.8133C26.9126 10.4152 28.0197 10.0497 29.108 9.63403C29.5337 9.47947 29.9651 9.34012 30.3859 9.17052C30.8738 9.01604 31.3612 8.85652 31.8221 8.63548C32.2384 8.43452 32.4294 8.09481 32.4501 7.6307C32.4633 7.29536 32.3584 6.94623 32.526 6.61963Z" fill="#0C483C"/>
<path d="M9.27825 20.8054C9.30834 22.4049 9.34986 24.0044 9.29337 25.6033C9.24875 26.8441 7.87846 27.6837 6.60431 27.2454C5.32068 26.8058 4.05342 26.3134 2.77357 25.8544C2.17011 25.6371 1.58355 25.3922 1.08995 24.9753C0.370931 24.3642 0.00356173 23.5855 0.0028946 22.6392C0.0028946 18.5604 -0.00651798 14.481 0.00860367 10.4022C0.0129771 9.23547 0.573737 8.35567 1.56598 7.74902C1.67206 7.89601 1.57725 8.03226 1.5327 8.16346C1.39831 8.56033 1.36125 8.95787 1.47933 9.36356C1.47933 9.60157 1.6049 9.71528 1.83165 9.74034C2.61279 10.1535 3.46435 10.384 4.2864 10.6905C5.21712 11.0365 6.1603 11.348 7.09102 11.6953C7.32459 11.8001 7.57262 11.8768 7.78491 12.0275C7.91048 12.0991 8.02286 12.1926 8.14161 12.2755C8.30609 12.4137 8.48822 12.5361 8.57176 12.7478C8.58495 12.8347 8.61905 12.9171 8.67109 12.9881C8.72312 13.0589 8.79169 13.1162 8.87063 13.1547C9.10746 13.4875 9.29271 13.8398 9.28262 14.2644C9.24934 14.3472 9.18908 14.4207 9.19034 14.5155C9.23363 14.4911 9.1847 14.3359 9.31213 14.4232C9.43458 14.6506 9.38373 14.8885 9.35801 15.1253C9.32236 15.267 9.30946 15.4135 9.31969 15.5593C9.31969 17.0288 9.31279 18.4981 9.3254 19.9677C9.32977 20.2503 9.22169 20.5228 9.27825 20.8054Z" fill="#0C483C"/>
<path d="M9.22802 14.281C9.18369 13.8704 9.03522 13.4778 8.79653 13.1406C8.71173 13.0496 8.615 12.968 8.57356 12.8448C8.53153 12.5679 8.32235 12.4404 8.10576 12.3205L7.77797 12.0875C7.59481 11.9068 7.35516 11.7944 7.09906 11.7691C5.47385 11.1876 3.84909 10.605 2.22469 10.0214C2.06013 9.96237 1.9107 9.86001 1.75563 9.7778C1.67816 9.75727 1.60752 9.71657 1.55111 9.65972C1.4947 9.60286 1.45453 9.53193 1.43466 9.45432C1.23185 8.99844 1.30909 8.54946 1.46669 8.10167C1.50686 7.98611 1.57469 7.87744 1.56779 7.74876C1.87489 7.52453 2.22966 7.3977 2.58206 7.27213C5.93417 6.07559 9.28739 4.88239 12.6417 3.69259C13.117 3.52299 13.6006 3.38742 14.1118 3.44516C15.0538 3.55257 15.6856 4.20251 15.8218 5.2035C15.8525 5.43122 15.8678 5.66078 15.8676 5.8905C15.8706 9.1209 15.8706 12.3512 15.8676 15.5816C15.8715 15.958 15.8274 16.3335 15.7363 16.6988C15.4356 17.8586 14.6688 18.5908 13.5699 18.9878C12.1663 19.4958 10.7527 19.9774 9.3441 20.4698C9.24618 20.424 9.26375 20.3342 9.26375 20.2525C9.26375 18.5658 9.26375 16.879 9.26375 15.1922C9.26686 15.1593 9.27605 15.1271 9.29073 15.0974C9.29073 14.8601 9.33661 14.6195 9.2424 14.3884C9.19155 14.3601 9.20037 14.3225 9.22802 14.281Z" fill="#07362D"/>
<path d="M32.5261 6.61952C32.5299 6.98437 32.5475 7.34922 32.5356 7.71347C32.5205 8.16808 32.2976 8.50528 31.8862 8.70498C31.4071 8.93744 30.9009 9.09873 30.3941 9.25825C30.0669 9.23001 29.8245 9.47492 29.5206 9.52955C29.3887 9.55342 29.2311 9.55787 29.1438 9.701C28.1447 10.0621 27.1481 10.4301 26.1452 10.7805C25.6535 10.952 25.1819 11.1799 24.6732 11.3005C24.67 9.79329 24.5884 8.29121 24.6299 6.78527C24.6387 6.48387 24.6299 6.17862 24.7147 5.88479C25.018 4.81716 26.2036 4.22689 27.3334 4.59804C28.7237 5.05451 30.0763 5.61349 31.4417 6.13719C31.8121 6.27847 32.1946 6.39218 32.5261 6.61952Z" fill="#07362D"/>
<path d="M9.29082 15.0972C9.29712 16.7525 9.30357 18.4079 9.31024 20.0633C9.31024 20.1977 9.28897 20.3352 9.34604 20.4645C9.2519 20.5631 9.29897 20.6894 9.27822 20.8024C9.2035 20.7107 9.23434 20.6014 9.23434 20.5003C9.23434 18.7977 9.23434 17.0952 9.23434 15.3929C9.23434 15.2956 9.19979 15.1844 9.29082 15.0972Z" fill="#0C483C"/>
<path d="M63.5398 10.6279C63.0417 7.41327 61.4198 4.9497 58.5296 3.38728C56.7439 2.42201 54.8018 2.03834 52.7915 2.01699C50.1134 1.98867 47.4352 2.01699 44.7541 2.00506C43.3613 2.00068 42.3984 2.93889 42.3984 4.3286V16.789C42.3984 20.9831 42.3962 25.1774 42.3932 29.372C42.3932 29.61 42.4414 29.6903 42.6971 29.6859C44.2137 29.6727 45.7311 29.6822 47.2477 29.6784C48.5997 29.6784 49.5308 28.7364 49.5315 27.3844C49.5315 25.9727 49.5367 24.5584 49.5263 23.148C49.5263 22.9219 49.5715 22.8453 49.8147 22.8491C50.7768 22.8648 51.7397 22.8642 52.7041 22.8535C53.9212 22.8403 55.1243 22.7022 56.2984 22.3699C59.3131 21.5171 61.5732 19.7538 62.8259 16.8349C63.6836 14.8461 63.8696 12.7555 63.5398 10.6279ZM56.3429 13.9833C55.9664 15.5532 54.9456 16.438 53.3912 16.7168C52.1696 16.9366 50.9302 16.8003 49.6983 16.8324C49.4833 16.8381 49.5382 16.6854 49.5374 16.5717C49.5374 15.7666 49.5374 14.9616 49.5374 14.1566V13.0594C49.5374 11.9291 49.5374 10.7987 49.5374 9.6721C49.5374 8.71255 50.1897 8.05186 51.1474 8.05253C51.8383 8.05253 52.5291 8.02303 53.2141 8.12354C54.9501 8.37468 56.0686 9.43157 56.3963 11.1535C56.5809 12.0897 56.5631 13.0547 56.3429 13.9833Z" fill="#0C483C"/>
<path d="M105.441 8.95257C104.691 6.55052 103.206 4.72628 101.011 3.48913C99.1722 2.45418 97.1664 2.03782 95.0805 2.01521C92.4015 1.98571 89.7234 2.00832 87.0423 2.00772C85.6146 2.00772 84.6947 2.92829 84.6947 4.36262V16.7616C84.6947 20.9665 84.6947 25.1717 84.6947 29.3771C84.6947 29.5498 84.6665 29.6911 84.9356 29.6911C86.5056 29.6779 88.0748 29.6967 89.6448 29.6804C90.8901 29.6678 91.8115 28.7152 91.8137 27.4743C91.8137 26.0513 91.8241 24.6289 91.8056 23.2041C91.8019 22.9026 91.8982 22.848 92.1718 22.853C93.082 22.8687 93.993 22.8637 94.9026 22.8574C96.0671 22.8498 97.2212 22.7317 98.3494 22.4366C101.63 21.5737 104.044 19.6817 105.265 16.457C106.199 13.989 106.227 11.4682 105.441 8.95257ZM98.6526 13.8853C98.296 15.4949 97.2457 16.4758 95.6216 16.7289C94.4155 16.9172 93.1991 16.7992 91.9879 16.8338C91.7863 16.8394 91.8123 16.7113 91.8123 16.5826C91.8123 15.4103 91.8123 14.2381 91.8123 13.0659C91.8123 11.9573 91.8123 10.8478 91.8123 9.73756C91.8123 8.68564 92.4608 8.04193 93.5179 8.04193C94.2799 8.04512 95.0434 8.00494 95.7987 8.17135C97.3583 8.51359 98.3153 9.45499 98.6526 11.0148C98.8631 11.9601 98.8631 12.9401 98.6526 13.8853Z" fill="#0C483C"/>
<path d="M29.1457 9.70109C29.1142 9.69034 29.042 9.6621 29.0772 9.6489C29.4961 9.49124 29.9049 9.30229 30.3489 9.21875C30.3608 9.21875 30.3784 9.24447 30.3928 9.25826L29.1457 9.70109Z" fill="#0C483C"/>
<path d="M32.6014 7.73133V6.83203H32.6315V7.74393L32.6014 7.73133Z" fill="#0C483C"/>
<path d="M81.1239 16.4486C80.5991 14.0818 79.2641 12.3969 76.9165 11.6088C75.7935 11.232 74.6312 11.1215 73.4526 11.1315C69.819 11.1635 67.1097 13.0946 65.9978 16.5415C65.1016 19.3273 65.1654 22.1489 65.9978 24.9389C66.7072 27.3191 68.3343 28.7891 70.7263 29.414C72.5587 29.8925 74.4059 29.8975 76.2635 29.566C77.4999 29.3449 78.6755 28.9687 79.7266 28.261C80.224 27.9269 80.3019 27.6682 80.0698 27.1194C79.7526 26.3699 79.4324 25.6222 79.1084 24.8762C78.8705 24.3279 78.6066 24.2143 78.0373 24.3995C77.9187 24.4378 77.8053 24.4924 77.6882 24.5383C76.3873 25.0489 75.0508 25.3321 73.6439 25.2077C71.9383 25.0564 70.8879 24.019 70.7559 22.3423C70.7367 22.1125 70.8026 22.0647 71.0191 22.0659C72.3482 22.0747 73.6765 22.0703 75.0056 22.0703C76.3243 22.0703 77.643 22.0904 78.9617 22.0641C80.224 22.0383 81.0342 21.3324 81.2625 20.091C81.4901 18.8683 81.39 17.6493 81.1239 16.4486ZM75.692 18.5248H73.592C72.7751 18.5248 71.959 18.5122 71.1473 18.5317C70.8679 18.5386 70.8442 18.4387 70.896 18.212C70.9969 17.7426 71.174 17.2927 71.4201 16.8801C72.2422 15.5424 73.6506 15.3358 74.9011 15.7918C75.8261 16.129 76.1516 16.9303 76.2872 17.8302C76.3932 18.5241 76.388 18.5248 75.692 18.5248Z" fill="#0C483C"/>
<path d="M7.09924 11.7693C7.33096 11.7178 7.70077 11.8949 7.77994 12.0921L7.09924 11.7693Z" fill="#0C483C"/>
<path d="M8.10779 12.3228C8.34329 12.3491 8.61021 12.6267 8.60451 12.8383C8.54676 12.8597 8.526 12.8383 8.53045 12.7786C8.43683 12.5858 8.2484 12.4747 8.10779 12.3228Z" fill="#0C483C"/>
<path d="M8.53043 12.7783L8.60515 12.8379L8.79854 13.1425C8.63591 13.0753 8.50152 12.9868 8.53043 12.7783Z" fill="#0C483C"/>
<path d="M1.4347 9.45215L1.75566 9.77556C1.53521 9.78053 1.42588 9.67512 1.4347 9.45215Z" fill="#0C483C"/>
<path d="M9.22816 14.2812C9.23261 14.3171 9.23632 14.3535 9.24069 14.3893C9.23194 14.459 9.22312 14.5287 9.20748 14.6518C9.16538 14.4892 9.13647 14.3805 9.22816 14.2812Z" fill="#0C483C"/>
</svg>
