<svg width="55" height="12" viewBox="0 0 55 12" fill="none" xmlns="http://www.w3.org/2000/svg">
<path d="M42.1148 0.226562V3.84953L46.11 2.03931L42.1148 0.226562Z" fill="#0CAD77"/>
<path d="M46.11 2.03906V5.66205L50.1051 3.84929L46.11 2.03906Z" fill="#0CAD77"/>
<path d="M46.11 5.66211V9.28508L50.1051 7.47485L46.11 5.66211Z" fill="#0CAD77"/>
<path d="M50.1061 3.84961V7.47511L54.0986 5.66237L50.1061 3.84961Z" fill="#0CAD77"/>
<path d="M42.1149 3.84961V7.47511L46.11 5.66237L42.1149 3.84961Z" fill="#0CAD77"/>
<path d="M42.1149 7.47266V11.0982L46.11 9.28542L42.1149 7.47266Z" fill="#0CAD77"/>
<path d="M4.79638 1.62116C4.92285 1.61967 5.0483 1.64381 5.16512 1.69214C5.27647 1.74055 5.37879 1.80742 5.46774 1.8899C5.55493 1.97071 5.62497 2.06813 5.67373 2.17639C5.7219 2.28762 5.74616 2.40765 5.74494 2.52879V3.94351C5.74639 4.06467 5.72211 4.18477 5.67373 4.29592C5.62564 4.40531 5.55553 4.50368 5.46774 4.58495C5.37933 4.66746 5.27685 4.73356 5.16512 4.78016C5.04846 4.82929 4.92302 4.85431 4.79638 4.85369H1.35058L1.27429 4.84102V6.6563H0.485962V1.62116H4.79638ZM4.95659 2.52879C4.95675 2.50862 4.95252 2.48865 4.94417 2.47027C4.93583 2.45188 4.92358 2.43552 4.90827 2.42231C4.89372 2.40751 4.87629 2.39582 4.85705 2.38798C4.83781 2.38013 4.81717 2.37629 4.79638 2.37668H1.43451C1.41372 2.37629 1.39307 2.38013 1.37383 2.38798C1.35459 2.39582 1.33716 2.40751 1.32261 2.42231C1.30731 2.43552 1.29507 2.45188 1.28673 2.47027C1.27838 2.48865 1.27414 2.50862 1.27429 2.52879V3.94351C1.27394 3.96408 1.27807 3.98449 1.28642 4.00331C1.29476 4.02214 1.30711 4.03893 1.32261 4.05252C1.33716 4.06733 1.35459 4.07901 1.37383 4.08686C1.39307 4.09471 1.41372 4.09855 1.43451 4.09816H4.79638C4.81717 4.09855 4.83781 4.09471 4.85705 4.08686C4.87629 4.07901 4.89372 4.06733 4.90827 4.05252C4.92377 4.03893 4.93613 4.02214 4.94447 4.00331C4.95281 3.98449 4.95694 3.96408 4.95659 3.94351V2.52879Z" fill="#0CAD77"/>
<path d="M6.12659 1.60596H6.91492V5.89572H11.3856V6.65124H6.12659V1.60596Z" fill="#0CAD77"/>
<path d="M16.1333 1.61343C16.2595 1.61241 16.3847 1.63565 16.5021 1.68189C16.6149 1.72898 16.7183 1.79596 16.8072 1.87963C16.8932 1.96194 16.9623 2.0601 17.0107 2.16866C17.0599 2.28052 17.085 2.40146 17.0844 2.52362V6.65365H16.2961V4.87892H12.6138V6.65365H11.8229V2.52362C11.8223 2.40146 11.8474 2.28052 11.8966 2.16866C11.9451 2.05949 12.0152 1.96118 12.1026 1.87963C12.1913 1.79312 12.2962 1.72503 12.4115 1.67933C12.5267 1.63363 12.65 1.61123 12.774 1.61343H16.1333ZM16.2961 4.13354V2.52362C16.2959 2.50311 16.2916 2.48286 16.2833 2.4641C16.275 2.44535 16.2629 2.4285 16.2478 2.4146C16.2327 2.39984 16.2148 2.3882 16.1951 2.38037C16.1755 2.37254 16.1545 2.36866 16.1333 2.36896H12.774C12.7313 2.36863 12.6902 2.38502 12.6596 2.4146C12.6448 2.42863 12.6331 2.44555 12.6252 2.46432C12.6173 2.48308 12.6134 2.50328 12.6138 2.52362V4.13354H16.2961Z" fill="#0CAD77"/>
<path d="M22.8344 1.61328L20.4084 4.76215V6.65096H19.62V4.76215L17.194 1.61328H18.1222L20.0142 3.90774L21.8986 1.61328H22.8344Z" fill="#0CAD77"/>
<path d="M28.1507 2.81758H27.3623V2.52349C27.3627 2.50291 27.3585 2.48251 27.3502 2.46368C27.3418 2.44486 27.3295 2.42807 27.314 2.41447C27.2995 2.39967 27.282 2.38798 27.2628 2.38014C27.2436 2.37229 27.2229 2.36844 27.2021 2.36884H23.8428C23.822 2.36844 23.8013 2.37229 23.7821 2.38014C23.7629 2.38798 23.7454 2.39967 23.7309 2.41447C23.7154 2.42807 23.703 2.44486 23.6947 2.46368C23.6863 2.48251 23.6822 2.50291 23.6826 2.52349V3.601C23.6824 3.62155 23.6866 3.6419 23.6949 3.6607C23.7032 3.6795 23.7155 3.69632 23.7309 3.71002C23.7454 3.72482 23.7629 3.73651 23.7821 3.74436C23.8013 3.7522 23.822 3.75605 23.8428 3.75565H27.2046C27.3308 3.75482 27.456 3.77806 27.5734 3.82411C27.6856 3.86974 27.7883 3.93595 27.876 4.01932C27.9623 4.10233 28.0314 4.20139 28.0795 4.31089C28.1296 4.42155 28.1548 4.54186 28.1532 4.6633V5.74335C28.1548 5.86479 28.1296 5.98508 28.0795 6.09575C28.0314 6.20525 27.9623 6.30431 27.876 6.38732C27.7883 6.47069 27.6856 6.53691 27.5734 6.58254C27.4561 6.6294 27.331 6.65349 27.2046 6.65352H23.8428C23.7164 6.65349 23.5913 6.6294 23.474 6.58254C23.2478 6.4919 23.0655 6.31744 22.9654 6.09575C22.9173 5.98453 22.893 5.86449 22.8942 5.74335V5.44924H23.6826V5.74335C23.6824 5.76353 23.6867 5.78349 23.695 5.80187C23.7033 5.82026 23.7156 5.83662 23.7309 5.84983C23.7454 5.86463 23.7629 5.87632 23.7821 5.88417C23.8013 5.89201 23.822 5.89586 23.8428 5.89546H27.2046C27.2254 5.89586 27.2461 5.89201 27.2653 5.88417C27.2846 5.87632 27.302 5.86463 27.3165 5.84983C27.3318 5.83662 27.3441 5.82026 27.3524 5.80187C27.3608 5.78349 27.365 5.76353 27.3649 5.74335V4.6633C27.365 4.64312 27.3608 4.62315 27.3524 4.60476C27.3441 4.58638 27.3318 4.57001 27.3165 4.55681C27.302 4.542 27.2846 4.53032 27.2653 4.52247C27.2461 4.51462 27.2254 4.51078 27.2046 4.51117H23.8428C23.7163 4.51238 23.5909 4.48825 23.474 4.44019C23.3613 4.39552 23.2585 4.32918 23.1714 4.24497C23.0846 4.16185 23.0147 4.06287 22.9654 3.95341C22.9173 3.84219 22.893 3.72214 22.8942 3.601V2.52349C22.8927 2.40151 22.917 2.28056 22.9654 2.16854C23.0148 2.05986 23.0847 1.96171 23.1714 1.87951C23.259 1.79537 23.3617 1.72831 23.474 1.68176C23.5914 1.63571 23.7166 1.61247 23.8428 1.6133H27.2046C27.3308 1.61247 27.456 1.63571 27.5734 1.68176C27.6857 1.72831 27.7884 1.79537 27.876 1.87951C27.9627 1.96115 28.0319 2.05948 28.0795 2.16854C28.1299 2.28001 28.1551 2.40121 28.1532 2.52349L28.1507 2.81758Z" fill="#0CAD77"/>
<path d="M32.937 1.61343C33.061 1.61123 33.1843 1.63363 33.2995 1.67933C33.4148 1.72503 33.5198 1.79312 33.6084 1.87963C33.6959 1.96118 33.7659 2.05949 33.8144 2.16866C33.8628 2.28069 33.8871 2.40163 33.8856 2.52362V5.74348C33.8868 5.86461 33.8625 5.98465 33.8144 6.09587C33.7653 6.20546 33.6954 6.30449 33.6084 6.38744C33.5207 6.47081 33.418 6.53704 33.3058 6.58267C33.1884 6.6289 33.0632 6.65213 32.937 6.65111H29.5751C29.3267 6.65755 29.0856 6.56651 28.9038 6.39758C28.8184 6.31388 28.7493 6.215 28.7003 6.10602C28.6514 5.99497 28.6263 5.87492 28.6266 5.75361V2.53375C28.626 2.41159 28.6511 2.29068 28.7003 2.17882C28.7488 2.07025 28.8179 1.97209 28.9038 1.88979C28.992 1.80637 29.0945 1.73938 29.2064 1.69202C29.3238 1.64597 29.449 1.62275 29.5751 1.62358L32.937 1.61343ZM32.937 5.89559C32.9578 5.89598 32.9785 5.89214 32.9977 5.88429C33.0169 5.87644 33.0344 5.86476 33.0489 5.84996C33.0642 5.83675 33.0765 5.82038 33.0848 5.802C33.0932 5.78362 33.0974 5.76365 33.0972 5.74348V2.52362C33.0976 2.50304 33.0934 2.48263 33.0851 2.46381C33.0768 2.44498 33.0644 2.42819 33.0489 2.4146C33.0344 2.39979 33.0169 2.38811 32.9977 2.38026C32.9785 2.37241 32.9578 2.36857 32.937 2.36896H29.5751C29.5544 2.36857 29.5337 2.37241 29.5145 2.38026C29.4952 2.38811 29.4778 2.39979 29.4632 2.4146C29.4478 2.42819 29.4354 2.44498 29.4271 2.46381C29.4187 2.48263 29.4146 2.50304 29.4149 2.52362V5.74348C29.4148 5.76365 29.419 5.78362 29.4274 5.802C29.4357 5.82038 29.4479 5.83675 29.4632 5.84996C29.4778 5.86476 29.4952 5.87644 29.5145 5.88429C29.5337 5.89214 29.5544 5.89598 29.5751 5.89559H32.937Z" fill="#0CAD77"/>
<path d="M38.8687 1.61328H39.657V6.65096H38.7212L35.1864 2.61981V6.65096H34.3981V1.61328H35.3314L38.8687 5.64445V1.61328Z" fill="#0CAD77"/>
<path d="M9.72153 9.98523V9.861C9.53502 9.9583 9.32907 10.0129 9.1187 10.0207C8.70664 10.0207 8.60999 9.78747 8.60999 9.42238V8.4539H8.81094V9.42238C8.81094 9.74944 8.89233 9.86354 9.16195 9.86354C9.35836 9.85204 9.55041 9.80116 9.72662 9.71395V8.44629H9.93011V9.96748L9.72153 9.98523Z" fill="#0CAD77"/>
<path d="M11.4292 9.98508V9.01405C11.4292 8.687 11.3528 8.57291 11.0807 8.57291C10.8848 8.58588 10.6932 8.63578 10.516 8.71996V9.98762H10.3151V8.46643H10.516V8.57291C10.6958 8.47667 10.8947 8.42126 11.0985 8.41064C11.536 8.41064 11.6352 8.61854 11.6352 9.01151V9.98255L11.4292 9.98508Z" fill="#0CAD77"/>
<path d="M12.028 8.15427V7.81201H12.2365V8.16189L12.028 8.15427ZM12.028 9.98478V8.46359H12.2315V9.98478H12.028Z" fill="#0CAD77"/>
<path d="M13.6714 10.5733V9.92425C13.5095 9.98853 13.3368 10.0212 13.1626 10.0206C12.7379 10.0206 12.5446 9.82537 12.5446 9.28535V9.17125C12.5446 8.58052 12.7811 8.41066 13.3076 8.41066C13.4981 8.41018 13.6884 8.42204 13.8774 8.44616V10.5708L13.6714 10.5733ZM13.6714 8.59067C13.5518 8.59067 13.3865 8.57546 13.3 8.57546C12.9261 8.57546 12.7557 8.66926 12.7557 9.17125V9.28535C12.7557 9.71889 12.8752 9.85833 13.2008 9.85833C13.3614 9.85563 13.5203 9.8265 13.6714 9.77212V8.59067Z" fill="#0CAD77"/>
<path d="M15.3788 9.98523V9.861C15.1922 9.9583 14.9863 10.0129 14.7759 10.0207C14.3613 10.0207 14.2672 9.78747 14.2672 9.42238V8.4539H14.4656V9.42238C14.4656 9.74944 14.547 9.86354 14.8192 9.86354C15.0156 9.85204 15.2076 9.80116 15.3838 9.71395V8.44629H15.5848V9.96748L15.3788 9.98523Z" fill="#0CAD77"/>
<path d="M16.0922 9.28289V9.31585C16.0922 9.66573 16.199 9.86095 16.6594 9.86095C16.8535 9.85919 17.0472 9.84478 17.2393 9.81784V9.96489C17.0467 10.0026 16.8507 10.0213 16.6543 10.0207C16.0769 10.0207 15.8912 9.78743 15.8912 9.27529V9.1688C15.8912 8.68962 16.1049 8.4082 16.5907 8.4082C17.0765 8.4082 17.2953 8.67948 17.2953 9.18401V9.27783L16.0922 9.28289ZM17.0842 9.10036C17.0842 8.82908 17.0002 8.57301 16.5907 8.57301C16.1812 8.57301 16.0973 8.82654 16.0973 9.10036V9.12824H17.0893L17.0842 9.10036Z" fill="#0CAD77"/>
<path d="M18.7151 10.6011C18.5176 10.5984 18.3205 10.5831 18.125 10.5554V10.4185C18.3107 10.4337 18.5116 10.4439 18.7151 10.4439C19.0865 10.4439 19.1628 10.3323 19.1628 10.0408V9.9647C19.0306 9.99921 18.8949 10.0179 18.7583 10.0205C18.2878 10.0205 18.0436 9.8354 18.0436 9.31566V9.11791C18.0436 8.6362 18.2623 8.41309 18.8067 8.41309C18.9972 8.41631 19.1874 8.42986 19.3764 8.45366V10.0408C19.3662 10.4058 19.234 10.6011 18.7151 10.6011ZM19.1628 8.59564C19.0412 8.58043 18.919 8.57196 18.7965 8.57027C18.387 8.57027 18.2471 8.73508 18.2471 9.11791V9.31566C18.2471 9.72892 18.3946 9.8633 18.7558 9.8633C18.8914 9.86139 19.0263 9.84351 19.1577 9.81005L19.1628 8.59564Z" fill="#0CAD77"/>
<path d="M20.7361 9.98499V9.87343C20.5635 9.96962 20.3692 10.0202 20.1714 10.0205C19.8408 10.0205 19.6627 9.8861 19.6627 9.58186V9.53877C19.6627 9.14833 19.94 9.06974 20.4258 9.06974H20.7107V8.94044C20.7107 8.64127 20.6395 8.57027 20.263 8.57027C20.0929 8.5715 19.9231 8.5825 19.7543 8.60323V8.46633C19.9219 8.43314 20.0922 8.41531 20.263 8.41309C20.8022 8.41309 20.9014 8.58042 20.9014 8.94044V9.98499H20.7361ZM20.7361 9.22439H20.4512C20.0417 9.22439 19.8789 9.27509 19.8789 9.5489V9.58694C19.8789 9.79991 20.0112 9.8709 20.2223 9.8709C20.4003 9.86532 20.5744 9.81844 20.731 9.73399L20.7361 9.22439Z" fill="#0CAD77"/>
<path d="M23.2106 9.98481V8.97068C23.2106 8.71715 23.1878 8.58277 22.9131 8.58277C22.7452 8.5926 22.5822 8.64214 22.4374 8.72728C22.4537 8.81077 22.4605 8.89581 22.4577 8.98082V9.99495H22.2543V8.98082C22.2543 8.72728 22.2365 8.59292 21.9719 8.59292C21.8062 8.60525 21.6453 8.65465 21.5014 8.73744V10.0051H21.3004V8.4839H21.5014V8.57263C21.6531 8.4741 21.829 8.41886 22.0101 8.41291C22.0831 8.4035 22.1573 8.41467 22.2243 8.44514C22.2913 8.47561 22.3484 8.52416 22.3891 8.58531C22.5513 8.47931 22.7395 8.41969 22.9334 8.41291C23.3887 8.41291 23.409 8.70448 23.409 8.96055V9.97467L23.2106 9.98481Z" fill="#0CAD77"/>
<path d="M23.8082 8.15427V7.81201H24.0168V8.16189L23.8082 8.15427ZM23.8082 9.98478V8.46359H24.0143V9.98478H23.8082Z" fill="#0CAD77"/>
<path d="M25.5342 9.98508V9.01405C25.5342 8.687 25.4554 8.57291 25.1832 8.57291C24.9882 8.58589 24.7974 8.6358 24.6211 8.71996V9.98762H24.4176V8.46643H24.6211V8.57291C24.8006 8.47604 24.9997 8.42058 25.2036 8.41064C25.6385 8.41064 25.7403 8.61854 25.7403 9.01151V9.98255L25.5342 9.98508Z" fill="#0CAD77"/>
<path d="M26.7122 10.6011C26.5147 10.5984 26.3176 10.5831 26.122 10.5554V10.4185C26.3077 10.4337 26.5087 10.4439 26.7122 10.4439C27.0835 10.4439 27.1598 10.3323 27.1598 10.0408V9.9647C27.0277 9.99921 26.8919 10.0179 26.7554 10.0205C26.2848 10.0205 26.0406 9.8354 26.0406 9.31566V9.11791C26.0406 8.6362 26.2594 8.41309 26.8037 8.41309C26.9942 8.41631 27.1844 8.42986 27.3735 8.45366V10.0408C27.3633 10.4058 27.2311 10.6011 26.7122 10.6011ZM27.1598 8.59564C27.0383 8.58043 26.916 8.57196 26.7935 8.57027C26.384 8.57027 26.2441 8.73508 26.2441 9.11791V9.31566C26.2441 9.72892 26.3917 9.8633 26.7529 9.8633C26.8884 9.86139 27.0233 9.84351 27.1547 9.81005L27.1598 8.59564Z" fill="#0CAD77"/>
<path d="M28.7395 10.0206C28.5575 10.0202 28.376 10.0015 28.1977 9.96485V9.82033C28.3756 9.84502 28.5548 9.85942 28.7344 9.86344C29.0524 9.86344 29.1516 9.76456 29.1516 9.60991C29.1516 9.45526 29.0778 9.39694 28.7726 9.28538L28.6505 9.24229C28.3249 9.12313 28.1774 9.00397 28.1774 8.78593C28.1774 8.56789 28.3732 8.41323 28.7802 8.41323C28.9513 8.41127 29.122 8.42915 29.2889 8.46648V8.60846C29.1278 8.58753 28.9656 8.57568 28.8031 8.57296C28.5233 8.57296 28.3961 8.6186 28.3961 8.78593C28.3961 8.95326 28.4826 8.99129 28.7446 9.08763L28.8641 9.13327C29.2431 9.27525 29.3729 9.37412 29.3729 9.60737C29.3729 9.84062 29.2177 10.0206 28.7395 10.0206Z" fill="#0CAD77"/>
<path d="M30.2599 10.0205C29.7817 10.0205 29.5553 9.76694 29.5553 9.29791V9.13565C29.5553 8.66408 29.7817 8.41309 30.2599 8.41309C30.7381 8.41309 30.9644 8.66661 30.9644 9.13565V9.29791C30.9644 9.77202 30.7406 10.0205 30.2599 10.0205ZM30.7686 9.13565C30.7686 8.74267 30.621 8.57535 30.2599 8.57535C29.8987 8.57535 29.7511 8.74267 29.7511 9.13565V9.29791C29.7511 9.69088 29.9012 9.86076 30.2599 9.86076C30.6185 9.86076 30.7686 9.69088 30.7686 9.29791V9.13565Z" fill="#0CAD77"/>
<path d="M31.2916 9.98478V7.81201H31.4926V9.99238L31.2916 9.98478Z" fill="#0CAD77"/>
<path d="M32.9983 9.98523V9.861C32.8125 9.95794 32.6075 10.0125 32.398 10.0207C31.9834 10.0207 31.8893 9.78747 31.8893 9.42238V8.4539H32.0877V9.42238C32.0877 9.74944 32.1691 9.86354 32.4387 9.86354C32.6351 9.85232 32.8273 9.80142 33.0034 9.71395V8.44629H33.2069V9.96748L32.9983 9.98523Z" fill="#0CAD77"/>
<path d="M34.1641 10.0206C33.8792 10.0206 33.7825 9.92173 33.7825 9.64031V8.60844L33.4137 8.59323V8.45379H33.7825V8.04053H33.9835V8.45379H34.4693V8.60844H33.9835V9.62256C33.9835 9.81525 34.0114 9.86089 34.1869 9.86089C34.2709 9.86089 34.3955 9.86089 34.4693 9.86089V9.99019C34.3686 10.0088 34.2665 10.019 34.1641 10.0206Z" fill="#0CAD77"/>
<path d="M34.7115 8.15427V7.81201H34.9201V8.16189L34.7115 8.15427ZM34.7115 9.98478V8.46359H34.9176V9.98478H34.7115Z" fill="#0CAD77"/>
<path d="M35.9532 10.0205C35.4725 10.0205 35.2487 9.76694 35.2487 9.29791V9.13565C35.2487 8.66408 35.4725 8.41309 35.9532 8.41309C36.434 8.41309 36.6578 8.66661 36.6578 9.13565V9.29791C36.6578 9.77202 36.4314 10.0205 35.9532 10.0205ZM36.462 9.13565C36.462 8.74267 36.3119 8.57535 35.9532 8.57535C35.5946 8.57535 35.4445 8.74267 35.4445 9.13565V9.29791C35.4445 9.69088 35.5946 9.86076 35.9532 9.86076C36.3119 9.86076 36.462 9.69088 36.462 9.29791V9.13565Z" fill="#0CAD77"/>
<path d="M38.084 9.98508V9.01405C38.084 8.687 38.0052 8.57291 37.7356 8.57291C37.5396 8.58526 37.3479 8.63519 37.1709 8.71996V9.98762H36.9674V8.46643H37.1709V8.57291C37.3504 8.47604 37.5495 8.42058 37.7534 8.41064C38.1909 8.41064 38.2901 8.61854 38.2901 9.01151V9.98255L38.084 9.98508Z" fill="#0CAD77"/>
<path d="M39.1415 10.0206C38.9595 10.0202 38.7779 10.0015 38.5997 9.96485V9.82033C38.7776 9.84502 38.9568 9.85942 39.1364 9.86344C39.4543 9.86344 39.5535 9.76456 39.5535 9.60991C39.5535 9.45526 39.4772 9.39694 39.172 9.28538L39.0524 9.24229C38.7269 9.12313 38.5768 9.00397 38.5768 8.78593C38.5768 8.56789 38.7752 8.41323 39.1822 8.41323C39.3532 8.41127 39.5239 8.42915 39.6909 8.46648V8.60846C39.5297 8.58763 39.3675 8.57578 39.2051 8.57296C38.9227 8.57296 38.7955 8.6186 38.7955 8.78593C38.7955 8.95326 38.882 8.99129 39.144 9.08763L39.2661 9.13327C39.6425 9.27525 39.7748 9.37412 39.7748 9.60737C39.7748 9.84062 39.612 10.0206 39.1415 10.0206Z" fill="#0CAD77"/>
</svg>
