<svg width="38" height="36" viewBox="0 0 38 36" fill="none" xmlns="http://www.w3.org/2000/svg">
<path d="M28.6311 15.1214L27.4463 14.8038L25.3937 13.1543L26.3459 10.6981L27.2129 9.8318C27.4691 9.5762 27.4691 9.16053 27.2129 8.90426C26.9567 8.648 26.5416 8.648 26.2853 8.90426L25.4167 9.77228L22.9621 10.7241L21.3145 8.67407L20.9969 7.48673C20.9021 7.1389 20.546 6.9275 20.1936 7.02296C19.8439 7.11651 19.6351 7.47583 19.7286 7.82623L20.0456 9.01115L19.6427 11.6138L17.0423 12.016L15.8571 11.6984C15.5047 11.6055 15.1473 11.8124 15.0525 12.1621C14.959 12.5119 15.1666 12.8719 15.5163 12.9654L16.7011 13.283L18.7536 14.9325L17.8025 17.3865L15.2761 19.9136L16.2041 20.8406L18.7276 18.3162L21.1839 17.3633L22.833 19.4139L23.1504 20.6001C23.2298 20.8928 23.495 21.0863 23.7845 21.0863C23.8396 21.0863 23.8972 21.0792 23.9537 21.0639C24.3034 20.9703 24.5122 20.611 24.4187 20.2606L24.1017 19.0757L24.5046 16.473L27.105 16.0708L28.2902 16.3884C28.3479 16.4038 28.4043 16.4108 28.4606 16.4108C28.7502 16.4108 29.0153 16.2181 29.0947 15.9247C29.1883 15.5749 28.9808 15.215 28.6311 15.1214ZM13.8844 20.3771C13.6282 20.1209 13.2131 20.1209 12.9568 20.3771L8.07496 25.2596C7.81876 25.5158 7.81876 25.9309 8.07496 26.1872L9.92996 28.0422C10.0581 28.1703 10.2259 28.2344 10.3937 28.2344C10.5616 28.2344 10.7294 28.1703 10.8575 28.0422L15.7407 23.1597C15.8637 23.0366 15.9329 22.8701 15.9329 22.6959C15.9329 22.5217 15.8637 22.3551 15.7407 22.2321L13.8844 20.3771Z" fill="url(#paint0_linear_607_1628)"/>
<defs>
<linearGradient id="paint0_linear_607_1628" x1="18.5" y1="7" x2="18.5" y2="28.2344" gradientUnits="userSpaceOnUse">
<stop stop-color="#4DFFC2"/>
<stop offset="1" stop-color="#29D27C"/>
</linearGradient>
</defs>
</svg>
