<svg width="63" height="11" viewBox="0 0 63 11" fill="none" xmlns="http://www.w3.org/2000/svg">
<path d="M3.7402 2.60592C3.6512 2.35239 3.56219 2.09886 3.4859 1.84533C3.41341 1.5837 3.35735 1.31782 3.31806 1.04923C3.29517 0.899649 3.30026 0.897117 3.44267 0.846411C3.7325 0.743645 4.03134 0.668098 4.33527 0.620764C4.47768 0.597946 4.48531 0.603016 4.50311 0.74753C4.58286 1.35051 4.75437 1.93785 5.01171 2.48929C5.04223 2.55268 5.05749 2.6541 5.12361 2.65663C5.18973 2.65917 5.22278 2.55267 5.2533 2.48676C5.51117 1.94174 5.68274 1.36016 5.76191 0.762741C5.78225 0.60048 5.78734 0.59541 5.95009 0.620764C6.25405 0.670413 6.55283 0.747647 6.84269 0.851486C6.97493 0.897122 6.97239 0.90218 6.95204 1.04416C6.88125 1.52339 6.76109 1.99407 6.59348 2.44874C6.57313 2.49944 6.51719 2.56029 6.57313 2.60846C6.62908 2.65663 6.67231 2.60846 6.72063 2.57804C7.19592 2.38367 7.62803 2.09762 7.99214 1.73631L8.043 1.6856C8.17524 1.55376 8.17524 1.55376 8.32528 1.6856C8.55153 1.86763 8.7609 2.06958 8.95086 2.28901C9.04495 2.40056 9.04241 2.40309 8.95086 2.5045C8.25368 3.2371 7.3577 3.75157 6.37223 3.98514C6.32585 3.99343 6.28 4.00444 6.23491 4.0181C6.12556 4.05106 6.11793 4.07387 6.20185 4.15754C6.4761 4.43498 6.77866 4.68309 7.10463 4.89785C7.20635 4.9663 7.20889 4.96377 7.32841 4.85221C7.82683 4.38896 8.39812 4.01039 9.01952 3.73161C9.20262 3.64794 9.39081 3.57695 9.58153 3.5085C9.70868 3.46033 9.72903 3.47046 9.78243 3.59723C9.89877 3.87501 9.98984 4.16267 10.0545 4.4567C10.0851 4.59108 10.0825 4.59868 9.94519 4.64685C9.64357 4.75246 9.35242 4.88571 9.07547 5.0449C8.89918 5.14868 8.72934 5.26297 8.56687 5.38716C8.52109 5.42012 8.44734 5.44801 8.45497 5.51139C8.4626 5.57477 8.55415 5.58493 8.6101 5.60267C9.03388 5.73633 9.47156 5.82139 9.91467 5.85621C10.2478 5.88156 10.1842 5.86888 10.1563 6.15283C10.1321 6.4199 10.0818 6.68398 10.0062 6.94132C9.96553 7.07822 9.96299 7.0833 9.82058 7.07316C9.33666 7.03827 8.85769 6.9533 8.3914 6.81963C7.227 6.47991 6.16821 5.85092 5.31433 4.99165C5.14395 4.82179 5.17447 4.80404 4.99137 4.99165C4.08344 5.91196 2.94015 6.56693 1.68544 6.88555C1.30117 6.98483 0.908872 7.05014 0.5131 7.08076C0.332545 7.09343 0.335088 7.08077 0.281685 6.91851C0.205809 6.64634 0.153904 6.36808 0.12656 6.08691C0.106216 5.8993 0.108759 5.89169 0.309658 5.87902C0.740425 5.8498 1.16675 5.77414 1.58117 5.65337L1.80241 5.57985C1.86345 5.55957 1.87108 5.51647 1.82276 5.47591C1.77444 5.43534 1.68289 5.36689 1.61169 5.31618C1.21997 5.04185 0.793194 4.821 0.342717 4.65953C0.185049 4.60375 0.185049 4.60376 0.220652 4.44657C0.285714 4.15859 0.378542 3.87755 0.497842 3.60738C0.563961 3.45526 0.566503 3.45272 0.719085 3.50596C1.22893 3.68139 1.71431 3.92079 2.16352 4.21838C2.44765 4.41035 2.7171 4.62306 2.96966 4.85475C3.0841 4.95616 3.0841 4.95363 3.20871 4.86996C3.49984 4.67793 3.77077 4.45709 4.01739 4.21079C4.04812 4.18312 4.07701 4.15347 4.10385 4.12204C4.14709 4.07133 4.12674 4.03584 4.07079 4.01556C4.03757 4.00394 4.00359 3.99462 3.96907 3.98768C2.97376 3.76116 2.06674 3.24909 1.35993 2.51466L1.31161 2.46395C1.30103 2.45564 1.29248 2.44504 1.2866 2.43297C1.28072 2.42089 1.27766 2.40764 1.27766 2.39422C1.27766 2.38079 1.28072 2.36755 1.2866 2.35547C1.29248 2.34339 1.30103 2.33281 1.31161 2.32451C1.54423 2.06264 1.79952 1.8217 2.07452 1.60447C2.13047 1.55883 2.17115 1.58673 2.21184 1.62729C2.34264 1.77233 2.4828 1.90868 2.63144 2.03548C2.92893 2.27041 3.25863 2.46165 3.61051 2.60339C3.62981 2.61318 3.65115 2.61829 3.67281 2.61829C3.69447 2.61829 3.71582 2.61318 3.73512 2.60339" fill="#0CAD77"/>
<path d="M5.12551 10.5926C4.97801 10.5926 4.83052 10.5926 4.68302 10.5926C4.53553 10.5926 4.53298 10.5596 4.53298 10.4278C4.53298 9.97905 4.53298 9.5303 4.53298 9.08409C4.53673 8.94825 4.49061 8.81573 4.40329 8.7114C3.91503 8.08518 3.42931 7.44373 2.94613 6.82005C2.82153 6.65779 2.82407 6.65779 3.01225 6.56651C3.25869 6.45128 3.49814 6.32175 3.72939 6.1786C3.90486 6.06958 3.90486 6.07212 4.02438 6.22931C4.35328 6.65187 4.68048 7.07442 5.00599 7.49697C5.13822 7.66684 5.14077 7.66684 5.26029 7.49697C5.59597 7.0609 5.92911 6.62483 6.26479 6.19129C6.36651 6.05692 6.36905 6.05692 6.50383 6.14312C6.76594 6.30333 7.03676 6.44891 7.31505 6.57919C7.43712 6.6375 7.43966 6.65525 7.35829 6.7592C6.84968 7.41585 6.35633 8.0725 5.84773 8.72407C5.77348 8.8157 5.73467 8.93085 5.73838 9.04859C5.73838 9.4948 5.73838 9.94355 5.73838 10.3923C5.73838 10.5546 5.73838 10.5673 5.57562 10.5774C5.41287 10.5875 5.26792 10.5774 5.11534 10.5774" fill="#0CAD77"/>
<path d="M22.8528 6.29993C22.8528 6.55347 22.8528 6.807 22.8528 7.06053C22.8571 7.12425 22.8446 7.18798 22.8165 7.24537C22.7884 7.30276 22.7457 7.3518 22.6926 7.38758C21.7135 8.12789 20.3632 8.14818 19.5418 7.6259C18.7611 7.14166 18.4508 6.42162 18.4686 5.52665C18.4966 3.97757 19.8724 3.05471 21.2303 3.22965C21.7014 3.27793 22.1522 3.44551 22.54 3.71644C22.6697 3.81025 22.7002 3.90659 22.5781 4.03082C22.5375 4.06885 22.5069 4.11956 22.4663 4.16012C22.3315 4.30464 22.2526 4.53281 22.0619 4.58605C21.8712 4.6393 21.744 4.42887 21.5813 4.35027C21.3336 4.21949 21.052 4.16622 20.7735 4.19743C20.4949 4.22864 20.2323 4.34287 20.0199 4.52521C19.7898 4.74313 19.6352 5.02837 19.5785 5.33967C19.5219 5.65097 19.566 5.97218 19.7045 6.25682C19.8212 6.51264 20.017 6.72449 20.2632 6.86136C20.5094 6.99823 20.7931 7.05292 21.0727 7.01742C21.2732 7.00304 21.4695 6.95326 21.6525 6.87038C21.7054 6.85018 21.7516 6.81581 21.7862 6.77108C21.8207 6.72635 21.8422 6.67298 21.8483 6.61685C21.8966 6.23909 21.8483 6.17062 21.4592 6.16048C20.7141 6.14527 20.8387 6.29486 20.826 5.48863C20.826 5.32383 20.8463 5.22242 21.0523 5.2351C21.5609 5.24777 22.0695 5.2351 22.5985 5.2351C22.7841 5.2351 22.8528 5.30862 22.8528 5.48863C22.8528 5.75991 22.8528 6.03119 22.8528 6.30247V6.29993Z" fill="#0CAD77"/>
<path d="M29.3181 6.27982C29.3181 6.53335 29.3181 6.78688 29.3181 7.04041C29.3215 7.11083 29.3067 7.18093 29.2751 7.24398C29.2434 7.30703 29.1961 7.36091 29.1375 7.40043C28.697 7.72261 28.1756 7.91685 27.6311 7.9616C27.0866 8.00636 26.5403 7.89987 26.0528 7.65396C25.6065 7.38228 25.2625 6.97151 25.074 6.48523C24.8855 5.99894 24.8631 5.46427 25.0102 4.96399C25.1662 4.40088 25.5225 3.91362 26.0124 3.59313C26.5023 3.27263 27.0925 3.14079 27.6727 3.22222C28.1451 3.26649 28.5975 3.43345 28.9849 3.70646C29.135 3.81548 29.1553 3.91944 29.0231 4.05128C28.9824 4.09184 28.9493 4.14 28.9112 4.1831C28.7891 4.32255 28.6899 4.5127 28.5348 4.58369C28.3797 4.65468 28.2246 4.4341 28.0644 4.35804C27.7856 4.20748 27.4635 4.15657 27.1517 4.21376C26.8399 4.27095 26.5571 4.4328 26.3504 4.67242C26.1309 4.92423 26.0068 5.24474 25.9997 5.57826C25.9925 5.91178 26.1028 6.23724 26.3113 6.49815C26.5198 6.75905 26.8134 6.93891 27.1411 7.00648C27.4688 7.07404 27.8098 7.02505 28.105 6.86801C28.2006 6.79724 28.2703 6.69717 28.3034 6.58315C28.3364 6.46912 28.3311 6.34743 28.2881 6.23672C28.2749 6.21177 28.2552 6.19082 28.231 6.17609C28.2068 6.16137 28.1791 6.15342 28.1508 6.15305C28.0669 6.15305 27.9804 6.15305 27.8965 6.15305C27.7058 6.13023 27.4388 6.257 27.3345 6.077C27.2302 5.89699 27.2989 5.60289 27.3015 5.36203C27.3015 5.2733 27.365 5.23781 27.4439 5.23781C28.016 5.23781 28.5908 5.23781 29.1629 5.23781C29.2876 5.23781 29.3359 5.30626 29.3359 5.42795C29.3359 5.71191 29.3359 5.9984 29.3359 6.28489L29.3181 6.27982Z" fill="#0CAD77"/>
<path d="M51.998 3.25767C52.5267 3.23592 53.049 3.38049 53.4908 3.67093C53.7196 3.81291 53.7222 3.83825 53.5594 4.06896C53.4348 4.24136 53.3585 4.49237 53.1678 4.55829C52.9771 4.62421 52.8245 4.39096 52.6363 4.33264C52.4481 4.27433 52.3108 4.22109 52.1455 4.17799C52.0549 4.15613 51.9609 4.15225 51.8689 4.1666C51.7768 4.18096 51.6885 4.21326 51.6089 4.26165C51.5499 4.28849 51.4999 4.33169 51.4648 4.38608C51.4297 4.44047 51.4111 4.50377 51.4111 4.56843C51.4111 4.63309 51.4297 4.69639 51.4648 4.75078C51.4999 4.80517 51.5499 4.84837 51.6089 4.87521C51.7891 4.96036 51.9774 5.02745 52.1709 5.07549C52.532 5.16215 52.8825 5.28797 53.2161 5.45071C53.4211 5.55516 53.5894 5.71919 53.6989 5.9211C53.8083 6.12302 53.8537 6.35329 53.829 6.58147C53.8404 6.81786 53.7838 7.05258 53.6657 7.25789C53.5476 7.4632 53.3731 7.63053 53.1627 7.74012C52.833 7.89808 52.4729 7.98284 52.1072 7.98853C51.7414 7.99422 51.3788 7.92071 51.0444 7.77308C50.7767 7.67252 50.5263 7.53141 50.3018 7.35474C50.1874 7.26601 50.1645 7.17981 50.2764 7.07333C50.3374 7.01501 50.3883 6.94402 50.4467 6.88064C50.551 6.76655 50.6375 6.60936 50.7697 6.54851C50.9401 6.46738 51.024 6.68542 51.1588 6.75641C51.4684 6.93455 51.8186 7.03056 52.176 7.03529C52.3052 7.04015 52.4336 7.01315 52.5498 6.9567C52.6151 6.93463 52.6723 6.89347 52.7138 6.83856C52.7553 6.78366 52.7793 6.71756 52.7826 6.64888C52.7859 6.5802 52.7683 6.51213 52.7323 6.45353C52.6962 6.39493 52.6433 6.34851 52.5803 6.32033C52.3242 6.19537 52.0546 6.1001 51.7767 6.03637C51.558 5.96538 51.3343 5.91468 51.1232 5.82847C50.904 5.75637 50.7128 5.61805 50.5761 5.43269C50.4394 5.24732 50.364 5.02413 50.3603 4.79407C50.3244 4.53804 50.3653 4.27713 50.478 4.0443C50.5907 3.81146 50.7701 3.61712 50.9935 3.48584C51.2941 3.30871 51.6424 3.22899 51.9904 3.25767" fill="#0CAD77"/>
<path d="M12.6156 3.56936C12.9532 3.53096 13.2933 3.51908 13.6328 3.53386C13.7955 3.53386 13.8489 3.65556 13.915 3.76205C14.1439 4.13981 14.3677 4.2691 14.594 4.65701C14.6678 4.7787 14.7441 4.91055 14.8178 5.0145C14.9602 5.0145 14.9831 4.9004 15.0314 4.82181C15.2857 4.39841 15.5604 3.97502 15.8071 3.54148C15.8386 3.46232 15.8944 3.39514 15.9666 3.34959C16.0388 3.30405 16.1236 3.28247 16.2089 3.28794C16.4911 3.28794 16.776 3.28794 17.043 3.28794C17.1269 3.43753 17.043 3.50598 16.9819 3.58457C16.5293 4.29446 16.0792 5.00689 15.6163 5.70917C15.4572 5.93012 15.3775 6.19808 15.39 6.46977C15.4078 6.83992 15.39 7.21009 15.39 7.58278C15.39 7.89462 15.39 7.89461 15.0874 7.90475C14.3474 7.93518 14.3016 7.93265 14.3575 7.21769C14.4186 6.45709 14.2126 6.04637 13.7548 5.44297C13.3861 4.95365 13.0835 4.42883 12.758 3.89641C12.6761 3.8072 12.6245 3.69455 12.6105 3.57444" fill="#0CAD77"/>
<path d="M59.5517 5.56469C59.5517 4.92326 59.5517 4.28183 59.5517 3.64039C59.5517 3.30066 59.5517 3.30064 59.8721 3.29304C60.5969 3.27529 60.5969 3.27529 60.5969 4.00546C60.5969 4.87508 60.5969 5.74724 60.5969 6.61686C60.5969 6.94391 60.5969 6.94898 60.9198 6.95152H62.5932C62.8907 6.95152 62.8983 6.95152 62.8983 7.2659C62.8983 8.02649 62.9797 7.90479 62.2753 7.90986C61.4742 7.90986 60.6732 7.90986 59.8747 7.90986C59.5517 7.90986 59.5466 7.90986 59.5441 7.5752C59.5441 6.90587 59.5441 6.23402 59.5441 5.56469H59.5517Z" fill="#0CAD77"/>
<path d="M57.1147 5.59504C57.1147 6.25169 57.1147 6.90835 57.1147 7.56499C57.1147 7.90473 57.1147 7.90472 56.7942 7.90979C56.0515 7.92754 56.049 7.92754 56.049 7.17454C56.049 6.01844 56.049 4.86233 56.049 3.70623C56.049 3.29804 56.0489 3.29804 56.4381 3.29297C57.1173 3.29297 57.1173 3.29298 57.1173 3.96737V5.59504" fill="#0CAD77"/>
<path d="M40.4201 5.4407C40.0209 5.59028 39.6038 5.50408 39.1944 5.51168C39.085 5.51168 39.0672 5.41534 39.0672 5.32661C39.0672 5.16942 39.0672 5.01476 39.0672 4.81954C39.0672 4.13247 38.9604 4.25417 39.7055 4.23896C39.9328 4.2273 40.1605 4.25299 40.3794 4.31502C40.4977 4.34642 40.603 4.41437 40.6802 4.5091C40.7574 4.60383 40.8026 4.72049 40.8092 4.84237C40.8189 4.97078 40.7864 5.09884 40.7167 5.20724C40.647 5.31564 40.5438 5.39848 40.4226 5.44324L40.4201 5.4407ZM40.9313 6.31031C40.981 6.26969 41.0328 6.23161 41.0864 6.19622C41.3845 6.03421 41.6199 5.77768 41.7553 5.46725C41.8908 5.15683 41.9185 4.81023 41.834 4.48234C41.7043 3.80541 41.2593 3.43527 40.4684 3.33639C39.7118 3.28399 38.953 3.26959 38.195 3.29328C38.0042 3.29328 37.9991 3.41244 37.9991 3.54681C37.9991 4.91588 37.9991 6.2858 37.9991 7.65657C37.9991 7.83151 38.0449 7.9101 38.2407 7.9101C38.4262 7.89869 38.6122 7.89869 38.7977 7.9101C39.0062 7.92531 39.0748 7.84164 39.0672 7.63882C39.0672 7.32444 39.0672 7.01007 39.0672 6.69569C39.0672 6.61202 39.0672 6.52581 39.1664 6.48271C39.3134 6.43719 39.4707 6.43705 39.6177 6.4823C39.7648 6.52754 39.8947 6.61607 39.9903 6.73625L40.6668 7.72756C40.7304 7.82391 40.7838 7.92025 40.9211 7.91771C41.2568 7.91771 41.5924 7.91771 42.0273 7.91771L40.9287 6.31539" fill="#0CAD77"/>
<path d="M34.7338 5.74725C34.7128 6.07924 34.5636 6.39018 34.3175 6.61476C34.0714 6.83934 33.7475 6.96006 33.4139 6.95153H33.1596C32.5391 6.95153 32.6231 7.0149 32.618 6.39882C32.618 5.82837 32.618 5.25792 32.618 4.68748C32.618 4.18041 32.6027 4.23874 33.0884 4.23874C33.2587 4.23677 33.4288 4.24865 33.597 4.27423C33.9416 4.32343 34.2532 4.50509 34.4652 4.78037C34.6771 5.05565 34.7726 5.40268 34.7312 5.74725H34.7338ZM33.8615 3.34884C33.1647 3.23475 32.4603 3.31587 31.761 3.29305C31.5728 3.29305 31.5626 3.4046 31.5626 3.54658C31.5626 4.91819 31.5626 6.28727 31.5626 7.65888C31.5626 7.87692 31.6593 7.91241 31.85 7.91241C32.1221 7.91241 32.3942 7.91241 32.6663 7.91241C32.9511 7.91241 33.2385 7.93016 33.5233 7.91241C33.8756 7.91072 34.2229 7.82982 34.5395 7.67575C34.8561 7.52167 35.1337 7.29839 35.3517 7.02251C35.5996 6.70653 35.7595 6.331 35.8154 5.93375C35.8713 5.53651 35.8212 5.1316 35.67 4.75983C35.5189 4.38807 35.2722 4.06259 34.9547 3.81621C34.6371 3.56982 34.2601 3.41123 33.8615 3.35643" fill="#0CAD77"/>
<path d="M45.5448 5.94274C45.738 5.48131 45.9033 5.08074 46.1017 4.6041C46.3141 5.03717 46.4959 5.48446 46.6459 5.94274H45.5448ZM48.426 7.54507C47.8971 6.29769 47.3664 5.05116 46.8341 3.80547C46.5467 3.13614 46.6688 3.2984 45.9949 3.26291C45.8836 3.24614 45.77 3.27108 45.6761 3.33288C45.5822 3.39469 45.5146 3.48898 45.4863 3.59757C44.9421 4.90073 44.38 6.19881 43.8257 7.4969C43.7509 7.62217 43.7163 7.76726 43.7265 7.91269C44.0037 7.91269 44.2605 7.91269 44.5174 7.91269C44.5882 7.92243 44.6602 7.90473 44.7183 7.86324C44.7765 7.82174 44.8165 7.75959 44.8302 7.68958C44.8937 7.50197 44.9827 7.32196 45.054 7.13435C45.0705 7.05671 45.1152 6.9879 45.1795 6.9411C45.2438 6.89431 45.3231 6.87284 45.4023 6.88082C45.8753 6.88082 46.3483 6.88082 46.8188 6.88082C46.8899 6.87206 46.9619 6.88898 47.0216 6.92851C47.0813 6.96803 47.1248 7.02756 47.1443 7.09631C47.2181 7.29914 47.302 7.49437 47.3834 7.69212C47.4291 7.7986 47.4749 7.90002 47.6224 7.89748C47.9174 7.89748 48.2149 7.89748 48.4997 7.89748C48.5223 7.77492 48.4958 7.64841 48.426 7.54507Z" fill="#0CAD77"/>
</svg>
