<svg width="37" height="16" viewBox="0 0 37 16" fill="none" xmlns="http://www.w3.org/2000/svg">
<path d="M10.9597 4.94678L10.8453 10.2126C10.7476 8.45703 10.7858 6.69652 10.9597 4.94678Z" fill="#0CAD77"/>
<path d="M26.5932 11.5564C26.5925 11.5907 26.5787 11.6235 26.5546 11.6481C26.5305 11.6726 26.4979 11.687 26.4635 11.6883C26.1151 11.6883 25.7972 11.7339 25.4208 11.7542C25.0858 11.7592 24.7517 11.7897 24.4214 11.8454C24.4003 11.8491 24.3786 11.848 24.3579 11.8423C24.3373 11.8366 24.3181 11.8264 24.3019 11.8125C24.2763 11.7868 24.2617 11.7523 24.2612 11.7161V11.0012C24.2616 10.9772 24.2552 10.9535 24.2428 10.9329C24.2305 10.9123 24.2126 10.8955 24.1912 10.8845C24.1698 10.8734 24.1458 10.8685 24.1218 10.8703C24.0977 10.8721 24.0747 10.8806 24.0552 10.8947C23.7602 11.1133 23.4529 11.3148 23.1346 11.4981C22.7849 11.7245 22.3791 11.85 21.9623 11.8607C20.9451 11.8607 20.0728 11.2674 20.0728 9.70563V6.87368C20.0728 6.11309 19.9508 5.94322 19.5642 5.85955L19.2362 5.79363C19.2082 5.78768 19.1829 5.77286 19.1641 5.75137C19.1453 5.72989 19.134 5.7029 19.1319 5.67446V5.50714C19.1305 5.49015 19.1325 5.47305 19.1378 5.45683C19.143 5.44061 19.1515 5.4256 19.1626 5.41264C19.1737 5.39968 19.1872 5.38903 19.2025 5.38132C19.2177 5.37361 19.2344 5.36898 19.2514 5.3677C19.6838 5.35249 20.7416 5.32206 21.1689 5.28657C21.2036 5.28375 21.238 5.29468 21.2646 5.31699C21.2913 5.3393 21.3081 5.37117 21.3113 5.40572V5.42601C21.2782 5.87222 21.2782 6.50353 21.2782 7.36807V9.31012C21.2782 10.5981 21.9318 10.9454 22.6184 10.9454C23.2153 10.9327 23.7861 10.6996 24.2205 10.2913C24.2343 10.2788 24.2453 10.2635 24.2527 10.2465C24.2602 10.2294 24.2639 10.211 24.2637 10.1924V6.87368C24.2637 6.11309 24.1264 5.93054 23.6229 5.85955L23.1804 5.78856C23.1496 5.78369 23.1217 5.76795 23.1016 5.74421C23.0815 5.72047 23.0707 5.69031 23.071 5.65925V5.50714C23.071 5.47345 23.0839 5.44102 23.1071 5.41651C23.1302 5.39199 23.1619 5.37724 23.1957 5.3753C23.6865 5.36009 24.8817 5.32713 25.3216 5.29417C25.3387 5.29278 25.3558 5.29478 25.3721 5.30003C25.3884 5.30528 25.4034 5.31367 25.4164 5.32474C25.4294 5.33582 25.4401 5.34936 25.4478 5.36456C25.4556 5.37976 25.4602 5.39634 25.4615 5.41333V10.0961C25.4615 10.8186 25.5836 11.2294 26.1812 11.2725H26.466C26.4998 11.2737 26.5317 11.2879 26.5554 11.3119C26.579 11.3359 26.5925 11.3681 26.5932 11.4018V11.5564Z" fill="#0CAD77"/>
<path d="M18.8221 10.0374C18.6364 10.5268 18.4228 11.0744 18.227 11.5586C18.2132 11.5931 18.1894 11.6227 18.1585 11.6435C18.1277 11.6643 18.0913 11.6753 18.0541 11.6753H13.2935C13.2589 11.6754 13.2249 11.666 13.1953 11.6481C13.1657 11.6302 13.1416 11.6045 13.1257 11.5738V11.5586C13.1115 11.5286 13.1057 11.4954 13.1089 11.4624C13.112 11.4294 13.124 11.3978 13.1435 11.371C14.3642 9.65461 15.5212 7.92551 16.6859 6.13811C16.7121 6.09729 16.7211 6.04788 16.7111 6.00048C16.7011 5.95308 16.6729 5.91147 16.6325 5.88458C16.6033 5.8647 16.5687 5.8541 16.5333 5.85416H15.5161C14.4175 5.85416 14.2217 6.06966 13.7945 6.88096L13.6547 7.13449C13.6337 7.17237 13.6001 7.20175 13.5597 7.2175C13.5192 7.23324 13.4746 7.23438 13.4334 7.2207L13.3698 7.19787C13.3242 7.18278 13.2863 7.15039 13.2644 7.10769C13.2425 7.06499 13.2384 7.01543 13.2528 6.9697C13.3952 6.51081 13.5555 6.01642 13.6648 5.50936C13.6744 5.46839 13.6973 5.43173 13.7299 5.40512C13.7626 5.37851 13.8032 5.36346 13.8454 5.3623H18.2601C18.2959 5.3624 18.331 5.37272 18.3612 5.39203C18.3914 5.41135 18.4154 5.43885 18.4304 5.47132C18.4431 5.50023 18.4483 5.53183 18.4456 5.56325C18.443 5.59468 18.4325 5.62494 18.4152 5.65133C17.2479 7.37535 16.1036 9.10951 14.9389 10.9147C14.9257 10.9349 14.9167 10.9576 14.9124 10.9814C14.9081 11.0051 14.9085 11.0295 14.9137 11.0531C14.919 11.0766 14.9288 11.099 14.9427 11.1187C14.9566 11.1385 14.9743 11.1553 14.9948 11.1682C15.0239 11.1884 15.0586 11.199 15.094 11.1986H16.2613C17.4183 11.1986 17.7235 10.8969 18.2957 10.0349L18.405 9.84221C18.4281 9.80201 18.4656 9.77205 18.51 9.7584C18.5543 9.74475 18.6023 9.74843 18.6441 9.76869L18.7305 9.80925C18.7715 9.8291 18.8036 9.86349 18.8206 9.90569C18.8375 9.94789 18.838 9.99487 18.8221 10.0374Z" fill="#0CAD77"/>
<path d="M33.2047 11.4903C33.2045 11.4411 33.2225 11.3937 33.2554 11.3571C33.2883 11.3206 33.3337 11.2976 33.3827 11.2925C34.2245 11.2089 34.6542 11.0745 34.6542 10.1542V7.17516C34.6542 6.33597 34.6135 6.05962 33.8583 5.9075C33.8127 5.89972 33.7713 5.87609 33.7415 5.84082C33.7117 5.80555 33.6954 5.76092 33.6955 5.71481V5.54747C33.6955 5.49656 33.7154 5.44767 33.751 5.41121C33.7867 5.37474 33.8352 5.35359 33.8862 5.35226C34.2168 5.35226 34.9034 5.3193 35.5494 5.27113C35.5753 5.26906 35.6014 5.27215 35.6261 5.28025C35.6508 5.28834 35.6737 5.30127 35.6933 5.31827C35.713 5.33526 35.729 5.35599 35.7405 5.37924C35.7521 5.40249 35.7588 5.42778 35.7604 5.45367C35.7604 5.45367 35.7604 5.45367 35.7604 5.46888V10.1415C35.7604 11.0618 35.9385 11.1962 36.7624 11.2798C36.811 11.2848 36.856 11.3075 36.8888 11.3435C36.9217 11.3795 36.94 11.4264 36.9404 11.4751C36.9404 11.5275 36.9195 11.5778 36.8823 11.6149C36.8451 11.652 36.7946 11.6728 36.742 11.6728H33.398C33.3486 11.6723 33.3013 11.6532 33.2654 11.6193C33.2296 11.5855 33.2079 11.5394 33.2047 11.4903Z" fill="#0CAD77"/>
<path d="M1.62251 3.30431L11.9777 0.533203L11.5988 15.309L0.0992432 13.1363L1.62251 3.30431Z" fill="#0CAD77"/>
<path d="M11.9781 0.532715L12.5377 0.93836L12.174 14.6595L11.5991 15.3086L11.9781 0.532715Z" fill="#0CAD77"/>
<path opacity="0.15" d="M1.62317 3.30382L1.47314 4.00611C1.47314 4.03907 1.47314 4.07201 1.47314 4.10497C1.47314 8.38459 4.90114 11.8529 9.41247 11.8529C10.1859 11.8532 10.9558 11.7491 11.7012 11.5436L11.9835 0.532715L1.62317 3.30382Z" fill="#0CAD77"/>
<path d="M10.7044 10.7399C10.5162 11.3154 9.94148 12.9203 9.70752 13.4324L1.14514 12.1927L1.17566 11.858C2.75233 11.9594 2.90239 11.8707 3.0092 10.8058L3.53559 5.59575C3.65766 4.41936 3.51526 4.39908 2.08608 4.63233L2.11914 4.28753L10.6332 2.25928C10.5823 2.68775 10.5365 3.83625 10.4882 4.70587L9.91349 4.86558C9.88217 4.39788 9.7259 3.94706 9.46086 3.5599C9.22944 3.25312 8.71829 3.25566 7.32471 3.5599L5.87517 3.87681C5.29027 4.00358 5.24703 4.05429 5.2038 4.46247L4.85795 7.66712L6.59486 7.54289C8.30123 7.4212 8.41056 7.28936 8.76913 6.17889L9.32352 6.11551L8.94462 9.27704H8.4004C8.29105 8.13868 8.17152 8.04995 6.54653 8.12601L4.80202 8.21221L4.51974 10.8464C4.45108 11.5005 4.51973 11.82 4.82744 12.0228C5.13515 12.2256 5.76836 12.3245 6.66859 12.4386C8.04691 12.611 8.57587 12.5451 9.03362 12.1622C9.49646 11.725 9.87863 11.2101 10.1627 10.641L10.7044 10.7399Z" fill="#0CAD77"/>
<path d="M33.0425 5.63382C33.0439 5.70315 33.0181 5.77029 32.9706 5.82095C32.9231 5.87162 32.8577 5.90181 32.7882 5.9051C32.6631 5.89791 32.538 5.91983 32.4228 5.9691C32.3076 6.01838 32.2055 6.09368 32.1245 6.18906C32.1025 6.2144 32.0903 6.2468 32.0903 6.28033C32.0903 6.31385 32.1025 6.34625 32.1245 6.37159C32.3282 6.695 32.435 7.06974 32.4322 7.45164C32.4322 9.01086 31.059 9.76385 29.7646 9.76385C29.5587 9.76135 29.3531 9.74612 29.1491 9.71822C29.0935 9.70909 29.0364 9.71256 28.9823 9.72835C28.9282 9.74415 28.8783 9.77187 28.8363 9.80949C28.6765 9.92895 28.5669 10.1033 28.5286 10.2988C28.5286 10.5726 28.8008 10.745 29.4874 10.745C30.0519 10.745 30.5834 10.6968 31.0818 10.745C32.0202 10.8287 33.0883 11.5665 33.0883 12.7251C33.0883 13.9395 31.6108 14.8446 29.584 14.8446C27.8776 14.8446 26.8375 14.0055 26.8375 13.1815C26.8375 12.1673 27.9336 11.8428 28.2947 11.5715C28.319 11.5534 28.335 11.5264 28.3393 11.4964C28.3436 11.4665 28.3358 11.436 28.3176 11.4118C28.3048 11.3944 28.2871 11.3812 28.2667 11.3738C27.8242 11.1989 27.4682 11.1405 27.3385 10.9225C26.8655 10.1188 28.1472 9.90837 28.4015 9.65484C28.4122 9.64444 28.4207 9.63203 28.4265 9.61832C28.4323 9.6046 28.4353 9.58986 28.4353 9.57497C28.4353 9.56009 28.4323 9.54536 28.4265 9.53164C28.4207 9.51793 28.4122 9.5055 28.4015 9.49511C28.3907 9.48525 28.3787 9.47674 28.3659 9.46976C28.0089 9.30306 27.7068 9.03869 27.4948 8.70743C27.2827 8.37618 27.1695 7.99167 27.1681 7.5987C27.1681 5.96341 28.7245 5.19775 29.8968 5.19775H29.912C30.2287 5.19819 30.5431 5.25044 30.8428 5.3524C30.883 5.36551 30.9251 5.37234 30.9674 5.37268H32.7628C32.8317 5.37257 32.898 5.39879 32.9482 5.44595C32.9983 5.4931 33.0284 5.5576 33.0323 5.62621L33.0425 5.63382ZM28.0429 12.7175C28.0429 13.5111 28.8313 14.1956 29.9578 14.1956C31.3539 14.1956 31.9541 13.6226 32.0558 13.0851C32.1804 12.4336 31.8371 12.071 31.3997 11.8175C31.0198 11.579 30.5768 11.4597 30.1282 11.4752C28.7092 11.4017 28.0327 12.3245 28.0327 12.7429L28.0429 12.7175ZM28.4854 7.36545C28.4854 8.4886 29.0805 9.30242 29.9171 9.30242C30.5885 9.28721 31.1886 8.72184 31.1886 7.58095C31.1886 6.44005 30.6241 5.64396 29.7417 5.64396C29.1008 5.64396 28.4905 6.24991 28.4905 7.36545H28.4854Z" fill="#0CAD77"/>
<path d="M33.9952 3.52174C34.0274 3.63186 34.0818 3.73429 34.155 3.82277C34.2283 3.91124 34.3188 3.98391 34.4212 4.03634C34.5235 4.08878 34.6355 4.11988 34.7503 4.12773C34.8651 4.13559 34.9803 4.12005 35.0889 4.08205C35.3217 4.03018 35.526 3.89216 35.6606 3.69591C35.7951 3.49965 35.8499 3.25981 35.8139 3.02483C35.7813 2.91489 35.7267 2.81265 35.6535 2.72429C35.5802 2.63592 35.4897 2.56325 35.3875 2.51066C35.2853 2.45807 35.1735 2.42665 35.0588 2.41828C34.9441 2.40991 34.8289 2.42478 34.7201 2.46198C34.4869 2.51387 34.2822 2.65226 34.1475 2.84907C34.0129 3.04588 33.9585 3.28637 33.9952 3.52174Z" fill="#0CAD77"/>
</svg>
