<svg width="44" height="15" viewBox="0 0 44 15" fill="none" xmlns="http://www.w3.org/2000/svg">
<path d="M10.0299 11.0509H12.283V13.7079C11.9713 13.9358 11.6218 14.1074 11.2506 14.2149C10.8789 14.3234 10.4934 14.3772 10.1062 14.3747C9.62243 14.3777 9.14224 14.2917 8.68974 14.1211C8.28373 13.9737 7.91179 13.7461 7.59624 13.4518C7.29309 13.1664 7.05315 12.821 6.89182 12.4377C6.72169 12.0322 6.6352 11.5968 6.63751 11.1573C6.63297 10.7163 6.71237 10.2784 6.87148 9.86686C7.02186 9.48644 7.24957 9.14116 7.54029 8.85273C7.84122 8.5609 8.19975 8.33469 8.5931 8.18848C9.03354 8.02374 9.50108 7.9429 9.97143 7.95015C10.2195 7.94968 10.4671 7.97089 10.7114 8.01354C10.9291 8.05352 11.1427 8.11292 11.3497 8.19101C11.536 8.2623 11.7148 8.35145 11.8838 8.45722C12.0386 8.55522 12.1834 8.66816 12.3161 8.79441L11.894 9.43586C11.8372 9.52926 11.7458 9.59665 11.6397 9.62347C11.5805 9.63341 11.5199 9.63159 11.4614 9.6181C11.4029 9.60461 11.3477 9.57973 11.2989 9.54487C11.1845 9.47388 11.0726 9.41557 10.9708 9.36486C10.8706 9.31392 10.7659 9.27234 10.658 9.24063C10.5471 9.20895 10.4341 9.18523 10.3198 9.16965C10.1881 9.15458 10.0556 9.1478 9.92311 9.14936C9.66891 9.1443 9.41658 9.19357 9.18309 9.29388C8.96805 9.38604 8.77677 9.5256 8.62362 9.70206C8.46291 9.88698 8.34176 10.1027 8.26759 10.3359C8.18131 10.6011 8.13921 10.8786 8.14299 11.1573C8.13882 11.4597 8.18611 11.7606 8.28285 12.0472C8.36527 12.2913 8.49876 12.5151 8.67448 12.7039C8.84444 12.8829 9.05199 13.0223 9.28227 13.1121C9.53148 13.2068 9.79628 13.2541 10.063 13.2515C10.2246 13.2539 10.386 13.2368 10.5436 13.2008C10.6858 13.1673 10.8246 13.1207 10.9581 13.0614V12.1081H10.3351C10.2562 12.1124 10.1787 12.086 10.1189 12.0346C10.0935 12.0104 10.0734 11.9813 10.0598 11.949C10.0462 11.9167 10.0395 11.882 10.0401 11.8469V11.0483L10.0299 11.0509ZM18.8161 14.3087H17.6819C17.572 14.3196 17.4616 14.2927 17.3691 14.2327C17.2903 14.1739 17.2288 14.0951 17.1911 14.0045L16.8198 12.9092H14.4192L14.0632 13.9944C14.0264 14.0813 13.9677 14.1573 13.8928 14.2149C13.8047 14.2801 13.6973 14.3141 13.5876 14.3113H12.4432L14.8846 8.02368H16.3849L18.8161 14.3087ZM16.4943 11.9078L15.9094 10.1863C15.8636 10.0798 15.8204 9.95053 15.7695 9.80094C15.7187 9.65136 15.6704 9.49416 15.622 9.31923C15.5788 9.49416 15.533 9.65896 15.4822 9.806C15.4313 9.95305 15.3881 10.0849 15.3423 10.1965L14.7676 11.9078H16.4943ZM26.4121 8.02368V14.3113H25.1202V10.6832C25.1202 10.6021 25.1202 10.5108 25.1202 10.4119C25.1202 10.3131 25.133 10.2142 25.1431 10.1128L23.4724 13.3555C23.4266 13.4509 23.353 13.5304 23.2613 13.5836C23.1703 13.6365 23.0665 13.6637 22.9612 13.6622H22.7603C22.6541 13.6643 22.5494 13.6371 22.4577 13.5836C22.3667 13.5303 22.294 13.4507 22.2492 13.3555L20.5733 10.1153C20.5733 10.2193 20.5886 10.3207 20.5962 10.4196C20.6038 10.5184 20.5962 10.6072 20.5962 10.6908V14.3062H19.3043V8.02368H20.5758C20.6192 8.02624 20.662 8.03477 20.703 8.04903C20.7408 8.06429 20.7754 8.08667 20.8047 8.11495C20.8399 8.15306 20.8699 8.19569 20.8937 8.24172L22.5416 11.4438C22.6001 11.5528 22.656 11.6644 22.7069 11.7861C22.7578 11.9078 22.8112 12.0219 22.8595 12.1461C22.9078 12.0193 22.9612 11.8926 23.0121 11.776C23.0629 11.6593 23.124 11.5402 23.185 11.4312L24.8024 8.25186C24.8241 8.20457 24.8542 8.16161 24.8914 8.12509C24.9194 8.09526 24.9543 8.07264 24.9931 8.05917C25.0338 8.04369 25.0767 8.03512 25.1202 8.03382H26.407L26.4121 8.02368ZM29.1026 9.14429V10.6122H31.0862V11.6974H29.1026V13.1957H31.694V14.3163H27.6251V8.02875H31.694V9.14936L29.1026 9.14429ZM36.0807 9.29894C36.0449 9.35923 35.9984 9.4125 35.9434 9.45613C35.8882 9.4916 35.8233 9.5093 35.7577 9.50684C35.6832 9.50327 35.6107 9.4815 35.5467 9.44345L35.2923 9.30402C35.1865 9.24784 35.0759 9.20118 34.9618 9.16458C34.8247 9.12007 34.6812 9.09865 34.5371 9.10119C34.3179 9.08353 34.0996 9.14468 33.9217 9.27359C33.8556 9.3332 33.8036 9.40659 33.7693 9.48855C33.7351 9.5705 33.7193 9.65899 33.7233 9.7477C33.7214 9.80499 33.731 9.86208 33.7515 9.91562C33.7721 9.96917 33.8031 10.0181 33.8428 10.0595C33.9338 10.1512 34.0417 10.2244 34.1607 10.275C34.3064 10.3432 34.4579 10.3983 34.6134 10.4398C34.7812 10.4905 34.9516 10.5489 35.122 10.6072C35.296 10.67 35.4658 10.7437 35.6306 10.8277C35.7974 10.9097 35.9502 11.0176 36.0832 11.1472C36.2173 11.2836 36.3251 11.4435 36.4011 11.6188C36.4855 11.8325 36.5262 12.061 36.5206 12.2906C36.5233 12.5692 36.4715 12.8457 36.368 13.1045C36.2701 13.3538 36.1212 13.58 35.9306 13.7687C35.7268 13.9625 35.4853 14.1126 35.2211 14.2099C34.9136 14.323 34.5876 14.3781 34.2599 14.3721C34.0582 14.3728 33.8571 14.3525 33.6597 14.3113C33.4585 14.2717 33.2611 14.2149 33.0697 14.1414C32.8842 14.0717 32.7048 13.9869 32.5332 13.8879C32.3726 13.7958 32.2247 13.6833 32.0932 13.5532L32.5255 12.8712C32.5626 12.8219 32.6093 12.7805 32.6629 12.7495C32.7181 12.7163 32.7814 12.6987 32.8459 12.6988C32.9365 12.7028 33.0242 12.7308 33.1003 12.7799L33.3978 12.9599C33.52 13.0323 33.6485 13.0934 33.7818 13.1425C33.9453 13.199 34.1174 13.2264 34.2904 13.2236C34.5105 13.2385 34.7289 13.1767 34.9083 13.0487C34.986 12.9802 35.0464 12.8945 35.0848 12.7985C35.1232 12.7026 35.1386 12.5989 35.1296 12.496C35.1338 12.3652 35.0904 12.2374 35.0075 12.136C34.9187 12.0386 34.8104 11.9609 34.6896 11.9078C34.5452 11.8427 34.3955 11.7902 34.2421 11.7506L33.7335 11.5985C33.5598 11.5406 33.39 11.472 33.2249 11.3931C33.0581 11.3114 32.9067 11.2016 32.7773 11.0686C32.6384 10.9225 32.5303 10.75 32.4594 10.5615C32.3726 10.3237 32.3312 10.0717 32.3373 9.81869C32.3381 9.58139 32.3874 9.34672 32.4823 9.12908C32.5772 8.90179 32.7204 8.69767 32.9019 8.53075C33.0985 8.34694 33.3291 8.20312 33.5809 8.10734C33.8752 7.99822 34.1875 7.94491 34.5015 7.95015C34.6913 7.95025 34.8809 7.96466 35.0686 7.99326C35.2459 8.02274 35.4204 8.0677 35.5899 8.12763C35.7494 8.18472 35.9034 8.256 36.0502 8.3406C36.1887 8.41829 36.3175 8.51188 36.4342 8.61948L36.0705 9.29894H36.0807Z" fill="#0CAD77"/>
<path d="M2.42611 0.219548C2.80092 0.212951 3.17509 0.25298 3.53996 0.338709C3.81052 0.401458 4.06566 0.517853 4.29015 0.680971C4.47491 0.819882 4.62037 1.00421 4.7123 1.21593C4.80361 1.43957 4.84859 1.67932 4.84453 1.92075C4.84562 2.05896 4.8259 2.19655 4.78604 2.32893C4.742 2.4606 4.67766 2.58463 4.59531 2.69655C4.5005 2.81811 4.38725 2.92418 4.25964 3.01093C4.10884 3.11658 3.94465 3.20184 3.77137 3.26446C4.12144 3.3292 4.44293 3.50009 4.69195 3.75379C4.89763 3.99599 5.00471 4.3063 4.99202 4.6234C4.99698 4.87989 4.94455 5.13425 4.83854 5.368C4.73253 5.60176 4.5756 5.80902 4.37916 5.97472C4.15973 6.15395 3.90757 6.28912 3.63659 6.37277C3.30762 6.47582 2.96417 6.52547 2.61938 6.51981H0.0992432V0.219548H2.42611ZM1.56911 1.30213V2.85374H2.33202C2.47858 2.85464 2.62494 2.84277 2.76942 2.81825C2.88666 2.80159 2.9992 2.76103 3.10002 2.69909C3.19172 2.64206 3.26431 2.55909 3.30854 2.46077C3.35794 2.34021 3.38134 2.21064 3.37721 2.08047C3.38104 1.95391 3.36209 1.82768 3.32126 1.70778C3.28702 1.61312 3.22717 1.52976 3.14833 1.46692C3.06108 1.40162 2.9603 1.35658 2.85335 1.33509C2.71261 1.30789 2.56945 1.29515 2.42611 1.29706H1.56911V1.30213ZM2.59904 5.39921C2.75993 5.40435 2.92036 5.37941 3.07204 5.32568C3.18243 5.2861 3.2818 5.22093 3.36195 5.13553C3.4284 5.0631 3.47714 4.97633 3.50436 4.882C3.52968 4.78514 3.5425 4.68546 3.5425 4.58537C3.54394 4.47966 3.52849 4.37439 3.49673 4.27352C3.46799 4.18281 3.41423 4.10197 3.3416 4.04027C3.25595 3.97072 3.15617 3.92056 3.04916 3.89323C2.89948 3.85629 2.74557 3.83924 2.59141 3.84252H1.5742V5.40935L2.59904 5.39921ZM27.096 0.209405V6.497H25.8067V2.89177C25.8067 2.81064 25.8067 2.71937 25.8067 2.6205C25.8067 2.52162 25.8194 2.42274 25.8296 2.32132L24.1537 5.55386C24.1089 5.64913 24.0362 5.72867 23.9452 5.78204C23.8532 5.83467 23.7487 5.8618 23.6426 5.86064H23.4417C23.3363 5.86262 23.2324 5.83542 23.1416 5.78204C23.0499 5.72882 22.9763 5.64931 22.9305 5.55386L21.2598 2.31626C21.2699 2.41936 21.2776 2.52077 21.2827 2.6205C21.2827 2.71684 21.2827 2.81064 21.2827 2.89177V6.50714H19.9908V0.219548H21.2623C21.3057 0.222108 21.3485 0.230634 21.3895 0.244895C21.4271 0.260476 21.4616 0.282821 21.4912 0.310816C21.5272 0.348283 21.5572 0.391036 21.5802 0.437582L23.2179 3.63209C23.2738 3.74111 23.3323 3.85266 23.3832 3.97182C23.4341 4.09098 23.4875 4.21014 23.5358 4.33437C23.5816 4.2076 23.6375 4.08084 23.6884 3.96421C23.7392 3.84759 23.7977 3.72843 23.8587 3.61941L25.4761 0.44012C25.4996 0.39386 25.5296 0.351175 25.5651 0.313354C25.5938 0.284227 25.6285 0.261723 25.6668 0.247433C25.7076 0.232217 25.7505 0.223655 25.794 0.222078H27.0884L27.096 0.209405ZM29.7916 6.497H28.3192V0.209405H29.7916V6.497ZM36.5154 0.209405V6.497H35.7525C35.6556 6.49968 35.5594 6.48153 35.4702 6.44376C35.3816 6.39791 35.3036 6.33399 35.2413 6.25615L32.266 2.5064C32.2787 2.61542 32.2863 2.72698 32.2889 2.83093C32.2914 2.93487 32.2889 3.03375 32.2889 3.12756V6.497H30.997V0.209405H31.7599C31.8124 0.20629 31.8651 0.20629 31.9176 0.209405C31.9579 0.215128 31.9972 0.226214 32.0346 0.242365C32.0711 0.258625 32.1046 0.280905 32.1338 0.308278C32.1732 0.344272 32.2097 0.38327 32.2431 0.424909L35.2413 4.20254C35.2261 4.08084 35.2159 3.96421 35.2108 3.85012C35.2057 3.73603 35.2108 3.62955 35.2108 3.53068V0.222078H36.5103L36.5154 0.209405ZM40.7673 3.25179H43.0128V5.90627C42.7005 6.13334 42.3512 6.30488 41.9804 6.41334C41.138 6.65184 40.2419 6.62259 39.417 6.32967C39.0119 6.17914 38.6404 5.95088 38.3235 5.65781C38.0219 5.37164 37.7829 5.02636 37.6216 4.64368C37.4531 4.2422 37.3666 3.81123 37.3673 3.37602C37.3628 2.93416 37.4421 2.49543 37.6013 2.083C37.7507 1.7021 37.9785 1.35664 38.2701 1.06887C38.5707 0.777922 38.9282 0.551809 39.3203 0.404622C39.7621 0.241353 40.2302 0.160565 40.7012 0.166301C40.9493 0.165945 41.1969 0.187153 41.4412 0.229684C41.6589 0.269663 41.8725 0.329062 42.0795 0.40716C42.2649 0.475414 42.4436 0.560272 42.6136 0.660692C42.7684 0.758689 42.9132 0.871629 43.0459 0.997886L42.6237 1.6444C42.5669 1.73722 42.4754 1.80378 42.3694 1.82947C42.3102 1.8397 42.2496 1.83802 42.1911 1.82453C42.1326 1.81103 42.0773 1.78598 42.0287 1.75088C41.9142 1.68242 41.8023 1.62158 41.7006 1.57087C41.5993 1.52056 41.4938 1.479 41.3853 1.44664C41.2752 1.41556 41.163 1.39267 41.0496 1.37818C40.9181 1.36092 40.7855 1.3533 40.6529 1.35537C40.398 1.35155 40.1451 1.40077 39.9103 1.49988C39.6959 1.59303 39.5055 1.73346 39.3534 1.9106C39.1907 2.09414 39.0693 2.31025 38.9974 2.54443C38.9111 2.80875 38.869 3.08541 38.8728 3.36334C38.8684 3.66574 38.9157 3.96667 39.0126 4.25324C39.0938 4.49788 39.2275 4.72195 39.4043 4.90989C39.5738 5.0883 39.7803 5.22761 40.0095 5.31807C40.2593 5.414 40.5251 5.46134 40.7928 5.45752C40.9536 5.45986 41.1141 5.44283 41.2708 5.40681C41.4143 5.3749 41.5541 5.32817 41.6879 5.26737V4.31409H41.07C40.9911 4.3184 40.9136 4.29204 40.8538 4.24056C40.8287 4.2167 40.8087 4.18798 40.7952 4.15615C40.7816 4.12432 40.7747 4.09006 40.775 4.05548V3.25433L40.7673 3.25179ZM17.8623 3.67518C17.7747 4.13891 17.5277 4.5577 17.1638 4.85942C16.7999 5.16114 16.3419 5.32693 15.8686 5.32822H15.8228C15.588 5.32758 15.3565 5.27292 15.1463 5.16849C14.8751 5.05362 14.6257 4.89327 14.4089 4.69439C14.2486 4.57269 14.0198 4.33437 13.796 4.13408C13.5722 4.37494 13.0687 4.93271 13.0331 4.97834C13.3034 5.24857 13.5896 5.50255 13.8901 5.73894L13.8621 5.71358C14.2897 6.07178 14.8063 6.30828 15.3574 6.39812C15.5137 6.4244 15.6719 6.43797 15.8304 6.43869C15.9739 6.43995 16.1174 6.43317 16.2602 6.4184C16.873 6.34055 17.4494 6.08496 17.9177 5.68336C18.3861 5.28177 18.7258 4.75185 18.8948 4.15943L17.8572 3.67518H17.8623Z" fill="#0CAD77"/>
<path d="M14.3355 1.97648C14.6801 1.58019 15.1653 1.33241 15.6893 1.28514C16.2132 1.23787 16.7352 1.39478 17.1456 1.72295L16.6624 2.06775L18.8901 3.08188L18.6612 0.647975L18.0865 1.05362C17.776 0.746275 17.4045 0.5069 16.996 0.350782C16.5874 0.194664 16.1506 0.125241 15.7136 0.146954C15.2766 0.168667 14.8489 0.281039 14.4579 0.476883C14.0669 0.672727 13.7212 0.947733 13.4429 1.28434C13.42 1.31222 11.6755 3.43936 10.9584 4.14165C10.9202 4.17968 10.877 4.21517 10.8363 4.25066L10.8134 4.26841L10.6608 4.40025L10.6303 4.4256L10.4905 4.53462L10.4549 4.56504L10.3633 4.6335L10.3277 4.66138C10.3162 4.67156 10.3034 4.68009 10.2896 4.68674L10.17 4.77294L10.1344 4.79576L10.02 4.87181L9.98949 4.88956L9.8903 4.95041L9.85216 4.97323L9.76315 5.02393C9.59454 5.1191 9.41641 5.19642 9.23166 5.25465C9.07233 5.30517 8.90536 5.32748 8.73831 5.32057C8.2507 5.25871 7.80204 5.02292 7.47528 4.65682C7.14853 4.29071 6.96577 3.81904 6.96081 3.32901C6.95585 2.83898 7.12902 2.36373 7.44829 1.99112C7.76757 1.61851 8.21136 1.37375 8.69762 1.30208C8.99765 1.28784 9.29729 1.33744 9.57659 1.44761C9.8559 1.55777 10.1085 1.72595 10.3175 1.94098C10.3887 2.00944 10.9584 2.62045 11.0804 2.77004C11.2966 2.53679 11.8154 1.92831 11.8433 1.90803C11.7416 1.77366 11.3144 1.3249 11.2839 1.29194C10.975 0.940614 10.594 0.659624 10.1666 0.468024C9.73926 0.276423 9.27555 0.178692 8.80697 0.181469C7.99316 0.192873 7.2153 0.517545 6.63606 1.08757C6.05683 1.6576 5.7211 2.42883 5.69909 3.23995C5.67708 4.05108 5.97051 4.83928 6.51798 5.43969C7.06546 6.0401 7.82459 6.40622 8.63659 6.46146C8.79496 6.47132 8.95378 6.47132 9.11214 6.46146C9.24232 6.44569 9.3714 6.42198 9.49868 6.39047C9.62378 6.35583 9.74549 6.31001 9.86234 6.25356L9.8903 6.24089L10.0022 6.19018L10.0505 6.16483L10.1726 6.10398C10.1875 6.09737 10.2019 6.08975 10.2158 6.08116C10.3277 6.02285 10.4498 5.95439 10.5693 5.87833L10.6202 5.84791L10.7575 5.75917L10.8211 5.71862L10.9609 5.61973L11.022 5.5741L11.1644 5.46761L11.2 5.43973L11.2254 5.41944C11.2941 5.3662 11.3653 5.30535 11.4365 5.2445L11.4873 5.20141L11.6577 5.05436L11.7289 4.99097L11.762 4.96309L11.8891 4.84646C11.9146 4.82365 12.5503 4.20249 12.9801 3.68275C13.4099 3.16301 13.8727 2.54185 14.3482 1.98155L14.3355 1.97648Z" fill="#0CAD77"/>
</svg>
