<svg width="39" height="16" viewBox="0 0 39 16" fill="none" xmlns="http://www.w3.org/2000/svg">
<path d="M6.58969 1.96392C6.58969 1.47967 6.7321 1.24642 7.18476 1.24642C7.63742 1.24642 7.77729 1.47967 7.77729 1.96392V4.44092H8.89622V1.93602C8.89622 1.02077 8.35455 0.275391 7.18476 0.275391C6.01497 0.275391 5.47076 1.02077 5.47076 1.93602V4.44092H6.58969V1.96392Z" fill="#0CAD77"/>
<path d="M7.77705 5.31836V6.12967C7.77705 6.61645 7.63463 6.8497 7.18452 6.8497C6.7344 6.8497 6.58945 6.61645 6.58945 6.12967V5.31836H5.47052V6.15755C5.47052 7.0728 6.01218 7.81819 7.18452 7.81819C8.35685 7.81819 8.89598 7.0728 8.89598 6.15755V5.31836H7.77705Z" fill="#0CAD77"/>
<path d="M12.2839 5.31836V6.12967C12.2839 6.61645 12.1415 6.8497 11.6914 6.8497C11.2412 6.8497 11.0963 6.61645 11.0963 6.12967V5.31836H9.97736V6.15755C9.97736 7.0728 10.519 7.81819 11.6914 7.81819C12.8637 7.81819 13.4028 7.0728 13.4028 6.15755V5.31836H12.2839Z" fill="#0CAD77"/>
<path d="M11.0965 1.96392C11.0965 1.47967 11.2389 1.24642 11.6916 1.24642C12.1442 1.24642 12.2841 1.47967 12.2841 1.96392V4.44092H13.403V1.93602C13.403 1.02077 12.8614 0.275391 11.6916 0.275391C10.5218 0.275391 9.97757 1.02077 9.97757 1.93602V4.44092H11.0965V1.96392Z" fill="#0CAD77"/>
<path d="M15.4613 5.31836H14.4871V7.72945H15.4613V5.31836Z" fill="#0CAD77"/>
<path d="M16.4903 7.72945H17.0296L17.5103 5.31836H16.0096L16.4903 7.72945Z" fill="#0CAD77"/>
<path d="M19.0292 0.364258H17.5593L16.7659 4.15709H16.7481L15.9546 0.364258H14.4873V4.44104H15.4613V1.78403H15.4791L16.008 4.44104H17.5084L18.0374 1.78403H18.0552V4.44104H19.0292V0.364258Z" fill="#0CAD77"/>
<path d="M19.0297 5.31836H18.0555V7.72945H19.0297V5.31836Z" fill="#0CAD77"/>
<path d="M21.336 0.364258H20.2194V4.44104H21.336V0.364258Z" fill="#0CAD77"/>
<path d="M21.3362 5.31836H20.2195V7.72945H21.3362V5.31836Z" fill="#0CAD77"/>
<path d="M23.5389 5.31836H22.5291V7.72945H23.5389V5.31836Z" fill="#0CAD77"/>
<path d="M24.1336 5.31836L24.9806 7.72945H25.9548V5.31836H24.1336Z" fill="#0CAD77"/>
<path d="M25.9542 0.364258H24.9446V4.07596H24.9268L23.5663 0.364258H22.5287V4.44104H23.5383V2.8007H23.5561L24.1334 4.44104H25.9542V0.364258Z" fill="#0CAD77"/>
<path d="M28.1509 1.95661C28.1509 1.40644 28.3773 1.24672 28.6468 1.24672C29.0893 1.24672 29.2877 1.50025 29.2877 2.46874H30.3507V2.05549C30.3507 1.08446 29.7912 0.280762 28.6748 0.280762C27.5584 0.280762 27.0345 1.02614 27.0345 1.94139V4.44629H28.1509V1.95661Z" fill="#0CAD77"/>
<path d="M28.576 4.4413V5.31851H29.2881V5.94728C29.2881 6.59378 29.1253 6.84731 28.6752 6.84731C28.2887 6.84731 28.1514 6.57604 28.1514 6.16278V5.31598H27.035V6.15517C27.035 7.18705 27.6478 7.81581 28.5303 7.81581C28.7515 7.82434 28.9713 7.77614 29.1685 7.67583C29.3658 7.57551 29.5339 7.42642 29.6568 7.24282L29.8654 7.72707H30.4045V4.43115L28.576 4.4413Z" fill="#0CAD77"/>
<path d="M2.53833 12.8811H3.25292V13.5098C3.25292 14.1563 3.09271 14.4073 2.64005 14.4073C2.25351 14.4073 2.11873 14.1386 2.11873 13.7253V10.3939C2.11873 9.84628 2.34252 9.68401 2.62734 9.68401C3.06728 9.68401 3.26563 9.93755 3.26563 10.906H4.33116V10.4852C4.33116 9.51668 3.7717 8.71045 2.65277 8.71045C1.53384 8.71045 1.01251 9.45583 1.01251 10.3711V13.7152C1.01251 14.747 1.62538 15.3758 2.51035 15.3758C2.73177 15.3836 2.9515 15.3348 3.14868 15.234C3.34585 15.1333 3.51392 14.984 3.63692 14.8003L3.8429 15.2871H4.38457V12.0064H2.55359L2.53833 12.8811Z" fill="#0CAD77"/>
<path d="M7.71108 8.8042H6.32259L5.55968 12.881L5.12482 15.3022H6.2056L6.40397 13.8647H7.6297L7.8306 15.3022H8.91139L8.46636 12.8911L7.71108 8.8042ZM6.55909 12.8835L6.99903 10.0947H7.01683L7.45932 12.8835H6.55909Z" fill="#0CAD77"/>
<path d="M11.9083 12.597H11.8905L11.097 8.8042H9.6297V12.881V15.2921H10.6011V12.881V10.224H10.6215L11.1504 12.881L11.6285 15.2921H12.1702L12.6508 12.881L13.1798 10.224H13.1976V12.881V15.2921H14.1716V12.881V8.8042H12.7017L11.9083 12.597Z" fill="#0CAD77"/>
<path d="M16.2119 12.881V12.417H17.6538V11.446H16.2119V9.77523H18.0861V8.8042H15.0955V12.881V15.2921H18.2133V14.3211H16.2119V12.881Z" fill="#0CAD77"/>
<path d="M22.0838 12.8809C21.5345 11.7501 20.0061 11.2304 20.0061 10.3227C20.0061 9.91961 20.2045 9.68383 20.5631 9.68383C20.8174 9.68383 21.1149 9.84609 21.1581 10.4039L22.2211 10.2872C22.1219 9.36945 21.5828 8.71533 20.6724 8.71533C19.5738 8.71533 18.9432 9.29846 18.9432 10.3329C18.9432 11.6538 20.0901 12.209 20.7538 12.8809C20.8901 12.9981 21.0012 13.1417 21.0803 13.3029C21.1594 13.4641 21.2049 13.6397 21.2141 13.8189C21.2174 13.9025 21.2024 13.9858 21.17 14.0629C21.1376 14.1401 21.0887 14.2093 21.0267 14.2656C20.9646 14.3219 20.891 14.3639 20.8109 14.3888C20.7308 14.4137 20.6462 14.4208 20.5631 14.4097C20.2045 14.4097 19.9426 14.0877 19.8968 13.431L18.8338 13.5832C18.8796 14.5542 19.4746 15.3807 20.5097 15.3807C21.5447 15.3807 22.2771 14.7874 22.2771 13.7201C22.2781 13.4292 22.212 13.1421 22.0838 12.8809Z" fill="#0CAD77"/>
<path d="M31.4794 5.31836L38.3328 5.31836V4.44114L31.4794 4.44114V5.31836Z" fill="#0CAD77"/>
<path d="M23.0602 15.2896H24.1209V14.4123H23.0602V15.2896Z" fill="#0CAD77"/>
<path d="M27.2365 10.9616V10.4546C27.2365 9.90947 26.9822 9.67622 26.6974 9.67622C26.2473 9.67622 26.1049 9.90947 26.1049 10.3937V13.6694C26.1049 14.1536 26.2473 14.3869 26.6974 14.3869C27.1017 14.3869 27.2365 14.1536 27.2365 13.7327V12.9544H28.3504V13.6972C28.3504 14.61 27.8112 15.3528 26.6974 15.3528C25.5301 15.3528 24.991 14.61 24.991 13.6972V10.3709C24.991 9.45818 25.5301 8.71533 26.6974 8.71533C27.8112 8.71533 28.3504 9.52156 28.3504 10.4901V10.9642L27.2365 10.9616Z" fill="#0CAD77"/>
<path d="M29.3807 10.3709C29.3807 9.45818 29.9198 8.71533 31.0871 8.71533C32.2543 8.71533 32.7934 9.45818 32.7934 10.3709V13.7023C32.7934 14.615 32.2543 15.3579 31.0871 15.3579C29.9198 15.3579 29.3807 14.615 29.3807 13.7023V10.3709ZM30.4945 13.6668C30.4945 14.1511 30.6395 14.3843 31.0871 14.3843C31.5346 14.3843 31.6796 14.1511 31.6796 13.6668V10.3988C31.6796 9.91454 31.5372 9.68129 31.0871 9.68129C30.6369 9.68129 30.4945 9.91454 30.4945 10.3988V13.6668Z" fill="#0CAD77"/>
<path d="M38.3463 8.82666V15.3019H37.3749V10.2312H37.3571L36.3399 15.2816H35.8033L34.7861 10.2312V15.3019H33.8172V8.8368H35.2794L36.0703 12.6144H36.0881L36.879 8.8368L38.3463 8.82666Z" fill="#0CAD77"/>
<path d="M2.11582 3.94364H2.48964C2.9601 3.94364 3.21949 4.11097 3.33393 4.45071H4.46812C4.42346 4.22485 4.32281 4.01373 4.17534 3.8366C4.02787 3.65946 3.83827 3.52194 3.62383 3.43658C4.1655 3.22107 4.38674 2.63795 4.38674 2.08018C4.38674 0.974779 3.85525 0.36377 2.65748 0.36377H0.996887V4.44056H2.11582V3.94364ZM2.11582 1.28409H2.53796C3.03385 1.28409 3.26781 1.59847 3.26781 2.19934C3.26781 2.73936 2.94484 3.02586 2.52016 3.02586H2.11582V1.28409Z" fill="#0CAD77"/>
<path d="M4.52463 5.31806H3.4057V5.80991C3.4057 6.46656 3.18954 6.80883 2.59448 6.80883H2.12656V5.31299H1.00763V7.72407H2.77503C4.04654 7.72407 4.52463 6.91531 4.52463 5.84541C4.52463 5.83273 4.52463 5.82005 4.52463 5.80484V5.31806Z" fill="#0CAD77"/>
</svg>
