<svg width="24" height="22" viewBox="0 0 24 22" fill="none" xmlns="http://www.w3.org/2000/svg">
<path d="M2.10212 20.8977C2.10212 21.2625 2.39727 21.5576 2.76196 21.5576H15.9593C16.324 21.5576 16.6191 21.2624 16.6191 20.8977V16.2786H2.10212V20.8977ZM6.0613 18.2583H12.6599C13.0247 18.2583 13.3198 18.5535 13.3198 18.9181C13.3198 19.2828 13.0246 19.578 12.6599 19.578H6.0613C5.69654 19.578 5.40146 19.2828 5.40146 18.9181C5.40146 18.5535 5.69654 18.2583 6.0613 18.2583V18.2583ZM21.2382 0.441895C20.1466 0.441895 19.2586 1.32988 19.2586 2.42149C19.2586 3.28065 19.8119 4.00623 20.5784 4.27954V8.36034H19.2586V12.3195H21.2382C21.6029 12.3195 21.898 12.0244 21.898 11.6597V4.27954C22.6645 4.00623 23.2178 3.28065 23.2178 2.42149C23.2178 1.32988 22.3298 0.441895 21.2382 0.441895V0.441895ZM4.08171 11.6596H6.72114V7.70043H4.08171V11.6596ZM12.0001 11.6596H14.6395V7.70043H12.0001V11.6596ZM8.04089 11.6596H10.6803V7.70043H8.04089V11.6596ZM17.279 4.40108H15.3838C14.3386 2.0149 11.9743 0.441895 9.36057 0.441895C6.74685 0.441895 4.38258 2.0149 3.33733 4.40108H1.44213C1.07737 4.40108 0.782288 4.69623 0.782288 5.06092V14.299C0.782288 14.6638 1.07744 14.9589 1.44213 14.9589H17.2789C17.6437 14.9589 17.9388 14.6637 17.9388 14.299V5.06099C17.9389 4.69623 17.6437 4.40108 17.279 4.40108V4.40108ZM15.9593 12.3195C15.9593 12.6843 15.6641 12.9794 15.2994 12.9794H3.4218C3.05703 12.9794 2.76196 12.6842 2.76196 12.3195V7.04059C2.76196 6.67583 3.05711 6.38067 3.4218 6.38067H15.2994C15.6641 6.38067 15.9592 6.67583 15.9592 7.04059V12.3195H15.9593Z" fill="#0CAD77"/>
</svg>
