<svg width="105" height="32" viewBox="0 0 105 32" fill="none" xmlns="http://www.w3.org/2000/svg">
<g opacity="0.6">
<path opacity="0.6" d="M14.785 12.0923L7.28577 15.5143L14.785 19.9596L22.2813 15.5143L14.785 12.0923Z" fill="#0C483C"/>
</g>
<g opacity="0.45">
<path opacity="0.45" d="M7.28577 15.514L14.785 19.9593V3.02979L7.28577 15.514Z" fill="#0C483C"/>
</g>
<g opacity="0.8">
<path opacity="0.8" d="M14.7849 3.02979V19.9593L22.2812 15.514L14.7849 3.02979Z" fill="#0C483C"/>
</g>
<g opacity="0.45">
<path opacity="0.45" d="M7.28577 16.9399L14.785 27.5401V21.3853L7.28577 16.9399Z" fill="#0C483C"/>
</g>
<g opacity="0.8">
<path opacity="0.8" d="M14.7849 21.3853V27.5401L22.2871 16.9399L14.7849 21.3853Z" fill="#0C483C"/>
</g>
<path d="M32.0281 16.4835C32.0281 16.6427 31.8952 16.7724 31.7365 16.7724H26.12C26.2602 18.1649 27.3045 19.4351 28.7732 19.4351C29.777 19.4351 30.5224 19.05 31.0833 18.2463C31.1645 18.1353 31.2863 18.0649 31.4413 18.1315C31.5262 18.1686 31.5852 18.2463 31.6 18.3352C31.6148 18.4278 31.5889 18.4796 31.5631 18.5315C30.9985 19.5203 29.873 20.0055 28.7696 20.0055C26.8802 20.0055 25.5332 18.3093 25.5332 16.4946C25.5332 14.6799 26.8802 12.9837 28.7696 12.9837C30.659 12.98 32.0244 14.6725 32.0281 16.4835ZM31.4265 16.2094C31.3048 14.8169 30.242 13.5466 28.7732 13.5466C27.3045 13.5466 26.2602 14.8169 26.12 16.2094H31.4265ZM38.844 13.1207C39.0063 13.1207 39.1244 13.2615 39.1244 13.4022C39.1244 13.5651 39.0026 13.6836 38.844 13.6836H37.3383V19.6129C37.3383 19.7536 37.2166 19.8944 37.0579 19.8944C36.8955 19.8944 36.7774 19.7536 36.7774 19.6129V13.6836H35.3309C35.1685 13.6836 35.0504 13.5614 35.0504 13.4022C35.0504 13.2615 35.1722 13.1207 35.3309 13.1207H36.7774V10.9505C36.7774 10.8135 36.8697 10.6875 37.0025 10.6653C37.1907 10.6357 37.3383 10.7653 37.3383 10.9431V13.1207H38.844ZM48.0292 15.9872V19.5796C48.0292 19.7425 47.8886 19.8611 47.7485 19.8611C47.586 19.8611 47.4682 19.7389 47.4682 19.5796V15.9872C47.4682 14.7762 46.7855 13.5651 45.4385 13.5651C43.7113 13.5651 42.966 15.0798 43.0655 16.6316C43.0655 16.6724 43.0839 16.8538 43.0839 16.8723V19.5685C43.0839 19.7055 42.9917 19.8314 42.8589 19.8537C42.6708 19.8833 42.5231 19.7536 42.5231 19.5759V7.7766C42.5231 7.63586 42.6449 7.49512 42.8036 7.49512C42.966 7.49512 43.0839 7.63586 43.0839 7.7766V14.454C43.5673 13.5874 44.4309 13.0022 45.4346 13.0022C47.0842 13.0022 48.0292 14.454 48.0292 15.9872ZM58.0997 16.4835C58.0997 16.6427 57.9669 16.7724 57.8083 16.7724H52.188C52.3282 18.1649 53.3726 19.4351 54.8413 19.4351C55.845 19.4351 56.5903 19.05 57.1513 18.2463C57.2327 18.1353 57.3545 18.0649 57.5092 18.1315C57.594 18.1686 57.6532 18.2463 57.6682 18.3352C57.6828 18.4278 57.657 18.4796 57.6309 18.5315C57.0665 19.5203 55.941 20.0055 54.8375 20.0055C52.9483 20.0055 51.6013 18.3093 51.6013 16.4946C51.6013 14.6799 52.9483 12.9837 54.8375 12.9837C56.7305 12.98 58.0959 14.6725 58.0997 16.4835ZM57.4946 16.2094C57.3729 14.8169 56.31 13.5466 54.8413 13.5466C53.3726 13.5466 52.3282 14.8169 52.188 16.2094H57.4946ZM64.9933 13.3837C64.9933 13.5651 64.8935 13.6651 64.731 13.6873C63.0815 13.9281 62.34 15.2798 62.34 16.8538V19.55C62.34 19.687 62.2475 19.8129 62.1146 19.8351C61.9265 19.8648 61.779 19.7352 61.779 19.5574V13.4133C61.779 13.2763 61.8712 13.1503 62.004 13.1281C62.1922 13.0985 62.34 13.2281 62.34 13.4059V14.6577C62.8012 13.8725 63.7273 13.1244 64.6908 13.1244C64.8309 13.1207 64.9933 13.2244 64.9933 13.3837ZM74.2188 16.4835C74.2188 16.6427 74.0859 16.7724 73.9273 16.7724H68.3109C68.451 18.1649 69.4955 19.4351 70.9642 19.4351C71.9679 19.4351 72.7132 19.05 73.2742 18.2463C73.3552 18.1353 73.4769 18.0649 73.632 18.1315C73.7169 18.1686 73.776 18.2463 73.7906 18.3352C73.8056 18.4278 73.7795 18.4796 73.7537 18.5315C73.1893 19.5203 72.0639 20.0055 70.9603 20.0055C69.0708 20.0055 67.7238 18.3093 67.7238 16.4946C67.7238 14.6799 69.0708 12.9837 70.9603 12.9837C72.8499 12.98 74.2153 14.6725 74.2188 16.4835ZM73.6175 16.2094C73.4953 14.8169 72.4329 13.5466 70.9642 13.5466C69.4955 13.5466 68.451 14.8169 68.3109 16.2094H73.6175ZM83.2856 13.454V19.6129C83.2856 19.7759 83.1455 19.8944 83.0053 19.8944C82.8429 19.8944 82.725 19.7722 82.725 19.6129V18.4426C82.2635 19.3722 81.4367 20.0351 80.3927 20.0351C78.7247 20.0351 77.7982 18.5834 77.7982 17.0501V13.4392C77.7982 13.2985 77.9203 13.1577 78.0789 13.1577C78.2413 13.1577 78.3592 13.2985 78.3592 13.4392V17.0501C78.3592 18.2612 79.0419 19.4722 80.3889 19.4722C82.2785 19.4722 82.7212 17.6982 82.7212 15.7391V13.4392C82.7212 13.2763 82.8836 13.1096 83.0829 13.1689C83.2046 13.2096 83.2856 13.3281 83.2856 13.454ZM97.4932 15.965V19.5759C97.4932 19.7389 97.353 19.8574 97.2129 19.8574C97.0505 19.8574 96.9322 19.7352 96.9322 19.5759V15.965C96.9322 14.7539 96.2495 13.5651 94.9029 13.5651C93.2126 13.5651 92.5706 15.3799 92.5706 16.7909V19.5759C92.5706 19.7389 92.43 19.8574 92.2899 19.8574C92.1275 19.8574 92.0096 19.7352 92.0096 19.5759V15.965C92.0096 14.7539 91.3269 13.5651 89.9799 13.5651C88.2712 13.5651 87.5666 14.9169 87.6292 16.7131C87.6292 16.7538 87.6476 16.8353 87.6292 16.8538V19.5685C87.6292 19.7055 87.537 19.8314 87.4003 19.8537C87.2122 19.8833 87.0648 19.7536 87.0648 19.5759V13.4133C87.0648 13.2763 87.1569 13.1503 87.2898 13.1281C87.4779 13.0985 87.6253 13.2281 87.6253 13.4059V14.4354C88.1087 13.5688 88.9723 13.0022 89.976 13.0022C91.1203 13.0022 92.0058 13.7281 92.3675 14.7984C92.8286 13.7503 93.7329 13.0022 94.899 13.0022C96.5486 13.0022 97.4932 14.4317 97.4932 15.965Z" fill="#0C483C"/>
</svg>
