<svg width="48" height="17" viewBox="0 0 48 17" fill="none" xmlns="http://www.w3.org/2000/svg">
<path d="M12.4982 0.96875H17.5588L17.6859 2.67755H17.3859C17.2663 1.97527 17.2511 1.83075 16.9942 1.55693C16.7374 1.28312 16.2313 1.3034 15.8117 1.3034H14.5173C14.4741 1.30064 14.4307 1.3069 14.39 1.32174C14.3493 1.33658 14.3121 1.35968 14.2808 1.38961C14.224 1.46158 14.195 1.55161 14.1994 1.64314V3.8083H14.7614C14.9013 3.81279 15.0403 3.78599 15.1684 3.72983C15.2965 3.67366 15.4103 3.58959 15.5015 3.48378C15.7135 3.19475 15.8211 2.84265 15.8066 2.48487H16.1169V5.52725H15.8066C15.8282 5.14109 15.719 4.7589 15.4964 4.44213C15.3989 4.33234 15.2779 4.24591 15.1423 4.18928C15.0066 4.13265 14.86 4.10728 14.7131 4.11508H14.2045V6.56419C14.2012 6.60543 14.208 6.64687 14.2244 6.68487C14.2408 6.72288 14.2663 6.75631 14.2986 6.78224C14.394 6.84232 14.5067 6.86908 14.619 6.8583H15.6363C16.7476 6.8583 17.3884 6.49574 17.5588 5.08357H17.8792L17.7673 7.1955H12.5007V6.86337H12.7804C12.912 6.87843 13.0446 6.84604 13.1543 6.77209C13.1893 6.73999 13.217 6.70072 13.2354 6.65696C13.2539 6.6132 13.2626 6.56599 13.2611 6.51856V1.64568C13.2644 1.59917 13.2577 1.55249 13.2415 1.50876C13.2253 1.46503 13.1999 1.42528 13.167 1.39214C13.0832 1.32895 12.9793 1.2983 12.8745 1.30594H12.4982V0.96875Z" fill="#0CAD77"/>
<path d="M17.4679 3.04053H19.7566V3.3549C19.5789 3.34494 19.4009 3.36991 19.2328 3.42842C19.1974 3.44519 19.1678 3.47188 19.1475 3.50521C19.1271 3.53854 19.117 3.57707 19.1183 3.61605C19.119 3.68096 19.1338 3.74495 19.1616 3.80366L20.2729 6.27052L21.2901 3.87718C21.303 3.83701 21.3099 3.79514 21.3104 3.75295C21.3104 3.53491 21.0968 3.40053 20.6696 3.34729V3.04307H22.4039V3.34729C22.2535 3.35461 22.1081 3.40381 21.9843 3.48928C21.8767 3.56929 21.7932 3.67713 21.7427 3.80112L20.2169 7.35057H19.9753L18.3249 3.70732C18.283 3.59597 18.2074 3.50031 18.1087 3.4335C17.9054 3.37539 17.6947 3.3472 17.4832 3.34983L17.4679 3.04053Z" fill="#0CAD77"/>
<path d="M24.0164 2.91583C24.2833 2.91103 24.5481 2.96303 24.7933 3.06839C25.0384 3.17376 25.2582 3.33006 25.4379 3.52684C25.8334 3.96485 26.0398 4.5405 26.0126 5.12916C26.0258 5.5337 25.9385 5.93521 25.7583 6.29794C25.5905 6.61491 25.3368 6.87847 25.026 7.05854C24.7183 7.24141 24.367 7.3386 24.0088 7.33995C23.7477 7.34244 23.4891 7.28869 23.2508 7.18236C23.0125 7.07603 22.8 6.91963 22.6279 6.72387C22.2597 6.27199 22.0587 5.70754 22.0587 5.12536C22.0587 4.54317 22.2597 3.97872 22.6279 3.52684C22.8021 3.33194 23.0161 3.17655 23.2556 3.07115C23.4952 2.96575 23.7546 2.91278 24.0164 2.91583ZM24.0164 3.23529C23.8519 3.23484 23.6901 3.276 23.546 3.35493C23.4019 3.43386 23.2802 3.54797 23.1924 3.68656C22.9788 3.98827 22.8695 4.46491 22.8695 5.11649C22.8342 5.62136 22.9454 6.12567 23.1899 6.56922C23.2767 6.71006 23.3982 6.82641 23.5429 6.90718C23.6876 6.98795 23.8506 7.03045 24.0164 7.03065C24.1852 7.03175 24.3515 6.98995 24.4997 6.90923C24.6479 6.8285 24.773 6.71149 24.8632 6.56922C25.0785 6.26329 25.187 5.76552 25.1887 5.07592C25.1887 4.43025 25.0811 3.96377 24.8658 3.67643C24.7727 3.53758 24.6461 3.42421 24.4977 3.3467C24.3494 3.26919 24.1839 3.23002 24.0164 3.23275V3.23529Z" fill="#0CAD77"/>
<path d="M27.407 0.893066V6.60515C27.4048 6.63975 27.4105 6.67441 27.4237 6.70648C27.4369 6.73855 27.4573 6.76718 27.4833 6.79022C27.5606 6.85122 27.6568 6.88348 27.7554 6.88149H28.0276V7.21616H25.9927V6.88403H26.2471C26.302 6.88874 26.3573 6.88241 26.4098 6.86543C26.4622 6.84845 26.5107 6.82116 26.5523 6.78516C26.5867 6.74807 26.6134 6.70454 26.6309 6.65711C26.6484 6.60968 26.6562 6.55928 26.6541 6.50881V1.76268C26.6585 1.703 26.6499 1.64308 26.6288 1.58705C26.6077 1.53101 26.5747 1.48022 26.532 1.43817C26.4191 1.34137 26.2738 1.29065 26.125 1.29619H25.7511V0.961525L27.407 0.893066Z" fill="#0CAD77"/>
<path d="M29.5296 2.96436V5.73546C29.5108 6.0194 29.6018 6.29974 29.7839 6.51886C29.8679 6.61018 29.9707 6.68236 30.0852 6.73049C30.1998 6.77862 30.3234 6.80157 30.4476 6.79776C30.6107 6.79842 30.7719 6.76227 30.919 6.69202C31.066 6.62177 31.1953 6.51923 31.297 6.3921C31.5368 6.10955 31.662 5.74783 31.6479 5.37797V3.81368C31.6514 3.75014 31.6393 3.68672 31.6127 3.62887C31.5861 3.57102 31.5459 3.52046 31.4954 3.48156C31.3142 3.38286 31.1089 3.33716 30.9028 3.34971V3.03787L32.3727 2.96436V6.39717C32.3687 6.46384 32.3789 6.5306 32.4025 6.59308C32.4262 6.65556 32.4628 6.71234 32.51 6.75972C32.5607 6.80463 32.6199 6.83898 32.6841 6.86075C32.7483 6.88252 32.8162 6.89127 32.8838 6.88649H33.1381V7.18059L31.7293 7.21354L31.6378 6.3921C31.4259 6.65372 31.1725 6.87897 30.8876 7.05889C30.658 7.19987 30.3943 7.2761 30.1247 7.27946C29.9491 7.28479 29.7742 7.25452 29.6107 7.19045C29.4473 7.12639 29.2985 7.02987 29.1736 6.90677C28.9193 6.65324 28.7845 6.23238 28.7845 5.63911V3.81876C28.7896 3.7455 28.7749 3.67221 28.7418 3.60662C28.7086 3.54103 28.6584 3.48556 28.5963 3.44606C28.4241 3.36886 28.2353 3.33575 28.047 3.34971V3.03534L29.5296 2.96436Z" fill="#0CAD77"/>
<path d="M33.9979 1.32617H34.2979V3.03244H36.841V3.43556H34.2979V6.1154C34.285 6.30716 34.3439 6.49687 34.4633 6.64781C34.5151 6.70785 34.5796 6.7558 34.6521 6.78822C34.7246 6.82065 34.8034 6.83675 34.8828 6.83542C34.9839 6.83204 35.0827 6.80476 35.1712 6.75583C35.2596 6.70691 35.3351 6.63773 35.3914 6.554C35.5644 6.27384 35.6527 5.94991 35.6457 5.62101H35.9458C35.9646 6.06401 35.8319 6.50024 35.5695 6.85824C35.4565 6.98905 35.3157 7.09309 35.1574 7.16283C34.999 7.23256 34.827 7.26622 34.654 7.26135C34.3566 7.27706 34.065 7.175 33.8427 6.9774C33.7439 6.88081 33.6668 6.76445 33.6164 6.63597C33.566 6.50749 33.5434 6.3698 33.5503 6.23201V3.44316H32.8204V3.13132C33.1187 3.09509 33.3917 2.94628 33.5833 2.71552C33.8646 2.30736 34.0096 1.82122 33.9979 1.32617Z" fill="#0CAD77"/>
<path d="M35.9484 3.04014L37.6169 2.99196V6.58451C37.612 6.62267 37.6159 6.66146 37.6282 6.69792C37.6406 6.73438 37.6611 6.76755 37.6882 6.79494C37.7586 6.85567 37.8495 6.88739 37.9425 6.88367H38.2452V7.21834H36.2104V6.88367H36.48C36.5322 6.8889 36.5849 6.88326 36.6348 6.86712C36.6848 6.85097 36.7308 6.82466 36.7699 6.78987C36.8339 6.71132 36.8665 6.61202 36.8615 6.51099V3.96046C36.8655 3.89145 36.855 3.82237 36.8304 3.75771C36.8059 3.69306 36.7679 3.63427 36.7191 3.58522C36.5969 3.49253 36.4449 3.44745 36.2917 3.45845H35.9484V3.04014ZM37.1108 1.06511C37.2457 1.06511 37.3751 1.11854 37.4705 1.21363C37.5659 1.30873 37.6195 1.43769 37.6195 1.57217C37.6207 1.63714 37.6082 1.70164 37.5828 1.76147C37.5573 1.82131 37.5196 1.87516 37.472 1.91953C37.4136 1.98053 37.3409 2.02606 37.2604 2.052C37.18 2.07795 37.0943 2.08349 37.0111 2.06813C36.928 2.05277 36.85 2.01698 36.7842 1.96402C36.7184 1.91105 36.6669 1.84258 36.6343 1.76478C36.6018 1.68699 36.5892 1.60233 36.5977 1.51846C36.6062 1.4346 36.6356 1.35417 36.6832 1.28446C36.7307 1.21475 36.7949 1.15795 36.87 1.11921C36.9452 1.08047 37.0288 1.06102 37.1133 1.06259L37.1108 1.06511Z" fill="#0CAD77"/>
<path d="M40.3552 2.91583C40.6218 2.91106 40.8862 2.96309 41.131 3.06847C41.3757 3.17384 41.595 3.33012 41.7743 3.52683C42.1704 3.96459 42.3777 4.54018 42.3515 5.12916C42.3635 5.53358 42.2762 5.9348 42.0972 6.29794C41.9294 6.6149 41.6757 6.87846 41.3648 7.05853C41.0571 7.24141 40.7059 7.33859 40.3476 7.33995C40.0865 7.34244 39.828 7.28869 39.5897 7.18236C39.3513 7.07603 39.1389 6.91963 38.9668 6.72387C38.5986 6.27198 38.3976 5.70754 38.3976 5.12535C38.3976 4.54317 38.5986 3.97872 38.9668 3.52683C39.1409 3.33194 39.355 3.17655 39.5945 3.07114C39.834 2.96574 40.0934 2.91278 40.3552 2.91583ZM40.3552 3.23528C40.1907 3.23436 40.0287 3.27532 39.8845 3.35429C39.7403 3.43327 39.6187 3.54764 39.5313 3.68656C39.3177 3.98826 39.2083 4.46491 39.2083 5.11648C39.1731 5.62135 39.2843 6.12566 39.5288 6.56922C39.6156 6.71006 39.7371 6.82641 39.8818 6.90718C40.0264 6.98795 40.1894 7.03045 40.3552 7.03065C40.5241 7.03174 40.6904 6.98995 40.8386 6.90922C40.9867 6.82849 41.1118 6.71148 41.2021 6.56922C41.4174 6.26329 41.525 5.76552 41.525 5.07591C41.525 4.43025 41.4182 3.96376 41.2046 3.67642C41.1119 3.53725 40.9854 3.42363 40.837 3.34608C40.6885 3.26853 40.5228 3.22955 40.3552 3.23274V3.23528Z" fill="#0CAD77"/>
<path d="M42.2632 3.04021L43.6543 2.95654C43.7173 3.25918 43.759 3.56586 43.7789 3.87433C43.9428 3.5978 44.1703 3.36405 44.4426 3.19233C44.7059 3.04008 45.0054 2.96127 45.3097 2.96416C45.5526 2.95619 45.7932 3.01308 46.0066 3.12894C46.2056 3.24826 46.3634 3.42511 46.4592 3.63601C46.5738 3.88302 46.6321 4.15232 46.6296 4.42449V6.45274C46.6236 6.51089 46.6295 6.56965 46.647 6.62544C46.6645 6.68123 46.6932 6.73288 46.7313 6.77727C46.8314 6.84935 46.9543 6.88269 47.0772 6.87108H47.1992V7.20574H45.3352V6.87108H45.3733C45.5173 6.88655 45.6623 6.85352 45.7853 6.77727C45.8254 6.7432 45.8569 6.70019 45.8772 6.65174C45.8975 6.6033 45.9061 6.55077 45.9023 6.49839V4.70846C45.9194 4.40859 45.8543 4.10973 45.7141 3.84391C45.6358 3.71399 45.5233 3.60797 45.3888 3.53734C45.2543 3.46672 45.1029 3.43419 44.9512 3.44332C44.7885 3.44075 44.6275 3.47609 44.4809 3.54652C44.3343 3.61694 44.2062 3.72051 44.1069 3.84898C43.8722 4.15022 43.7531 4.52517 43.7712 4.90621V6.45274C43.765 6.51109 43.771 6.57012 43.7889 6.62601C43.8069 6.6819 43.8364 6.73342 43.8755 6.77727C43.9756 6.84935 44.0985 6.88269 44.2214 6.87108H44.3409V7.20574H42.4641V6.87108H42.5836C42.7015 6.87923 42.8187 6.84802 42.9168 6.78235C42.9523 6.75692 42.9812 6.72342 43.0011 6.68461C43.021 6.64581 43.0313 6.60282 43.0312 6.55924V3.87433C43.0361 3.80043 43.0257 3.72632 43.0008 3.65656C42.9759 3.58679 42.9369 3.52286 42.8863 3.46868C42.7696 3.37039 42.6191 3.32127 42.4667 3.33177H42.2531L42.2632 3.04021Z" fill="#0CAD77"/>
<path d="M19.8105 8.78029L20.1843 8.12109H20.4971L20.6624 10.7528H20.3725C20.2274 10.1559 19.9579 9.5961 19.5816 9.10988C19.4205 8.91146 19.2176 8.75071 18.9874 8.63901C18.7571 8.5273 18.5051 8.46735 18.249 8.46337C17.8726 8.45548 17.5038 8.57031 17.1988 8.79042C16.8723 9.03805 16.6285 9.3783 16.4994 9.76651C16.3074 10.2975 16.221 10.8607 16.2451 11.4246C16.2235 11.976 16.3099 12.5263 16.4994 13.0447C16.6228 13.4214 16.8566 13.7526 17.1708 13.9954C17.4683 14.2031 17.825 14.3098 18.188 14.2997C18.409 14.3138 18.6305 14.2823 18.8388 14.2073C19.0471 14.1323 19.2376 14.0153 19.3985 13.8636C19.541 13.7141 19.6522 13.5378 19.7255 13.3449C19.7989 13.1521 19.8329 12.9466 19.8257 12.7405V12.1218C19.8286 12.0771 19.8195 12.0324 19.7994 11.9923C19.7793 11.9523 19.7489 11.9182 19.7113 11.8937C19.5974 11.8305 19.4673 11.8022 19.3374 11.8125H18.7729V11.5007H21.3744V11.8125H21.171C21.0452 11.8014 20.9193 11.8317 20.8124 11.8987C20.7766 11.9303 20.7485 11.9695 20.73 12.0133C20.7115 12.0572 20.7031 12.1047 20.7056 12.1523V14.6622H20.4106C20.3038 14.2692 20.1919 13.9016 20.0749 13.5391C19.8814 13.8755 19.607 14.1587 19.2764 14.3631C18.9577 14.5475 18.5946 14.6421 18.2261 14.6369C17.68 14.6402 17.1437 14.4919 16.6774 14.2084C15.9633 13.7591 15.4487 13.0543 15.2392 12.2387C15.0297 11.4231 15.1413 10.5585 15.5509 9.8223C15.8147 9.31702 16.2077 8.8902 16.6902 8.58506C17.1218 8.2938 17.6288 8.13352 18.1499 8.12363C18.423 8.12272 18.6942 8.16992 18.9509 8.26307C19.261 8.39313 19.5505 8.56736 19.8105 8.78029Z" fill="#0CAD77"/>
<path d="M25.809 14.1781L25.8776 14.3023C25.8776 14.5381 25.5928 14.5102 25.3258 14.5102C25.0661 14.53 24.8053 14.491 24.5629 14.3961C24.4124 14.2623 24.3075 14.0851 24.2628 13.889C24.0505 14.1314 23.7964 14.3341 23.5126 14.4874C23.2676 14.5913 23.0032 14.6423 22.737 14.637C22.388 14.6606 22.0417 14.562 21.7579 14.3581C21.6506 14.2744 21.5643 14.1669 21.506 14.0441C21.4477 13.9212 21.4191 13.7865 21.4222 13.6507C21.4222 13.2163 21.6765 12.8555 22.1851 12.5682C22.8193 12.2467 23.5104 12.0521 24.2196 11.9952V11.3613C24.2199 11.2507 24.1953 11.1413 24.1478 11.0413C24.1003 10.9413 24.031 10.8531 23.9449 10.7833C23.7534 10.6184 23.5061 10.5323 23.2532 10.5424C23.0192 10.5352 22.7874 10.5904 22.5818 10.7021C22.4471 10.7833 22.381 10.8619 22.381 10.9405C22.3972 11.0181 22.4341 11.0899 22.4877 11.1484C22.5628 11.2381 22.6081 11.3488 22.6174 11.4653C22.6198 11.5258 22.6095 11.5861 22.5871 11.6424C22.5648 11.6987 22.531 11.7498 22.4877 11.7923C22.4428 11.8359 22.3894 11.8698 22.3308 11.8921C22.2722 11.9143 22.2096 11.9244 22.147 11.9216C22.0776 11.9231 22.0086 11.9103 21.9443 11.8842C21.88 11.858 21.8218 11.819 21.7732 11.7695C21.7229 11.718 21.6837 11.6568 21.6579 11.5897C21.6321 11.5226 21.6203 11.4509 21.6231 11.3791C21.6352 11.2135 21.6879 11.0533 21.7766 10.9127C21.8653 10.7722 21.9872 10.6554 22.1317 10.5728C22.5172 10.3103 22.9776 10.1795 23.4439 10.2002C23.85 10.1734 24.253 10.2861 24.5857 10.5196C24.7078 10.612 24.8069 10.7312 24.8753 10.8679C24.9436 11.0047 24.9794 11.1553 24.9799 11.3081V13.5899C24.9724 13.7278 25.007 13.8648 25.0791 13.9828C25.1325 14.0662 25.2164 14.1254 25.313 14.1477C25.4774 14.1698 25.6431 14.18 25.809 14.1781ZM24.2501 12.2918C23.4923 12.3966 22.9557 12.5656 22.6404 12.7989C22.5238 12.8874 22.4307 13.0029 22.3691 13.1355C22.3075 13.268 22.2793 13.4136 22.2869 13.5595C22.2762 13.7556 22.3439 13.9479 22.4751 14.0944C22.5372 14.1572 22.6118 14.2064 22.6942 14.2387C22.7765 14.271 22.8647 14.2858 22.9531 14.282C23.1252 14.2831 23.2955 14.2483 23.4532 14.1797C23.6109 14.1112 23.7524 14.0104 23.8686 13.884C23.997 13.7514 24.0974 13.5944 24.1638 13.4223C24.2302 13.2503 24.2613 13.0668 24.2552 12.8825L24.2501 12.2918Z" fill="#0CAD77"/>
<path d="M25.6595 10.3317L26.8572 10.2557C26.9209 10.5481 26.9642 10.8446 26.9869 11.143C27.1623 10.8681 27.3947 10.6338 27.6684 10.456C27.899 10.3195 28.1633 10.2501 28.4313 10.2557C28.6886 10.2461 28.9411 10.3258 29.1459 10.4813C29.3623 10.6778 29.5139 10.935 29.5808 11.2191C29.7477 10.9329 29.975 10.6863 30.2471 10.4965C30.4842 10.339 30.7632 10.2559 31.0481 10.2582C31.2072 10.2465 31.3669 10.2708 31.5153 10.3292C31.6637 10.3875 31.7969 10.4785 31.9051 10.5954C32.1611 10.9236 32.2934 11.3309 32.2789 11.7464V13.8203C32.2729 13.867 32.2784 13.9145 32.2947 13.9586C32.3111 14.0028 32.338 14.0423 32.373 14.0739C32.4819 14.1505 32.614 14.1872 32.7469 14.1778H32.9452V14.5099H30.8371V14.1778H31.0481C31.1794 14.1886 31.3105 14.1565 31.4219 14.0865C31.4592 14.0529 31.4882 14.0112 31.5068 13.9646C31.5253 13.918 31.5328 13.8678 31.5288 13.8178V11.7439C31.5464 11.4841 31.4657 11.2271 31.3024 11.0239C31.2277 10.9404 31.1353 10.8744 31.032 10.8305C30.9287 10.7867 30.817 10.7661 30.7048 10.7703C30.5241 10.7683 30.3469 10.8204 30.1962 10.9199C30.0391 11.025 29.9156 11.1729 29.8402 11.3459C29.7286 11.5542 29.6644 11.7844 29.652 12.0202V13.8203C29.6484 13.87 29.6554 13.9198 29.6725 13.9665C29.6896 14.0133 29.7164 14.0559 29.7512 14.0916C29.8397 14.1549 29.9477 14.1854 30.0563 14.1778H30.3412V14.5099H28.1974V14.1778H28.4517C28.5715 14.1862 28.6907 14.154 28.7899 14.0865C28.8255 14.0602 28.8543 14.0257 28.8737 13.986C28.8932 13.9463 28.9028 13.9025 28.9018 13.8583V11.934C28.9273 11.6228 28.8515 11.3116 28.6856 11.0467C28.6176 10.9572 28.5289 10.8854 28.4271 10.8373C28.3253 10.7892 28.2133 10.7662 28.1008 10.7703C27.9622 10.762 27.8236 10.7869 27.6966 10.8429C27.5696 10.899 27.458 10.9845 27.3709 11.0923C27.1295 11.3923 27.0016 11.7675 27.0098 12.1521V13.8203C27.0049 13.8661 27.0099 13.9124 27.0244 13.9561C27.0389 13.9998 27.0625 14.04 27.0937 14.0739C27.2047 14.1449 27.336 14.1779 27.4676 14.1677H27.6837V14.5099H25.5704V14.1778H25.8858C25.9855 14.1827 26.0836 14.1501 26.1604 14.0865C26.1919 14.0576 26.2169 14.0222 26.2335 13.9829C26.2502 13.9435 26.2582 13.9011 26.2571 13.8583V11.1202C26.2619 11.059 26.254 10.9975 26.2339 10.9394C26.2137 10.8814 26.1818 10.8282 26.1401 10.783C26.0045 10.6886 25.8426 10.6389 25.6773 10.641L25.6595 10.3317Z" fill="#0CAD77"/>
<path d="M33.0238 10.3316L34.5216 10.2834V13.8785C34.5183 13.9162 34.5229 13.9541 34.5352 13.9899C34.5474 14.0257 34.5671 14.0586 34.5928 14.0864C34.6641 14.1459 34.7542 14.1783 34.8471 14.1776H35.3227V14.5098H32.7618V14.1776H33.3773C33.4296 14.1825 33.4825 14.1765 33.5324 14.1599C33.5823 14.1433 33.6282 14.1165 33.6672 14.0813C33.7331 14.0039 33.766 13.9037 33.7587 13.8024V11.1707C33.7636 11.102 33.7533 11.0331 33.7287 10.9687C33.7041 10.9044 33.6658 10.8461 33.6163 10.798C33.4957 10.7042 33.3441 10.659 33.1916 10.6713H33.0187L33.0238 10.3316ZM34.013 8.35653C34.0792 8.35683 34.1446 8.37046 34.2053 8.3966C34.2661 8.42274 34.3209 8.46086 34.3665 8.50866C34.4137 8.55449 34.4512 8.60928 34.4769 8.66981C34.5025 8.73034 34.5157 8.79536 34.5157 8.86106C34.5157 8.92676 34.5025 8.9918 34.4769 9.05232C34.4512 9.11285 34.4137 9.16764 34.3665 9.21347C34.3082 9.27447 34.2355 9.32002 34.155 9.34596C34.0746 9.37191 33.9889 9.37745 33.9058 9.36209C33.8226 9.34673 33.7447 9.31094 33.6789 9.25798C33.6131 9.20501 33.5616 9.13653 33.529 9.05873C33.4965 8.98093 33.4839 8.89627 33.4924 8.81241C33.501 8.72854 33.5303 8.64813 33.5779 8.57842C33.6254 8.50871 33.6896 8.45191 33.7647 8.41317C33.8398 8.37443 33.9234 8.35496 34.0079 8.35653H34.013Z" fill="#0CAD77"/>
<path d="M35.2038 10.3322L36.5949 10.2485C36.6581 10.5511 36.6998 10.8578 36.7195 11.1663C36.8827 10.8892 37.1103 10.6553 37.3832 10.4843C37.6456 10.3298 37.9458 10.2508 38.2504 10.2561C38.4929 10.2485 38.7332 10.3044 38.9472 10.4184C39.1465 10.5373 39.3045 10.7143 39.3998 10.9255C39.5158 11.1747 39.5741 11.4468 39.5702 11.7216V13.7498C39.5643 13.8076 39.5702 13.8659 39.5877 13.9213C39.6052 13.9767 39.6339 14.0279 39.672 14.0718C39.7717 14.1448 39.8946 14.179 40.0178 14.1681H40.1399V14.5104H38.2733V14.1757H38.3114C38.4553 14.1888 38.5995 14.1559 38.7234 14.0819C38.7634 14.0472 38.7947 14.0038 38.815 13.9549C38.8353 13.9061 38.844 13.8533 38.8404 13.8005V12.0131C38.8588 11.7132 38.7937 11.414 38.6522 11.1486C38.5736 11.0188 38.4611 10.9127 38.3267 10.8417C38.1924 10.7707 38.0412 10.7374 37.8893 10.7455C37.7268 10.7443 37.5663 10.7802 37.4199 10.8505C37.2735 10.9208 37.1453 11.0237 37.045 11.1511C36.8108 11.4527 36.6919 11.8274 36.7093 12.2083V13.7498C36.7033 13.8078 36.7094 13.8663 36.7274 13.9218C36.7453 13.9772 36.7747 14.0283 36.8136 14.0718C36.9133 14.1448 37.0362 14.179 37.1594 14.1681H37.279V14.5104H35.2445V14.1757H35.5344C35.6526 14.1838 35.7701 14.1516 35.8676 14.0845C35.9034 14.0594 35.9325 14.0259 35.9525 13.987C35.9724 13.9482 35.9826 13.905 35.982 13.8614V11.1663C35.987 11.0922 35.9765 11.0178 35.9511 10.948C35.9257 10.8782 35.886 10.8144 35.8345 10.7607C35.7193 10.6614 35.5695 10.6113 35.4175 10.6212H35.2013L35.2038 10.3322Z" fill="#0CAD77"/>
<path d="M43.3137 10.5652C43.6112 10.2661 44.4377 9.81984 44.7124 9.81984C44.7874 9.80932 44.8638 9.81424 44.9369 9.8343C45.0099 9.85436 45.078 9.88914 45.1371 9.93647C45.2363 10.0328 45.0582 10.2458 45.0582 10.3827C45.0614 10.4837 45.0249 10.5819 44.9565 10.6565C44.9283 10.691 44.8925 10.7188 44.852 10.7376C44.8115 10.7565 44.7673 10.766 44.7226 10.7655C44.553 10.7655 44.4386 10.6616 44.3793 10.4537C44.3538 10.3649 44.3157 10.3218 44.2572 10.3218C43.9873 10.4159 43.7378 10.5605 43.5223 10.7478C43.6276 10.8876 43.7132 11.0411 43.7766 11.2041C43.8254 11.3382 43.8495 11.4799 43.8477 11.6225C43.8533 11.8637 43.7888 12.1014 43.6621 12.307C43.503 12.5326 43.2873 12.7127 43.0365 12.8293C42.7811 12.9716 42.4949 13.0499 42.2024 13.0575H41.7167C41.4817 13.0366 41.2452 13.0732 41.0275 13.1639C40.9735 13.1988 40.9295 13.247 40.8996 13.3039C40.8698 13.3607 40.8551 13.4243 40.8572 13.4884C40.8547 13.5416 40.8663 13.5944 40.8908 13.6416C40.9154 13.6888 40.952 13.7287 40.997 13.7572C41.1556 13.8316 41.3308 13.864 41.5056 13.851L42.6093 13.8282C43.1688 13.8282 43.5706 13.9195 43.8147 14.1071C43.9354 14.1931 44.033 14.3076 44.0987 14.4403C44.1644 14.573 44.1961 14.7198 44.1911 14.8677C44.1927 15.0394 44.1559 15.2093 44.0833 15.365C44.0107 15.5207 43.9042 15.6583 43.7715 15.7677C43.3798 16.1058 42.7966 16.2748 42.0219 16.2748C41.381 16.2748 40.9055 16.1573 40.5952 15.9224C40.4869 15.8568 40.3961 15.766 40.3306 15.6578C40.265 15.5497 40.2267 15.4273 40.2189 15.3012C40.2217 15.2088 40.2443 15.118 40.2851 15.035C40.3259 14.9519 40.3839 14.8785 40.4554 14.8195C40.684 14.6424 40.9564 14.5303 41.2437 14.495C40.9981 14.4493 40.7686 14.341 40.5774 14.1806C40.5058 14.117 40.4488 14.0388 40.4102 13.9513C40.3716 13.8638 40.3523 13.7691 40.3536 13.6735C40.352 13.4872 40.4189 13.3068 40.5418 13.1665C40.7148 12.9925 40.9305 12.8666 41.1674 12.8014C40.9385 12.6818 40.7428 12.5076 40.5978 12.2943C40.4689 12.0914 40.4034 11.8549 40.4096 11.6149C40.4071 11.4208 40.4489 11.2287 40.5317 11.053C40.6145 10.8773 40.7362 10.7227 40.8877 10.6007C41.2376 10.3162 41.6802 10.1701 42.1312 10.19C42.3356 10.1901 42.5387 10.2208 42.7339 10.2813C42.9405 10.3461 43.136 10.4418 43.3137 10.5652ZM42.4008 14.5102C41.9957 14.4789 41.5896 14.5577 41.2259 14.7384C41.1247 14.7918 41.0393 14.8707 40.9782 14.9672C40.9171 15.0637 40.8824 15.1745 40.8775 15.2885C40.8742 15.3832 40.896 15.4771 40.9406 15.5608C40.9853 15.6445 41.0512 15.715 41.1318 15.7652C41.4328 15.9367 41.7775 16.0169 42.1236 15.9959C42.5265 16.0236 42.9289 15.9356 43.2832 15.7423C43.3904 15.6896 43.4824 15.6104 43.5505 15.5124C43.6185 15.4144 43.6605 15.3007 43.6723 15.1821C43.672 15.0586 43.6299 14.9389 43.5528 14.8423C43.4555 14.7188 43.3208 14.6299 43.1688 14.5888C42.9202 14.5218 42.6633 14.4911 42.4059 14.4975L42.4008 14.5102ZM42.1465 10.4866C42.022 10.4841 41.8984 10.5089 41.7846 10.5593C41.6708 10.6097 41.5695 10.6844 41.4878 10.7782C41.3043 11.0104 41.2137 11.3022 41.2335 11.5971C41.2127 11.9086 41.3027 12.2175 41.4878 12.4693C41.5612 12.556 41.651 12.6274 41.7521 12.6795C41.8532 12.7315 41.9636 12.7632 42.077 12.7726C42.1904 12.782 42.3046 12.7691 42.4129 12.7344C42.5213 12.6997 42.6217 12.6441 42.7085 12.5707C42.7461 12.5408 42.7802 12.5068 42.8102 12.4693C42.9952 12.2213 43.0854 11.9156 43.0645 11.6072C43.0843 11.31 42.9938 11.0158 42.8102 10.7807C42.7298 10.686 42.6291 10.6104 42.5156 10.5595C42.402 10.5087 42.2786 10.4837 42.1541 10.4866H42.1465Z" fill="#0CAD77"/>
<path d="M44.8695 9.84286C44.968 9.84518 45.0638 9.87597 45.1451 9.93151C45.2264 9.98706 45.2898 10.065 45.3275 10.1557C45.3652 10.2465 45.3757 10.3463 45.3576 10.4428C45.3395 10.5394 45.2937 10.6287 45.2256 10.6998C45.1672 10.7608 45.0945 10.8063 45.0141 10.8323C44.9336 10.8582 44.8479 10.8638 44.7648 10.8484C44.6816 10.833 44.6036 10.7973 44.5378 10.7443C44.472 10.6913 44.4205 10.6229 44.388 10.5451C44.3554 10.4673 44.3428 10.3826 44.3513 10.2987C44.3599 10.2149 44.3892 10.1344 44.4368 10.0647C44.4843 9.99502 44.5486 9.93822 44.6237 9.89948C44.6988 9.86074 44.7824 9.84129 44.867 9.84286H44.8695Z" fill="#0CAD77"/>
<path d="M9.73983 13.7498H9.56179V13.4608H9.64066C9.70312 13.4539 9.76633 13.4599 9.82633 13.4786C9.84942 13.4899 9.86869 13.5076 9.88179 13.5297C9.89489 13.5518 9.90123 13.5772 9.90008 13.6028C9.90008 13.6218 9.89634 13.6406 9.88905 13.6581C9.88177 13.6756 9.87109 13.6916 9.85763 13.705C9.84417 13.7184 9.82818 13.729 9.81059 13.7363C9.793 13.7436 9.77415 13.7473 9.75511 13.7473H9.73477L9.73983 13.7498ZM10.0731 13.6053C10.0745 13.5618 10.0659 13.5186 10.0478 13.479C10.0297 13.4394 10.0027 13.4046 9.96876 13.3772C9.88424 13.321 9.78172 13.2984 9.68133 13.3138H9.38375V14.2392H9.56179V13.8944H9.71695L9.90262 14.2392H10.1036L9.89502 13.8766C9.95003 13.8613 9.99826 13.8279 10.0319 13.7819C10.0656 13.7359 10.0828 13.68 10.0807 13.6231L10.0731 13.6053ZM9.71695 14.5206C9.57368 14.5201 9.43379 14.4773 9.31492 14.3976C9.19604 14.3179 9.10351 14.2048 9.04904 14.0728C8.99456 13.9407 8.98054 13.7955 9.0088 13.6555C9.03705 13.5155 9.10631 13.387 9.20779 13.2862C9.30928 13.1854 9.43844 13.1168 9.57899 13.0891C9.71954 13.0615 9.86516 13.0759 9.99748 13.1307C10.1298 13.1855 10.2429 13.2781 10.3224 13.3968C10.402 13.5156 10.4444 13.6552 10.4444 13.798C10.4437 13.9899 10.3668 14.1737 10.2304 14.3091C10.0941 14.4445 9.90944 14.5206 9.71695 14.5206ZM9.71695 12.9106C9.53886 12.9106 9.36478 12.9633 9.21671 13.0619C9.06863 13.1605 8.95322 13.3007 8.88506 13.4647C8.81691 13.6287 8.79909 13.8091 8.83383 13.9832C8.86858 14.1573 8.95431 14.3173 9.08024 14.4428C9.20617 14.5683 9.36663 14.6538 9.5413 14.6884C9.71596 14.723 9.897 14.7053 10.0615 14.6373C10.2261 14.5694 10.3667 14.4544 10.4656 14.3068C10.5646 14.1592 10.6174 13.9857 10.6174 13.8081C10.6174 13.5701 10.5225 13.3418 10.3536 13.1735C10.1848 13.0052 9.95575 12.9106 9.71695 12.9106Z" fill="#0CAD77"/>
<path d="M0.19989 1.17683C4.52304 -1.12017 10.0795 1.30361 10.4991 7.14752C2.50133 7.77121 1.53752 4.18118 0.19989 1.17683Z" fill="#0CAD77"/>
<path d="M0.198364 13.7066C4.52151 15.9884 10.078 13.5798 10.4976 7.73592C2.4998 7.09195 1.536 10.7073 0.198364 13.7066Z" fill="#0CAD77"/>
<path d="M9.0004 3.00049C7.99251 1.69513 6.54759 0.794412 4.92914 0.46258C3.31068 0.130748 1.6265 0.389905 0.183716 1.1928C1.38402 3.88278 2.28426 7.03926 8.19934 7.22434C8.91932 5.94415 9.20058 4.46469 9.0004 3.01064V3.00049ZM1.62562 10.7408C1.79601 10.7408 1.96639 10.7662 2.13423 10.7662C3.27341 10.7677 4.39521 10.4878 5.39943 9.95162C6.40366 9.41541 7.25902 8.63956 7.8891 7.69337C4.32886 7.86323 2.66572 9.15118 1.62053 10.7358L1.62562 10.7408Z" fill="#0CAD77"/>
</svg>
