<svg width="100" height="40" viewBox="0 0 100 40" fill="none" xmlns="http://www.w3.org/2000/svg">
<g opacity="0.3">
<path d="M8.61249 32.5796C6.95848 32.374 5.30448 32.1684 3.65047 31.5516C3.23697 31.346 2.82346 31.1404 2.40996 31.0375C2.09983 30.9347 1.99646 30.6263 2.09983 30.3179C3.23697 27.7478 4.27072 24.9721 6.33823 22.916C7.88886 21.2711 9.853 20.2431 12.0239 19.6263C14.6083 18.8038 17.296 18.5982 20.0872 18.701C20.7074 18.701 21.4311 18.8038 22.0513 18.8038C22.4648 18.8038 22.5682 19.0094 22.5682 19.3179C22.4648 20.1403 22.3614 21.0655 22.1547 21.888C21.6378 23.7384 20.9142 25.5889 19.6737 27.131C18.5365 28.673 17.1927 29.8039 15.5387 30.8319C13.2644 31.9628 10.9901 32.2712 8.61249 32.5796ZM18.5365 17.7758C16.469 17.9814 14.0914 17.673 11.8171 16.9534C8.71587 16.0281 6.23486 14.2804 4.58085 11.5047C3.65047 9.85985 2.92684 8.11217 2.09983 6.3645C1.89308 5.85048 1.99646 5.54207 2.51334 5.33646C4.3741 4.51402 6.44161 4 8.40574 4C9.853 4 11.3003 4.20561 12.7475 4.61683C15.4353 5.33646 17.6062 6.87852 19.3635 9.03741C21.1209 11.2991 22.0513 13.8692 22.4648 16.6449C22.6716 17.673 22.4648 17.7758 21.5344 17.7758H18.5365ZM50.8931 31.1404C50.4796 31.4488 50.2728 31.6544 50.0661 31.86C48.7222 32.7852 47.3783 32.888 45.9311 32.1684C45.3108 31.86 45.0007 31.2432 44.8973 30.5235C44.8973 29.4955 45.3108 28.8787 46.1378 28.3646C47.2749 27.645 48.5155 27.3366 49.8593 27.0282C50.7897 26.8226 50.9965 26.4114 50.6863 25.4861C50.2728 24.1497 48.5155 23.6356 47.3783 24.4581C46.9648 24.7665 47.2749 24.9721 47.3783 25.2805C47.6884 25.7945 47.6884 26.2057 47.2749 26.617C46.8614 27.0282 46.3446 27.0282 45.9311 26.7198C45.4142 26.4114 45.3108 26.0001 45.3108 25.4861C45.4142 24.6637 45.9311 24.1497 46.6547 23.7384C48.2053 22.916 49.756 22.8132 51.41 23.6356C52.1336 24.0469 52.4437 24.6637 52.4437 25.4861V29.9067C52.4437 31.1404 53.2707 31.7572 54.5112 31.2432C54.718 31.1404 54.9247 30.8319 54.9247 30.6263V25.0749C54.9247 24.6637 54.6146 24.4581 54.2011 24.2525C53.9944 24.1497 53.891 23.944 53.7876 23.7384C53.9944 23.6356 54.0977 23.43 54.3045 23.43C54.8214 23.3272 55.3382 23.3272 55.9585 23.3272C56.372 23.3272 56.5787 23.43 56.5787 23.8412C56.5787 24.1497 56.6821 24.4581 56.7855 24.8693C57.6125 23.944 58.4395 23.3272 59.68 23.3272C60.9205 23.3272 61.7475 23.8412 62.0576 25.0749C62.4711 24.6637 62.8847 24.2525 63.2982 23.944C64.2285 23.2244 65.2623 23.2244 66.3994 23.5328C67.0197 23.7384 67.3298 24.2525 67.5366 24.8693C67.7433 25.4861 67.8467 26.1029 67.8467 26.7198V30.6263C67.8467 31.2432 68.0534 31.4488 68.6737 31.4488H70.0176C70.5344 31.4488 70.8446 31.1404 70.8446 30.6263V25.4861C70.8446 24.8693 70.5344 24.4581 69.9142 24.4581C69.1906 24.4581 69.1906 24.0469 69.2939 23.5328H72.2918C72.3952 23.5328 72.602 23.944 72.602 24.1497V30.3179C72.602 31.4488 72.7053 31.4488 73.7391 31.4488C75.3931 31.4488 75.3931 31.4488 75.3931 29.8039V25.7945C75.3931 24.7665 75.083 24.3553 74.1526 24.3553C73.9458 24.3553 73.7391 24.0469 73.6357 23.944C73.5323 23.5328 73.8425 23.5328 74.1526 23.5328C74.7728 23.5328 75.3931 23.43 76.0133 23.43C76.6336 23.3272 76.8404 23.43 76.9437 24.1497C76.9437 24.4581 77.0471 24.6637 77.0471 24.9721L77.7707 24.2525C78.9079 23.3272 80.1484 23.3272 81.3889 23.6356C82.0091 23.8412 82.4226 24.3553 82.6294 24.9721C82.8361 25.5889 82.9395 26.2057 82.9395 26.8226V30.7291C82.9395 31.1404 83.1463 31.5516 83.6631 31.5516C83.9733 31.5516 84.18 31.7572 84.0766 32.0656C83.9733 32.2712 83.7665 32.4768 83.5598 32.4768H80.5619C80.3551 32.4768 80.2517 32.1684 80.045 32.0656C80.1484 31.86 80.3551 31.6544 80.4585 31.5516C80.872 31.4488 81.1821 31.2432 81.1821 30.8319C81.1821 29.2899 81.1821 27.7478 81.0788 26.2057C80.9754 24.7665 79.3214 24.4581 78.391 24.9721C77.2539 25.5889 77.0471 26.7198 76.9437 27.8506C76.8404 28.7759 76.9437 29.5983 76.9437 30.5235C76.9437 31.1404 77.1505 31.5516 77.7707 31.6544C77.8741 31.6544 78.0809 31.9628 78.0809 32.0656C78.0809 32.2712 77.8741 32.374 77.6674 32.5796C77.564 32.6824 77.4606 32.5796 77.3572 32.5796H65.2623C65.0555 32.5796 64.642 32.4768 64.5387 32.2712C64.3319 31.86 64.642 31.6544 65.0555 31.6544C65.7792 31.6544 65.8825 31.4488 65.8825 30.7291V26.7198C65.8825 25.7945 65.3657 24.9721 64.642 24.8693C63.815 24.6637 62.988 25.0749 62.6779 25.8973C62.3678 26.5142 62.2644 27.131 62.161 27.7478C62.0576 28.673 62.161 29.7011 62.161 30.7291C62.161 31.4488 62.3678 31.5516 63.0914 31.6544C63.4015 31.6544 63.7117 31.6544 63.7117 32.0656C63.7117 32.4768 63.5049 32.5796 63.0914 32.5796H59.5766C59.3699 32.5796 59.0598 32.2712 59.0598 32.1684C59.0598 31.9628 59.2665 31.7572 59.4733 31.6544C60.4036 31.4488 60.4036 31.4488 60.4036 30.5235C60.4036 29.0843 60.4036 27.7478 60.3003 26.3085C60.1969 25.4861 59.68 24.9721 59.0598 24.8693C58.3361 24.7665 57.4058 25.1777 57.0956 25.8973C56.8889 26.4114 56.6821 26.9254 56.6821 27.5422C56.5787 28.5702 56.6821 29.7011 56.6821 30.8319C56.6821 31.346 56.8889 31.7572 57.5091 31.7572C57.8193 31.7572 58.1294 31.86 58.1294 32.2712C58.1294 32.6824 57.8193 32.7852 57.5091 32.7852C55.7517 32.7852 53.891 32.6824 52.1336 32.6824C51.41 32.1684 50.9965 31.86 50.8931 31.1404ZM50.6863 28.673C50.6863 27.8506 50.583 27.645 49.9627 27.7478C49.1357 27.9534 48.3087 28.2618 47.4817 28.673C46.7581 29.0843 46.5513 30.2151 46.9648 30.9347C47.3783 31.5516 48.2053 31.7572 49.0323 31.346C50.1695 30.8319 50.6863 29.9067 50.6863 28.673ZM26.5998 5.23365C26.4965 4.41122 26.4965 4.30841 27.2201 4.30841H36.4205C37.0408 4.30841 37.2475 4.51402 37.2475 5.13085C37.2475 5.95328 37.3509 6.67291 37.4543 7.49535C37.4543 7.80376 37.5576 8.11217 37.0408 8.21498C36.6273 8.21498 36.5239 8.00937 36.4205 7.59815C36.3171 7.08413 36.2138 6.57011 36.007 6.15889C35.6969 5.54207 34.9733 5.33646 34.353 5.33646H30.9416C30.4247 5.33646 30.218 5.64487 30.218 6.15889V9.96265C30.218 10.3739 30.3214 10.4767 30.7349 10.4767C31.7686 10.5795 33.2159 9.85985 33.2159 8.31778C33.2159 8.00937 33.3192 7.59815 33.7328 7.59815C34.2496 7.59815 34.1463 8.00937 34.1463 8.31778V13.5608C34.1463 13.8692 34.1463 14.1776 33.7328 14.1776C33.3192 14.1776 33.2159 13.8692 33.1125 13.5608C33.0091 13.2524 33.0091 12.8412 32.9057 12.5328C32.5956 11.6075 31.3551 10.9907 30.4247 11.1963C30.3214 11.1963 30.1146 11.5047 30.1146 11.6075V16.0281C30.1146 16.2337 30.3214 16.5421 30.5281 16.5421C31.872 16.5421 33.3192 16.6449 34.5598 16.4393C35.9036 16.2337 36.4205 15.1029 36.6273 13.972C36.6273 13.7664 36.6273 13.5608 36.7306 13.5608C37.1441 13.2524 37.3509 13.1496 37.5576 12.944C37.661 13.1496 37.8678 13.3552 37.8678 13.5608C37.8678 14.5889 37.7644 15.6169 37.7644 16.6449C37.7644 17.4674 37.661 17.4674 36.834 17.4674H26.91C26.5998 17.4674 26.3931 17.3646 26.3931 17.0562C26.3931 16.6449 26.4965 16.5421 26.91 16.5421C27.9437 16.5421 27.9437 16.4393 27.9437 15.5141V6.15889C27.9437 5.33646 27.8403 5.23365 27.0133 5.23365C26.91 5.13085 26.7032 5.23365 26.5998 5.23365ZM43.5534 32.4768C42.8298 32.6824 42.623 32.374 42.5197 31.86C42.4163 31.346 42.3129 30.9347 42.1062 30.4207C41.6927 31.346 40.969 31.86 40.142 32.1684C37.7644 33.0936 35.5935 32.4768 33.8361 30.7291C31.872 28.8787 31.2517 26.4114 31.9754 23.944C32.9057 20.6543 35.6969 18.187 39.315 18.9066C40.142 19.1122 40.7623 19.5235 41.5893 19.9347C41.6927 19.7291 41.796 19.4207 42.0028 19.215C42.2095 19.0094 42.5197 18.9066 42.8298 18.8038C42.9332 19.0094 43.1399 19.215 43.1399 19.5235C43.2433 20.9627 43.3467 22.5048 43.4501 23.944C43.4501 24.1497 43.2433 24.3553 43.1399 24.4581C42.9332 24.3553 42.623 24.2525 42.5197 24.0469C42.1062 22.7104 41.4859 21.5795 40.5555 20.6543C39.315 19.3179 36.9374 19.5235 35.6969 20.8599C34.7665 21.9908 34.353 23.3272 34.353 24.7665C34.353 26.0001 34.353 27.3366 34.6631 28.4674C34.9733 30.0095 36.007 31.4488 38.1779 31.5516C40.4522 31.6544 41.5893 30.0095 41.4859 28.2618C41.3825 26.7198 41.4859 26.7198 39.9353 26.617C39.6252 26.617 39.315 26.617 39.315 26.2057C39.315 25.6917 39.6252 25.7945 40.0387 25.7945H44.3804C44.6906 25.7945 45.0007 25.7945 45.0007 26.2057C45.0007 26.617 44.6906 26.617 44.3804 26.7198C43.6568 26.7198 43.5534 26.9254 43.5534 27.645V32.4768ZM85.6273 32.1684C84.9036 31.7572 84.2834 31.346 84.3868 30.4207C84.4901 29.5983 85.1104 29.0843 85.7306 28.673C85.4205 28.4674 85.2138 28.2618 85.007 28.0562C84.3868 27.3366 84.3868 26.4114 84.4901 25.4861C84.4901 24.7665 85.834 23.6356 86.5577 23.43C87.6948 23.1216 88.9353 23.1216 90.0724 23.6356C90.2792 23.7384 90.6927 23.6356 90.8994 23.5328C91.5197 23.2244 92.2433 22.8132 92.8636 22.5048C93.7939 22.0936 94.8277 22.5048 94.9311 23.43C95.0344 23.944 94.8277 24.3553 94.3108 24.5609C93.7939 24.7665 93.1737 24.6637 92.8636 24.2525C92.7602 24.0469 92.4501 23.7384 92.3467 23.8412C91.9332 23.944 91.6231 24.1497 91.3129 24.4581C91.2096 24.4581 91.3129 24.7665 91.4163 24.8693C92.2433 26.3085 91.8298 28.0562 90.1758 28.8787C89.3488 29.2899 88.5218 29.4955 87.5914 29.4955C87.0745 29.4955 86.5577 29.4955 86.1441 29.7011C85.9374 29.8039 85.6273 30.1123 85.6273 30.2151C85.6273 30.4207 85.9374 30.6263 86.1441 30.8319C86.2475 30.7291 86.5577 30.7291 86.7644 30.7291H89.8657C91.3129 30.7291 92.2433 31.346 92.5534 32.2712C92.8636 33.4021 92.3467 34.6357 91.1062 35.2525C89.142 36.1778 87.1779 36.2806 85.2138 35.3553C84.18 34.8413 83.8699 33.6077 84.4901 32.888C84.6969 32.5796 85.2138 32.374 85.6273 32.1684ZM88.1083 35.2525C89.0387 35.2525 89.8657 35.0469 90.4859 34.5329C90.7961 34.3273 91.1062 33.8133 91.1062 33.5049C91.1062 33.1964 90.6927 32.7852 90.3825 32.6824C88.9353 32.1684 87.488 32.1684 86.1441 32.888C85.834 32.9908 85.6273 33.6077 85.6273 33.9161C85.6273 34.2245 85.9374 34.6357 86.2475 34.8413C86.8678 35.0469 87.488 35.1497 88.1083 35.2525ZM88.0049 24.0469C87.2813 23.944 86.7644 24.3553 86.5577 24.9721C86.1441 25.8973 86.1441 26.9254 86.7644 27.7478C87.3847 28.673 88.7285 28.7759 89.4522 27.8506C89.7623 27.4394 89.969 26.8226 89.969 26.3085C89.969 24.8693 89.3488 23.944 88.0049 24.0469ZM79.0112 12.43V15.7197C79.0112 16.2337 79.1146 16.5421 79.7349 16.5421C80.1484 16.5421 80.3551 16.6449 80.3551 17.159C80.3551 17.673 80.045 17.5702 79.6315 17.5702H76.4268C76.1167 17.5702 75.8066 17.5702 75.8066 17.159C75.8066 16.7477 76.0133 16.5421 76.4268 16.6449C76.9437 16.6449 77.1505 16.3365 77.1505 15.8225V10.7851C77.1505 10.0655 76.8404 9.85985 76.2201 9.75704C75.083 9.65424 73.8425 9.65424 72.7053 9.65424C72.1885 9.65424 72.0851 9.75704 72.0851 10.2711V15.1029C72.0851 15.8225 72.4986 16.4393 73.0154 16.5421C73.6357 16.6449 74.1526 16.2337 74.4627 15.5141C74.5661 15.2057 74.5661 14.7945 74.7728 14.486C74.8762 14.2804 75.083 14.0748 75.2897 14.0748C75.7032 14.0748 75.7032 14.2804 75.5998 14.5889C75.3931 15.7197 75.1863 16.8505 74.0492 17.3646C72.3952 18.187 70.3277 17.4674 70.4311 15.3085V10.3739C70.4311 9.75704 70.2243 9.55144 69.6041 9.65424H69.2939C69.0872 9.55144 68.8804 9.44863 68.8804 9.34583C68.8804 9.14022 68.9838 8.93461 69.1906 8.83181C69.5007 8.6262 69.8108 8.52339 70.1209 8.31778C70.8446 7.80376 71.0513 6.98133 71.2581 6.15889C71.2581 5.95328 71.2581 5.64487 71.3614 5.54207C71.4648 5.33646 71.6716 5.23365 71.8783 5.13085C71.9817 5.13085 72.1885 5.33646 72.1885 5.54207V8.00937C72.1885 8.52339 72.2918 8.6262 72.8087 8.6262C74.6695 8.6262 76.6336 8.6262 78.4944 8.52339C78.9079 8.52339 79.1146 8.6262 79.0112 9.03741V12.43ZM91.9332 9.85985C92.5534 9.44863 92.9669 9.03741 93.5872 8.729C94.9311 8.00937 96.7918 8.52339 97.4121 9.75704C97.7222 10.2711 97.8256 10.8879 97.8256 11.5047C97.929 12.8412 97.8256 14.1776 97.8256 15.6169C97.8256 16.1309 98.0323 16.5421 98.5492 16.5421C98.9627 16.5421 99.0661 16.8505 98.9627 17.159C98.8593 17.3646 98.6526 17.5702 98.4458 17.5702H95.3446C95.0344 17.5702 94.8277 17.4674 94.8277 17.0562C94.8277 16.6449 94.9311 16.5421 95.3446 16.5421C95.8615 16.5421 96.0682 16.2337 96.0682 15.7197V11.7103C96.0682 10.6823 95.6547 9.96265 94.8277 9.75704C94.0007 9.44863 93.0703 9.75705 92.5534 10.5795C92.2433 11.0935 92.0366 11.7103 91.9332 12.3272C91.8298 13.458 91.9332 14.5889 91.9332 15.7197C91.9332 16.2337 92.0366 16.5421 92.6568 16.5421C92.9669 16.5421 93.1737 16.7477 93.1737 17.0562C93.1737 17.4674 92.9669 17.5702 92.6568 17.5702H89.5555C89.2454 17.5702 89.142 17.3646 89.142 17.0562C89.142 16.7477 89.142 16.5421 89.5555 16.5421C90.1758 16.5421 90.3825 16.2337 90.3825 15.6169V10.6823C90.3825 9.85985 90.0724 9.65424 89.3488 9.55144C89.0387 9.55144 88.7285 9.44863 88.7285 9.03741C88.7285 8.6262 89.0387 8.6262 89.3488 8.6262C89.969 8.6262 90.5893 8.6262 91.3129 8.52339C91.8298 8.42059 92.0366 8.6262 92.0366 9.14022C91.7264 9.34583 91.8298 9.55144 91.9332 9.85985ZM66.5028 16.0281C65.9859 16.4393 65.5724 16.7477 65.0555 17.159C63.815 18.0842 61.8509 17.7758 61.0239 16.5421C60.7138 16.0281 60.507 15.2057 60.507 14.5889C60.4036 13.3552 60.507 12.0187 60.507 10.7851C60.507 9.96265 60.3003 9.75705 59.4733 9.55144C59.2665 9.55144 59.1631 9.24302 58.9564 9.14022C59.1631 9.03741 59.2665 8.729 59.4733 8.729C60.0935 8.6262 60.7138 8.6262 61.334 8.6262C62.161 8.6262 62.2644 8.6262 62.2644 9.44863V14.3832C62.2644 14.7945 62.3678 15.3085 62.5745 15.7197C62.8847 16.3365 63.6083 16.5421 64.2285 16.4393C65.0555 16.3365 65.7792 15.8225 65.9859 15.0001C66.1927 14.486 66.296 13.8692 66.296 13.2524C66.3994 12.3272 66.296 11.5047 66.296 10.5795C66.296 9.85985 66.0893 9.55144 65.2623 9.55144C64.9522 9.55144 64.642 9.44863 64.642 9.03741C64.642 8.6262 64.9522 8.6262 65.2623 8.6262C65.9859 8.6262 66.7095 8.6262 67.3298 8.52339C67.8467 8.52339 67.9501 8.6262 67.9501 9.14022V15.3085C67.9501 16.3365 68.0534 16.4393 69.0872 16.6449C69.2939 16.6449 69.5007 16.9534 69.5007 17.159C69.5007 17.2618 69.2939 17.5702 69.0872 17.5702C68.2602 17.673 67.5366 17.673 66.7095 17.5702C66.5028 17.5702 66.296 17.2618 66.296 17.0562C66.5028 16.7477 66.5028 16.4393 66.5028 16.0281Z" fill="#0CAD77"/>
<path d="M88 13.4905C87.8972 15.8245 86.7668 17.2833 84.7115 17.8668C82.8617 18.3531 80.8063 17.4778 79.9842 15.7273C79.1621 13.8795 79.2648 12.1289 80.498 10.4756C81.3202 9.30861 83.0672 8.82234 84.5059 9.1141C85.5336 9.30861 86.253 9.98938 87.0751 10.5729C87.2806 10.6701 87.2806 10.9619 87.3834 11.2537C87.5889 11.9344 87.7945 12.7125 88 13.4905ZM86.0474 13.4905C85.9447 12.7125 85.8419 11.9344 85.6364 11.2537C85.3281 10.2811 84.6087 9.89212 83.6838 9.89212C82.8617 9.89212 82.0395 10.3784 81.834 11.2537C81.6285 11.7399 81.5257 12.2262 81.5257 12.7124C81.4229 13.8795 81.4229 15.1438 82.1423 16.2135C82.5534 16.7971 83.0672 17.0888 83.8893 17.0888C84.6087 17.0888 85.1225 16.6998 85.4308 16.1163C85.9447 15.3383 85.9447 14.463 86.0474 13.4905ZM53.9842 13.4905C54.087 15.4355 53.2648 16.7971 51.415 17.6723C50.2846 18.2559 48.1265 17.9641 46.996 16.9916C45.6601 15.7273 45.249 14.1712 45.5573 12.4207C45.8656 11.1564 46.3794 10.0866 47.7154 9.50311C49.3597 8.62784 51.415 8.9196 52.751 10.1839C53.7787 11.1564 53.9842 12.2262 53.9842 13.4905ZM52.1344 13.3932H52.0316V12.1289C51.9289 10.7674 51.004 9.98938 49.8735 9.89212C48.7431 9.79487 47.7154 10.9619 47.7154 11.8372C47.6126 12.907 47.6126 13.9767 47.7154 15.1438C47.8182 16.1163 48.8458 17.2833 49.8735 17.1861C50.6957 17.0888 51.6206 16.5053 51.8261 15.7273L52.1344 13.3932ZM41.9605 15.3383C42.2688 14.852 42.4743 14.5603 42.5771 14.1712C43.0909 13.1015 43.502 12.0317 43.913 11.0592C44.1186 10.6701 43.8103 10.4756 43.502 10.2811C43.3992 10.1839 43.0909 10.1839 42.9881 10.0866C42.7826 9.98938 42.6798 9.79487 42.6798 9.60036C42.6798 9.50311 42.9881 9.30861 43.0909 9.30861H46.0711C46.1739 9.30861 46.4822 9.50311 46.4822 9.60036C46.4822 9.79487 46.3794 10.0866 46.1739 10.1839C45.3518 10.3784 45.1462 10.8646 44.9407 11.4482C44.0158 13.4905 43.0909 15.63 42.0632 17.6723C41.9605 17.8668 41.7549 17.9641 41.5494 17.9641C41.3439 17.9641 41.1383 17.7696 41.0356 17.6723C40.0079 15.63 39.083 13.5877 38.0553 11.4482L37.747 10.8646C37.5415 10.3784 37.2332 10.0866 36.6166 10.0866C36.3083 10.0866 36 9.98938 36 9.60036C36 9.21135 36.3083 9.21135 36.6166 9.21135H40.3162C40.6245 9.21135 40.83 9.21135 40.83 9.60036C40.83 9.98938 40.6245 10.0866 40.3162 10.0866C39.4941 10.1839 39.3913 10.3784 39.8024 11.0592C40.6245 12.4207 41.2411 13.7822 41.9605 15.3383Z" fill="#0CAD77"/>
<path d="M57.719 4V15.8588C57.719 16.4941 57.8223 16.8118 58.5455 16.8118C58.9587 16.8118 59.062 17.0235 59.062 17.3412C59.062 17.7647 58.8554 17.8706 58.4421 17.7647H55.2397C54.9298 17.7647 54.6198 17.7647 54.6198 17.2353C54.6198 16.8118 54.8264 16.7059 55.1364 16.7059C55.7562 16.7059 55.9628 16.1765 55.9628 15.6471V6.01176C55.9628 5.37647 55.4463 4.95294 54.7231 4.95294C54.4132 4.95294 54 5.05882 54 4.52941C54 4 54.3099 4 54.6198 4C55.7562 4.10588 56.686 4.10588 57.719 4ZM76.7273 5.48235C76.7273 4.84706 77.1405 4.42353 77.8636 4.31765C78.4835 4.31765 79 4.84706 79 5.37647C79 6.11765 78.5868 6.64706 77.8636 6.75294C77.2438 6.85882 76.8306 6.32941 76.7273 5.48235ZM72.3884 20.8353C72.3884 21.4706 71.8719 22 71.2521 22C70.7355 22 70.1157 21.4706 70.0124 20.9412C70.0124 20.2 70.5289 19.6706 71.1488 19.6706C71.7686 19.6706 72.3884 20.2 72.3884 20.8353Z" fill="#0CAD77"/>
</g>
</svg>
