<svg width="100" height="40" viewBox="0 0 100 40" fill="none" xmlns="http://www.w3.org/2000/svg">
<g opacity="0.3">
<path d="M34.6959 4.70605L36.8462 7.66867C36.9031 7.75749 36.9325 7.86221 36.9303 7.9688C36.9303 10.1698 36.9054 12.3708 36.8555 14.5717C36.787 17.4375 36.7527 20.3033 36.7527 23.1691C36.7527 24.7569 36.7278 26.348 36.6779 27.9422C36.6764 27.9922 36.6648 28.0412 36.6438 28.0862C36.6229 28.1313 36.5931 28.1712 36.5564 28.2036C35.8365 28.6974 35.1073 29.1718 34.3874 29.6559C34.3038 29.7155 34.2087 29.7559 34.1088 29.7742C34.0088 29.7926 33.9061 29.7886 33.8078 29.7624L28.7594 28.7942L23.9728 27.826L19.6256 26.974L15.3251 26.1317H15.241L15.2503 26.0059C15.2503 26.0059 15.3158 25.8026 15.3345 25.6961L16.5498 19.432C16.8801 17.7215 17.2073 16.0111 17.5314 14.3007C17.8306 12.7451 18.1422 11.1896 18.4663 9.63406C18.4716 9.57488 18.4955 9.51914 18.5343 9.47541C18.5732 9.43168 18.6248 9.40238 18.6813 9.39202C19.1488 9.26615 19.6162 9.12093 20.0743 8.99506L33.2656 5.12237L34.6118 4.70605H34.6959ZM29.3951 14.2619C29.2736 14.6202 29.1614 14.959 29.0399 15.2979C28.9703 15.5362 28.8411 15.7512 28.6654 15.9213C28.4898 16.0913 28.2739 16.2102 28.0396 16.266C27.599 16.3767 27.1526 16.4608 26.7027 16.5178C25.9735 16.5952 25.2442 16.6146 24.515 16.663L23.6643 16.7405H23.2529V16.208C23.309 15.6851 23.3651 15.1623 23.4119 14.6395C23.4586 14.1167 23.496 13.6036 23.5428 13.0904C23.5895 12.5773 23.6923 11.7737 23.7484 11.1541C23.7484 10.699 23.8887 10.5151 24.3281 10.4086C25.1508 10.2053 25.9828 10.0116 26.8055 9.83738C27.6282 9.6631 28.1985 9.54692 28.909 9.45979C29.2634 9.42795 29.6204 9.4574 29.9654 9.54692C30.141 9.59152 30.2923 9.70643 30.3861 9.86642C30.7698 10.5592 31.0087 11.3278 31.0873 12.1223C31.1881 12.1051 31.2879 12.0824 31.3864 12.0545C31.4799 12.0545 31.5641 11.9674 31.6482 11.9383C32.0315 11.8221 32.0409 11.8221 32.0502 11.4058C32.0783 10.5151 32.0783 9.67279 32.0783 8.79175V8.31734C32.0783 8.16243 32.0783 7.89135 32.1437 7.63962L31.2088 7.85262L27.9835 8.62716L24.1972 9.54692L21.0186 10.3215L18.9151 10.8443C18.859 10.8443 18.7655 10.9217 18.7561 10.9701C18.7468 11.0185 18.7561 11.338 18.7561 11.5317C18.8805 11.5446 19.0058 11.5446 19.1301 11.5317C19.5912 11.3932 20.0718 11.3376 20.5511 11.3671C20.8222 11.3671 21.0934 11.5607 21.1027 11.764V13.3615C21.1027 14.0586 20.9718 14.746 20.9064 15.4431L20.7661 17.0019C20.7038 17.7183 20.6384 18.4348 20.5698 19.1512C20.5698 19.4707 20.5137 19.7805 20.4857 20.1194C20.4296 20.6228 20.3828 21.0876 20.3174 21.6394C20.252 22.1913 20.2052 22.7334 20.093 23.2756C20.0656 23.4553 19.9869 23.6224 19.8669 23.7553C19.7469 23.8882 19.5912 23.9808 19.4199 24.0211C18.8404 24.1355 18.2469 24.1518 17.6623 24.0695C17.483 24.0368 17.2994 24.0368 17.1201 24.0695C17.064 24.0695 17.1201 24.3309 17.0546 24.4665C16.9892 24.602 17.0546 24.5633 17.0546 24.6311L31.2369 26.703L32.6766 22.0751L31.8445 21.9202C31.8445 21.9202 31.7417 21.9783 31.7137 22.0267C31.3397 22.6657 30.9938 23.324 30.5824 23.963C30.3431 24.3679 30.0015 24.6974 29.5946 24.9158C29.1876 25.1342 28.7307 25.2333 28.2733 25.2023C27.516 25.2023 26.7588 25.1152 26.0015 25.028C25.3545 24.9616 24.7116 24.8581 24.0756 24.7182C23.868 24.7071 23.6651 24.6498 23.4808 24.5502C23.2964 24.4507 23.1349 24.3112 23.0072 24.1413C22.8795 23.9714 22.7886 23.775 22.7406 23.5655C22.6927 23.356 22.6889 23.1383 22.7294 22.9271C22.7294 22.4817 22.7855 22.0364 22.8135 21.591C22.8416 21.1456 22.8696 20.9907 22.8977 20.6906L23.0566 19.0834L23.1875 17.757C24.0569 17.757 24.8983 17.6505 25.7491 17.6215C26.3719 17.5862 26.9961 17.5862 27.6189 17.6215C28.2733 17.6699 28.5537 17.7861 28.7407 18.4638C28.8342 18.8317 28.8903 19.219 28.9651 19.6062H29.8345L30.33 14.1554L29.3951 14.2619ZM67.8937 28.0681C67.3168 27.8294 66.8015 27.4548 66.3886 26.974C65.9944 26.5466 65.762 25.9863 65.7341 25.3959C65.722 25.3118 65.7401 25.2259 65.7848 25.1546C65.8296 25.0833 65.898 25.0314 65.9772 25.0087C66.7447 24.7005 67.4373 24.2212 68.0059 23.6048C67.6174 23.3045 67.2459 22.9813 66.8934 22.6366C66.4544 22.1738 66.1241 21.6127 65.9279 20.9966C65.7318 20.3804 65.6751 19.7259 65.7622 19.0834C65.8782 18.072 66.2994 17.1242 66.9658 16.375C67.6322 15.6257 68.5098 15.1133 69.4737 14.9106C70.8271 14.5185 72.2753 14.696 73.503 15.4044C73.6229 15.4611 73.7558 15.4813 73.8863 15.4625L77.2239 15.0849C77.2751 15.0823 77.3264 15.0904 77.3745 15.1087C77.4227 15.127 77.4669 15.1551 77.5043 15.1914C77.6072 15.2979 77.71 15.4431 77.5978 15.6174C77.3139 16.1358 76.9362 16.5927 76.4853 16.9631C76.3599 17.0466 76.2137 17.0903 76.0646 17.089H75.1297C75.2863 17.4708 75.4206 17.862 75.5317 18.2605C75.8324 19.4223 75.6766 20.6601 75.0984 21.7033C74.5203 22.7465 73.5669 23.5102 72.4466 23.8275C71.5062 24.1311 70.5093 24.1975 69.5391 24.0211C69.4552 23.9958 69.3658 23.9971 69.2826 24.0247C69.1993 24.0523 69.1259 24.105 69.0717 24.176C68.9371 24.3323 68.8122 24.4972 68.6977 24.6698C68.65 24.7407 68.6169 24.8209 68.6004 24.9056C68.5839 24.9904 68.5845 25.0777 68.602 25.1621C68.6196 25.2466 68.6537 25.3264 68.7024 25.3966C68.751 25.4668 68.8131 25.5259 68.8847 25.5702C69.1731 25.7846 69.5207 25.8967 69.8757 25.8897H73.5404C74.5175 25.8721 75.4686 26.2153 76.2236 26.8579C76.7711 27.3735 77.1059 28.0878 77.1584 28.8523C77.2377 29.6768 77.1157 30.5086 76.8037 31.2715C76.4917 32.0344 75.9997 32.704 75.3728 33.2188C74.0854 34.4321 72.4359 35.1529 70.6984 35.2616C69.3972 35.3977 68.0879 35.1028 66.9588 34.4193C66.2458 33.9972 65.6946 33.334 65.3976 32.541C65.208 32.095 65.1574 31.5988 65.2529 31.1216C65.3484 30.6443 65.5853 30.2098 65.9305 29.8786C66.5662 29.2299 67.23 28.6684 67.8937 28.0681ZM71.2967 28.2424C70.8239 28.2514 70.3523 28.2935 69.885 28.3682C69.3837 28.4865 68.9222 28.7421 68.5489 29.1083C68.1756 29.4745 67.9041 29.9378 67.7628 30.4498C67.6963 30.7165 67.6963 30.9963 67.7628 31.2631C67.8316 31.6357 67.9878 31.9852 68.2176 32.2807C68.4475 32.5761 68.744 32.8085 69.081 32.9574C69.7347 33.2958 70.4527 33.4801 71.1834 33.4968C71.914 33.5136 72.6392 33.3624 73.3067 33.0542C73.7834 32.8772 74.1982 32.557 74.498 32.1344C74.7978 31.7118 74.9689 31.2061 74.9895 30.6822C75.0534 30.2237 74.9565 29.7567 74.7164 29.3659C74.4762 28.9751 74.1088 28.6864 73.6807 28.5522C72.9186 28.3407 72.1324 28.2365 71.3434 28.2424H71.2967ZM73.0449 19.5288V18.9479C72.9894 18.2597 72.7745 17.5955 72.4186 17.0115C72.1936 16.6182 71.8514 16.3111 71.4434 16.1365C71.0353 15.9619 70.5836 15.9292 70.1561 16.0434C69.8647 16.1515 69.5997 16.3246 69.38 16.5504C69.1603 16.7763 68.9912 17.0494 68.8847 17.3504C68.5699 18.1094 68.4507 18.9401 68.5388 19.7612C68.5789 20.5169 68.8182 21.2469 69.2306 21.8718C69.4004 22.1497 69.6312 22.3822 69.9041 22.5504C70.177 22.7186 70.4843 22.8178 70.8012 22.8399C71.1602 22.8591 71.517 22.7706 71.8287 22.5852C72.1404 22.3997 72.3939 22.1251 72.5588 21.7943C72.9066 21.109 73.0742 20.3411 73.0449 19.5675V19.5288ZM59.7602 26.277C59.3676 26.5771 59.0123 26.8482 58.6384 27.1096C58.0498 27.5717 57.3889 27.9254 56.6844 28.1552C56.2191 28.3094 55.727 28.3575 55.242 28.296C54.757 28.2345 54.2906 28.0651 53.8749 27.7992C53.4592 27.5333 53.104 27.1774 52.8337 26.7559C52.5634 26.3343 52.3845 25.8572 52.3092 25.3572C52.2134 24.8371 52.1664 24.3086 52.1689 23.7791V18.0475C52.1571 17.7226 52.1228 17.3991 52.0661 17.0793C52.0509 16.9777 52.006 16.8833 51.9375 16.8089C51.869 16.7345 51.7801 16.6835 51.6828 16.663C51.3743 16.5759 51.0751 16.4984 50.7479 16.4403C50.4207 16.3822 50.4301 16.3048 50.4581 16.0724C50.4629 15.9789 50.4629 15.8852 50.4581 15.7916C50.4581 15.3947 50.4581 15.4044 50.8601 15.356C52.0443 15.214 53.2254 15.0591 54.4033 14.8912C54.7305 14.8912 54.7866 14.8912 54.7679 15.2301C54.7679 15.8497 54.7025 16.4597 54.7025 17.0793V23.2466C54.7089 23.6653 54.7654 24.0816 54.8708 24.4858C54.9829 25.0273 55.2979 25.5006 55.7465 25.8019C56.1952 26.1032 56.741 26.2079 57.2641 26.093C58.1573 25.9932 58.9929 25.5878 59.6387 24.9409C59.7048 24.8742 59.7447 24.7845 59.7509 24.6892V17.7377C59.7444 17.5782 59.7256 17.4196 59.6948 17.2633C59.681 17.107 59.616 16.9603 59.5105 16.8476C59.4051 16.7348 59.2655 16.6629 59.1151 16.6436L57.8344 16.4113C57.8001 16.4106 57.7664 16.4021 57.7356 16.3864C57.7049 16.3707 57.6779 16.3482 57.6565 16.3205C57.6351 16.2928 57.6198 16.2605 57.6118 16.226C57.6037 16.1915 57.6031 16.1556 57.61 16.1208C57.6201 15.9693 57.6201 15.8173 57.61 15.6658C57.61 15.4528 57.6941 15.385 57.8811 15.3656C58.3392 15.3656 58.816 15.3172 59.2647 15.2591C60.1996 15.1526 61.041 15.0268 61.9291 14.8912C62.2657 14.8428 62.3218 14.8912 62.3218 15.2204V24.6601C62.325 24.9353 62.3438 25.2101 62.3779 25.4831C62.382 25.6232 62.4357 25.7568 62.5288 25.8586C62.6219 25.9603 62.7479 26.0231 62.8827 26.0349C63.2847 26.0833 63.6867 26.1221 64.0981 26.1414C64.2944 26.1414 64.3692 26.2382 64.3599 26.4416C64.3505 26.6449 64.3599 26.8385 64.3599 27.0321C64.3638 27.0604 64.362 27.0891 64.3545 27.1166C64.347 27.1441 64.334 27.1696 64.3164 27.1915C64.2987 27.2134 64.2769 27.2312 64.2521 27.2438C64.2274 27.2564 64.2004 27.2634 64.1729 27.2645C62.8628 27.495 61.5696 27.8184 60.3024 28.2327C60.2385 28.2588 60.1691 28.2671 60.1011 28.2567C60.0331 28.2464 59.9689 28.2177 59.915 28.1736C59.861 28.1295 59.8192 28.0715 59.7937 28.0054C59.7682 27.9393 59.7599 27.8675 59.7696 27.797C59.7509 27.3129 59.7602 26.8191 59.7602 26.277ZM42.4555 26.6158H45.3443C45.6592 26.6071 45.9725 26.5649 46.2792 26.49C46.9351 26.3262 47.5025 25.902 47.8591 25.3088C48.177 24.8344 48.4575 24.3406 48.794 23.8372C48.9342 23.6048 48.9716 23.5854 49.2054 23.7113C49.4391 23.8372 49.5419 23.8953 49.7102 23.9727C49.8785 24.0502 49.9252 24.1663 49.8598 24.3503C49.5232 25.3185 49.196 26.2286 48.8595 27.1677C48.794 27.342 48.7192 27.5162 48.6725 27.7002C48.6566 27.7844 48.6096 27.8588 48.5415 27.9076C48.4734 27.9564 48.3895 27.9758 48.3079 27.9616H39.4265C39.3446 27.9702 39.2622 27.9514 39.1915 27.9078C39.1208 27.8642 39.0655 27.7982 39.0338 27.7195C38.965 27.6054 38.9332 27.4714 38.9433 27.3372C38.9534 27.2031 39.0048 27.0758 39.0899 26.974C41.3243 23.5758 43.4465 20.1 45.5313 16.5952L45.606 16.45H42.6425C42.3182 16.4495 41.9997 16.539 41.7201 16.7093C41.4406 16.8796 41.2103 17.1244 41.0532 17.4182C40.7727 17.9313 40.5109 18.4541 40.2492 18.9673C40.1183 19.219 40.0902 19.2383 39.8191 19.1318L39.3236 18.9479C39.2935 18.9405 39.2653 18.9264 39.2409 18.9066C39.2165 18.8869 39.1965 18.8619 39.1823 18.8334C39.1681 18.8049 39.16 18.7735 39.1586 18.7415C39.1572 18.7095 39.1624 18.6775 39.174 18.6478C39.4794 17.3181 39.7911 15.9853 40.1089 14.6492C40.1089 14.5137 40.2024 14.4459 40.3333 14.4459H40.6512C40.7465 14.424 40.8462 14.4372 40.9332 14.4831C41.0202 14.529 41.089 14.6049 41.1279 14.6976C41.2869 14.9977 41.6234 14.9977 41.9133 15.0268C42.2031 15.0558 42.3153 15.0268 42.5209 15.0268H48.5603C48.7005 15.0268 48.8688 15.0268 48.9436 15.172C49.0184 15.3172 49.1773 15.5883 48.9997 15.8691C46.8245 19.3997 44.6805 22.9109 42.5677 26.4028L42.4555 26.6158ZM82.8238 20.1968V25.3378C82.8311 25.5559 82.8561 25.7729 82.8986 25.9865C82.9174 26.1352 82.9807 26.274 83.0797 26.3834C83.1786 26.4928 83.3082 26.5673 83.4502 26.5965C83.7774 26.6723 84.1082 26.7305 84.4412 26.7707C84.7217 26.7707 84.7591 26.8191 84.7591 27.1096V27.6324C84.7591 27.8067 84.6749 27.9132 84.4786 27.9132H78.6636C78.3644 27.9132 78.327 27.9132 78.327 27.5646V27.0805C78.327 26.916 78.4112 26.7998 78.5982 26.7804C78.7851 26.7611 79.1778 26.7126 79.4676 26.6449C79.6751 26.6276 79.8682 26.5286 80.0073 26.3684C80.1465 26.2081 80.221 25.9986 80.2155 25.7832C80.2287 25.522 80.2287 25.2602 80.2155 24.999V18.154C80.2131 17.9723 80.1975 17.7911 80.1688 17.6118C80.1591 17.4715 80.1069 17.3379 80.0196 17.2301C79.9323 17.1223 79.8144 17.0458 79.6826 17.0115C79.3554 16.9244 79.0282 16.847 78.701 16.7889C78.5421 16.7889 78.4766 16.692 78.486 16.5275C78.4971 16.3695 78.4971 16.211 78.486 16.0531C78.486 15.8207 78.5608 15.7432 78.7758 15.6948C79.477 15.5496 80.1781 15.4044 80.8606 15.2107C81.3841 15.0655 81.8983 14.8622 82.4032 14.6686C82.6836 14.5621 82.7678 14.6202 82.7678 14.9397V20.1872L82.8238 20.1968ZM80.9821 9.54692C81.2953 9.52302 81.6097 9.57338 81.9013 9.69418C82.1929 9.81497 82.454 10.003 82.6649 10.244C82.8953 10.4491 83.0739 10.7092 83.1854 11.0019C83.2969 11.2945 83.3378 11.6109 83.3047 11.9237C83.2715 12.2364 83.1653 12.536 82.9952 12.7967C82.8251 13.0574 82.5962 13.2712 82.3284 13.4196C81.9786 13.6913 81.5701 13.8703 81.1383 13.9412C80.7066 14.0121 80.2646 13.9726 79.8509 13.8263C79.47 13.7027 79.1316 13.468 78.8763 13.1503C78.6209 12.8326 78.4594 12.4454 78.4112 12.0351C78.3631 11.6526 78.4263 11.264 78.5929 10.919C78.7595 10.574 79.0217 10.2884 79.3461 10.0988C79.8203 9.73824 80.3938 9.5448 80.9821 9.54692Z" fill="#0CAD77"/>
</g>
</svg>
