<svg width="33" height="33" viewBox="0 0 33 33" fill="none" xmlns="http://www.w3.org/2000/svg">
<path fill-rule="evenodd" clip-rule="evenodd" d="M16.4741 1.31861C8.10479 1.31861 1.31908 8.10723 1.31908 16.4827C1.31908 24.8581 8.10479 31.6467 16.4741 31.6467C24.8435 31.6467 31.6292 24.8581 31.6292 16.4827C31.6292 8.10723 24.8435 1.31861 16.4741 1.31861ZM0 16.4827C0 7.38011 7.37516 0 16.4741 0C25.5731 0 32.9483 7.38011 32.9483 16.4827C32.9483 25.5852 25.5731 32.9654 16.4741 32.9654C7.37516 32.9654 0 25.5852 0 16.4827Z" fill="url(#paint0_linear_597_3239)"/>
<path d="M21.219 8.5708H18.8468C17.7983 8.5708 16.7926 8.98758 16.0512 9.72944C15.3097 10.4713 14.8932 11.4775 14.8932 12.5266V14.9001H12.521V18.0648H14.8932V24.3942H18.0561V18.0648H20.4283L21.219 14.9001H18.0561V12.5266C18.0561 12.3168 18.1394 12.1156 18.2877 11.9672C18.436 11.8188 18.6371 11.7355 18.8468 11.7355H21.219V8.5708Z" fill="url(#paint1_linear_597_3239)"/>
<defs>
<linearGradient id="paint0_linear_597_3239" x1="16.4741" y1="0" x2="16.4741" y2="32.9654" gradientUnits="userSpaceOnUse">
<stop stop-color="#FFC702"/>
<stop offset="1" stop-color="#FF8B20"/>
</linearGradient>
<linearGradient id="paint1_linear_597_3239" x1="16.87" y1="8.5708" x2="16.87" y2="24.3942" gradientUnits="userSpaceOnUse">
<stop stop-color="#FFC702"/>
<stop offset="1" stop-color="#FF8B20"/>
</linearGradient>
</defs>
</svg>
