<svg width="20" height="22" viewBox="0 0 20 22" fill="none" xmlns="http://www.w3.org/2000/svg">
<path d="M8.463 21.6172H12.2036V5.37915H8.463V21.6172ZM14.9944 4.13005C15.5931 3.23609 15.9443 2.16242 15.9443 1.00733C15.9443 0.662094 15.6654 0.382812 15.3208 0.382812C13.1521 0.382812 11.2672 1.62151 10.3333 3.42987C9.39935 1.62151 7.51441 0.382812 5.34584 0.382812C5.00124 0.382812 4.72238 0.662164 4.72238 1.00733C4.72238 2.16242 5.07352 3.23609 5.67223 4.13005H14.9944ZM13.4505 21.6172H17.8146C18.1592 21.6172 18.438 21.3378 18.438 20.9927V12.8736H13.4505V21.6172H13.4505ZM2.2286 20.9927C2.2286 21.3379 2.50746 21.6172 2.85206 21.6172H7.21615V12.8736H2.22867V20.9927H2.2286ZM0.98175 6.00366V11C0.98175 11.3452 1.26061 11.6245 1.60521 11.6245H7.21615V5.37915H1.60521C1.26061 5.37915 0.98175 5.65843 0.98175 6.00366ZM19.0614 5.37915H13.4505V11.6245H19.0614C19.406 11.6245 19.6849 11.3452 19.6849 11V6.00366C19.6849 5.65843 19.406 5.37915 19.0614 5.37915Z" fill="url(#paint0_linear_617_89)"/>
<path d="M8.463 21.6172H12.2036V5.37915H8.463V21.6172ZM14.9944 4.13005C15.5931 3.23609 15.9443 2.16242 15.9443 1.00733C15.9443 0.662094 15.6654 0.382812 15.3208 0.382812C13.1521 0.382812 11.2672 1.62151 10.3333 3.42987C9.39935 1.62151 7.51441 0.382812 5.34584 0.382812C5.00124 0.382812 4.72238 0.662164 4.72238 1.00733C4.72238 2.16242 5.07352 3.23609 5.67223 4.13005H14.9944ZM13.4505 21.6172H17.8146C18.1592 21.6172 18.438 21.3378 18.438 20.9927V12.8736H13.4505V21.6172H13.4505ZM2.2286 20.9927C2.2286 21.3379 2.50746 21.6172 2.85206 21.6172H7.21615V12.8736H2.22867V20.9927H2.2286ZM0.98175 6.00366V11C0.98175 11.3452 1.26061 11.6245 1.60521 11.6245H7.21615V5.37915H1.60521C1.26061 5.37915 0.98175 5.65843 0.98175 6.00366ZM19.0614 5.37915H13.4505V11.6245H19.0614C19.406 11.6245 19.6849 11.3452 19.6849 11V6.00366C19.6849 5.65843 19.406 5.37915 19.0614 5.37915Z" fill="#FFA510"/>
<defs>
<linearGradient id="paint0_linear_617_89" x1="10.3333" y1="0.382812" x2="10.3333" y2="21.6172" gradientUnits="userSpaceOnUse">
<stop stop-color="#FFC702"/>
<stop offset="1" stop-color="#FF8B20"/>
</linearGradient>
</defs>
</svg>
