<svg width="47" height="11" viewBox="0 0 47 11" fill="none" xmlns="http://www.w3.org/2000/svg">
<path d="M8.44888 3.6041C8.43065 3.14997 8.28339 2.71035 8.02421 2.33644C7.89718 2.18129 7.73506 2.05835 7.55118 1.9777C7.3673 1.89706 7.16686 1.861 6.9663 1.87248C6.79038 1.8643 6.61462 1.89152 6.44947 1.9525C6.28432 2.01348 6.13317 2.10698 6.00503 2.22743C5.88726 2.34689 5.795 2.4889 5.73381 2.6449C5.67262 2.8009 5.64377 2.96765 5.649 3.13507C5.63491 3.54372 5.78398 3.94125 6.06352 4.24046C6.45294 4.62304 6.87879 4.96693 7.33503 5.26727C7.70123 5.50559 7.99624 5.71095 8.21494 5.88842C8.44583 6.07532 8.6579 6.28421 8.84815 6.51212C9.29447 7.04573 9.5336 7.72145 9.52203 8.41615C9.54023 8.74454 9.49273 9.07326 9.38227 9.38317C9.27181 9.69308 9.10063 9.97798 8.87866 10.2213C8.45144 10.6548 7.83855 10.8729 7.04767 10.8729C6.71243 10.8897 6.37778 10.83 6.06926 10.6981C5.76074 10.5663 5.4865 10.3659 5.26755 10.1123C4.81348 9.55632 4.5744 8.85648 4.59367 8.13979H5.55491C5.5425 8.62468 5.69188 9.09998 5.97961 9.49112C6.12222 9.65569 6.30113 9.78506 6.50234 9.86908C6.70354 9.9531 6.92153 9.98948 7.13921 9.97536C7.33355 9.98509 7.52772 9.95301 7.70851 9.88126C7.88929 9.80951 8.05247 9.6998 8.18694 9.55958C8.44145 9.21981 8.57406 8.80462 8.56346 8.38069C8.55285 7.95677 8.39964 7.5487 8.12845 7.222C7.72374 6.80659 7.27236 6.43908 6.78321 6.12674C6.44499 5.88842 6.16779 5.68306 5.95164 5.50306C5.72796 5.32273 5.51878 5.12522 5.32603 4.91233C5.12543 4.6894 4.96769 4.43158 4.86067 4.15173C4.74003 3.8511 4.67957 3.52984 4.68267 3.20606C4.67132 2.90478 4.72263 2.60442 4.83335 2.32387C4.94408 2.04332 5.1118 1.78864 5.32603 1.57585C5.78467 1.15924 6.3896 0.939695 7.00955 0.964834C7.32638 0.952579 7.64217 1.00774 7.93596 1.12664C8.22974 1.24555 8.49476 1.42548 8.71336 1.65444C9.13805 2.1108 9.36437 2.7497 9.40506 3.58889L8.44888 3.6041ZM16.261 8.19304C16.1623 8.7318 15.9777 9.25134 15.7143 9.73198C15.5111 10.09 15.2185 10.3896 14.8649 10.6016C14.5193 10.7906 14.13 10.8859 13.7358 10.8779C13.3449 10.8863 12.9587 10.7909 12.6169 10.6016C12.2609 10.3918 11.967 10.0917 11.765 9.73198C11.4955 9.25335 11.3082 8.73321 11.2106 8.19304C10.9495 6.6949 10.9495 5.16309 11.2106 3.66495C11.3047 3.12495 11.4895 2.60466 11.7574 2.12601C11.9466 1.76957 12.2323 1.47321 12.582 1.27063C12.9318 1.06805 13.3315 0.967371 13.7358 0.980046C14.1298 0.973734 14.5187 1.06892 14.8649 1.25639C15.2253 1.45983 15.5199 1.7615 15.7143 2.12601C15.9821 2.60466 16.1669 3.12495 16.261 3.66495C16.4016 4.41726 16.4672 5.18157 16.4569 5.94674C16.4608 6.7041 16.3952 7.46024 16.261 8.20571V8.19304ZM15.2794 3.9413C15.2253 3.51064 15.1053 3.09081 14.9234 2.69646C14.8108 2.43899 14.6296 2.21716 14.3996 2.05502C14.1964 1.93216 13.9633 1.8672 13.7257 1.8672C13.488 1.8672 13.2549 1.93216 13.0517 2.05502C12.8223 2.21782 12.6413 2.43946 12.5279 2.69646C12.3532 3.0934 12.2334 3.51218 12.1719 3.9413C11.9989 5.26421 11.9989 6.60392 12.1719 7.92683C12.226 8.35749 12.3461 8.77731 12.5279 9.17167C12.6413 9.42867 12.8223 9.65031 13.0517 9.81311C13.2549 9.93597 13.488 10.0009 13.7257 10.0009C13.9633 10.0009 14.1964 9.93597 14.3996 9.81311C14.6296 9.65097 14.8108 9.42914 14.9234 9.17167C15.0978 8.77458 15.2175 8.35586 15.2794 7.92683C15.4524 6.60392 15.4524 5.26421 15.2794 3.9413ZM18.181 1.11696H22.316V1.99417H19.2161V5.26981H21.5531V6.14957H19.2262V10.7284H18.1887V1.11696H18.181ZM28.6075 1.11696V1.99417H26.6392V10.741H25.5991V2.00685H23.618V1.11696H28.6075Z" fill="#0CAD77"/>
<path d="M29.741 1.11825H32.3044C32.6128 1.10253 32.9211 1.15149 33.2093 1.26198C33.4976 1.37247 33.7593 1.54203 33.9777 1.75969C34.322 2.18803 34.5301 2.70908 34.5754 3.25609C34.6207 3.8031 34.5011 4.35113 34.232 4.82996C33.9762 5.22351 33.5798 5.50538 33.1233 5.61845V5.64887C33.6412 5.76408 34.0957 6.07134 34.3948 6.50834C34.689 6.97815 34.8376 7.52407 34.822 8.0777C34.822 9.85243 33.7921 10.7423 31.7221 10.7423H29.7741V1.10811L29.741 1.11825ZM30.7812 5.25336H31.3635C32.1264 5.25336 32.6808 5.11645 33.0165 4.86038C33.3521 4.60431 33.5251 4.14035 33.5251 3.49891C33.5251 2.95382 33.3954 2.57099 33.1385 2.34281C32.8817 2.11463 32.4366 2.00814 31.8111 2.00814H30.7735V5.25336H30.7812ZM30.7812 9.86258H31.8187C32.338 9.89958 32.8529 9.74531 33.2657 9.42903C33.581 9.14254 33.7489 8.68872 33.7489 8.0777C33.7489 7.42613 33.5912 6.94188 33.2835 6.61736C32.9758 6.29284 32.4926 6.13312 31.8187 6.13312H30.7812V9.86258ZM40.8795 1.11825V1.99547H37.5125V5.27111H39.9971V6.15087H37.5125V9.85497H41.0372V10.7347H36.4597V1.11825H40.8795ZM46.9472 1.11825V1.99547H44.9483V10.7423H43.9108V2.00814H41.9298V1.11825H46.9472ZM1.17268 5.06574V10.8691H2.17211V5.06574C2.008 5.11965 1.83629 5.14705 1.6635 5.14687C1.49079 5.146 1.31925 5.11863 1.15489 5.06574H1.17268ZM1.69656 1.79011C1.86962 1.78962 2.03889 1.84046 2.18288 1.93617C2.32687 2.03187 2.43906 2.16811 2.50516 2.32756C2.57126 2.48701 2.58829 2.66245 2.55409 2.83158C2.51989 3.00071 2.43601 3.15588 2.3131 3.27734C2.1902 3.3988 2.03382 3.48106 1.86388 3.51367C1.69394 3.54628 1.51813 3.52775 1.35878 3.46045C1.19944 3.39314 1.06376 3.28011 0.969042 3.13572C0.874318 2.99133 0.824817 2.8221 0.826834 2.64958C0.826819 2.42338 0.916257 2.20629 1.07574 2.0454C1.23521 1.88451 1.45187 1.79278 1.67874 1.79011H1.69656ZM1.69656 1.00162C1.36863 1.00263 1.04834 1.10056 0.776235 1.28303C0.504131 1.4655 0.292421 1.72432 0.167858 2.02675C0.0432945 2.32919 0.0114738 2.66165 0.0764367 2.98211C0.1414 3.30257 0.300235 3.59663 0.532828 3.8271C0.765421 4.05756 1.06133 4.2141 1.38315 4.2769C1.70498 4.3397 2.03827 4.30594 2.34085 4.1799C2.64344 4.05386 2.90174 3.8412 3.08309 3.5688C3.26444 3.29641 3.36068 2.97652 3.35968 2.64958C3.35903 2.431 3.31491 2.21471 3.22986 2.01324C3.14481 1.81177 3.0205 1.62913 2.86417 1.47587C2.70784 1.3226 2.5226 1.20178 2.31912 1.12037C2.11564 1.03897 1.89797 0.998604 1.67874 1.00162H1.69656Z" fill="#0CAD77"/>
</svg>
