<svg width="36" height="36" viewBox="0 0 36 36" fill="none" xmlns="http://www.w3.org/2000/svg">
<path d="M22.6725 21.7311L21.2927 21.4241L18.9122 24.1497L19.907 24.8974L22.6725 21.7311ZM27.3329 27.8414L26.6467 25.0919C26.3001 23.7013 25.3175 22.601 24.0164 22.0892L20.4646 26.1556C20.3416 26.2965 20.1687 26.3691 19.9946 26.3691C19.8643 26.3691 19.7328 26.3282 19.6214 26.2441L18.0001 25.0258L16.3787 26.2441C16.2673 26.3282 16.1358 26.3691 16.0055 26.3691C15.8308 26.3691 15.6585 26.2965 15.5355 26.1556L11.9837 22.0892C10.6827 22.601 9.70012 23.7013 9.35341 25.0919L8.66723 27.8414C8.62033 28.028 8.66237 28.2256 8.7805 28.3769C8.89862 28.5287 9.08003 28.6172 9.27184 28.6172H26.7283C26.9201 28.6172 27.1015 28.5287 27.2196 28.3769C27.3377 28.2256 27.3798 28.028 27.3329 27.8414ZM13.3277 21.7311L16.0932 24.8974L17.0881 24.1496L14.7076 21.4241L13.3277 21.7311ZM13.2145 13.0037C13.7788 11.2073 15.508 10.5055 16.7532 10.5055H17.3328L17.7067 10.9496C17.7213 10.9666 19.4893 13.0037 21.7408 13.0037H22.9877C23.3561 13.0037 23.7085 13.08 24.0343 13.2312C24.0382 13.233 24.0409 13.2363 24.0448 13.2382L24.0202 12.939C23.7547 9.77182 21.1666 7.38281 18.0001 7.38281C14.8336 7.38281 12.2454 9.77182 11.9794 12.9409L11.9553 13.2363L11.9574 13.2349C12.5848 12.9452 13.0897 13.0141 13.2145 13.0037ZM12.2028 17.6999C12.4372 17.8963 12.7173 18 13.0125 18V14.2528C12.8238 14.2528 12.6509 14.29 12.4889 14.365C12.0493 14.5723 11.7656 15.0188 11.7656 15.5019V16.751C11.7656 17.1077 11.927 17.4505 12.2028 17.6999ZM23.5113 14.365C23.3505 14.2906 23.174 14.2528 22.9876 14.2528V18C23.2872 18 23.566 17.8939 23.798 17.6999C24.0756 17.448 24.2345 17.1022 24.2345 16.7509V15.5018C24.2346 15.0188 23.9489 14.5717 23.5113 14.365ZM14.4328 20.2071C14.1505 19.9126 13.8952 19.5985 13.6977 19.2491H13.0125C12.4573 19.2491 11.9363 19.0628 11.4925 18.7213L11.3029 21.0318C11.6532 20.8742 12.0116 20.7421 12.3958 20.6623L14.4328 20.2071ZM22.3024 19.2491C22.1049 19.5986 21.8497 19.9127 21.5673 20.207L23.6317 20.6684C23.9956 20.7435 24.3482 20.874 24.6971 21.0312L24.5072 18.7168C24.0403 19.0685 23.5296 19.2491 22.9875 19.2491H22.3024ZM19.8704 21.1556V20.0017L20.1395 19.8157C21.1568 19.1107 21.7407 17.9933 21.7407 16.7509V14.2527C18.8676 14.2527 16.7696 11.774 16.7532 11.7546C16.6515 11.7546 14.2594 11.7833 14.2594 14.2527V16.7509C14.2594 16.9655 14.2993 17.1698 14.3334 17.3754C14.5 18 14.506 18.1637 14.7749 18.6244C15.0437 19.0852 15.4006 19.4968 15.8606 19.8156L16.1297 20.0017V21.1556L18 23.2969L19.8704 21.1556Z" fill="url(#paint0_linear_595_4265)"/>
<defs>
<linearGradient id="paint0_linear_595_4265" x1="18.0001" y1="7.38281" x2="18.0001" y2="28.6172" gradientUnits="userSpaceOnUse">
<stop stop-color="#4EFFC3"/>
<stop offset="1" stop-color="#25CE76"/>
</linearGradient>
</defs>
</svg>
