<svg width="105" height="53" viewBox="0 0 105 53" fill="none" xmlns="http://www.w3.org/2000/svg">
<path d="M18.5133 49.0309L18.5176 49.0414L18.5223 49.0519C19.2432 50.6489 20.8663 51.7694 22.7161 51.8724C25.4316 52.0236 27.7388 50.0363 27.8871 47.3876C27.9338 46.5536 27.7654 45.831 27.4499 45.1425L22.4593 32.6604C26.3327 30.8779 28.8581 27.6007 29.1158 22.9994C29.313 19.4793 28.1589 16.6056 25.8638 14.5656C23.5873 12.5421 20.2489 11.3919 16.1582 11.1631L7.78521 10.5331L7.78522 10.533L7.77378 10.5324C6.39178 10.4554 5.21009 10.7558 4.34952 11.5006C3.48572 12.2482 3.03725 13.3638 2.96098 14.7256L1.48 41.1678C1.44983 41.7064 1.36819 42.2299 1.2878 42.7453C1.28395 42.77 1.2801 42.7947 1.27626 42.8194C1.19523 43.3398 1.11287 43.8795 1.12263 44.3567C1.13249 44.8384 1.23674 45.3601 1.62552 45.7638C2.01231 46.1655 2.57742 46.3435 3.26252 46.3816C6.04828 46.5368 8.44931 44.4636 8.60251 41.7283L9.00197 34.5961L12.7454 34.8045L18.5133 49.0309ZM9.90771 18.4246L13.819 18.6424C15.3019 18.725 16.5785 18.9976 17.4517 19.6346C18.2748 20.2351 18.8285 21.227 18.7292 22.9995C18.6327 24.7223 17.9766 25.6319 17.0895 26.134C16.1491 26.6663 14.8473 26.8002 13.3667 26.7178L9.45542 26.4999L9.90771 18.4246Z" fill="#00BEFF" stroke="#00BEFF" stroke-width="1.17683"/>
<g filter="url(#filter0_i_595_4247)">
<path d="M36.5031 47.4664C43.6844 49.1651 50.1025 40.5398 53.173 27.6333C56.1522 15.1109 54.5683 4.43045 47.3108 2.71366C40.1295 1.01489 33.7875 9.65819 30.7353 22.4879C27.7197 35.164 29.3217 45.7676 36.5031 47.4664ZM39.1121 37.0068C36.4263 36.3715 36.3114 31.2725 38.0294 24.051C39.6926 17.06 42.054 12.5468 44.7398 13.1822C47.4638 13.8266 47.5223 18.9933 45.8591 25.9843C44.1594 33.129 41.798 37.6422 39.1121 37.0068Z" fill="url(#paint0_linear_595_4247)"/>
</g>
<path d="M36.3669 48.0388C40.2654 48.961 43.8755 47.0469 46.8366 43.397C49.7977 39.7472 52.1985 34.2719 53.7457 27.7688C55.2466 21.4597 55.6116 15.5653 54.6568 11.0004C53.702 6.43544 51.3881 3.07349 47.447 2.14122C43.5474 1.21875 39.9561 3.13878 37.0166 6.78377C34.0773 10.4284 31.7005 15.8887 30.1627 22.3524C28.6437 28.7376 28.2739 34.6509 29.2189 39.2135C30.1639 43.7758 32.4629 47.1153 36.3669 48.0388ZM39.2483 36.4344C38.7722 36.3218 38.3865 36.0148 38.0881 35.4535C37.7809 34.8756 37.5787 34.0453 37.5066 32.9592C37.3627 30.7892 37.748 27.7761 38.602 24.1865C39.4286 20.7121 40.4183 17.9028 41.5081 16.055C42.0536 15.1301 42.6018 14.485 43.1322 14.109C43.6472 13.744 44.1276 13.642 44.6037 13.7546C45.0889 13.8694 45.4781 14.1818 45.7776 14.747C46.0859 15.329 46.2865 16.1614 46.3573 17.2424C46.4989 19.4019 46.1131 22.3745 45.2865 25.8489C44.4415 29.4009 43.4424 32.2489 42.3477 34.1161C41.7997 35.0508 41.2502 35.7004 40.7193 36.0783C40.2041 36.4451 39.7241 36.5469 39.2483 36.4344Z" stroke="url(#paint1_linear_595_4247)" stroke-width="1.17683"/>
<path d="M77.365 39.3675L77.365 39.3675L77.3592 39.3581L71.4183 29.7914L74.6318 25.3158L74.6394 25.3053L74.6464 25.2945C75.1696 24.4939 75.5367 23.5145 75.4756 22.3802C75.3536 20.1134 73.5627 18.1952 71.3916 18.3114C70.2073 18.3748 69.1503 18.9773 68.4785 20.0019L63.3502 27.6441L62.5444 16.3005C62.3931 13.5354 60.29 11.2985 57.6945 11.4375C55.0394 11.5796 53.1819 14.025 53.3312 16.799L53.3315 16.804L54.9588 42.8581C54.9588 42.8589 54.9589 42.8598 54.9589 42.8606C55.1081 45.6073 57.2152 47.8412 59.8289 47.7013C62.4628 47.5603 64.3203 45.1148 64.1722 42.3648L63.9745 38.6912L65.2952 36.8387L70.1255 44.7707C70.1259 44.7713 70.1263 44.772 70.1267 44.7726C70.9488 46.1441 72.395 47.0285 74.0179 46.9417C76.5031 46.8086 78.2824 44.4877 78.1408 41.8572C78.0897 40.909 77.7795 40.0638 77.365 39.3675Z" fill="url(#paint2_linear_595_4247)"/>
<path d="M77.365 39.3675L77.365 39.3675L77.3592 39.3581L71.4183 29.7914L74.6318 25.3158L74.6394 25.3053L74.6464 25.2945C75.1696 24.4939 75.5367 23.5145 75.4756 22.3802C75.3536 20.1134 73.5627 18.1952 71.3916 18.3114C70.2073 18.3748 69.1503 18.9773 68.4785 20.0019L63.3502 27.6441L62.5444 16.3005C62.3931 13.5354 60.29 11.2985 57.6945 11.4375C55.0394 11.5796 53.1819 14.025 53.3312 16.799L53.3315 16.804L54.9588 42.8581C54.9588 42.8589 54.9589 42.8598 54.9589 42.8606C55.1081 45.6073 57.2152 47.8412 59.8289 47.7013C62.4628 47.5603 64.3203 45.1148 64.1722 42.3648L63.9745 38.6912L65.2952 36.8387L70.1255 44.7707C70.1259 44.7713 70.1263 44.772 70.1267 44.7726C70.9488 46.1441 72.395 47.0285 74.0179 46.9417C76.5031 46.8086 78.2824 44.4877 78.1408 41.8572C78.0897 40.909 77.7795 40.0638 77.365 39.3675Z" stroke="url(#paint3_linear_595_4247)" stroke-width="1.17683"/>
<path d="M77.365 39.3675L77.365 39.3675L77.3592 39.3581L71.4183 29.7914L74.6318 25.3158L74.6394 25.3053L74.6464 25.2945C75.1696 24.4939 75.5367 23.5145 75.4756 22.3802C75.3536 20.1134 73.5627 18.1952 71.3916 18.3114C70.2073 18.3748 69.1503 18.9773 68.4785 20.0019L63.3502 27.6441L62.5444 16.3005C62.3931 13.5354 60.29 11.2985 57.6945 11.4375C55.0394 11.5796 53.1819 14.025 53.3312 16.799L53.3315 16.804L54.9588 42.8581C54.9588 42.8589 54.9589 42.8598 54.9589 42.8606C55.1081 45.6073 57.2152 47.8412 59.8289 47.7013C62.4628 47.5603 64.3203 45.1148 64.1722 42.3648L63.9745 38.6912L65.2952 36.8387L70.1255 44.7707C70.1259 44.7713 70.1263 44.772 70.1267 44.7726C70.9488 46.1441 72.395 47.0285 74.0179 46.9417C76.5031 46.8086 78.2824 44.4877 78.1408 41.8572C78.0897 40.909 77.7795 40.0638 77.365 39.3675Z" stroke="url(#paint4_linear_595_4247)" stroke-width="1.17683"/>
<path d="M89.3992 47.1967C92.6349 46.9201 94.6263 45.2105 95.8143 43.12C96.455 44.9713 98.2674 46.2423 100.26 46.072C102.677 45.8654 104.45 43.7203 104.242 41.3026L101.926 14.3664C101.704 11.7842 99.4594 9.82106 96.9075 10.0392C94.3747 10.2557 92.5 12.573 92.7218 15.1532L94.3898 34.5551C94.5384 36.2835 94.2854 37.5186 93.8056 38.322C93.3414 39.0993 92.6367 39.5231 91.7193 39.6015C91.197 39.6462 90.5514 39.5443 90.0037 39.0745C89.4579 38.6062 88.918 37.6939 88.7664 35.93L87.0221 15.6404C86.8003 13.0602 84.5574 11.0949 82.0246 11.3114C79.4727 11.5296 77.5958 13.845 77.8178 16.4272L79.6719 37.9941C79.9022 40.6731 80.6313 43.123 82.1891 44.8381C83.772 46.581 86.1279 47.4763 89.3992 47.1967Z" fill="url(#paint5_linear_595_4247)" stroke="url(#paint6_linear_595_4247)" stroke-width="1.17683"/>
<defs>
<filter id="filter0_i_595_4247" x="28.1129" y="1.32251" width="27.6595" height="47.5353" filterUnits="userSpaceOnUse" color-interpolation-filters="sRGB">
<feFlood flood-opacity="0" result="BackgroundImageFix"/>
<feBlend mode="normal" in="SourceGraphic" in2="BackgroundImageFix" result="shape"/>
<feColorMatrix in="SourceAlpha" type="matrix" values="0 0 0 0 0 0 0 0 0 0 0 0 0 0 0 0 0 0 127 0" result="hardAlpha"/>
<feOffset dy="1.17683"/>
<feComposite in2="hardAlpha" operator="arithmetic" k2="-1" k3="1"/>
<feColorMatrix type="matrix" values="0 0 0 0 0 0 0 0 0 0 0 0 0 0 0 0 0 0 0.65 0"/>
<feBlend mode="normal" in2="shape" result="effect1_innerShadow_595_4247"/>
</filter>
<linearGradient id="paint0_linear_595_4247" x1="47.2727" y1="2.70465" x2="36.6746" y2="47.5069" gradientUnits="userSpaceOnUse">
<stop stop-color="#FF9839"/>
<stop offset="1" stop-color="#FF8642"/>
</linearGradient>
<linearGradient id="paint1_linear_595_4247" x1="47.2727" y1="2.70465" x2="36.6746" y2="47.5069" gradientUnits="userSpaceOnUse">
<stop stop-color="#FF9839"/>
<stop offset="1" stop-color="#FF8642"/>
</linearGradient>
<linearGradient id="paint2_linear_595_4247" x1="64.7841" y1="11.6472" x2="66.6631" y2="46.7461" gradientUnits="userSpaceOnUse">
<stop stop-color="#FFD74A"/>
<stop offset="1" stop-color="#FFC120"/>
</linearGradient>
<linearGradient id="paint3_linear_595_4247" x1="64.7841" y1="11.6472" x2="66.6631" y2="46.7461" gradientUnits="userSpaceOnUse">
<stop stop-color="#FFB802"/>
<stop offset="1" stop-color="#FF8B20"/>
</linearGradient>
<linearGradient id="paint4_linear_595_4247" x1="64.7841" y1="11.6472" x2="66.6631" y2="46.7461" gradientUnits="userSpaceOnUse">
<stop stop-color="#FFD74A"/>
<stop offset="1" stop-color="#FFC120"/>
</linearGradient>
<linearGradient id="paint5_linear_595_4247" x1="89.5165" y1="11.2616" x2="92.515" y2="46.3398" gradientUnits="userSpaceOnUse">
<stop stop-color="#4EFFC3"/>
<stop offset="1" stop-color="#25CE76"/>
</linearGradient>
<linearGradient id="paint6_linear_595_4247" x1="89.5165" y1="11.2616" x2="92.515" y2="46.3398" gradientUnits="userSpaceOnUse">
<stop stop-color="#4EFFC3"/>
<stop offset="1" stop-color="#25CE76"/>
</linearGradient>
</defs>
</svg>
