<svg width="30" height="30" viewBox="0 0 30 30" fill="none" xmlns="http://www.w3.org/2000/svg">
<path fill-rule="evenodd" clip-rule="evenodd" d="M3.19998 7.60007C3.19998 6.82687 3.82678 6.20007 4.59998 6.20007H24.6C25.3732 6.20007 26 6.82687 26 7.60007C26 8.37327 25.3732 9.00007 24.6 9.00007H4.59998C3.82678 9.00007 3.19998 8.37327 3.19998 7.60007ZM3.19995 14.6C3.19995 13.8268 3.82675 13.2 4.59995 13.2H24.6C25.3731 13.2 26 13.8268 26 14.6C26 15.3732 25.3731 16 24.6 16H4.59995C3.82675 16 3.19995 15.3732 3.19995 14.6ZM4.59995 20.2C3.82675 20.2 3.19995 20.8268 3.19995 21.6C3.19995 22.3732 3.82675 23 4.59995 23H24.6C25.3731 23 26 22.3732 26 21.6C26 20.8268 25.3731 20.2 24.6 20.2H4.59995Z" fill="url(#paint0_linear_607_1655)"/>
<defs>
<linearGradient id="paint0_linear_607_1655" x1="14.6" y1="6.20007" x2="14.6" y2="23" gradientUnits="userSpaceOnUse">
<stop stop-color="#4EFFC3"/>
<stop offset="1" stop-color="#25CE76"/>
</linearGradient>
</defs>
</svg>
