<svg width="30" height="30" viewBox="0 0 30 30" fill="none" xmlns="http://www.w3.org/2000/svg">
<path opacity="0.5" fill-rule="evenodd" clip-rule="evenodd" d="M6.46863 20.6106C5.84379 21.2355 5.84379 22.2485 6.46863 22.8734C7.09347 23.4982 8.10653 23.4982 8.73137 22.8734L14.6001 17.0047L20.6108 23.0154C21.2356 23.6402 22.2487 23.6402 22.8735 23.0154C23.4983 22.3905 23.4983 21.3774 22.8735 20.7526L16.8628 14.7419L22.8735 8.73125C23.4983 8.10641 23.4983 7.09335 22.8735 6.46851C22.2487 5.84367 21.2356 5.84367 20.6108 6.46851L14.6001 12.4792L8.73137 6.61047C8.10653 5.98564 7.09347 5.98563 6.46863 6.61047C5.84379 7.23531 5.84379 8.24838 6.46863 8.87322L12.3373 14.7419L6.46863 20.6106Z" fill="white"/>
</svg>
