<svg width="46" height="17" viewBox="0 0 46 17" fill="none" xmlns="http://www.w3.org/2000/svg">
<path d="M38.6336 3.51143H45.0801V5.37488H42.8321V13.2978H40.8816V5.37488H38.6336V3.51143ZM30.3102 3.51143H32.0344L35.8489 9.49224V3.51143H37.7969V13.3028H36.0727L32.2582 7.32455V13.3028H30.3077L30.3102 3.51143ZM24.1637 3.51143H29.2625V5.37488H24.7639V7.46906H28.5784V9.33759H24.7639V11.4292H29.2625V13.2978H24.1637V16.5937H23.7899V0H24.1637V3.51143Z" fill="#0CAD77"/>
<path d="M8.64587 3.51123H15.0924V5.37469H10.6701V7.46886H14.4847V9.33739H10.6701V11.429H15.0924V13.2976H8.64587V3.51123ZM0.0987549 3.51123H1.89922L5.64764 9.49204V3.51123H7.5956V13.3026H5.87143L2.05689 7.32435V13.3026H0.0987549V3.51123ZM15.9927 3.51123H22.4469V5.37469H20.1988V13.2976H18.2483V5.37469H16.0003L15.9927 3.51123Z" fill="#0CAD77"/>
</svg>
