<svg width="100" height="40" viewBox="0 0 100 40" fill="none" xmlns="http://www.w3.org/2000/svg">
<path d="M5 10H8.2C8.5 10 8.6 10.203 8.7 10.4061C11.1 14.1624 13.4 17.9188 15.7 21.6751C15.8 21.7767 15.9 21.9797 16 22.1827V10H20V30H16.6C16.3 30 16.3 29.797 16.2 29.5939C13.9 25.8376 11.5 22.0812 9.2 18.2234C9.1 18.1218 9 17.9188 8.9 17.7157V29.8985H5V10Z" fill="#0C483C"/>
<path d="M65.2061 9.94083H68.4392C68.7331 9.94083 68.8311 10.1407 68.9291 10.3406C70.7905 13.4387 72.75 16.4369 74.6115 19.535C75.1014 20.3345 75.5912 21.0341 76.0811 21.8336V10.0408H79.902C80 10.1407 80 10.3406 80 10.5405V29.2291C80 29.7288 79.902 29.8288 79.4122 29.8288H76.9628C76.6689 29.8288 76.473 29.7288 76.277 29.429C74.0237 25.7312 71.7703 22.0335 69.4189 18.3357C69.3209 18.1359 69.223 18.0359 69.125 17.836C69.027 17.836 69.027 18.0359 69.027 18.2358V29.0292C69.027 29.429 68.9291 29.6289 68.4392 29.6289H65.598C65.3041 29.6289 65.2061 29.5289 65.2061 29.2291V9.94083ZM63.2466 9.8409V13.5386C63.0507 13.7385 62.8547 13.6386 62.6588 13.6386H55.0169C54.625 13.6386 54.4291 13.7385 54.4291 14.2382V17.3363C54.4291 17.7361 54.527 17.936 55.0169 17.936H61.973V21.6337C61.777 21.7337 61.5811 21.7337 61.3851 21.7337H54.9189C54.527 21.7337 54.4291 21.8336 54.4291 22.2334V26.0311H63.2466V29.8288H51.8818V35.925C51.4899 36.025 51.2939 36.025 51 35.925V4.04442C51.2939 3.94448 51.5878 4.04442 51.8818 4.04442V10.1407C55.7027 9.8409 59.4257 9.8409 63.2466 9.8409Z" fill="#0C483C"/>
<path d="M22 11H35V14.7563H26.031V19.0203H33.6899V22.8782H26.031V27.2437H35V31H22V11Z" fill="#0C483C"/>
<path d="M83 14.8579V11H96V14.8579H91.6667C91.4651 15.0609 91.5659 15.264 91.5659 15.467V30.3909C91.5659 30.8985 91.4651 31 90.9612 31H88.1395C87.6357 31 87.5349 30.8985 87.5349 30.3909V14.8579H83Z" fill="#0C483C"/>
<path d="M41.5349 13.8579H37V10H50V13.8579H45.4651V30H41.5349V13.8579Z" fill="#0C483C"/>
</svg>
