<svg width="106" height="25" viewBox="0 0 106 25" fill="none" xmlns="http://www.w3.org/2000/svg">
<path fill-rule="evenodd" clip-rule="evenodd" d="M87.8543 11.6294C85.991 6.80653 89.1686 1.64139 94.8979 0.179182C96.091 -0.125178 97.9486 -0.0160866 99.163 0.313312C102.594 1.24409 104.4 3.05149 105.638 5.98972C105.878 6.55977 106 7.16424 106 7.77376L105.997 11.8005V16.0682C105.997 16.3845 105.877 16.6912 105.656 16.9374C105.571 17.0321 105.475 17.1196 105.365 17.1899C104.233 17.911 103.083 17.7817 102.397 16.8392L102.391 16.8307C102.211 16.5837 102.108 16.4436 101.97 16.4021C101.789 16.3478 101.544 16.4628 100.981 16.7284L100.966 16.7353C96.821 18.6891 91.4491 17.4311 89.1226 13.962C88.9311 13.6761 88.69 13.3552 88.5869 13.2488C88.4838 13.1424 88.3113 12.8236 88.2033 12.5402C88.0954 12.257 87.9384 11.8469 87.8543 11.6294ZM98.1618 13.6256C103.283 12.2278 103.283 5.49354 98.1618 4.09446C94.1344 2.99425 90.4538 6.7024 91.7942 10.5083C92.6679 12.9875 95.4713 14.36 98.1618 13.6256ZM78.9686 4.90773C79.8312 2.48144 81.5795 0.850411 84.0193 0.196877C84.597 0.0420874 87.2518 0.0134206 87.5522 0.158744C89.7021 1.2002 88.8882 3.83221 86.4152 3.83221C85.0907 3.83221 84.3232 4.08419 83.6694 4.73348C82.7302 5.66651 82.7253 5.69836 82.7222 11.4666C82.7196 15.4578 82.6939 16.3585 82.5776 16.5686C81.8454 17.8884 79.9153 18.0353 79.0495 16.8371L78.9894 16.7537C78.8124 16.5085 78.7182 16.2222 78.7182 15.9298V10.9957V6.28735C78.7182 5.84085 78.7952 5.39705 78.946 4.97179L78.9686 4.90773ZM40.4241 5.02474C41.7286 2.60672 44.1394 0.804978 46.8122 0.250317C51.5381 -0.73027 56.7538 2.26874 57.8664 6.60657C58.1505 7.71422 58.4398 8.94249 57.8678 11.1907C56.5601 16.3294 49.8226 19.266 44.8104 16.8818L44.6962 16.8273C44.2609 16.6192 43.9856 16.4876 43.8112 16.5581C43.5106 16.6797 43.5098 17.4012 43.5073 19.3655L43.5069 19.665L43.511 22.4177C43.5114 22.6934 43.489 22.9731 43.3465 23.2172C43.1185 23.6077 42.6042 24.1545 41.5109 24.1545C39.9736 24.1545 39.7189 23.1174 39.6551 22.8576L39.655 22.8572C39.6517 22.8437 39.649 22.8324 39.6464 22.8234C39.644 22.8141 39.6419 22.8074 39.6399 22.8034C39.4791 22.4673 39.3435 7.98872 39.5029 7.32324C39.7581 6.25718 39.9509 5.90044 40.3632 5.13777L40.4241 5.02474ZM52.5171 12.3973C55.3205 9.74918 54.1743 5.32464 50.3773 4.13715C46.4215 2.89989 42.5947 6.45439 43.7674 10.2769C44.8692 13.8684 49.7164 15.043 52.5171 12.3973ZM1.01337 5.02523C2.31781 2.6072 4.72864 0.805465 7.40152 0.25076C12.1274 -0.729784 17.3431 2.26922 18.4557 6.60706C18.7397 7.71466 19.029 8.94298 18.457 11.1912C17.1492 16.3297 10.4116 19.2664 5.39974 16.8823L5.28551 16.8278C4.85021 16.6197 4.57478 16.488 4.40033 16.5586C4.09985 16.6802 4.09897 17.4017 4.09657 19.366L4.09618 19.6655L4.10015 22.4182C4.10057 22.6939 4.07825 22.9736 3.93575 23.2177C3.70777 23.6082 3.19336 24.1548 2.1001 24.1548C0.56284 24.1548 0.308143 23.1179 0.244337 22.8581C0.237565 22.8305 0.232943 22.8118 0.229165 22.8038C0.0683239 22.4678 -0.0939867 8.01442 0.065355 7.34907C0.312133 6.3185 0.523234 5.9292 0.911368 5.2136L1.01337 5.02523ZM13.1062 12.3973C15.9096 9.74918 14.7635 5.32464 10.9664 4.13715C7.01059 2.89989 3.18369 6.45431 4.35639 10.2767C5.45817 13.8684 10.3052 15.043 13.1062 12.3973ZM66.0895 0.179182C60.3602 1.64139 57.1825 6.80653 59.0454 11.6294C59.1294 11.8469 59.2865 12.2568 59.3944 12.5401C59.5024 12.8234 59.6749 13.1424 59.778 13.2487C59.8811 13.3552 60.1226 13.6761 60.3142 13.962C62.6402 17.431 68.0125 18.6891 72.1576 16.7353L72.1722 16.7284C72.7358 16.4628 72.98 16.3478 73.1614 16.4021C73.2999 16.4436 73.4016 16.5837 73.5817 16.8307L73.5879 16.8391C74.2745 17.7817 75.4242 17.9109 76.5563 17.1899C76.6664 17.1196 76.7624 17.0321 76.8474 16.9373C77.0681 16.6912 77.1884 16.3845 77.1884 16.0682V11.8005L77.1915 7.77376C77.192 7.16424 77.0694 6.55977 76.8292 5.98972C75.5919 3.05149 73.4158 1.14367 70.354 0.313312C69.4012 0.0546948 66.8871 -0.0243148 66.0895 0.179182ZM69.3538 4.09432C74.4753 5.49345 74.4753 12.2277 69.3538 13.6255C66.6637 14.3597 63.8603 12.9873 62.9866 10.5082C61.6457 6.70213 65.3268 2.99416 69.3538 4.09432ZM19.8355 11.6294C17.9724 6.80653 21.1498 1.64139 26.8792 0.179182C27.6768 -0.0243148 30.1908 0.0546948 31.1442 0.313312C34.2055 1.14367 36.3816 3.05149 37.6191 5.98972C37.8591 6.55977 37.9819 7.16424 37.9814 7.77376L37.9782 11.8005V16.0682C37.9782 16.3845 37.8579 16.6912 37.6372 16.9373C37.5522 17.0321 37.4564 17.1196 37.346 17.1899C36.2141 17.9109 35.0644 17.7817 34.3779 16.8391L34.3718 16.8307C34.1918 16.5837 34.0897 16.4436 33.9513 16.4021C33.7698 16.3478 33.5257 16.4628 32.9621 16.7284L32.9475 16.7353C28.8024 18.6891 23.4301 17.431 21.104 13.962C20.9123 13.6761 20.6711 13.3552 20.5681 13.2487C20.4651 13.1424 20.2924 12.8234 20.1845 12.5401C20.0767 12.2568 19.9195 11.8469 19.8355 11.6294ZM30.1458 13.6255C35.2673 12.2277 35.2673 5.49345 30.1458 4.09432C26.1186 2.99416 22.4377 6.70213 23.7784 10.5082C24.6519 12.9873 27.4553 14.3597 30.1458 13.6255Z" fill="#0C483C"/>
</svg>
