<svg width="100" height="40" viewBox="0 0 100 40" fill="none" xmlns="http://www.w3.org/2000/svg">
<g opacity="0.3" clip-path="url(#clip0_597_3442)">
<path d="M11.3715 15.0991H12.8398V24.2504H20.8V25.8813H11.3715V15.0991Z" fill="#0CAD77"/>
<path d="M31.1715 15.0991H32.9001L36.3572 19.942L39.8144 15.0991H41.5429L37.0644 21.7695V25.8813H35.6501V21.7695L31.1715 15.0991Z" fill="#0CAD77"/>
<path d="M42.5621 16.6525C42.5621 15.7387 43.4023 15.0991 44.1661 15.0991C46.0755 15.0991 50.4291 15.0991 50.6583 15.1905C51.2693 15.3732 51.7276 15.9215 51.8803 16.6525C51.9567 17.018 51.8803 17.6576 51.8803 17.6576H50.4291V16.9266C50.4291 16.7439 50.2 16.7439 50.1236 16.7439H44.2424C44.0897 16.7439 43.9369 16.9266 43.9369 17.1094V19.3023C43.9369 19.4851 44.0897 19.6678 44.2424 19.6678H50.3528C51.1929 19.7592 51.8803 20.5816 51.8803 21.5867V23.9624C51.8803 24.6934 51.4221 25.4244 50.811 25.6986C50.5055 25.8813 45.9992 25.8813 44.1661 25.8813C43.555 25.8813 42.8676 25.4244 42.6385 24.6934C42.4857 24.1452 42.4857 23.2314 42.4857 23.2314H43.9369C43.9369 23.2314 43.8605 23.9624 44.0897 24.2366H50.2C50.3528 24.2366 50.5055 24.0538 50.5055 23.9624V22.0436C50.5055 21.7695 50.5055 21.5867 50.4291 21.404C50.2764 21.404 50.2 21.3126 50.0472 21.3126H44.2424C43.4786 21.3126 42.6385 20.7643 42.6385 19.7592C42.5621 19.211 42.5621 16.6525 42.5621 16.6525Z" fill="#0CAD77"/>
<path d="M64.1714 15.0991H65.9344L72.1435 23.6161V15.0991L73.6 15.1897L73.5233 25.8813H71.9135L65.6278 17.2737V25.8813H64.1714V15.0991Z" fill="#0CAD77"/>
<path d="M10.4286 16.9266C10.4286 15.9215 9.57845 15.0991 8.72834 15.0991H1V25.8813H2.3911V21.9522H8.65105C9.57845 21.9522 10.3513 21.1298 10.3513 20.0333V16.9266H10.4286ZM9.03747 20.0333C9.03747 20.2161 8.8829 20.3075 8.72834 20.3075H2.62295C2.54567 20.3075 2.3911 20.1247 2.3911 20.0333V16.9266C2.3911 16.7439 2.62295 16.6525 2.77752 16.6525H8.72834C8.8829 16.6525 9.03747 16.8352 9.03747 17.018V20.0333Z" fill="#0CAD77"/>
<path d="M31.1714 17.018C31.1714 16.0129 30.5581 15.0991 29.9449 15.0991H23.3526C22.5093 15.0991 21.7428 16.0129 21.7428 17.018V25.8813H23.1226V22.1349H29.6383V25.8813H31.0181V23.7797C31.1714 23.6883 31.1714 19.211 31.1714 17.018ZM29.7916 20.3988H23.2759V17.018C23.2759 16.8352 23.4292 16.6525 23.5825 16.6525H29.5616C29.7149 16.6525 29.8682 16.8352 29.8682 17.018C29.7916 18.2059 29.7916 20.3988 29.7916 20.3988Z" fill="#0CAD77"/>
<path d="M62.2858 23.5056V16.6525C62.2858 15.8301 61.4425 15.0991 60.676 15.0991H54.5436C53.8537 15.0991 52.8572 16.1042 52.8572 16.8352V23.9624C52.8572 24.9676 53.7004 25.8813 54.5436 25.8813H60.5993C61.2892 25.8813 61.9791 25.3331 62.2091 24.6021C62.2858 24.2366 62.2858 23.8711 62.2858 23.5056ZM60.676 24.2366H54.4669C54.3903 24.2366 54.237 24.0538 54.3136 23.9624V16.9266C54.3136 16.8352 54.3136 16.6525 54.6969 16.6525H60.5227C60.676 16.6525 60.8293 16.7439 60.8293 16.9266V23.9624C60.8293 24.0538 60.8293 24.2366 60.676 24.2366Z" fill="#0CAD77"/>
<path d="M77.3715 9.21777L84.9143 13.0924L77.3715 17.0594V9.21777Z" fill="#0CAD77"/>
<path d="M84.9143 13.1387L92.4572 17.1056L84.9143 20.9803V13.1387Z" fill="#0CAD77"/>
<path d="M77.3715 17.0596L84.9143 20.9804L77.3715 24.9012V17.0596Z" fill="#0CAD77"/>
<path d="M100 20.9342L92.4572 24.9012V17.0596L100 20.9342Z" fill="#0CAD77"/>
<path d="M92.4572 23.9669L84.9143 27.8416V20L92.4572 23.9669Z" fill="#0CAD77"/>
<path d="M84.9143 26.9073L77.3715 30.782V22.9404L84.9143 26.9073Z" fill="#0CAD77"/>
</g>
<defs>
<clipPath id="clip0_597_3442">
<rect width="100" height="40" fill="white"/>
</clipPath>
</defs>
</svg>
