<svg width="100" height="40" viewBox="0 0 100 40" fill="none" xmlns="http://www.w3.org/2000/svg">
<g opacity="0.3">
<path d="M78.8101 16.0252C74.8387 16.2674 76.6219 21.3422 81.0124 21.0743C85.3072 20.8123 83.0414 15.7672 78.8101 16.0252Z" fill="#0CAD77"/>
<path d="M77.1337 12.8909C74.6031 12.8909 72.1294 13.6272 70.0253 15.0066C67.9212 16.386 66.2812 18.3466 65.3128 20.6404C64.3444 22.9343 64.091 25.4584 64.5847 27.8936C65.0784 30.3287 66.297 32.5655 68.0864 34.3212C69.8758 36.0768 72.1556 37.2724 74.6376 37.7568C77.1195 38.2412 79.6921 37.9926 82.0301 37.0424C84.368 36.0923 86.3663 34.4833 87.7722 32.4189C89.1781 30.3544 89.9285 27.9273 89.9285 25.4445C89.9285 22.1151 88.5805 18.922 86.181 16.5678C83.7815 14.2135 80.5271 12.8909 77.1337 12.8909ZM77.1337 36.6824C74.8689 36.6828 72.6547 36.0242 70.7714 34.7899C68.888 33.5556 67.42 31.8011 66.553 29.7482C65.686 27.6954 65.459 25.4363 65.9006 23.2568C66.3422 21.0773 67.4326 19.0753 69.034 17.5039C70.6353 15.9324 72.6757 14.8622 74.897 14.4285C77.1183 13.9949 79.4208 14.2173 81.5133 15.0675C83.6058 15.9178 85.3943 17.3578 86.6526 19.2055C87.9109 21.0531 88.5826 23.2253 88.5826 25.4474C88.5826 28.4268 87.3764 31.2841 85.2294 33.391C83.0824 35.4979 80.1703 36.6819 77.1337 36.6824ZM76.7479 4.12718C73.7103 6.3799 74.2382 9.8346 74.2382 9.8346C74.2382 9.8346 72.3291 4.97232 69.8497 2C69.5152 5.82636 70.7373 10.8962 70.7373 10.8962C70.7373 10.8962 69.1848 7.75288 65.3806 7.57694C68.536 9.35618 69.7601 12.5618 70.0401 13.4217C71.9205 12.2829 74.0709 11.6445 76.2794 11.5694C76.0305 10.7687 75.146 7.39506 76.7479 4.12718Z" fill="#0CAD77"/>
<path d="M11.1143 26.6753V29.3027H10V22.5336H12.3454C13.1406 22.5336 13.7384 22.7191 14.1387 23.0901C14.539 23.4612 14.7405 23.9692 14.7432 24.6144C14.7432 25.2542 14.538 25.7577 14.1276 26.1247C13.7172 26.4918 13.1245 26.6753 12.3494 26.6753H11.1143ZM13.6057 24.6144C13.6057 24.2308 13.4966 23.9383 13.2783 23.7366C13.06 23.535 12.7101 23.4345 12.2285 23.4351H11.1143V25.7837H12.2285C13.146 25.7837 13.6051 25.3939 13.6057 24.6144ZM19.3422 29.3027L17.6225 26.5992H16.8306V29.3027H15.7164V22.5336H18.1504C18.9383 22.5336 19.536 22.7221 19.9437 23.099C20.3514 23.476 20.5549 23.9748 20.5542 24.5956C20.5542 25.1228 20.4028 25.5574 20.0999 25.8994C19.797 26.2414 19.3604 26.4585 18.7902 26.5508L20.6036 29.3027H19.3422ZM16.8306 25.8223H18.0597C18.9597 25.8223 19.4094 25.4325 19.4087 24.6529C19.4087 24.2826 19.2996 23.9933 19.0813 23.785C18.8627 23.5775 18.5232 23.4737 18.0597 23.4737H16.8306V25.8223ZM25.6752 27.8358H22.7626L22.2347 29.3027H21.0429L23.5837 22.6394H24.8642L27.3949 29.3027H26.2021L25.6752 27.8358ZM25.3619 26.9926L24.2184 23.8295L23.0749 26.9926H25.3619ZM33.0237 23.0704C33.5706 23.4667 33.9554 24.0415 34.1087 24.6915H32.936C32.7899 24.3314 32.5314 24.0258 32.1975 23.8186C31.8336 23.5951 31.4107 23.4817 30.9815 23.4925C30.575 23.486 30.1744 23.5885 29.8229 23.789C29.4791 23.9889 29.2011 24.2816 29.022 24.6322C28.8228 25.033 28.7257 25.4753 28.7389 25.9211C28.7258 26.3823 28.8264 26.8397 29.0321 27.2546C29.2145 27.6119 29.5019 27.9073 29.8572 28.1027C30.2362 28.3047 30.6621 28.4069 31.0934 28.3992C31.6347 28.4085 32.1602 28.2196 32.5673 27.8694C32.977 27.5214 33.2245 27.0437 33.3098 26.4361H30.776V25.6305H34.2447V26.6753C34.1715 27.1622 33.9862 27.6264 33.7027 28.0325C33.4151 28.4423 33.0294 28.7767 32.5794 29.0061C32.0855 29.2549 31.5366 29.3799 30.9815 29.3699C30.3589 29.3824 29.7443 29.2301 29.2023 28.929C28.6941 28.6416 28.2805 28.2173 28.0105 27.7063C27.734 27.1492 27.5904 26.5377 27.5904 25.9181C27.5904 25.2986 27.734 24.6871 28.0105 24.13C28.2793 23.6211 28.6912 23.1985 29.1973 22.9122C29.7385 22.6142 30.351 22.4637 30.9715 22.4763C31.7929 22.4763 32.4769 22.6743 33.0237 23.0704ZM42.112 22.6394V29.3027H40.9877V24.3079L39.0241 29.3027H38.0469L36.0723 24.3079V29.3027H34.959V22.6394H36.307L38.5547 27.9603L40.763 22.6394H42.112ZM47.5644 27.8358H44.6569L44.129 29.3027H42.9331L45.4739 22.6394H46.7534L49.2852 29.3027H48.0924L47.5644 27.8358ZM47.2521 26.9926L46.1087 23.8295L44.9652 26.9926H47.2521ZM54.0535 22.5336V23.4154H52.1283V29.3027H51.0039V23.4154H49.0898V22.5336H54.0535ZM55.7632 22.5336V29.3027H54.65V22.5336H55.7632ZM62.0669 23.099C62.6322 23.5287 63.0319 24.1342 63.2003 24.816H62.0176C61.8666 24.421 61.5954 24.0811 61.2408 23.8424C60.854 23.5937 60.3984 23.468 59.9362 23.4826C59.5484 23.4765 59.167 23.5794 58.837 23.7791C58.507 23.9863 58.2428 24.2801 58.0744 24.6272C57.891 25.0317 57.7963 25.4695 57.7963 25.9122C57.7963 26.3549 57.891 26.7927 58.0744 27.1972C58.2425 27.5447 58.5068 27.8389 58.837 28.0463C59.167 28.2461 59.5484 28.349 59.9362 28.3429C60.3983 28.3577 60.8539 28.2324 61.2408 27.984C61.5935 27.7476 61.8644 27.4115 62.0176 27.0203H63.2003C63.0329 27.7009 62.6329 28.3048 62.0669 28.7313C61.5068 29.1504 60.8032 29.36 59.9563 29.36C59.3499 29.3712 58.7519 29.2202 58.2265 28.9231C57.7276 28.6354 57.3239 28.2126 57.0639 27.7053C56.7932 27.1466 56.6528 26.5358 56.6528 25.9172C56.6528 25.2986 56.7932 24.6877 57.0639 24.129C57.3248 23.6211 57.7282 23.1969 58.2265 22.9063C58.751 22.6066 59.3494 22.4541 59.9563 22.4654C60.8026 22.4661 61.5061 22.6773 62.0669 23.099ZM68.4563 26.6753V29.3027H67.3431V22.5336H69.6884C70.4823 22.5336 71.0801 22.7191 71.4817 23.0901C71.8834 23.4612 72.0849 23.9692 72.0862 24.6144C72.0862 25.2542 71.881 25.7577 71.4707 26.1247C71.0603 26.4918 70.4676 26.6753 69.6925 26.6753H68.4563ZM70.9518 24.6144C70.9518 24.2308 70.8427 23.9383 70.6244 23.7366C70.4061 23.535 70.0558 23.4345 69.5736 23.4351H68.4563V25.7837H69.5706C70.4914 25.7837 70.9518 25.3939 70.9518 24.6144ZM73.9974 28.4496H76.3821V29.3027H72.8831V22.5336H73.9974V28.4496ZM81.4829 27.8358H78.5713L78.0434 29.3027H76.8505L79.3924 22.6394H80.6719L83.2036 29.3027H82.0108L81.4829 27.8358ZM81.1706 26.9926L80.0271 23.8295L78.8836 26.9926H81.1706ZM87.6758 22.5336L85.3798 26.8384V29.3027H84.2584V26.8384L81.9523 22.5336H83.2429L84.8267 25.6691L86.4094 22.5336H87.6758Z" fill="#0CAD77"/>
</g>
</svg>
