<svg width="45" height="21" viewBox="0 0 45 21" fill="none" xmlns="http://www.w3.org/2000/svg">
<path d="M38.7257 8.43282C36.4904 8.56973 37.4923 11.4752 39.9641 11.3206C42.38 11.1684 41.1059 8.29084 38.7257 8.43282Z" fill="#0CAD77"/>
<path d="M37.7819 6.63992C36.3573 6.63942 34.9646 7.06016 33.7799 7.84892C32.5951 8.63768 31.6717 9.75902 31.1263 11.0711C30.5808 12.3832 30.438 13.8271 30.7158 15.2201C30.9936 16.6131 31.6796 17.8927 32.6869 18.897C33.6943 19.9013 34.9777 20.5852 36.375 20.8621C37.7723 21.1391 39.2205 20.9967 40.5366 20.4529C41.8527 19.9092 42.9774 18.9885 43.7686 17.8074C44.5597 16.6262 44.9817 15.2377 44.9812 13.8174C44.9812 11.9138 44.2228 10.0882 42.8726 8.74216C41.5225 7.39612 39.6913 6.63992 37.7819 6.63992ZM37.7819 20.2445C36.5072 20.246 35.2607 19.8705 34.2 19.1656C33.1394 18.4607 32.3122 17.458 31.8232 16.2844C31.3342 15.1107 31.2054 13.8189 31.453 12.5722C31.7006 11.3255 32.3134 10.1801 33.2141 9.28074C34.1148 8.38139 35.2627 7.76856 36.5128 7.51976C37.7628 7.27097 39.0588 7.39739 40.2368 7.88303C41.4148 8.36867 42.4218 9.19172 43.1306 10.2481C43.8393 11.3044 44.2178 12.5466 44.2183 13.8174C44.219 15.5204 43.5414 17.154 42.3345 18.3592C41.1276 19.5643 39.4901 20.2424 37.7819 20.2445ZM37.5632 1.6276C37.0681 2.00613 36.6785 2.50472 36.4315 3.0759C36.1844 3.64707 36.0882 4.27179 36.1519 4.89055C36.1519 4.89055 35.0761 2.1017 33.6826 0.410645C33.4944 2.59863 34.1912 5.49903 34.1912 5.49903C33.8929 4.95262 33.4595 4.49133 32.9321 4.15896C32.4046 3.8266 31.8007 3.63421 31.1777 3.60007C32.9578 4.6142 33.6419 6.45231 33.7996 6.94163C34.8578 6.29224 36.067 5.92795 37.3089 5.8844C37.1589 5.42551 36.663 3.49613 37.5632 1.6276Z" fill="#0CAD77"/>
<path d="M0.628242 14.5221V16.0231H0.00012207V12.1542H1.31997C1.68746 12.124 2.05229 12.2377 2.33718 12.4711C2.4517 12.5848 2.54113 12.7211 2.5998 12.8713C2.65848 13.0215 2.6851 13.1822 2.67794 13.3432C2.68597 13.5039 2.65898 13.6643 2.59884 13.8136C2.5387 13.9628 2.44683 14.0973 2.32954 14.2078C2.04787 14.434 1.69105 14.5463 1.33012 14.5221H0.628242ZM2.02945 13.3432C2.03698 13.2504 2.0243 13.157 1.99226 13.0695C1.96022 12.9819 1.90958 12.9024 1.84382 12.8362C1.67647 12.7057 1.46538 12.644 1.25385 12.6638H0.628242V14.0075H1.25385C1.76245 14.0075 2.01676 13.7844 2.01676 13.3382L2.02945 13.3432ZM5.25657 16.0231L4.29021 14.4791H3.84518V16.0231H3.21706V12.1542H4.58775C4.95587 12.126 5.32058 12.2414 5.60496 12.4762C5.71966 12.5867 5.80956 12.7202 5.86873 12.8679C5.92791 13.0156 5.95501 13.1742 5.94827 13.3331C5.9591 13.6044 5.86847 13.87 5.69396 14.0785C5.50003 14.2857 5.23875 14.4177 4.95648 14.4512L5.97369 16.0231H5.25657ZM3.84518 14.0328H4.54706C5.05566 14.0328 5.30996 13.8097 5.30996 13.366C5.31683 13.2734 5.30407 13.1805 5.27253 13.0931C5.24098 13.0057 5.19137 12.926 5.12687 12.859C4.96558 12.7279 4.75954 12.6642 4.55215 12.6815H3.86045L3.84518 14.0328ZM8.8219 15.1864H7.18163L6.88663 16.0231H6.2153L7.64448 12.2201H8.3616L9.78568 16.0231H9.1245L8.8219 15.1864ZM8.64641 14.7022L8.00302 12.8945L7.35711 14.7022H8.64641ZM12.9696 12.4609C13.277 12.6871 13.4935 13.0153 13.5799 13.3863H12.9213C12.839 13.1779 12.6931 13.0005 12.5042 12.8793C12.2995 12.7516 12.0615 12.6872 11.8201 12.6942C11.5916 12.6902 11.3664 12.749 11.1691 12.8641C10.9755 12.9779 10.8191 13.1452 10.719 13.3458C10.6052 13.5747 10.5501 13.8282 10.5588 14.0835C10.5507 14.3467 10.6074 14.6079 10.7241 14.8441C10.8259 15.049 10.9872 15.2186 11.1869 15.3309C11.4011 15.4452 11.6408 15.5036 11.8837 15.5008C12.1883 15.5056 12.4839 15.3972 12.7127 15.1965C12.9509 14.9862 13.1 14.6935 13.1298 14.3776H11.7057V13.9162H13.6562V14.5145C13.6154 14.793 13.511 15.0585 13.351 15.2904C13.1893 15.5245 12.9729 15.716 12.7203 15.8481C12.4418 15.9897 12.1327 16.0611 11.8201 16.056C11.4695 16.0618 11.1236 15.9743 10.8182 15.8025C10.5321 15.6385 10.2999 15.3955 10.1494 15.1027C9.99379 14.7845 9.91293 14.4351 9.91293 14.081C9.91293 13.727 9.99379 13.3775 10.1494 13.0593C10.2998 12.768 10.5311 12.526 10.8156 12.3621C11.1202 12.1904 11.4652 12.1029 11.815 12.1085C12.2268 12.0925 12.6325 12.2119 12.9696 12.4483V12.4609ZM18.0836 12.2074V16.0104H17.4529V13.1683L16.3467 16.0231H15.7974L14.6861 13.1683V16.0231H14.058V12.2201H14.8209L16.0924 15.2625L17.3359 12.2201L18.0836 12.2074ZM21.153 15.1788H19.5153L19.2203 16.0155H18.5337L19.9629 12.2125H20.6825L22.1092 16.0155H21.4379L21.153 15.1788ZM20.9775 14.6946L20.3342 12.8869L19.6908 14.6946H20.9775ZM24.7921 12.1466V12.6536H23.7088V16.0231H23.0755V12.6587H21.9973V12.1516L24.7921 12.1466ZM25.7534 12.1466V16.0231H25.1278V12.1542L25.7534 12.1466ZM29.3009 12.4685C29.6187 12.7143 29.8437 13.0602 29.9392 13.4497H29.2729C29.1884 13.2239 29.0356 13.0298 28.8355 12.8945C28.6188 12.7516 28.3627 12.6798 28.1031 12.6891C27.885 12.6849 27.6703 12.7439 27.4851 12.859C27.2982 12.9759 27.1491 13.144 27.0554 13.3432C26.9522 13.5747 26.8989 13.8252 26.8989 14.0785C26.8989 14.3318 26.9522 14.5823 27.0554 14.8137C27.1498 15.0124 27.2988 15.1804 27.4851 15.298C27.6708 15.4119 27.8851 15.4708 28.1031 15.4678C28.3625 15.4755 28.6181 15.4038 28.8355 15.2625C29.0346 15.1283 29.1874 14.9362 29.2729 14.7123H29.9392C29.8447 15.1016 29.6194 15.4469 29.3009 15.6909C28.956 15.9387 28.5381 16.0645 28.1133 16.0484C27.7715 16.054 27.4347 15.9664 27.1393 15.7949C26.8589 15.6297 26.6321 15.3877 26.4858 15.0977C26.3337 14.7779 26.2549 14.4285 26.2549 14.0747C26.2549 13.7208 26.3337 13.3714 26.4858 13.0517C26.6328 12.7621 26.8595 12.5203 27.1393 12.3545C27.4346 12.1829 27.7715 12.0952 28.1133 12.1009C28.5388 12.0851 28.9572 12.2128 29.3009 12.4635V12.4685ZM32.8967 14.5145V16.0155H32.266V12.1542H33.5859C33.9534 12.124 34.3182 12.2377 34.6031 12.4711C34.7181 12.5844 34.8079 12.7207 34.8666 12.871C34.9253 13.0212 34.9517 13.1821 34.9439 13.3432C34.9519 13.5039 34.9249 13.6643 34.8648 13.8136C34.8046 13.9628 34.7127 14.0973 34.5955 14.2078C34.3138 14.434 33.957 14.5463 33.596 14.5221L32.8967 14.5145ZM34.303 13.3356C34.3099 13.2428 34.2969 13.1496 34.2649 13.0622C34.2329 12.9748 34.1826 12.8951 34.1174 12.8286C33.9499 12.6983 33.7389 12.6366 33.5274 12.6562H32.8967V13.9999H33.5376C34.0563 13.9999 34.3157 13.7768 34.3157 13.3306L34.303 13.3356ZM36.0145 15.5287H37.3521V16.0155H35.3838V12.1542H36.0094L36.0145 15.5287ZM40.2283 15.1788H38.5906L38.293 16.0155H37.6217L39.0509 12.2125H39.7731L41.1972 16.0155H40.5258L40.2283 15.1788ZM40.0528 14.6946L39.4094 12.8869L38.766 14.6946H40.0528ZM43.7097 12.1542L42.4178 14.616V16.0231H41.7871V14.6286L40.4902 12.1668H41.2175L42.1075 13.9593L42.9976 12.1668L43.7097 12.1542Z" fill="#0CAD77"/>
</svg>
