<svg width="100" height="40" viewBox="0 0 100 40" fill="none" xmlns="http://www.w3.org/2000/svg">
<g opacity="0.3">
<path d="M8.48608 23.107C8.37721 23.0374 8.39082 22.9261 8.3636 22.8356C7.67015 20.1779 7.97563 17.351 9.21983 14.9123C10.464 12.4736 12.5566 10.6 15.0851 9.66089C17.6135 8.72183 20.3943 8.78547 22.8791 9.83925C25.3639 10.893 27.3724 12.8605 28.5087 15.3537C29.6449 17.8469 29.8264 20.685 29.0174 23.3083C28.2083 25.9315 26.4675 28.1497 24.138 29.5254C21.8086 30.9011 19.0596 31.3345 16.4331 30.7401C13.8066 30.1457 11.4932 28.5667 9.94902 26.3144C9.92426 26.2733 9.89699 26.2338 9.86737 26.1961C9.75169 26.0709 9.78571 25.9596 9.86737 25.8274C10.321 25.1223 10.7565 24.4127 11.1738 23.6984C12.4054 21.6528 13.5894 19.5725 14.6849 17.4365L14.7869 17.2626C14.8067 17.2929 14.82 17.3272 14.8259 17.3632C14.8317 17.3992 14.8301 17.436 14.8209 17.4713C14.8209 18.5636 14.8209 19.656 14.889 20.7483C14.9381 21.9781 15.1091 23.1996 15.3993 24.3941C15.5185 24.837 15.6875 25.2642 15.9028 25.6674C15.99 25.8331 16.0901 25.9913 16.2022 26.1405C16.3569 26.3662 16.5538 26.5584 16.7816 26.7059C17.0093 26.8534 17.2634 26.9534 17.5291 26.9999C17.7948 27.0465 18.0669 27.0388 18.3296 26.9773C18.5924 26.9157 18.8407 26.8016 19.0601 26.6414C19.4463 26.3794 19.7906 26.0578 20.0807 25.6882C20.7653 24.82 21.369 23.8883 21.8839 22.9052C22.4691 21.8407 23.0066 20.7483 23.5101 19.6421L23.6598 19.329C23.7458 19.423 23.8067 19.538 23.8367 19.6629C24.2532 20.6925 24.7901 21.6667 25.4358 22.5643C25.6946 22.9298 25.9862 23.2699 26.3067 23.5801C26.3773 23.6457 26.4524 23.7061 26.5313 23.761C26.5682 23.7933 26.6153 23.8111 26.664 23.8111C26.7126 23.8111 26.7597 23.7933 26.7966 23.761C26.8404 23.7287 26.8714 23.6815 26.8839 23.6278C26.8964 23.5742 26.8896 23.5177 26.8647 23.4688C26.8476 23.4342 26.827 23.4016 26.8034 23.3713C26.1681 22.4818 25.706 21.4755 25.4426 20.4074C25.09 19.1989 24.8619 17.956 24.7621 16.699C24.7592 16.5508 24.7292 16.4045 24.6737 16.2676C24.5986 16.0936 24.4756 15.9457 24.3198 15.8418C24.1639 15.7379 23.9819 15.6826 23.7959 15.6826C23.6099 15.6826 23.4279 15.7379 23.272 15.8418C23.1162 15.9457 22.9932 16.0936 22.9181 16.2676C22.5847 17.019 22.2377 17.7844 21.9315 18.5358C21.2243 20.143 20.4175 21.7023 19.516 23.2044C19.2203 23.6971 18.8833 24.1627 18.5089 24.5959C18.4052 24.7125 18.2938 24.8217 18.1755 24.9229C17.9033 25.1525 17.8149 25.1386 17.6312 24.8394C17.5227 24.6532 17.436 24.4548 17.3726 24.248C17.1744 23.619 17.0398 22.9709 16.9711 22.3138C16.7398 20.1585 16.6806 17.9875 16.7942 15.8223C16.835 14.8204 16.8827 13.8185 17.0052 12.8166C17.0634 12.5368 17.0634 12.2476 17.0052 11.9678C16.9587 11.767 16.8515 11.5863 16.6988 11.4514C16.5461 11.3165 16.3556 11.2343 16.1546 11.2164C15.9585 11.1952 15.7608 11.235 15.5872 11.3306C15.4136 11.4262 15.2722 11.5731 15.1816 11.7521C14.9434 12.2253 14.7325 12.7123 14.5011 13.1854C12.9173 16.2357 11.1564 19.1864 9.22775 22.0216L8.62217 22.9261C8.58134 22.9887 8.53371 23.0443 8.48608 23.107ZM43.5762 16.1006C43.6361 17.1446 43.549 18.192 43.3177 19.2107C43.2366 19.549 43.1273 19.8795 42.991 20.1987C42.7715 20.7547 42.4113 21.241 41.9474 21.6078C41.4835 21.9746 40.9325 22.2087 40.3509 22.286C40.292 22.2899 40.2329 22.2899 40.174 22.286C39.9359 22.286 39.8406 22.4042 39.861 22.6547C39.8814 22.9052 39.861 23.1696 39.861 23.427C39.9223 24.0254 40.1332 24.2202 40.7116 24.241H41.5349C41.8615 24.241 41.95 24.3454 41.95 24.6794C41.95 25.0133 41.8683 25.0899 41.5553 25.0899C41.1271 25.1194 40.6975 25.1194 40.2693 25.0899C40.1049 25.0891 39.9424 25.0544 39.7914 24.9881C39.6404 24.9217 39.504 24.8249 39.3904 24.7035C39.2767 24.5821 39.1882 24.4386 39.1299 24.2814C39.0716 24.1243 39.0449 23.9567 39.0513 23.7888V22.7452C39.0513 22.3973 39.0513 22.3834 38.7043 22.3625C38.3725 22.3404 38.0441 22.2821 37.7245 22.1886C37.2874 22.0686 36.8799 21.8561 36.5282 21.5648C36.1766 21.2736 35.8887 20.9101 35.6832 20.4979C35.3154 19.7689 35.0846 18.976 35.0027 18.1601C34.7882 16.4909 34.8365 14.7973 35.1456 13.1437C35.238 12.6625 35.3888 12.195 35.5947 11.7521C35.8103 11.273 36.1345 10.8533 36.5403 10.5278C36.9462 10.2023 37.4221 9.98042 37.9286 9.88053C38.8417 9.67093 39.7902 9.68285 40.698 9.91532C41.1604 10.0279 41.5929 10.2434 41.9645 10.5465C42.3362 10.8495 42.6379 11.2327 42.8482 11.6686C43.2639 12.574 43.4954 13.5564 43.5286 14.5561C43.6034 15.0709 43.5762 15.5858 43.5762 16.1006ZM42.7121 16.1006C42.7278 15.4033 42.6937 14.7056 42.61 14.0134C42.5383 13.3214 42.3543 12.6466 42.0657 12.0165C41.8971 11.6523 41.6484 11.3328 41.3392 11.083C41.03 10.8331 40.6685 10.6597 40.2829 10.5763C39.5896 10.4066 38.8669 10.4066 38.1735 10.5763C37.8123 10.6601 37.4737 10.8245 37.1819 11.0579C36.8902 11.2913 36.6526 11.5877 36.4861 11.9261C36.2054 12.4925 36.0235 13.1047 35.9485 13.7351C35.7667 15.0609 35.7461 16.4047 35.8873 17.7357C35.9287 18.5542 36.1227 19.3571 36.4588 20.1013C36.6293 20.4527 36.875 20.7603 37.1778 21.0013C37.4805 21.2422 37.8325 21.4102 38.2076 21.4928C38.6679 21.6086 39.1434 21.6485 39.6161 21.6111C40.2471 21.6093 40.859 21.3899 41.3529 20.9884C41.8469 20.5869 42.1939 20.0267 42.3378 19.3985C42.3787 19.2664 42.4127 19.1342 42.4399 19.002C42.6393 18.0584 42.7238 17.0933 42.6917 16.1285L42.7121 16.1006ZM65.9422 17.4295L68.2421 19.5655L70.4127 21.5763C70.5487 21.7015 70.7597 21.8337 70.6712 22.0564C70.5828 22.279 70.3378 22.2025 70.1541 22.2233C70.0139 22.2306 69.8738 22.2056 69.7443 22.1502C69.6148 22.0948 69.499 22.0105 69.4056 21.9033L66.643 19.3359L65.3638 18.1392C65.3005 18.0757 65.2322 18.0175 65.1597 17.9653C65.0644 17.9027 64.9624 17.7913 64.8399 17.8748C64.7174 17.9583 64.7854 18.0696 64.7854 18.174V21.8059C64.7854 22.1329 64.6698 22.2233 64.3363 22.2233C64.0029 22.2233 63.9145 22.1538 63.8941 21.8128V10.4232C63.8941 9.9849 64.1799 9.804 64.5745 9.95707C64.6304 9.97872 64.6788 10.0166 64.7139 10.0661C64.7489 10.1155 64.7691 10.1744 64.7718 10.2354C64.7804 10.3721 64.7804 10.5092 64.7718 10.6459V16.5946C64.7718 16.7407 64.7038 16.9286 64.8399 17.019C64.976 17.1095 65.1461 16.9703 65.2754 16.8799C65.8197 16.4903 66.3028 16.0171 66.8131 15.5788C67.4936 14.9805 68.2216 14.3821 68.9089 13.7559C69.0481 13.6317 69.2122 13.5399 69.3896 13.487C69.5671 13.4342 69.7536 13.4215 69.9364 13.4498C70.0248 13.4498 70.1269 13.4498 70.1677 13.5542C70.2085 13.6585 70.1677 13.7629 70.086 13.8394C70.0061 13.9272 69.9196 14.0086 69.8275 14.0829L66.1531 17.2278L65.9422 17.4295ZM89.0498 18.014H86.5662C86.2192 18.014 86.2124 18.014 86.2464 18.3688C86.2799 18.777 86.3552 19.1804 86.471 19.5725C86.6141 20.1104 86.9167 20.5898 87.337 20.9449C87.7573 21.2999 88.2748 21.5132 88.8185 21.5554C89.6006 21.6245 90.3884 21.5824 91.1592 21.4302L91.3769 21.3954C91.6627 21.3954 91.7716 21.4371 91.8192 21.6459C91.8668 21.8546 91.8192 22.112 91.4926 22.1746C90.4659 22.4146 89.4045 22.4571 88.3626 22.2999C87.6557 22.2227 86.994 21.9074 86.4816 21.4036C85.9692 20.8997 85.6351 20.236 85.532 19.5168C85.2694 18.2859 85.2694 17.0115 85.532 15.7806C85.5946 15.2817 85.7858 14.8088 86.0858 14.4103C86.3859 14.0117 86.7842 13.7019 87.2399 13.5124C88.2746 13.1013 89.4261 13.1238 90.4447 13.575C90.8379 13.7599 91.1777 14.0452 91.4316 14.4035C91.6855 14.7618 91.8447 15.181 91.8941 15.6206C91.9933 16.2951 92.0229 16.9783 91.9825 17.6591C91.9825 17.9514 91.9009 18.014 91.5947 18.0209L89.0498 18.014ZM88.6348 17.3182H90.8054C90.9619 17.3182 91.0979 17.3182 91.0979 17.0956C91.1313 16.5212 91.0598 15.9455 90.887 15.3979C90.7803 15.0817 90.595 14.7993 90.3493 14.5785C90.1035 14.3577 89.8057 14.2061 89.4853 14.1386C89.1531 14.0609 88.8116 14.0328 88.4715 14.0551C88.0536 14.046 87.6436 14.1715 87.2992 14.4137C86.9549 14.6559 86.6937 15.0026 86.5526 15.4049C86.3805 15.8865 86.2729 16.3897 86.2328 16.9008C86.1852 17.2973 86.2328 17.3113 86.5866 17.3182H88.6348ZM50.68 21.5972C50.2745 22.0194 49.7272 22.2681 49.149 22.2929C48.4029 22.4139 47.6428 22.4139 46.8968 22.2929C46.6239 22.2705 46.3582 22.1921 46.1155 22.0625C45.8729 21.9329 45.6582 21.7547 45.4842 21.5386C45.3103 21.3224 45.1807 21.0727 45.103 20.8043C45.0254 20.5358 45.0014 20.2542 45.0324 19.976V13.8881C45.0324 13.4637 45.1344 13.408 45.5087 13.415C45.8829 13.422 45.9033 13.4846 45.9033 13.909V20.0386C45.8843 20.3848 45.9924 20.7258 46.2063 20.9947C46.4203 21.2637 46.7247 21.4413 47.0601 21.4928C47.9016 21.6933 48.7803 21.6597 49.6049 21.3954C49.8642 21.3211 50.097 21.172 50.2756 20.9659C50.4542 20.7599 50.571 20.5056 50.6119 20.2335C50.6764 19.892 50.706 19.5445 50.7004 19.1968V13.8812C50.6931 13.7964 50.7087 13.7112 50.7455 13.6348C50.7822 13.5584 50.8387 13.4938 50.9088 13.4479C50.9789 13.4021 51.06 13.3767 51.1432 13.3745C51.2264 13.3724 51.3086 13.3936 51.3808 13.4359C51.4296 13.4592 51.4704 13.4968 51.4983 13.5438C51.5261 13.5909 51.5397 13.6453 51.5373 13.7003V21.7363C51.5487 21.8224 51.5358 21.9101 51.5004 21.9891C51.4649 22.068 51.4083 22.1351 51.337 22.1825C51.2657 22.2298 51.1828 22.2555 51.0978 22.2566C51.0128 22.2577 50.9293 22.2341 50.8569 22.1886C50.8077 22.1707 50.7644 22.139 50.7319 22.0972C50.6994 22.0554 50.6791 22.0051 50.6732 21.952C50.6936 21.8337 50.6868 21.7154 50.68 21.5972ZM56.1915 17.6591C56.1593 16.8856 56.2536 16.1119 56.4705 15.3701C56.6158 14.7922 56.939 14.2773 57.3923 13.9015C57.8456 13.5256 58.4051 13.3088 58.9881 13.2828C59.673 13.1941 60.3684 13.2534 61.0294 13.4567C62.3903 13.8881 62.6829 14.9735 62.608 16.1146C62.608 16.3442 62.4652 16.4276 62.2066 16.4346C61.948 16.4416 61.8255 16.3581 61.7983 16.1285C61.791 15.9917 61.791 15.8547 61.7983 15.718C61.7993 15.4177 61.7115 15.1241 61.5463 14.8757C61.3812 14.6274 61.1464 14.4359 60.8729 14.3264C60.1612 14.0034 59.3598 13.9515 58.6139 14.1803C58.3861 14.2496 58.1748 14.3663 57.9932 14.5232C57.8117 14.6801 57.6639 14.8737 57.5592 15.0918C57.3356 15.5383 57.1992 16.0252 57.1577 16.5251C57.0262 17.4845 57.0654 18.4603 57.2734 19.4055C57.3826 20.0155 57.6939 20.5684 58.1549 20.9713C58.6158 21.3742 59.1984 21.6026 59.8046 21.618C60.5127 21.6587 61.2229 21.6143 61.9208 21.4858L62.1385 21.4441C62.4447 21.4093 62.5672 21.4858 62.6148 21.7154C62.6625 21.945 62.574 22.1538 62.261 22.2303C62.0008 22.2925 61.7373 22.339 61.4717 22.3695C60.6511 22.4837 59.8182 22.4696 59.0017 22.3277C58.4238 22.2378 57.8833 21.9802 57.4443 21.5855C57.0053 21.1909 56.6862 20.6758 56.5249 20.1013C56.2712 19.3143 56.1582 18.4871 56.1915 17.6591ZM72.9031 18.1531V14.6743C72.9031 14.1734 72.9031 14.2151 72.4404 14.2151H71.7599C71.5558 14.2151 71.3993 14.0968 71.4129 13.8116C71.4265 13.5263 71.4878 13.4707 71.7667 13.4637C72.0457 13.4567 72.3587 13.4637 72.6513 13.4637C72.9439 13.4637 72.9439 13.3802 72.9303 13.1715C72.9167 12.9628 72.9303 12.594 72.9303 12.3087C72.93 12.0214 72.9573 11.7348 73.0119 11.453C73.0445 11.1259 73.1761 10.8174 73.3883 10.5704C73.6006 10.3235 73.8829 10.1504 74.1959 10.0753C74.8676 9.93915 75.5537 9.89238 76.2372 9.9362C76.4686 9.9362 76.5298 10.0962 76.5366 10.298C76.5434 10.4998 76.4617 10.7085 76.244 10.7224C76.0263 10.7363 75.7133 10.7224 75.4479 10.7224C75.1371 10.714 74.827 10.7563 74.5293 10.8476C74.3599 10.8981 74.2071 10.9946 74.0873 11.127C73.9674 11.2593 73.885 11.4225 73.8489 11.5991C73.7571 12.1364 73.7297 12.6831 73.7672 13.2271C73.7672 13.4289 73.9169 13.415 74.053 13.415H75.7813C76.0807 13.415 76.1828 13.5194 76.1896 13.7698C76.1964 14.0203 76.0875 14.1734 75.7881 14.1803H74.1483C73.7672 14.1803 73.7672 14.1803 73.7672 14.5839V21.8894C73.7681 21.9278 73.7616 21.9659 73.7481 22.0017C73.7346 22.0376 73.7142 22.0703 73.6883 22.0981C73.6624 22.1259 73.6314 22.1481 73.5971 22.1637C73.5628 22.1792 73.5258 22.1876 73.4882 22.1886C73.2977 22.1886 73.1004 22.2512 72.9575 22.0633C72.8976 21.9584 72.8759 21.8352 72.8962 21.7154V20.2195C72.9008 19.5377 72.9031 18.8489 72.9031 18.1531ZM81.5242 14.4795C82.1638 13.4567 83.1096 13.2967 84.1099 13.255C84.2865 13.242 84.4639 13.242 84.6406 13.255C84.7767 13.255 84.974 13.2063 85.0352 13.3802C85.0656 13.4818 85.0729 13.5892 85.0563 13.6942C85.0398 13.7991 85 13.8988 84.94 13.9855C84.8583 14.1247 84.7018 14.0899 84.5726 14.076C84.22 14.0323 83.8636 14.0323 83.5111 14.076C82.973 14.0867 82.4598 14.31 82.0792 14.6992C81.6986 15.0883 81.4802 15.613 81.4698 16.1633V21.785C81.4698 21.8963 81.4698 22.1051 81.2724 22.1538C81.0909 22.2263 80.8892 22.2263 80.7077 22.1538C80.6707 22.1281 80.6414 22.0923 80.6234 22.0505C80.6053 22.0086 80.5992 21.9625 80.6056 21.9172V13.8881C80.6056 13.4915 80.7009 13.408 81.0819 13.4359C81.463 13.4637 81.4425 13.5263 81.4698 13.8255C81.4586 14.045 81.4769 14.2651 81.5242 14.4795ZM54.8851 17.8261V21.7294C54.8851 22.1398 54.783 22.2303 54.4224 22.2164C54.0618 22.2025 54.0073 22.112 54.0005 21.7294V14.6048C54.0005 14.2082 54.0005 14.2012 53.6127 14.2012H53.2588C52.9731 14.2012 52.8778 14.0829 52.8846 13.8116C52.8914 13.5402 52.9799 13.4498 53.2724 13.4428H54.47C54.8715 13.4428 54.8579 13.5055 54.8715 13.8464C54.8851 14.1873 54.8715 14.5421 54.8715 14.9318C54.8805 15.8966 54.8851 16.8613 54.8851 17.8261ZM79.0134 17.84V21.6946C79.0134 22.1538 78.8365 22.2999 78.4146 22.2164C78.3412 22.2095 78.2728 22.1752 78.2225 22.12C78.1723 22.0648 78.1438 21.9926 78.1424 21.9172V14.8065C78.1424 14.1108 78.2105 14.2221 77.5913 14.2151H77.3667C77.1218 14.2151 77.0197 14.0899 77.0129 13.8464C77.0061 13.6029 77.115 13.4637 77.3871 13.4567H78.6255C78.9385 13.4567 79.0134 13.5472 79.0202 13.8742V15.871C79.0202 16.539 79.0134 17.1721 79.0134 17.84ZM67.9903 27.9982C68.1672 27.4416 68.3509 26.8849 68.521 26.3283C68.6639 25.883 68.6571 25.897 69.0994 25.897C69.324 25.897 69.4192 25.9735 69.4124 26.2101V28.9166C69.4124 29.0835 69.4124 29.2088 69.1811 29.2157C68.9497 29.2227 68.9361 29.1044 68.9361 28.9305V27.0728C68.9361 26.9615 68.9701 26.8362 68.8885 26.7249C68.766 26.7945 68.766 26.9197 68.732 27.0311C68.5823 27.5042 68.4394 27.9842 68.2829 28.4226C68.2285 28.5965 68.2285 28.8261 67.9495 28.8261C67.6705 28.8261 67.6909 28.6174 67.6297 28.4574C67.446 27.9495 67.2622 27.4346 67.0785 26.9267C67.0377 26.8223 67.0377 26.6901 66.8812 26.5858V28.9722C66.8812 29.0627 66.8063 29.1879 66.6634 29.1879C66.5206 29.1879 66.4389 29.1322 66.4389 28.9792V26.2588C66.4389 25.9248 66.4389 25.9248 66.7519 25.9109C67.1942 25.9109 67.1942 25.9109 67.3439 26.3283C67.4936 26.7458 67.6433 27.212 67.8066 27.6503C67.8134 27.7546 67.8066 27.9286 67.9903 27.9982ZM82.2591 27.9773V27.0728C82.2591 26.7736 82.3543 26.7249 82.5857 26.8084C82.6578 26.8396 82.7353 26.8557 82.8136 26.8557C82.8919 26.8557 82.9694 26.8396 83.0416 26.8084C83.1703 26.7483 83.3133 26.7275 83.4533 26.7485C83.5933 26.7695 83.7244 26.8314 83.8309 26.9267C83.9602 27.038 84.0418 27.0241 84.1643 26.9267C84.2855 26.8242 84.434 26.7614 84.5906 26.7465C84.7472 26.7316 84.9045 26.7653 85.0421 26.8432C85.1713 26.9179 85.2752 27.0313 85.3396 27.1681C85.4041 27.3049 85.4261 27.4586 85.4027 27.6085V28.7844C85.4027 28.9444 85.4843 29.174 85.1917 29.1879C84.8992 29.2018 84.9672 29.1462 84.9604 28.7635C84.9536 28.3808 84.9604 27.9773 84.9604 27.5877C84.9604 27.198 84.8107 27.1354 84.5249 27.1493C84.4649 27.1423 84.404 27.1494 84.3471 27.1702C84.2902 27.1911 84.2387 27.2249 84.1966 27.2693C84.1546 27.3137 84.123 27.3674 84.1044 27.4262C84.0858 27.485 84.0807 27.5474 84.0894 27.6085V28.9235C84.0894 29.0488 84.0894 29.174 83.9261 29.1949C83.7628 29.2157 83.6267 29.1949 83.6267 28.9722V27.6085C83.6267 27.2815 83.5179 27.1702 83.2525 27.1563C83.1901 27.143 83.1256 27.1448 83.0641 27.1616C83.0025 27.1784 82.9457 27.2097 82.898 27.253C82.8504 27.2962 82.8134 27.3503 82.7899 27.4108C82.7663 27.4714 82.757 27.5367 82.7626 27.6016V28.9166C82.7626 29.0348 82.7626 29.1601 82.6129 29.2018C82.4632 29.2436 82.3067 29.2018 82.2999 28.9514C82.2931 28.7009 82.2591 28.2973 82.2591 27.9773ZM50.1765 28.5756L50.435 27.1841C50.435 27.0937 50.435 27.0032 50.4827 26.9197C50.5303 26.8362 50.6732 26.7527 50.8093 26.7806C50.9454 26.8084 50.9249 26.9267 50.9045 27.038L50.6528 28.2834C50.6051 28.5061 50.5507 28.7287 50.5167 28.9792C50.4827 29.2297 50.3194 29.2018 50.156 29.2018C49.9927 29.2018 49.8294 29.2018 49.7886 28.9792C49.7206 28.6383 49.6389 28.2834 49.5573 27.9634C49.5361 27.803 49.4878 27.6476 49.4144 27.5042C49.2579 27.9634 49.1966 28.4226 49.0878 28.8609C48.9789 29.2992 48.9313 29.2366 48.5842 29.2088C48.5244 29.2109 48.4659 29.1899 48.4205 29.1499C48.3751 29.11 48.3461 29.054 48.3393 28.9931C48.21 28.36 48.0807 27.7199 47.9582 27.0867C47.9582 26.9684 47.9106 26.8293 48.0875 26.8084C48.2644 26.7875 48.3665 26.8084 48.4005 27.038C48.4686 27.4555 48.5502 27.8729 48.6251 28.2834C48.6251 28.3669 48.6659 28.4504 48.6931 28.5617C48.87 28.3808 48.8428 28.1651 48.8904 27.9842C48.963 27.7373 49.022 27.4865 49.0673 27.2328C49.1082 27.0102 49.217 26.9406 49.428 26.9406C49.6389 26.9406 49.7682 27.038 49.809 27.2746C49.8907 27.7199 49.9995 28.1582 50.0948 28.5965L50.1765 28.5756ZM79.34 28.2278V29.3619C79.3559 29.4621 79.3501 29.5647 79.3231 29.6624C79.2961 29.7601 79.2485 29.8506 79.1837 29.9275C79.1189 30.0044 79.0383 30.0659 78.9478 30.1076C78.8572 30.1493 78.7589 30.1702 78.6596 30.1689C78.3669 30.2095 78.0695 30.1954 77.7818 30.1272C77.6525 30.1272 77.564 30.0298 77.5777 29.8837C77.5913 29.7376 77.7274 29.7236 77.843 29.7376C78.0456 29.7737 78.2501 29.797 78.4554 29.8071C78.7616 29.8071 78.8977 29.661 78.9045 29.4245C78.9113 29.1879 78.9045 29.181 78.7004 29.2157C78.5249 29.2481 78.3451 29.2481 78.1696 29.2157C78.0031 29.1975 77.8468 29.1246 77.7242 29.0079C77.6015 28.8913 77.5191 28.7372 77.4892 28.5687C77.3918 28.1878 77.3918 27.7877 77.4892 27.4068C77.5142 27.2881 77.563 27.176 77.6325 27.0777C77.702 26.9793 77.7907 26.8968 77.8931 26.8353C77.9954 26.7738 78.1091 26.7347 78.227 26.7205C78.3449 26.7063 78.4644 26.7173 78.5779 26.7527C78.755 26.8103 78.9452 26.8103 79.1223 26.7527C79.2992 26.6901 79.3944 26.8154 79.3876 27.0032V27.0937C79.3559 27.4833 79.34 27.8613 79.34 28.2278ZM78.9113 28.1025V27.692C78.9149 27.648 78.9149 27.6038 78.9113 27.5598C78.8569 27.2746 78.7412 27.1493 78.4894 27.1145C78.3717 27.0904 78.2494 27.1101 78.1446 27.17C78.0397 27.23 77.9594 27.3263 77.9179 27.4415C77.7868 27.7981 77.7868 28.1912 77.9179 28.5478C78.0131 28.8122 78.2853 28.9166 78.5983 28.8539C78.9113 28.7913 78.9045 28.7774 78.9045 28.3669V28.1025H78.9113ZM91.6355 28.3043V29.4384C91.6534 29.5991 91.6105 29.7607 91.5156 29.89C91.4207 30.0194 91.281 30.1068 91.1252 30.1341C90.7786 30.2195 90.4171 30.2195 90.0705 30.1341C89.9412 30.1341 89.8527 30.0437 89.8664 29.8906C89.88 29.7376 90.0092 29.7376 90.1249 29.7445C90.3482 29.7953 90.5766 29.8187 90.8054 29.8141C91.0775 29.7654 91.2 29.6541 91.2136 29.4245C91.2272 29.1949 91.1728 29.1879 91.0095 29.2297C90.821 29.2696 90.6264 29.2696 90.4379 29.2297C90.2771 29.22 90.1237 29.1571 90.0009 29.0504C89.8781 28.9437 89.7927 28.799 89.7575 28.6383C89.6529 28.2418 89.6529 27.8241 89.7575 27.4276C89.7852 27.3021 89.8391 27.1841 89.9154 27.0817C89.9917 26.9793 90.0886 26.8949 90.1996 26.8342C90.3106 26.7734 90.4331 26.7379 90.5588 26.7298C90.6844 26.7218 90.8103 26.7415 90.9278 26.7875C91.0639 26.8362 91.1524 26.9058 91.3225 26.7875C91.4926 26.6693 91.6219 26.7875 91.6355 27.0519V28.3043ZM91.2 28.0816V27.6294C91.2 27.3094 91.0639 27.1563 90.8122 27.1145C90.681 27.0897 90.5455 27.1149 90.4314 27.1855C90.3172 27.256 90.2324 27.3669 90.193 27.4972C90.1156 27.7564 90.0993 28.0305 90.1453 28.2973C90.147 28.3829 90.1667 28.467 90.2032 28.5439C90.2398 28.6209 90.2922 28.6888 90.3569 28.7431C90.4215 28.7973 90.497 28.8366 90.5779 28.8581C90.6589 28.8796 90.7434 28.883 90.8258 28.8679C91.1184 28.8679 91.1728 28.7844 91.1796 28.4852C91.2 28.353 91.2 28.2138 91.2 28.0816ZM43.1067 27.5181V26.2518C43.1067 25.8274 43.1067 25.9109 43.4265 25.9109H44.3995C44.495 25.9001 44.5916 25.91 44.683 25.9401C44.7744 25.9702 44.8585 26.0198 44.9298 26.0855C45.0012 26.1512 45.0581 26.2316 45.0969 26.3214C45.1357 26.4113 45.1554 26.5085 45.1548 26.6066C45.2034 26.8359 45.2034 27.0731 45.1548 27.3024C45.1222 27.4826 45.03 27.6458 44.8938 27.7649C44.7576 27.8839 44.5855 27.9515 44.4064 27.9564H44.1886C43.5082 27.9564 43.6034 27.859 43.5898 28.5965V29.0001C43.5942 29.0297 43.5919 29.06 43.5829 29.0886C43.574 29.1172 43.5587 29.1433 43.5383 29.1648C43.5179 29.1864 43.4929 29.2028 43.4652 29.2128C43.4376 29.2229 43.408 29.2263 43.3789 29.2227C43.2224 29.2227 43.1135 29.1879 43.1135 29.007V27.5598L43.1067 27.5181ZM43.583 26.9128V27.2746C43.583 27.5042 43.6715 27.5668 43.8756 27.5529H44.0525C44.6037 27.5529 44.8418 27.2189 44.733 26.6623C44.6921 26.5092 44.6309 26.3631 44.4812 26.3144C44.229 26.2172 43.9509 26.2172 43.6987 26.3144C43.5218 26.4049 43.6443 26.6762 43.617 26.8641C43.6039 26.8789 43.5925 26.8953 43.583 26.9128ZM60.9138 27.5529V26.1613C60.9138 25.9944 60.9138 25.8622 61.1519 25.8691C61.3901 25.8761 61.3492 25.9944 61.3628 26.1405C61.3969 26.6971 61.4037 26.6971 61.9276 26.704C62.0459 26.6877 62.1663 26.698 62.2803 26.7344C62.3943 26.7707 62.4991 26.8322 62.5873 26.9144C62.6756 26.9967 62.7451 27.0977 62.791 27.2105C62.8369 27.3232 62.8581 27.4448 62.853 27.5668C62.8717 27.7983 62.8717 28.031 62.853 28.2625C62.8584 28.4271 62.8195 28.5901 62.7404 28.7335C62.6613 28.877 62.5451 28.9954 62.4046 29.0759C62.2641 29.1563 62.1046 29.1957 61.9437 29.1897C61.7828 29.1837 61.6265 29.1325 61.4921 29.0418C61.4647 29.0238 61.4328 29.0143 61.4003 29.0143C61.3677 29.0143 61.3358 29.0238 61.3084 29.0418C60.9954 29.1879 60.9138 29.1322 60.9069 28.7983C60.9001 28.4643 60.9138 27.9912 60.9138 27.5529ZM62.4107 27.9634C62.4154 27.873 62.4154 27.7824 62.4107 27.692C62.4068 27.5893 62.3785 27.489 62.3282 27.4C62.2779 27.311 62.2071 27.2358 62.122 27.181C62.0369 27.1262 61.9401 27.0934 61.8398 27.0854C61.7395 27.0775 61.6389 27.0947 61.5466 27.1354C61.4883 27.1456 61.4358 27.1776 61.3993 27.2252C61.3629 27.2728 61.345 27.3325 61.3492 27.3928V28.4365C61.3446 28.5124 61.3631 28.5879 61.402 28.6527C61.441 28.7174 61.4986 28.7683 61.567 28.7983C61.6406 28.8365 61.7215 28.8577 61.804 28.8605C61.8865 28.8632 61.9685 28.8475 62.0444 28.8143C62.1203 28.7811 62.1882 28.7314 62.2432 28.6685C62.2983 28.6056 62.3392 28.5312 62.3631 28.4504C62.4146 28.2937 62.4354 28.1283 62.4243 27.9634H62.4107ZM59.478 27.539V28.9305C59.478 29.2018 59.3283 29.3131 59.1174 29.167C58.9065 29.0209 58.9405 29.1114 58.8316 29.167C58.7067 29.2443 58.5642 29.287 58.4183 29.2911C58.2723 29.2952 58.1278 29.2605 57.9989 29.1904C57.87 29.1203 57.761 29.0172 57.6828 28.8911C57.6045 28.7651 57.5596 28.6204 57.5524 28.4713C57.5202 28.2009 57.5202 27.9276 57.5524 27.6572C57.5602 27.532 57.5921 27.4095 57.6463 27.2969C57.7005 27.1842 57.7759 27.0837 57.8682 27.0009C57.9605 26.9182 58.0679 26.8549 58.1842 26.8147C58.3004 26.7745 58.4234 26.7582 58.5458 26.7667C58.6205 26.7591 58.6957 26.7591 58.7704 26.7667C59.0017 26.8084 59.0562 26.6832 59.0494 26.4814C59.0453 26.4212 59.0453 26.3607 59.0494 26.3005C59.0494 26.1335 58.9813 25.9039 59.2807 25.9248C59.5801 25.9457 59.4848 26.1683 59.4916 26.3283C59.4848 26.7249 59.478 27.1285 59.478 27.539ZM59.0289 27.9355V27.4346C59.0331 27.3827 59.0232 27.3305 59.0004 27.2839C58.9776 27.2373 58.9428 27.198 58.8997 27.1702C58.8251 27.1286 58.743 27.103 58.6584 27.0949C58.5738 27.0868 58.4885 27.0964 58.4077 27.123C58.3268 27.1497 58.2521 27.193 58.1881 27.2501C58.1242 27.3073 58.0722 27.3771 58.0355 27.4555C57.9234 27.801 57.9234 28.1744 58.0355 28.52C58.069 28.6385 58.1452 28.7396 58.2488 28.8029C58.3523 28.8662 58.4755 28.8869 58.5935 28.8609C58.6527 28.8609 58.7114 28.8488 58.7659 28.8252C58.8205 28.8016 58.8699 28.767 58.9111 28.7236C58.9524 28.6801 58.9847 28.6286 59.0061 28.5721C59.0275 28.5156 59.0376 28.4553 59.0357 28.3947C59.0221 28.2417 59.0221 28.0886 59.0221 27.9425L59.0289 27.9355ZM64.139 28.7565C64.2784 28.3979 64.3877 28.0278 64.4656 27.6503C64.5337 27.4207 64.5881 27.1841 64.6494 26.9545C64.7106 26.7249 64.8263 26.7736 64.9692 26.7945C65.112 26.8154 65.0984 26.9754 65.0712 27.0798C64.8489 27.91 64.6221 28.738 64.3908 29.5636C64.3572 29.724 64.2719 29.8682 64.1484 29.9729C64.025 30.0777 63.8707 30.1369 63.7104 30.1411C63.5947 30.1411 63.4586 30.1411 63.4382 29.988C63.4178 29.835 63.4722 29.7515 63.6219 29.7445C63.7271 29.7433 63.8284 29.7039 63.9077 29.6332C63.9849 29.5598 64.0353 29.4616 64.0506 29.3549C64.0506 29.1949 63.9621 29.2018 63.86 29.167C63.758 29.1323 63.724 29.014 63.6967 28.9166L63.166 27.0589C63.166 26.9406 63.0844 26.8084 63.2613 26.7736C63.4382 26.7388 63.5607 26.7736 63.6083 26.9545C63.6899 27.2885 63.7648 27.6503 63.86 27.9634C63.8872 28.2473 63.9831 28.5199 64.139 28.7565ZM80.3947 27.1493H80.1293C80.1073 27.1549 80.0844 27.1551 80.0624 27.1498C80.0403 27.1446 80.0198 27.134 80.0025 27.1191C79.9853 27.1041 79.9717 27.0852 79.963 27.0638C79.9543 27.0425 79.9506 27.0193 79.9524 26.9963C79.9426 26.9518 79.9472 26.9054 79.9657 26.8639C79.9841 26.8225 80.0153 26.7883 80.0545 26.7667C80.4854 26.6508 80.9428 26.7003 81.3405 26.9058C81.4131 26.971 81.4712 27.0513 81.5111 27.1412C81.551 27.2312 81.5717 27.3288 81.5718 27.4276V28.1234C81.5718 28.3321 81.5174 28.6243 81.7351 28.8192C81.9529 29.014 81.7351 29.1044 81.5446 29.1044C81.5003 29.1091 81.4556 29.1041 81.4133 29.0897C81.3711 29.0753 81.3323 29.0519 81.2996 29.0209C81.2112 28.9166 81.1363 28.9305 81.0411 29.0209C80.9269 29.1197 80.7823 29.1739 80.6328 29.174C80.1429 29.2088 79.8707 29.0209 79.8163 28.6174C79.7848 28.5151 79.7768 28.4067 79.793 28.3007C79.8092 28.1947 79.8492 28.0939 79.9099 28.0063C79.9705 27.9188 80.0501 27.8467 80.1424 27.7958C80.2348 27.7449 80.3374 27.7165 80.4423 27.7129C80.5737 27.7051 80.7055 27.7051 80.837 27.7129C80.9594 27.7129 81.0819 27.7129 81.0955 27.539C81.1116 27.4643 81.1021 27.3862 81.0687 27.3179C81.0352 27.2495 80.9799 27.1949 80.9118 27.1632C80.7434 27.1139 80.5654 27.1091 80.3947 27.1493ZM81.1363 28.3878C81.1363 28.2973 81.1363 28.1791 81.0479 28.1164C80.9316 28.0905 80.8114 28.0889 80.6945 28.1116C80.5776 28.1343 80.4663 28.1809 80.3675 28.2486C80.3297 28.2935 80.3028 28.3469 80.289 28.4045C80.2753 28.462 80.275 28.5221 80.2883 28.5797C80.3016 28.6374 80.328 28.691 80.3654 28.7363C80.4028 28.7815 80.4501 28.8171 80.5035 28.84C80.5745 28.8728 80.6526 28.8862 80.7301 28.8788C80.8076 28.8714 80.8819 28.8436 80.9457 28.798C81.0096 28.7523 81.0607 28.6906 81.0941 28.6186C81.1275 28.5467 81.1421 28.4672 81.1363 28.3878ZM56.3004 29.2436C55.62 29.2436 55.307 28.9792 55.2117 28.2973C55.1805 28.0282 55.192 27.7557 55.2457 27.4903C55.2622 27.3736 55.3014 27.2615 55.361 27.1605C55.4205 27.0596 55.4992 26.9718 55.5924 26.9025C55.6856 26.8331 55.7914 26.7835 55.9037 26.7566C56.0159 26.7297 56.1323 26.726 56.246 26.7458C56.3537 26.7439 56.4607 26.7642 56.5606 26.8055C56.6605 26.8468 56.7512 26.9082 56.8274 26.9861C56.9036 27.064 56.9637 27.1568 57.0041 27.259C57.0445 27.3611 57.0643 27.4705 57.0625 27.5807C57.0672 27.6572 57.0672 27.7338 57.0625 27.8103C57.0625 28.1234 57.0625 28.1512 56.7359 28.1582C56.4093 28.1651 56.1779 28.1582 55.8921 28.1582C55.6063 28.1582 55.6268 28.2486 55.6948 28.4434C55.7268 28.553 55.7909 28.6498 55.8786 28.7208C55.9662 28.7917 56.0731 28.8334 56.1847 28.84C56.3607 28.8666 56.5395 28.8666 56.7155 28.84C56.8243 28.84 56.9332 28.7983 56.9604 28.9444C56.9696 28.9736 56.9726 29.0046 56.9692 29.0351C56.9657 29.0656 56.956 29.0951 56.9405 29.1214C56.925 29.1478 56.9042 29.1704 56.8795 29.1879C56.8548 29.2054 56.8267 29.2172 56.7971 29.2227C56.6335 29.2548 56.4661 29.2618 56.3004 29.2436ZM56.1235 27.8103H56.4365C56.593 27.8103 56.6474 27.7268 56.627 27.5807C56.6231 27.4935 56.5966 27.409 56.5503 27.3357C56.5041 27.2624 56.4396 27.2029 56.3636 27.1633C56.2875 27.1237 56.2026 27.1054 56.1174 27.1103C56.0322 27.1152 55.9498 27.1431 55.8785 27.1911C55.8005 27.2482 55.7403 27.3273 55.7053 27.4186C55.6703 27.51 55.6619 27.6098 55.6812 27.7059C55.756 27.8729 55.9125 27.7825 56.035 27.8033L56.1235 27.8103ZM51.3196 27.8868C51.3128 27.7826 51.3128 27.678 51.3196 27.5737C51.3295 27.449 51.3643 27.3276 51.4217 27.2171C51.4792 27.1066 51.5581 27.0093 51.6537 26.9311C51.7493 26.8529 51.8595 26.7955 51.9776 26.7624C52.0956 26.7294 52.219 26.7214 52.3402 26.7388C52.5502 26.737 52.7524 26.82 52.9028 26.9699C53.0532 27.1197 53.1396 27.3243 53.1432 27.539C53.1483 27.6293 53.1483 27.7199 53.1432 27.8103C53.1432 28.1373 53.1432 28.1443 52.8234 28.1512C52.5036 28.1582 52.2926 28.1512 52.0272 28.1512C51.7619 28.1512 51.7142 28.2765 51.8231 28.5061C51.8583 28.5983 51.9187 28.6782 51.9972 28.7362C52.0756 28.7942 52.1687 28.8278 52.2654 28.8331C52.4422 28.8424 52.6193 28.8424 52.7961 28.8331C52.8982 28.8331 53.0139 28.7705 53.0411 28.9305C53.0494 28.9588 53.0521 28.9885 53.0491 29.0179C53.046 29.0473 53.0373 29.0758 53.0233 29.1017C53.0094 29.1276 52.9905 29.1504 52.9679 29.1688C52.9452 29.1872 52.9192 29.2008 52.8914 29.2088C52.7153 29.3052 52.5167 29.3506 52.3172 29.34C52.1177 29.3294 51.9248 29.2632 51.7594 29.1485C51.594 29.0339 51.4625 28.8752 51.3789 28.6896C51.2954 28.504 51.2631 28.2986 51.2856 28.0956C51.2856 28.0956 51.3196 28.0121 51.3196 27.8868ZM52.2178 27.8103H52.5648C52.6669 27.8103 52.7145 27.7477 52.7281 27.6433C52.7383 27.5397 52.7154 27.4354 52.6626 27.3463C52.6098 27.2572 52.5301 27.1881 52.4355 27.1493C52.3411 27.1086 52.2361 27.1016 52.1374 27.1293C52.0386 27.1571 51.9519 27.2181 51.8912 27.3024C51.8421 27.3582 51.8071 27.4254 51.7893 27.4981C51.7716 27.5709 51.7715 27.647 51.7891 27.7199C51.8503 27.8799 52.0204 27.7894 52.1361 27.8173L52.2178 27.8103ZM45.6243 27.9216C45.6135 27.7249 45.6437 27.5281 45.7128 27.3441C45.7842 27.153 45.9144 26.9907 46.0837 26.8815C46.253 26.7724 46.4523 26.7223 46.6518 26.7388C46.8446 26.7344 47.0334 26.7955 47.1885 26.9126C47.3437 27.0298 47.4565 27.1962 47.5091 27.3859C47.6225 27.7622 47.6225 28.1646 47.5091 28.5409C47.4476 28.7416 47.325 28.9171 47.1592 29.0416C46.9933 29.1662 46.7929 29.2333 46.5872 29.2333C46.3814 29.2333 46.181 29.1662 46.0152 29.0416C45.8493 28.9171 45.7267 28.7416 45.6652 28.5409C45.6199 28.3379 45.6061 28.1289 45.6243 27.9216ZM47.1553 27.9216C47.1509 27.7886 47.1372 27.6561 47.1145 27.525C47.0941 27.413 47.0398 27.3104 46.9592 27.2317C46.8786 27.1531 46.7758 27.1023 46.6654 27.0867C46.5469 27.0806 46.4298 27.1158 46.3334 27.1866C46.2369 27.2574 46.1669 27.3595 46.1347 27.4763C46.0182 27.8045 46.0182 28.164 46.1347 28.4921C46.1667 28.5929 46.2313 28.6795 46.3179 28.7377C46.4045 28.7958 46.5078 28.8221 46.611 28.8122C46.7081 28.8131 46.8032 28.7835 46.8835 28.7276C46.9637 28.6716 47.0254 28.5919 47.0601 28.4991C47.1273 28.324 47.1619 28.1376 47.1621 27.9495L47.1553 27.9216ZM87.2807 27.9773V27.0728C87.2807 26.7736 87.4372 26.6832 87.6617 26.871C87.7706 26.9615 87.8114 26.9545 87.9067 26.871C87.9915 26.809 88.0875 26.7648 88.1891 26.7409C88.2907 26.717 88.3959 26.7139 88.4987 26.7319C88.6636 26.7391 88.8193 26.8111 88.9334 26.933C89.0476 27.0549 89.1112 27.2171 89.1111 27.3859V28.9235C89.1111 29.0905 89.043 29.167 88.8729 29.167C88.7028 29.167 88.6484 29.0488 88.6484 28.9026V27.5877C88.6484 27.1493 88.4442 27.0519 88.0768 27.1354C87.8386 27.1911 87.7366 27.3163 87.723 27.6294V28.8957C87.723 29.0001 87.723 29.1114 87.6005 29.1531C87.478 29.1949 87.2943 29.1531 87.2943 28.9583V27.9634L87.2807 27.9773ZM74.924 27.9634C74.9274 27.8118 74.941 27.6607 74.9648 27.5111C75.0132 27.2925 75.1328 27.0972 75.304 26.9573C75.4753 26.8174 75.688 26.7411 75.9072 26.7411C76.1264 26.7411 76.3391 26.8174 76.5103 26.9573C76.6816 27.0972 76.8012 27.2925 76.8496 27.5111C76.9358 27.8487 76.9358 28.2033 76.8496 28.5409C76.7965 28.7586 76.6679 28.9492 76.4877 29.0772C76.3074 29.2052 76.0878 29.2618 75.8698 29.2366C75.646 29.2317 75.4315 29.1446 75.2653 28.9914C75.0992 28.8381 74.9925 28.6288 74.9648 28.4017C74.9308 28.2765 74.9308 28.1373 74.924 27.9634ZM76.4617 27.9634V27.6712C76.4517 27.6108 76.4334 27.5523 76.4073 27.4972C76.3752 27.3871 76.3076 27.2913 76.2154 27.2256C76.1232 27.1598 76.012 27.128 75.8998 27.1353C75.7877 27.1425 75.6812 27.1885 75.5979 27.2656C75.5146 27.3427 75.4593 27.4464 75.4411 27.5598C75.3568 27.867 75.3568 28.1919 75.4411 28.4991C75.4668 28.6113 75.5312 28.7103 75.6224 28.778C75.7135 28.8457 75.8255 28.8776 75.9378 28.8679C76.0423 28.8696 76.1446 28.8367 76.2293 28.7739C76.3139 28.7112 76.3764 28.6221 76.4073 28.52C76.4607 28.3327 76.4769 28.1363 76.4549 27.9425L76.4617 27.9634ZM78.4554 9.74834C78.6792 9.7574 78.8907 9.85565 79.0446 10.0221C79.1984 10.1885 79.2825 10.4099 79.2787 10.6389C79.2618 10.8605 79.1644 11.0675 79.0058 11.2194C78.8472 11.3713 78.6387 11.4571 78.4214 11.4599C78.1976 11.4491 77.9868 11.3491 77.8342 11.1813C77.6816 11.0136 77.5993 10.7914 77.6049 10.5624C77.6187 10.3415 77.7144 10.1343 77.8725 9.98308C78.0305 9.83184 78.239 9.74789 78.4554 9.74834ZM54.2591 11.4599C54.0432 11.4449 53.8403 11.3495 53.6886 11.1918C53.5368 11.0341 53.4469 10.825 53.4358 10.6041C53.4384 10.4878 53.4636 10.3731 53.51 10.2669C53.5564 10.1606 53.6231 10.0649 53.706 9.9852C53.789 9.90554 53.8866 9.84357 53.9933 9.80291C54.0999 9.76224 54.2134 9.74369 54.3271 9.74834C54.4379 9.75099 54.5471 9.7763 54.6482 9.82278C54.7493 9.86926 54.8402 9.93597 54.9157 10.019C54.9912 10.102 55.0496 10.1996 55.0876 10.3061C55.1256 10.4125 55.1423 10.5257 55.1368 10.6389C55.1228 10.8653 55.0236 11.0773 54.8599 11.2304C54.6962 11.3835 54.4808 11.4658 54.2591 11.4599ZM71.27 27.9703C71.2775 27.8046 71.2957 27.6396 71.3244 27.4763C71.3503 27.3381 71.4059 27.2074 71.4873 27.0939C71.5688 26.9804 71.674 26.887 71.7952 26.8203C71.9165 26.7536 72.0507 26.7155 72.1882 26.7086C72.3258 26.7017 72.463 26.7263 72.5901 26.7806C72.6959 26.8136 72.7906 26.8759 72.8639 26.9607C72.9372 27.0454 72.9861 27.1492 73.0051 27.2607C73.0051 27.3998 73.0527 27.5459 72.8758 27.5946C72.6989 27.6433 72.6037 27.5946 72.5764 27.4276C72.5715 27.3821 72.5575 27.338 72.5355 27.298C72.5134 27.2581 72.4837 27.2231 72.4482 27.1952C72.4126 27.1672 72.3719 27.1469 72.3284 27.1355C72.285 27.124 72.2398 27.1216 72.1954 27.1285C72.106 27.1226 72.0172 27.1475 71.9432 27.1992C71.8692 27.2509 71.8143 27.3264 71.7871 27.4137C71.7155 27.6379 71.6946 27.8758 71.7259 28.1095C71.7735 28.6383 72.0253 28.847 72.5492 28.8052H72.7261C72.8282 28.8052 72.9439 28.7496 72.9575 28.9166C72.9691 28.9672 72.9624 29.0205 72.9387 29.0665C72.9149 29.1126 72.8757 29.1483 72.8282 29.167C72.6659 29.2549 72.484 29.2983 72.3004 29.2928C72.1168 29.2873 71.9377 29.2331 71.7807 29.1357C71.6236 29.0382 71.494 28.9008 71.4045 28.7367C71.315 28.5727 71.2687 28.3878 71.27 28.1999V27.9703ZM53.7419 27.9564V27.0519C53.7419 26.7527 53.9121 26.6971 54.1162 26.8641C54.3203 27.0311 54.2523 26.9754 54.3475 26.8641C54.4663 26.7698 54.6123 26.7184 54.7626 26.718C54.8647 26.718 55.0008 26.718 55.0076 26.8362C55.0144 26.9545 55.0076 27.1145 54.8034 27.1354H54.6265C54.2931 27.1772 54.2115 27.2537 54.1978 27.5877C54.1842 27.9216 54.1978 28.4017 54.1978 28.8122C54.1978 28.9166 54.1978 29.0279 54.123 29.1044C54.0826 29.1242 54.0385 29.1344 53.9937 29.1344C53.949 29.1344 53.9048 29.1242 53.8644 29.1044C53.7556 29.1044 53.7488 28.9792 53.7488 28.8887V27.8938L53.7419 27.9564ZM73.5086 27.9773V27.0311C73.5086 26.8571 73.6175 26.7388 73.7468 26.8014C73.9986 26.9336 74.1959 26.8015 74.4272 26.7597C74.6586 26.718 74.7062 26.6901 74.7607 26.871C74.8151 27.0519 74.6722 27.1493 74.4749 27.1772C73.9986 27.2398 73.9645 27.2746 73.9577 27.7686C73.9509 28.2625 73.9577 28.5478 73.9577 28.9444C73.9577 29.1462 73.8693 29.2088 73.6856 29.1949C73.5018 29.181 73.5154 29.0627 73.5154 28.9374V27.9912L73.5086 27.9773ZM86.5594 28.0121V28.8748C86.5594 29.0348 86.5594 29.181 86.3417 29.1879C86.1239 29.1949 86.1171 29.0557 86.1171 28.8887V27.4972C86.1171 27.3441 86.1171 27.198 85.913 27.1632C85.8109 27.1632 85.7905 27.045 85.8041 26.9476C85.8093 26.9026 85.8313 26.8615 85.8656 26.8329C85.8999 26.8044 85.9438 26.7906 85.9879 26.7945H86.2941C86.4778 26.7945 86.5526 26.8849 86.5526 27.0728C86.5594 27.3789 86.5594 27.699 86.5594 28.0121ZM70.6712 27.9982V28.9444C70.6712 29.1183 70.5964 29.1879 70.4263 29.181C70.2562 29.174 70.2289 29.0835 70.2289 28.9444V27.5529C70.2289 27.3789 70.2698 27.1911 70.0112 27.1424C69.9227 27.1424 69.9091 27.0032 69.9295 26.9128C69.939 26.8767 69.9605 26.8451 69.9903 26.8235C70.0201 26.8018 70.0564 26.7916 70.0928 26.7945H70.399C70.576 26.7945 70.6712 26.8641 70.6644 27.0658C70.6644 27.365 70.6712 27.6851 70.6712 27.9982ZM86.6139 26.1335C86.6122 26.2093 86.5825 26.2816 86.5307 26.3359C86.4789 26.3901 86.4089 26.4222 86.3349 26.4257C86.2987 26.4297 86.2621 26.4257 86.2276 26.4142C86.193 26.4027 86.1612 26.3838 86.1342 26.3589C86.1072 26.3339 86.0857 26.3034 86.071 26.2694C86.0564 26.2354 86.0489 26.1985 86.0491 26.1613C86.0442 26.1205 86.048 26.079 86.0602 26.0398C86.0724 26.0005 86.0928 25.9645 86.12 25.9341C86.1471 25.9037 86.1804 25.8796 86.2175 25.8636C86.2546 25.8476 86.2946 25.84 86.3349 25.8413C86.4079 25.8478 86.4762 25.8809 86.5274 25.9345C86.5786 25.9881 86.6093 26.0587 86.6139 26.1335ZM70.4331 25.8413C70.5063 25.8442 70.5762 25.8738 70.6299 25.9249C70.6836 25.976 70.7176 26.0451 70.7257 26.1196C70.7257 26.1604 70.7177 26.2008 70.7022 26.2384C70.6868 26.276 70.6641 26.3101 70.6356 26.3386C70.607 26.3671 70.5732 26.3895 70.5361 26.4045C70.499 26.4194 70.4593 26.4267 70.4195 26.4257C70.3828 26.4258 70.3466 26.4182 70.313 26.4033C70.2794 26.3884 70.2491 26.3665 70.2242 26.339C70.1993 26.3116 70.1802 26.2791 70.1681 26.2438C70.156 26.2084 70.1513 26.1709 70.1541 26.1335C70.1532 26.0955 70.1597 26.0576 70.1733 26.0222C70.187 25.9868 70.2074 25.9545 70.2334 25.9273C70.2594 25.9001 70.2904 25.8784 70.3247 25.8637C70.359 25.8489 70.3959 25.8413 70.4331 25.8413Z" fill="#0CAD77"/>
</g>
</svg>
