<svg width="49" height="13" viewBox="0 0 49 13" fill="none" xmlns="http://www.w3.org/2000/svg">
<path d="M0.443371 3.33817C0.443371 1.98684 1.51653 1.00313 2.9864 1.00313H3.02963C4.49696 1.00313 5.57266 1.98684 5.57266 3.33817C5.56172 3.52207 5.48073 3.69486 5.34625 3.82122C5.21177 3.94757 5.03396 4.01794 4.84917 4.01794C4.66438 4.01794 4.48657 3.94757 4.35209 3.82122C4.21761 3.69486 4.13662 3.52207 4.12568 3.33817C4.12568 2.72716 3.57893 2.44319 3.03218 2.44319H2.98894C2.46254 2.44319 1.8929 2.69673 1.8929 3.33817C1.89157 3.52872 1.81505 3.71109 1.67989 3.84584C1.54474 3.98058 1.36181 4.05686 1.17068 4.05819C1.07513 4.05989 0.980206 4.04247 0.891528 4.00695C0.80285 3.97144 0.72222 3.91854 0.654408 3.85141C0.586595 3.78427 0.532981 3.70426 0.496733 3.6161C0.460485 3.52795 0.442335 3.43344 0.443371 3.33817ZM5.56758 8.53557C5.57343 8.43726 5.55905 8.33878 5.52533 8.2462C5.49162 8.15363 5.43927 8.06888 5.37152 7.99721C5.30376 7.92553 5.22202 7.86842 5.13132 7.82939C5.04062 7.79035 4.94288 7.77023 4.84408 7.77023C4.74529 7.77023 4.64754 7.79035 4.55684 7.82939C4.46614 7.86842 4.3844 7.92553 4.31664 7.99721C4.24889 8.06888 4.19654 8.15363 4.16283 8.2462C4.12911 8.33878 4.11474 8.43726 4.12059 8.53557C4.12059 9.14659 3.57384 9.43054 3.02709 9.43054H2.98386C2.45745 9.43054 1.88782 9.17701 1.88782 8.53557C1.88782 8.34461 1.81172 8.16147 1.67628 8.02644C1.54084 7.89141 1.35714 7.81554 1.1656 7.81554C0.974053 7.81554 0.790347 7.89141 0.654904 8.02644C0.519462 8.16147 0.443371 8.34461 0.443371 8.53557C0.443371 9.8869 1.51653 10.8706 2.9864 10.8706H3.02963C3.22014 10.8662 3.41028 10.8518 3.59927 10.8275L4.23249 12.0698C4.36472 12.3233 4.75889 12.3766 5.10983 12.1788C5.46076 12.0064 5.65658 11.6566 5.52434 11.4182L4.89113 10.1734C5.10886 9.95999 5.28103 9.70489 5.39728 9.42342C5.51353 9.14195 5.57146 8.83995 5.56758 8.53557ZM1.88782 7.83582V4.05819C1.7949 4.15587 1.68285 4.2335 1.55862 4.28627C1.43439 4.33903 1.30063 4.36583 1.1656 4.36497C1.03027 4.36786 0.895878 4.34201 0.771354 4.28911C0.646829 4.23622 0.535021 4.15749 0.443371 4.05819V7.86117C0.536291 7.76349 0.648336 7.68586 0.772564 7.63309C0.896793 7.58033 1.03057 7.55355 1.1656 7.55441C1.29916 7.54713 1.43273 7.56849 1.55732 7.61703C1.6819 7.66558 1.7946 7.74018 1.88782 7.83582ZM4.10024 4.03284V7.83582C4.19373 7.7389 4.3059 7.66178 4.43 7.60911C4.5541 7.55644 4.68758 7.52928 4.82246 7.52928C4.95734 7.52928 5.09084 7.55644 5.21494 7.60911C5.33904 7.66178 5.4512 7.7389 5.54469 7.83582V4.05819C5.45168 4.15575 5.33961 4.23331 5.2154 4.28607C5.0912 4.33882 4.95747 4.36568 4.82246 4.36497C4.68625 4.36146 4.55213 4.3307 4.42806 4.27452C4.304 4.21834 4.19252 4.13787 4.10024 4.0379V4.03284ZM16.8001 4.05313C16.9911 4.05115 17.1736 3.97465 17.3086 3.84005C17.4436 3.70544 17.5204 3.52344 17.5223 3.33309C17.5223 2.72208 18.0691 2.43812 18.6158 2.43812H18.6591C19.1855 2.43812 19.7551 2.69166 19.7551 3.33309C19.7551 3.52406 19.8312 3.7072 19.9667 3.84223C20.1021 3.97726 20.2858 4.05313 20.4773 4.05313C20.6689 4.05313 20.8526 3.97726 20.988 3.84223C21.1235 3.7072 21.1996 3.52406 21.1996 3.33309C21.1996 1.98177 20.1264 0.998056 18.6565 0.998056H18.6133C17.146 0.998056 16.0703 1.98177 16.0703 3.33309C16.0685 3.429 16.0863 3.52427 16.1223 3.61319C16.1584 3.70212 16.2122 3.78286 16.2803 3.85057C16.3485 3.91828 16.4297 3.97157 16.519 4.00725C16.6083 4.04293 16.7039 4.06025 16.8001 4.05819V4.05313ZM20.4545 7.80794C20.2631 7.80993 20.0802 7.88677 19.9451 8.02192C19.81 8.15707 19.7336 8.33971 19.7322 8.5305C19.7322 9.14151 19.1855 9.42546 18.6387 9.42546H18.5955C18.0691 9.42546 17.4995 9.17194 17.4995 8.5305C17.4995 8.33954 17.4234 8.15639 17.2879 8.02136C17.1525 7.88633 16.9688 7.81046 16.7772 7.81046C16.5857 7.81046 16.402 7.88633 16.2665 8.02136C16.1311 8.15639 16.055 8.33954 16.055 8.5305C16.055 9.88183 17.1282 10.8655 18.598 10.8655H18.6413C20.1086 10.8655 21.1843 9.88183 21.1843 8.5305C21.1847 8.43532 21.1659 8.34103 21.1293 8.25315C21.0926 8.16528 21.0387 8.08559 20.9707 8.01876C20.9027 7.95193 20.822 7.8993 20.7334 7.86397C20.6447 7.82864 20.5499 7.81131 20.4545 7.813V7.80794ZM17.5223 7.83075V4.05313C17.4291 4.15045 17.317 4.22783 17.1929 4.28057C17.0687 4.33331 16.9351 4.3603 16.8001 4.35989C16.6644 4.36282 16.5296 4.337 16.4047 4.28412C16.2798 4.23123 16.1675 4.1525 16.0754 4.05313V7.85611C16.1689 7.7586 16.2815 7.6811 16.4061 7.62836C16.5307 7.57562 16.6648 7.54873 16.8001 7.54933C16.9338 7.5451 17.0669 7.56835 17.1911 7.61764C17.3154 7.66692 17.4281 7.7412 17.5223 7.83582V7.83075ZM28.7981 4.05313C28.9893 4.0518 29.1722 3.9755 29.3073 3.84076C29.4425 3.70601 29.519 3.52365 29.5203 3.33309C29.5203 2.72208 30.0671 2.43812 30.6138 2.43812H30.6596C31.1835 2.43812 31.7531 2.69166 31.7531 3.33309C31.7531 3.52406 31.8292 3.7072 31.9647 3.84223C32.1001 3.97726 32.2838 4.05313 32.4753 4.05313C32.6669 4.05313 32.8506 3.97726 32.986 3.84223C33.1215 3.7072 33.1976 3.52406 33.1976 3.33309C33.1976 1.98177 32.1244 0.998056 30.6545 0.998056H30.5884C29.1211 0.998056 28.0454 1.98177 28.0454 3.33309C28.0442 3.43079 28.0631 3.5277 28.1009 3.61787C28.1386 3.70803 28.1945 3.78955 28.2649 3.85744C28.3354 3.92533 28.4191 3.97816 28.5107 4.01268C28.6024 4.0472 28.7002 4.06268 28.7981 4.05819V4.05313ZM29.3449 4.33708C29.2247 4.4108 29.0896 4.45699 28.9493 4.47233C28.809 4.48768 28.667 4.47179 28.5337 4.42581L31.4022 8.33274C31.4225 8.19231 31.4722 8.0577 31.548 7.9376C31.6237 7.8175 31.724 7.71459 31.8421 7.63552C31.9583 7.56239 32.0896 7.51642 32.2261 7.50105C32.3626 7.48568 32.5009 7.50132 32.6305 7.54679L29.7619 3.68804C29.7432 3.8204 29.6963 3.94723 29.6243 4.06005C29.5524 4.17286 29.4571 4.26903 29.3449 4.34214V4.33708ZM32.4575 7.813C32.2662 7.81499 32.0833 7.89184 31.9482 8.02699C31.8131 8.16214 31.7366 8.34478 31.7353 8.53557C31.7353 9.14659 31.186 9.43054 30.6393 9.43054H30.596C30.0696 9.43054 29.5 9.17701 29.5 8.53557C29.5 8.34461 29.4239 8.16147 29.2885 8.02644C29.153 7.89141 28.9693 7.81554 28.7778 7.81554C28.5862 7.81554 28.4025 7.89141 28.2671 8.02644C28.1317 8.16147 28.0556 8.34461 28.0556 8.53557C28.0556 9.8869 29.1287 10.8706 30.5986 10.8706H30.6418C32.1091 10.8706 33.1848 9.8869 33.1848 8.53557C33.1835 8.34391 33.1064 8.16051 32.9702 8.02522C32.834 7.88992 32.6498 7.81366 32.4575 7.813ZM11.2182 7.813C11.0268 7.81499 10.8439 7.89184 10.7088 8.02699C10.5737 8.16214 10.4973 8.34478 10.496 8.53557C10.496 9.14659 9.94921 9.43054 9.39991 9.43054H9.35668C8.83028 9.43054 8.26318 9.17701 8.26318 8.53557C8.26903 8.43726 8.25466 8.33878 8.22094 8.2462C8.18723 8.15363 8.13488 8.06888 8.06713 7.99721C7.99937 7.92553 7.91763 7.86842 7.82693 7.82939C7.73623 7.79035 7.63849 7.77023 7.53969 7.77023C7.4409 7.77023 7.34315 7.79035 7.25245 7.82939C7.16175 7.86842 7.08001 7.92553 7.01225 7.99721C6.9445 8.06888 6.89215 8.15363 6.85844 8.2462C6.82472 8.33878 6.81035 8.43726 6.8162 8.53557C6.8162 9.8869 7.88936 10.8706 9.35923 10.8706H9.40246C10.8698 10.8706 11.9455 9.8869 11.9455 8.53557C11.9441 8.34347 11.8667 8.1597 11.7299 8.02433C11.5932 7.88897 11.4083 7.81299 11.2156 7.813H11.2182ZM11.2182 1.00313C11.027 1.00446 10.8441 1.08074 10.709 1.21549C10.5738 1.35023 10.4973 1.53262 10.496 1.72317V7.79273C10.5895 7.6958 10.7016 7.61869 10.8257 7.56601C10.9498 7.51334 11.0833 7.48618 11.2182 7.48618C11.3531 7.48618 11.4865 7.51334 11.6106 7.56601C11.7347 7.61869 11.8469 7.6958 11.9404 7.79273V1.74598C11.9421 1.64967 11.9246 1.55398 11.8891 1.46442C11.8535 1.37486 11.8005 1.2932 11.7331 1.22415C11.6657 1.1551 11.5853 1.10002 11.4965 1.06209C11.4077 1.02416 11.3123 1.00412 11.2156 1.00313H11.2182ZM8.28353 7.79273V1.74598C8.28353 1.55501 8.20744 1.37187 8.07199 1.23684C7.93655 1.10181 7.75285 1.02596 7.56131 1.02596C7.36976 1.02596 7.18607 1.10181 7.05062 1.23684C6.91518 1.37187 6.83909 1.55501 6.83909 1.74598V7.813C6.9325 7.71613 7.04469 7.63922 7.16885 7.58692C7.293 7.53462 7.42653 7.50802 7.56131 7.50876C7.82936 7.50517 8.08799 7.60723 8.28098 7.79273H8.28353ZM14.7428 4.45116V1.74598C14.7428 1.55501 14.6667 1.37187 14.5313 1.23684C14.3958 1.10181 14.2121 1.02596 14.0206 1.02596C13.8291 1.02596 13.6454 1.10181 13.5099 1.23684C13.3745 1.37187 13.2984 1.55501 13.2984 1.74598V7.52904V10.1506C13.2997 10.3411 13.3762 10.5235 13.5114 10.6582C13.6465 10.793 13.8295 10.8693 14.0206 10.8706C14.2117 10.8693 14.3947 10.793 14.5298 10.6582C14.665 10.5235 14.7415 10.3411 14.7428 10.1506V7.44285V4.45116ZM41.6989 4.45116V1.74598C41.6989 1.55501 41.6228 1.37187 41.4874 1.23684C41.3519 1.10181 41.1682 1.02596 40.9767 1.02596C40.7851 1.02596 40.6014 1.10181 40.466 1.23684C40.3306 1.37187 40.2545 1.55501 40.2545 1.74598V7.52904V10.1506C40.2558 10.3411 40.3323 10.5235 40.4675 10.6582C40.6026 10.793 40.7855 10.8693 40.9767 10.8706C41.1678 10.8693 41.3507 10.793 41.4859 10.6582C41.621 10.5235 41.6976 10.3411 41.6989 10.1506V7.44285V4.45116ZM44.3258 5.52107L44.0359 4.93288L43.6875 4.21284L42.8839 2.59784V7.52904V10.1506C42.8853 10.3411 42.9618 10.5235 43.097 10.6582C43.2321 10.793 43.415 10.8693 43.6062 10.8706C43.7973 10.8693 43.9802 10.793 44.1154 10.6582C44.2505 10.5235 44.3271 10.3411 44.3284 10.1506V7.44285V5.52107H44.3258ZM47.0418 7.09298L45.5745 4.14694L45.2235 3.44718L44.2394 1.48485C44.2034 1.3902 44.1481 1.30403 44.0769 1.23183C44.0058 1.15963 43.9204 1.10296 43.8261 1.06543C43.7318 1.0279 43.6307 1.01032 43.5293 1.01381C43.4278 1.0173 43.3282 1.04178 43.2367 1.0857C43.1452 1.12962 43.0639 1.19202 42.9979 1.26893C42.9319 1.34585 42.8827 1.4356 42.8534 1.53249C42.824 1.62939 42.8152 1.73131 42.8275 1.83178C42.8397 1.93226 42.8728 2.02909 42.9246 2.11614L43.8884 4.08101L44.2394 4.80104L45.7499 7.84342L47.0418 10.4421C47.0818 10.5353 47.1401 10.6195 47.2132 10.6899C47.2863 10.7603 47.3727 10.8154 47.4675 10.852C47.5622 10.8886 47.6634 10.906 47.7649 10.9031C47.8665 10.9002 47.9665 10.8771 48.059 10.8351C48.2321 10.7387 48.3607 10.579 48.4176 10.3897C48.4746 10.2004 48.4554 9.99642 48.3642 9.82098L47.0418 7.09298ZM48.4786 7.44285V1.74598C48.4786 1.55501 48.4025 1.37187 48.2671 1.23684C48.1316 1.10181 47.9479 1.02596 47.7564 1.02596C47.5648 1.02596 47.3811 1.10181 47.2457 1.23684C47.1103 1.37187 47.0342 1.55501 47.0342 1.74598V6.43886L47.2885 6.98396L48.471 9.36461V7.44285H48.4786ZM23.4298 4.9988L22.2041 6.78874C22.0082 7.04227 22.1379 7.46566 22.4584 7.6837C22.5953 7.79247 22.7683 7.84606 22.943 7.83386C23.1177 7.82165 23.2814 7.74455 23.4018 7.61779L24.6733 5.78474L26.0745 3.75649L26.4255 3.27731L27.3664 1.92345C27.5648 1.66992 27.4325 1.24652 27.1121 1.02848C26.9758 0.919305 26.8031 0.86546 26.6287 0.877681C26.4542 0.889901 26.2909 0.96729 26.1712 1.0944L25.2277 2.44573L24.8793 2.95279L23.4323 5.0064L23.4298 4.9988ZM26.6722 8.42402L25.7287 6.59097L25.51 6.15491L25.1819 5.52107L24.9276 5.91405L24.2715 6.87493L24.4673 7.24763L25.4312 9.14658L26.2627 10.7616C26.395 10.9999 26.7891 11.0658 27.1375 10.8706C27.4885 10.6957 27.6868 10.3458 27.5546 10.11L26.6722 8.42402ZM23.5391 4.32187V1.68006C23.5391 1.48909 23.4631 1.30595 23.3276 1.17092C23.1922 1.03589 23.0085 0.960035 22.8169 0.960035C22.6254 0.960035 22.4417 1.03589 22.3062 1.17092C22.1708 1.30595 22.0947 1.48909 22.0947 1.68006V6.39576L23.1908 4.82386L23.5391 4.32187ZM22.2931 7.92202C22.2269 7.87892 22.1608 7.813 22.0947 7.7699V10.1277C22.096 10.3183 22.1726 10.5007 22.3077 10.6354C22.4429 10.7702 22.6258 10.8465 22.8169 10.8478C23.0081 10.8465 23.191 10.7702 23.3261 10.6354C23.4613 10.5007 23.5378 10.3183 23.5391 10.1277V7.87892C23.4586 7.96477 23.3602 8.03196 23.2508 8.07577C23.1414 8.11958 23.0237 8.13893 22.9059 8.13245C22.6844 8.11677 22.4706 8.04428 22.2854 7.92202H22.2931ZM37.3783 0.93721L36.3916 0.916924H34.8378C34.7461 0.920505 34.6561 0.942951 34.5735 0.982829C34.4909 1.02271 34.4175 1.07916 34.3578 1.14867C34.2981 1.21817 34.2534 1.29923 34.2266 1.38674C34.1999 1.47426 34.1915 1.56636 34.2021 1.65725C34.2021 2.11614 34.4869 2.4001 34.8378 2.4001H37.2257C37.7343 2.4432 37.9683 3.14294 37.9683 3.75395V3.79706C37.9683 4.40807 37.7496 5.19402 37.2257 5.23712H34.8378C34.4869 5.23712 34.2021 5.52107 34.2021 5.97997C34.2021 6.43886 34.4869 6.72281 34.8378 6.72281H37.3986V6.7076C38.4718 6.55548 39.2398 5.37655 39.2398 3.78437V3.73874C39.2195 2.18205 38.454 1.09187 37.3808 0.93721H37.3783ZM35.649 7.04987H34.8378C34.72 7.05422 34.6025 7.03391 34.493 6.99024C34.3835 6.94658 34.2844 6.88052 34.2021 6.79633V7.51637V10.1354C34.204 10.3261 34.2811 10.5085 34.4167 10.6432C34.5522 10.7779 34.7354 10.8541 34.9268 10.8554C35.118 10.8541 35.3009 10.7778 35.436 10.643C35.5712 10.5083 35.6477 10.3259 35.649 10.1354V7.44285V7.04987ZM35.649 4.97597V2.70686H34.8378C34.72 2.71105 34.6026 2.69068 34.4931 2.64702C34.3836 2.60336 34.2845 2.53738 34.2021 2.45333V5.24218C34.3722 5.07748 34.6007 4.98637 34.8378 4.98865L35.649 4.97597Z" fill="#0CAD77"/>
</svg>
