<svg width="38" height="36" viewBox="0 0 38 36" fill="none" xmlns="http://www.w3.org/2000/svg">
<path d="M19.8141 9.61554C20.0403 9.31573 20.0039 8.67981 19.9717 8.11885C19.9705 8.09467 19.9691 8.07103 19.9678 8.04701C19.6507 8.01673 19.3297 8 19.0049 8C17.7601 8 16.569 8.22932 15.4697 8.64504C16.2539 9.02189 17.4678 9.67053 18.817 10.6289C19.2774 10.2328 19.6246 9.86704 19.8141 9.61554Z" fill="url(#paint0_linear_595_4256)"/>
<path d="M24.8808 15.3215C24.3879 15.3772 23.9722 15.4581 23.6167 15.5715C25.3161 18.5386 25.9787 22.2872 26.1408 25.0029C27.8244 23.2875 28.8936 20.9685 28.9947 18.3998C27.8347 16.9739 26.2979 15.1608 24.8808 15.3215Z" fill="url(#paint1_linear_595_4256)"/>
<path d="M14.778 12.7606C15.972 12.5122 17.0938 11.9112 17.9883 11.2768C16.1223 9.99168 14.566 9.32471 14.2564 9.19775C12.3205 10.2443 10.7714 11.9117 9.87012 13.932C11.0415 13.4653 12.3102 13.2278 13.5563 12.9965C13.9594 12.9216 14.3761 12.8442 14.778 12.7606Z" fill="url(#paint2_linear_595_4256)"/>
<path d="M21.6899 13.0512C21.7965 13.1583 21.9028 13.2672 22.0084 13.3782C22.3979 13.7872 22.7514 14.2344 23.0755 14.7076C23.5475 14.5294 24.1032 14.403 24.7683 14.3278C26.3356 14.1505 27.7292 15.3921 28.9253 16.7589C28.6688 14.6868 27.7802 12.8115 26.456 11.3325C25.7332 11.4196 24.9274 11.5672 24.1062 11.8123C23.5674 11.9732 22.7094 12.4104 21.6899 13.0512Z" fill="url(#paint3_linear_595_4256)"/>
<path d="M20.3744 18.2153C20.7846 16.8261 21.2596 15.8246 22.1801 15.1746C21.9039 14.778 21.6066 14.4058 21.2846 14.0677C21.1356 13.9113 20.9849 13.7602 20.8337 13.6118C17.1407 16.1254 12.0821 20.7429 11.6221 24.7437C13.1575 26.4237 15.2589 27.5758 17.6245 27.9026C18.4859 26.1878 19.2966 22.7016 19.7785 20.6282C20.01 19.6323 20.2098 18.7725 20.3744 18.2153Z" fill="url(#paint4_linear_595_4256)"/>
<path d="M16.187 16.0125C17.4746 14.826 18.8344 13.762 20.0781 12.9069C19.6636 12.5401 19.2477 12.202 18.8395 11.8919C17.8065 12.6684 16.454 13.4333 14.9817 13.7395C14.5695 13.8253 14.1473 13.9037 13.7391 13.9795C12.1665 14.2715 10.6569 14.5543 9.38734 15.2627C9.1401 16.1329 9.00488 17.0505 9.00488 18C9.00488 20.1241 9.66923 22.0921 10.7985 23.7116C11.53 20.8151 14.0393 17.9915 16.187 16.0125Z" fill="url(#paint5_linear_595_4256)"/>
<path d="M20.9395 12.3356C22.1292 11.5772 23.1549 11.0527 23.8203 10.8541C24.4179 10.6756 25.0041 10.5457 25.5592 10.4509C24.2765 9.33618 22.7085 8.54172 20.9775 8.19543C21.0159 8.89382 21.0326 9.66058 20.6125 10.2177C20.4128 10.4822 20.0752 10.845 19.6357 11.2386C20.0661 11.5736 20.5034 11.9389 20.9395 12.3356Z" fill="url(#paint6_linear_595_4256)"/>
<path d="M21.3334 18.4989C21.1773 19.0278 20.9803 19.8746 20.7525 20.855C20.0797 23.7498 19.4359 26.3401 18.6841 27.992C18.7908 27.9954 18.8975 28.0001 19.0051 28.0001C21.3356 28.0001 23.4781 27.2007 25.1783 25.8642C25.1112 23.0224 24.4299 19.0027 22.7138 16.0187C22.0482 16.5134 21.6899 17.2916 21.3334 18.4989Z" fill="url(#paint7_linear_595_4256)"/>
<defs>
<linearGradient id="paint0_linear_595_4256" x1="15.4697" y1="8" x2="17.7533" y2="11.9314" gradientUnits="userSpaceOnUse">
<stop stop-color="#4EFFC3"/>
<stop offset="1" stop-color="#25CE76"/>
</linearGradient>
<linearGradient id="paint1_linear_595_4256" x1="23.6167" y1="15.3115" x2="31.8403" y2="19.875" gradientUnits="userSpaceOnUse">
<stop stop-color="#4EFFC3"/>
<stop offset="1" stop-color="#25CE76"/>
</linearGradient>
<linearGradient id="paint2_linear_595_4256" x1="9.87012" y1="9.19775" x2="13.9905" y2="16.2634" gradientUnits="userSpaceOnUse">
<stop stop-color="#4EFFC3"/>
<stop offset="1" stop-color="#25CE76"/>
</linearGradient>
<linearGradient id="paint3_linear_595_4256" x1="21.6899" y1="11.3325" x2="26.8992" y2="18.2785" gradientUnits="userSpaceOnUse">
<stop stop-color="#4EFFC3"/>
<stop offset="1" stop-color="#25CE76"/>
</linearGradient>
<linearGradient id="paint4_linear_595_4256" x1="11.6221" y1="13.6118" x2="25.2821" y2="23.7038" gradientUnits="userSpaceOnUse">
<stop stop-color="#4EFFC3"/>
<stop offset="1" stop-color="#25CE76"/>
</linearGradient>
<linearGradient id="paint5_linear_595_4256" x1="9.00488" y1="11.8919" x2="20.7995" y2="22.9416" gradientUnits="userSpaceOnUse">
<stop stop-color="#4EFFC3"/>
<stop offset="1" stop-color="#25CE76"/>
</linearGradient>
<linearGradient id="paint6_linear_595_4256" x1="19.6357" y1="8.19543" x2="23.5238" y2="13.7582" gradientUnits="userSpaceOnUse">
<stop stop-color="#4EFFC3"/>
<stop offset="1" stop-color="#25CE76"/>
</linearGradient>
<linearGradient id="paint7_linear_595_4256" x1="18.6841" y1="16.0187" x2="28.7231" y2="21.4601" gradientUnits="userSpaceOnUse">
<stop stop-color="#4EFFC3"/>
<stop offset="1" stop-color="#25CE76"/>
</linearGradient>
</defs>
</svg>
