<svg width="106" height="32" viewBox="0 0 106 32" fill="none" xmlns="http://www.w3.org/2000/svg">
<g clip-path="url(#clip0_597_4274)">
<path d="M18.76 20.0933C18.76 21.8695 18.1894 23.2521 17.0517 24.2543C15.914 25.2399 14.3299 25.7262 12.2995 25.7262C11.447 25.7262 10.645 25.6369 9.88647 25.4351C9.12463 25.23 8.47358 24.9522 7.92651 24.5751V20.3711C8.57088 20.7978 9.31929 21.1451 10.1583 21.4362C10.9973 21.7206 11.7592 21.8695 12.4371 21.8695C13.011 21.8695 13.4439 21.7471 13.7393 21.5023C14.0312 21.2576 14.1789 20.8937 14.1789 20.4439C14.1789 20.2355 14.1319 20.0238 14.0413 19.8353C13.944 19.6401 13.8131 19.4516 13.6453 19.2664C13.4741 19.0712 13.0177 18.6578 12.276 18.0227C11.3699 17.2653 10.7121 16.4946 10.3026 15.714C9.89321 14.9268 9.68847 14.0668 9.68847 13.1274C9.68847 12.0756 9.94019 11.1296 10.447 10.2928C10.9537 9.45595 11.6686 8.81099 12.5948 8.34461C13.5178 7.88152 14.5514 7.65332 15.6992 7.65332C17.5451 7.65332 19.2063 8.0833 20.683 8.9466L19.1124 12.5188C17.7901 11.8077 16.6658 11.4604 15.7395 11.4604C15.2462 11.4604 14.8636 11.5729 14.5951 11.7978C14.3333 12.0194 14.1991 12.3469 14.1991 12.7768C14.1991 13.1704 14.3299 13.5376 14.5884 13.8783C14.8468 14.2222 15.3401 14.6754 16.065 15.2443C16.9746 15.9422 17.6525 16.6831 18.0921 17.4472C18.5385 18.2146 18.76 19.0911 18.76 20.0933Z" fill="#0C483C"/>
<path d="M26.7609 25.4922H22.2269L24.9722 11.7854H21.2972L22.096 7.89893H34.0169L33.198 11.7854H29.5096L26.7609 25.4922Z" fill="#0C483C"/>
<path d="M32.0032 25.4923L35.5842 7.90234H40.1887L36.6044 25.4923H32.0032Z" fill="#0C483C"/>
<path d="M49.3408 11.5501C48.5015 11.5501 47.7467 11.861 47.0752 12.4829C46.4043 13.108 45.8775 13.9713 45.4916 15.0694C45.109 16.1708 44.9177 17.3583 44.9177 18.645C44.9177 19.7233 45.132 20.5237 45.565 21.0595C45.9981 21.5755 46.6192 21.8401 47.431 21.8401C48.0652 21.8401 48.7268 21.7707 49.3775 21.6086C50.0386 21.4333 50.811 21.1488 51.6935 20.7619V24.6582C50.123 25.3826 48.4177 25.7233 46.589 25.7233C44.5816 25.7233 43.0248 25.1279 41.9472 23.9537C40.8634 22.7663 40.3263 21.0827 40.3263 18.8997C40.3263 16.7596 40.7156 14.8048 41.5042 13.0253C42.2865 11.2458 43.357 9.90956 44.7028 8.99665C46.0518 8.09037 47.5954 7.63721 49.3375 7.63721C51.3849 7.63721 53.2437 8.16312 54.9151 9.22156L53.2004 12.8831C52.4823 12.4432 51.8207 12.119 51.2166 11.8908C50.6125 11.6593 49.992 11.5501 49.3408 11.5501Z" fill="#0C483C"/>
<path d="M67.6352 13.1714C67.6352 15.1923 66.9774 16.7866 65.6481 17.9278C64.3194 19.0821 62.5033 19.651 60.201 19.651H59.2044L58.0396 25.4923H53.5024L57.0798 7.90234H61.4059C63.4132 7.90234 64.9536 8.3588 66.0137 9.26837C67.1046 10.178 67.6352 11.4812 67.6352 13.1714ZM60.0201 15.8042H60.7552C61.4563 15.8042 62.0269 15.576 62.46 15.0997C62.893 14.6301 63.1074 14.0413 63.1074 13.3136C63.1074 12.8406 62.9632 12.4603 62.688 12.1692C62.4128 11.8814 62.0335 11.7359 61.5402 11.7359H60.8522L60.0201 15.8042Z" fill="#0C483C"/>
<path d="M76.9316 22.1979H71.7328L70.2796 25.4923H65.5813L74.1995 7.90234H80.0325L81.4556 25.4923H77.0456L76.9316 22.1979ZM73.391 18.4437H76.7869L76.5857 13.3434L76.5654 12.3081C76.5654 11.7061 76.5791 11.1802 76.6158 10.7304C76.4278 11.4183 76.1965 12.0798 75.9043 12.7282L73.391 18.4437Z" fill="#0C483C"/>
<path d="M89.7017 14.4183L93.3195 7.89893H98.3736L91.282 18.6587L89.876 25.4922H85.3317L86.7279 18.6652L83.9827 7.90556H88.6574L89.7017 14.4183Z" fill="#0C483C"/>
</g>
<defs>
<clipPath id="clip0_597_4274">
<rect width="106" height="32" fill="white"/>
</clipPath>
</defs>
</svg>
