<svg width="20" height="22" viewBox="0 0 20 22" fill="none" xmlns="http://www.w3.org/2000/svg">
<path d="M14.5391 14.9313L13.1593 14.6243L10.7788 17.3499L11.7737 18.0976L14.5391 14.9313ZM19.1995 21.0416L18.5133 18.2921C18.1667 16.9015 17.1841 15.8012 15.8831 15.2894L12.3312 19.3558C12.2083 19.4967 12.0354 19.5693 11.8612 19.5693C11.7309 19.5693 11.5994 19.5284 11.488 19.4443L9.86672 18.226L8.24539 19.4443C8.13394 19.5284 8.00246 19.5693 7.87217 19.5693C7.69744 19.5693 7.52511 19.4967 7.40213 19.3558L3.85029 15.2894C2.5493 15.8012 1.56675 16.9015 1.22004 18.2921L0.533865 21.0416C0.486966 21.2282 0.529013 21.4258 0.647138 21.5771C0.765263 21.7289 0.94667 21.8174 1.13848 21.8174H18.5949C18.7867 21.8174 18.9681 21.7289 19.0862 21.5771C19.2044 21.4258 19.2464 21.2282 19.1995 21.0416ZM5.19432 14.9313L7.95985 18.0976L8.9547 17.3498L6.5742 14.6243L5.19432 14.9313ZM5.08118 6.20386C5.64544 4.40752 7.37464 3.70573 8.61987 3.70573H9.19946L9.57331 4.14975C9.58793 4.16684 11.3559 6.20393 13.6074 6.20393H14.8543C15.2227 6.20393 15.5752 6.28015 15.9009 6.43139C15.9048 6.43322 15.9076 6.43652 15.9114 6.43835L15.8869 6.13924C15.6214 2.97202 13.0332 0.583008 9.86672 0.583008C6.7002 0.583008 4.11207 2.97202 3.846 6.14107L3.82189 6.43652L3.82407 6.43505C4.45147 6.14536 4.95638 6.21427 5.08118 6.20386ZM4.06946 10.9001C4.30388 11.0965 4.58393 11.2002 4.87918 11.2002V7.45296C4.69046 7.45296 4.51756 7.49016 4.35556 7.56518C3.91597 7.77253 3.63226 8.21901 3.63226 8.70206V9.95116C3.63226 10.3079 3.79362 10.6507 4.06946 10.9001ZM15.3779 7.56518C15.2172 7.49079 15.0406 7.45296 14.8543 7.45296V11.2002C15.1538 11.2002 15.4327 11.0941 15.6646 10.9001C15.9422 10.6482 16.1011 10.3024 16.1011 9.95109V8.70199C16.1012 8.21902 15.8156 7.7719 15.3779 7.56518ZM6.29942 13.4073C6.01711 13.1128 5.76188 12.7987 5.5643 12.4493H4.87911C4.32392 12.4493 3.8029 12.263 3.35916 11.9215L3.16953 14.232C3.51983 14.0744 3.87828 13.9423 4.2624 13.8625L6.29942 13.4073ZM14.1691 12.4493C13.9715 12.7988 13.7163 13.1129 13.434 13.4072L15.4983 13.8686C15.8622 13.9436 16.2148 14.0741 16.5637 14.2314L16.3738 11.917C15.9069 12.2687 15.3962 12.4493 14.8541 12.4493H14.1691ZM11.737 14.3558V13.2019L12.0061 13.0159C13.0235 12.3109 13.6074 11.1935 13.6074 9.95109V7.45289C10.7342 7.45289 8.63626 4.97423 8.6198 4.95476C8.51813 4.95476 6.12603 4.98345 6.12603 7.45289V9.95109C6.12603 10.1657 6.16597 10.3699 6.20007 10.5756C6.36664 11.2002 6.37261 11.3639 6.64149 11.8246C6.91036 12.2854 7.26727 12.697 7.72726 13.0158L7.99634 13.2019V14.3558L9.86665 16.4971L11.737 14.3558Z" fill="#0CAD77"/>
</svg>
