<svg width="33" height="33" viewBox="0 0 33 33" fill="none" xmlns="http://www.w3.org/2000/svg">
  <path fill-rule="evenodd" clip-rule="evenodd" d="M16.5115 1.31861C8.13372 1.31861 1.34215 8.1078 1.34215 16.4827C1.34215 24.8576 8.13372 31.6467 16.5115 31.6467C24.8894 31.6467 31.6809 24.8576 31.6809 16.4827C31.6809 8.1078 24.8894 1.31861 16.5115 1.31861ZM0.0230713 16.4827C0.0230713 7.37955 7.40521 0 16.5115 0C25.6179 0 33 7.37955 33 16.4827C33 25.5858 25.6179 32.9654 16.5115 32.9654C7.40521 32.9654 0.0230713 25.5858 0.0230713 16.4827Z" fill="url(#paint0_linear_597_3224)"/>
  <path d="M25.0258 9.52634C24.2845 10.049 23.4638 10.4488 22.5952 10.7102C22.1291 10.1744 21.5095 9.7946 20.8204 9.62223C20.1312 9.44986 19.4058 9.49321 18.7421 9.74644C18.0784 9.99966 17.5085 10.4505 17.1096 11.0381C16.7106 11.6256 16.5017 12.3215 16.5112 13.0315V13.8053C15.1509 13.8406 13.803 13.539 12.5876 12.9274C11.3721 12.3159 10.3268 11.4133 9.5448 10.3001C9.5448 10.3001 6.44861 17.2641 13.415 20.3592C11.8209 21.4409 9.92188 21.9833 7.9967 21.9067C14.9631 25.7756 23.4777 21.9067 23.4777 13.0083C23.4769 12.7928 23.4562 12.5778 23.4157 12.3661C24.2057 11.5873 24.7632 10.604 25.0258 9.52634Z" fill="url(#paint1_linear_597_3224)"/>
  <defs>
  <linearGradient id="paint0_linear_597_3224" x1="16.5115" y1="0" x2="16.5115" y2="32.9654" gradientUnits="userSpaceOnUse">
  <stop stop-color="#4EFFC3"/>
  <stop offset="1" stop-color="#25CE76"/>
  </linearGradient>
  <linearGradient id="paint1_linear_597_3224" x1="16.5112" y1="9.51855" x2="16.5112" y2="23.4029" gradientUnits="userSpaceOnUse">
  <stop stop-color="#4EFFC3"/>
  <stop offset="1" stop-color="#25CE76"/>
  </linearGradient>
  </defs>
</svg>
