<svg width="34" height="33" viewBox="0 0 34 33" fill="none" xmlns="http://www.w3.org/2000/svg">
<path fill-rule="evenodd" clip-rule="evenodd" d="M16.9857 1.31861C8.60784 1.31861 1.81627 8.1078 1.81627 16.4827C1.81627 24.8576 8.60784 31.6467 16.9857 31.6467C25.3635 31.6467 32.155 24.8576 32.155 16.4827C32.155 8.1078 25.3635 1.31861 16.9857 1.31861ZM0.497192 16.4827C0.497192 7.37955 7.87933 0 16.9857 0C26.092 0 33.4741 7.37955 33.4741 16.4827C33.4741 25.5858 26.092 32.9654 16.9857 32.9654C7.87933 32.9654 0.497192 25.5858 0.497192 16.4827Z" fill="url(#paint0_linear_597_3242)"/>
<path d="M24.7784 12.5648C24.6858 12.2201 24.5043 11.9057 24.252 11.6532C23.9997 11.4007 23.6855 11.2188 23.3408 11.1258C22.0719 10.7847 16.9857 10.7847 16.9857 10.7847C16.9857 10.7847 11.8995 10.7847 10.6307 11.124C10.2859 11.2167 9.97148 11.3984 9.71914 11.651C9.46679 11.9036 9.28536 12.2181 9.19308 12.5629C8.85364 13.8331 8.85364 16.4824 8.85364 16.4824C8.85364 16.4824 8.85364 19.1317 9.19308 20.4001C9.38005 21.1005 9.93187 21.6521 10.6307 21.839C11.8995 22.1801 16.9857 22.1801 16.9857 22.1801C16.9857 22.1801 22.0719 22.1801 23.3408 21.839C24.0414 21.6521 24.5915 21.1005 24.7784 20.4001C25.1179 19.1317 25.1179 16.4824 25.1179 16.4824C25.1179 16.4824 25.1179 13.8331 24.7784 12.5648ZM15.3702 18.9139V14.0509L19.5815 16.4643L15.3702 18.9139Z" fill="url(#paint1_linear_597_3242)"/>
<defs>
<linearGradient id="paint0_linear_597_3242" x1="16.9857" y1="0" x2="16.9857" y2="32.9654" gradientUnits="userSpaceOnUse">
<stop stop-color="#FFC702"/>
<stop offset="1" stop-color="#FF8B20"/>
</linearGradient>
<linearGradient id="paint1_linear_597_3242" x1="16.9857" y1="10.7847" x2="16.9857" y2="22.1801" gradientUnits="userSpaceOnUse">
<stop stop-color="#FFC702"/>
<stop offset="1" stop-color="#FF8B20"/>
</linearGradient>
</defs>
</svg>
